<svg xmlns="http://www.w3.org/2000/svg" width="150" height="149.999" viewBox="0 0 150 149.999">
  <g id="complete_icon" data-name="complete icon" transform="translate(-804.729 -906.029)">
    <g id="Group_87" data-name="Group 87" transform="translate(804.729 906.029)">
      <g id="Group_86" data-name="Group 86" transform="translate(30.682 30.682)">
        <path id="Path_508" data-name="Path 508" d="M1019.6,1076.584a44.318,44.318,0,1,0,44.318,44.318A44.317,44.317,0,0,0,1019.6,1076.584Z" transform="translate(-975.286 -1076.584)" fill="#69c908"/>
        <path id="Path_509" data-name="Path 509" d="M1069.395,1244.9l8.356-8.356,14.544,14.546,22.574-22.618,8.407,8.405L1092.3,1267.8Z" transform="translate(-1052.465 -1201.149)" fill="#fff"/>
      </g>
      <path id="Path_510" data-name="Path 510" d="M945.059,944.064l-3.646,2.063a70.884,70.884,0,0,1-96.575,96.591c-.892-.511-1.784-1.046-2.654-1.587a72.19,72.19,0,0,1-11.581-9.1h7.179v-4.188H823.388v14.394h4.188v-7.3a76.353,76.353,0,0,0,12.386,9.747c.923.574,1.858,1.136,2.8,1.677A75.074,75.074,0,0,0,945.059,944.064Zm-115.422-13.13a71.032,71.032,0,0,1,85-11.565c.807.443,1.673.956,2.648,1.569a72.093,72.093,0,0,1,11.59,9.105h-7.2v4.189H936.07V919.838h-4.189v7.282a76.222,76.222,0,0,0-12.364-9.728c-1.046-.657-1.981-1.211-2.837-1.681A75.061,75.061,0,0,0,814.4,1017.991l3.646-2.062A71.072,71.072,0,0,1,829.636,930.934Z" transform="translate(-804.729 -906.029)" fill="#69c908"/>
    </g>
  </g>
</svg>
