<svg xmlns="http://www.w3.org/2000/svg" width="50" height="50" viewBox="0 0 50 50">
  <g id="globe_icon" data-name="globe icon" transform="translate(826 -829)">
    <path id="Path_10" data-name="Path 10" d="M31.882,12.555A18.618,18.618,0,0,1,50.265,31.4,18.618,18.618,0,0,1,31.882,50.246,18.618,18.618,0,0,1,13.5,31.4,18.618,18.618,0,0,1,31.882,12.555ZM17.433,24.516a16.316,16.316,0,0,0-1.423,5.675h5.147a31.436,31.436,0,0,1,.711-5.675Zm5.108,16.209h-3.65A15.841,15.841,0,0,0,25.111,46.1,19.681,19.681,0,0,1,22.542,40.725ZM21.158,32.62H16.011a16.422,16.422,0,0,0,1.423,5.675h4.435A31.547,31.547,0,0,1,21.158,32.62ZM42.6,30.191h5.148a16.521,16.521,0,0,0-1.412-5.675H41.887A30.625,30.625,0,0,1,42.6,30.191Zm-18.937,0h7.033V24.516H24.408A28.173,28.173,0,0,0,23.659,30.191Zm17.563-8.115h3.64A15.853,15.853,0,0,0,38.645,16.7,19.865,19.865,0,0,1,41.223,22.076Zm-8.16-6.761v6.761h5.582C37.3,18.432,35.288,15.985,33.062,15.315ZM40.1,32.62H33.062v5.675h6.284A28.985,28.985,0,0,0,40.1,32.62Zm-.757-8.1H33.062v5.675H40.1A28.89,28.89,0,0,0,39.347,24.516Zm2.54,13.778h4.445a16.629,16.629,0,0,0,1.412-5.675H42.6A30.73,30.73,0,0,1,41.887,38.294ZM25.111,40.725c1.345,3.652,3.364,6.09,5.582,6.761V40.725Zm13.534,0H33.062v6.761C35.288,46.815,37.3,44.377,38.645,40.725Zm2.578,0A19.731,19.731,0,0,1,38.645,46.1a15.778,15.778,0,0,0,6.218-5.372ZM25.111,22.076h5.582V15.315C28.475,15.985,26.455,18.432,25.111,22.076Zm-2.569,0A19.814,19.814,0,0,1,25.111,16.7a15.917,15.917,0,0,0-6.219,5.372Zm1.867,16.218h6.284V32.62H23.659A28.263,28.263,0,0,0,24.408,38.294Z" transform="translate(-832.882 822.599)" fill="#333"/>
    <path id="Path_11" data-name="Path 11" d="M53.407,12.735" transform="translate(-853.227 822.508)" fill="#333"/>
    <path id="Path_12" data-name="Path 12" d="M25,50A25,25,0,1,1,50,25,25.028,25.028,0,0,1,25,50ZM25,.98A24.02,24.02,0,1,0,49.02,25,24.047,24.047,0,0,0,25,.98Z" transform="translate(-826 829)" fill="#333"/>
  </g>
</svg>
