<svg xmlns="http://www.w3.org/2000/svg" width="150" height="149.964" viewBox="0 0 150 149.964">
  <g id="verify_your_email_icon" data-name="verify your email icon" transform="translate(-565 -445.018)">
    <g id="Group_27" data-name="Group 27" transform="translate(565 445.018)">
      <g id="Group_26" data-name="Group 26" transform="translate(0)">
        <g id="Group_4" data-name="Group 4">
          <g id="Group_3" data-name="Group 3">
            <g id="Group_2" data-name="Group 2">
              <path id="Path_3" data-name="Path 3" d="M1688.3,2060.85a1.056,1.056,0,0,1-.022-2.112c1.723-.036,3.462-.135,5.171-.292a1.056,1.056,0,0,1,.193,2.1c-1.757.162-3.547.262-5.318.3Zm-8.4-.29c-.031,0-.064,0-.1,0-1.763-.16-3.542-.387-5.286-.671a1.056,1.056,0,0,1,.34-2.085c1.7.277,3.423.5,5.137.652a1.056,1.056,0,0,1-.094,2.108Zm21.951-1.249a1.056,1.056,0,0,1-.215-2.09c1.684-.351,3.375-.767,5.028-1.237a1.056,1.056,0,1,1,.577,2.032c-1.7.484-3.442.912-5.174,1.273A1.044,1.044,0,0,1,1701.854,2059.311Zm-35.365-1.237a1.066,1.066,0,0,1-.289-.041c-1.7-.482-3.407-1.032-5.072-1.635a1.056,1.056,0,1,1,.72-1.986c1.617.587,3.275,1.121,4.928,1.589a1.057,1.057,0,0,1-.288,2.074Zm48.405-2.775a1.056,1.056,0,0,1-.4-2.033c1.586-.655,3.169-1.376,4.707-2.144a1.057,1.057,0,0,1,.944,1.891c-1.583.789-3.213,1.532-4.845,2.206A1.059,1.059,0,0,1,1714.895,2055.3Zm-61.133-2.15a1.055,1.055,0,0,1-.47-.111c-1.583-.789-3.16-1.646-4.685-2.547a1.056,1.056,0,1,1,1.074-1.819c1.482.876,3.014,1.708,4.553,2.475a1.057,1.057,0,0,1-.472,2Zm73.2-4.2a1.056,1.056,0,0,1-.577-1.941c1.44-.937,2.865-1.938,4.237-2.975a1.056,1.056,0,1,1,1.274,1.685c-1.41,1.067-2.877,2.1-4.359,3.061A1.048,1.048,0,0,1,1726.962,2048.95Zm-84.8-2.991a1.046,1.046,0,0,1-.636-.214c-1.412-1.066-2.8-2.2-4.137-3.361a1.056,1.056,0,0,1,1.389-1.591c1.3,1.132,2.65,2.231,4.021,3.267a1.056,1.056,0,0,1-.638,1.9Zm95.5-5.468a1.056,1.056,0,0,1-.728-1.821c1.246-1.185,2.465-2.431,3.623-3.7a1.056,1.056,0,0,1,1.561,1.424c-1.192,1.307-2.446,2.588-3.728,3.808A1.055,1.055,0,0,1,1737.663,2040.492Zm-105.588-3.722a1.052,1.052,0,0,1-.781-.344c-1.194-1.307-2.354-2.673-3.452-4.059a1.056,1.056,0,1,1,1.657-1.31c1.066,1.347,2.194,2.674,3.354,3.945a1.057,1.057,0,0,1-.779,1.769Zm114.567-6.552a1.056,1.056,0,0,1-.855-1.676c1.009-1.394,1.98-2.843,2.886-4.3a1.056,1.056,0,0,1,1.8,1.114c-.932,1.5-1.931,2.993-2.969,4.428A1.056,1.056,0,0,1,1746.641,2030.217Zm-122.8-4.323a1.056,1.056,0,0,1-.9-.5c-.934-1.5-1.825-3.057-2.648-4.621a1.056,1.056,0,0,1,1.869-.985c.8,1.519,1.666,3.03,2.573,4.49a1.058,1.058,0,0,1-.9,1.614Zm129.746-7.426a1.043,1.043,0,0,1-.45-.1,1.057,1.057,0,0,1-.5-1.406c.736-1.557,1.424-3.16,2.046-4.764a1.056,1.056,0,1,1,1.969.764c-.64,1.651-1.348,3.3-2.1,4.9A1.056,1.056,0,0,1,1753.587,2018.469Zm-135.844-4.776a1.056,1.056,0,0,1-.985-.674c-.641-1.649-1.23-3.344-1.751-5.034a1.056,1.056,0,1,1,2.018-.622c.507,1.642,1.079,3.287,1.7,4.891a1.056,1.056,0,0,1-.6,1.367A1.068,1.068,0,0,1,1617.742,2013.693Zm140.5-8.057a1.04,1.04,0,0,1-.267-.035,1.056,1.056,0,0,1-.756-1.288c.434-1.662.813-3.363,1.127-5.054a1.056,1.056,0,0,1,2.076.386c-.323,1.74-.713,3.491-1.159,5.2A1.057,1.057,0,0,1,1758.247,2005.636ZM1614,2000.572a1.056,1.056,0,0,1-1.037-.863c-.325-1.737-.59-3.509-.791-5.269a1.057,1.057,0,0,1,2.1-.239c.194,1.71.453,3.432.767,5.12a1.056,1.056,0,0,1-.844,1.232A1.068,1.068,0,0,1,1614,2000.572Zm146.448-8.4-.075,0a1.056,1.056,0,0,1-.979-1.128c.12-1.711.181-3.452.181-5.175v-.128a1.056,1.056,0,0,1,1.055-1.057h0a1.057,1.057,0,0,1,1.057,1.055v.129c0,1.774-.062,3.564-.186,5.325A1.056,1.056,0,0,1,1760.453,1992.173Zm-147.7-5.185a1.056,1.056,0,0,1-1.057-1.055v-.065c0-1.75.062-3.519.182-5.258a1.056,1.056,0,1,1,2.107.146c-.116,1.69-.176,3.409-.176,5.112v.065A1.056,1.056,0,0,1,1612.748,1986.988Zm147.4-8.581a1.057,1.057,0,0,1-1.048-.936c-.2-1.71-.456-3.432-.772-5.12a1.056,1.056,0,0,1,2.077-.389c.326,1.736.593,3.509.794,5.269a1.056,1.056,0,0,1-.929,1.17A1.12,1.12,0,0,1,1760.148,1978.406Zm-146.166-5a.989.989,0,0,1-.193-.018,1.056,1.056,0,0,1-.847-1.23c.322-1.741.711-3.49,1.155-5.2a1.056,1.056,0,1,1,2.045.531c-.431,1.663-.81,3.363-1.122,5.054A1.057,1.057,0,0,1,1613.982,1973.4Zm143.365-8.347a1.056,1.056,0,0,1-1.008-.745c-.508-1.642-1.082-3.287-1.706-4.889a1.056,1.056,0,1,1,1.969-.767c.642,1.649,1.233,3.342,1.756,5.032a1.057,1.057,0,0,1-1.01,1.369Zm-139.65-4.783a1.057,1.057,0,0,1-.986-1.437c.639-1.651,1.345-3.3,2.1-4.9a1.056,1.056,0,1,1,1.911.9c-.734,1.557-1.42,3.16-2.041,4.764A1.056,1.056,0,0,1,1617.7,1960.272Zm134.429-7.821a1.057,1.057,0,0,1-.936-.564c-.8-1.518-1.668-3.028-2.577-4.487a1.056,1.056,0,1,1,1.793-1.117c.935,1.5,1.827,3.056,2.652,4.618a1.056,1.056,0,0,1-.933,1.549Zm-128.348-4.4a1.056,1.056,0,0,1-.9-1.612c.931-1.5,1.929-2.995,2.966-4.43a1.056,1.056,0,0,1,1.713,1.237c-1.008,1.4-1.977,2.844-2.882,4.306A1.058,1.058,0,0,1,1623.778,1948.05Zm120.9-7.021a1.054,1.054,0,0,1-.828-.4c-1.068-1.348-2.2-2.673-3.358-3.942a1.056,1.056,0,0,1,1.559-1.426c1.194,1.305,2.356,2.67,3.455,4.055a1.057,1.057,0,0,1-.827,1.713ZM1632,1937.158a1.057,1.057,0,0,1-.781-1.768c1.191-1.308,2.444-2.59,3.724-3.811a1.057,1.057,0,0,1,1.458,1.53c-1.244,1.186-2.462,2.432-3.621,3.7A1.055,1.055,0,0,1,1632,1937.158Zm103.251-6a1.053,1.053,0,0,1-.694-.259c-1.3-1.13-2.651-2.229-4.023-3.264a1.056,1.056,0,1,1,1.272-1.687c1.413,1.065,2.805,2.2,4.139,3.359a1.056,1.056,0,0,1-.695,1.852Zm-93.179-3.2a1.057,1.057,0,0,1-.639-1.9c1.41-1.069,2.876-2.1,4.357-3.065a1.057,1.057,0,0,1,1.154,1.77c-1.439.938-2.864,1.939-4.234,2.978A1.054,1.054,0,0,1,1642.073,1927.954Zm82.11-4.778a1.049,1.049,0,0,1-.535-.146c-1.483-.874-3.016-1.705-4.556-2.471a1.056,1.056,0,0,1,.941-1.891c1.584.787,3.162,1.643,4.688,2.543a1.056,1.056,0,0,1-.537,1.966Zm-70.528-2.424a1.056,1.056,0,0,1-.474-2c1.581-.791,3.21-1.534,4.843-2.21a1.056,1.056,0,0,1,.808,1.952c-1.586.656-3.169,1.38-4.706,2.148A1.049,1.049,0,0,1,1653.655,1920.752Zm58.177-3.388a1.04,1.04,0,0,1-.358-.063c-1.617-.585-3.275-1.118-4.93-1.585a1.057,1.057,0,0,1,.574-2.034c1.7.482,3.409,1.03,5.073,1.631a1.057,1.057,0,0,1-.36,2.051Zm-45.469-1.555a1.057,1.057,0,0,1-.289-2.073c1.7-.486,3.442-.915,5.174-1.277a1.056,1.056,0,1,1,.432,2.068c-1.682.352-3.374.77-5.026,1.241A1.054,1.054,0,0,1,1666.364,1915.809Zm32.265-1.871a1.08,1.08,0,0,1-.17-.013c-1.695-.275-3.423-.494-5.137-.647a1.056,1.056,0,0,1,.189-2.1c1.764.158,3.543.382,5.287.666a1.056,1.056,0,0,1-.168,2.1Zm-18.856-.639a1.056,1.056,0,0,1-.1-2.108c1.757-.163,3.546-.266,5.319-.305a1.056,1.056,0,0,1,.046,2.112c-1.723.038-3.462.138-5.17.3A.9.9,0,0,1,1679.772,1913.3Z" transform="translate(-1611.691 -1910.886)" fill="#5acf91"/>
            </g>
          </g>
          <circle id="Ellipse_1" data-name="Ellipse 1" cx="61.37" cy="61.37" r="61.37" transform="translate(13.63 13.611)" fill="#69c908"/>
        </g>
        <g id="Group_25" data-name="Group 25" transform="translate(30.754 26.54)">
          <g id="Group_7" data-name="Group 7" transform="translate(0)">
            <g id="Group_6" data-name="Group 6">
              <g id="Group_5" data-name="Group 5">
                <path id="Path_4" data-name="Path 4" d="M1736.536,1979.118l-2.177,13.5-.418,2.59c0,2.006-4.286,28.434-6.506,28.434l-35.1-24.256-38.959,27.031c-2.219,0-4.553-28.438-4.553-30.443l-.155-3.355-.621-13.46,6.263-5.412,35.521-30.7a4.359,4.359,0,0,1,5.008,0l35.487,30.7Z" transform="translate(-1648.045 -1942.258)" fill="#2c91bf"/>
              </g>
            </g>
          </g>
          <g id="Group_9" data-name="Group 9" transform="translate(9.997 16.269)">
            <g id="Group_8" data-name="Group 8">
              <rect id="Rectangle_3" data-name="Rectangle 3" width="68.866" height="64.921" fill="#fff"/>
            </g>
          </g>
          <g id="Group_11" data-name="Group 11" transform="translate(0 36.898)">
            <g id="Group_10" data-name="Group 10">
              <path id="Path_5" data-name="Path 5" d="M1692.338,2021.158l-44.293-35.284v59.984h88.491v-59.984Z" transform="translate(-1648.045 -1985.874)" fill="#3fa7d6"/>
            </g>
          </g>
          <g id="Group_13" data-name="Group 13" transform="translate(0 36.898)">
            <g id="Group_12" data-name="Group 12">
              <path id="Path_6" data-name="Path 6" d="M1648.045,1985.874v59.984l37.65-29.992Z" transform="translate(-1648.045 -1985.874)" fill="#5eb8e0"/>
            </g>
          </g>
          <g id="Group_15" data-name="Group 15" transform="translate(50.841 36.898)">
            <g id="Group_14" data-name="Group 14">
              <path id="Path_7" data-name="Path 7" d="M1745.792,1985.874v59.984l-37.65-29.992Z" transform="translate(-1708.142 -1985.874)" fill="#5eb8e0"/>
            </g>
          </g>
          <g id="Group_24" data-name="Group 24" transform="translate(28.09 26.311)">
            <g id="Group_19" data-name="Group 19" transform="translate(2.029 2.029)">
              <g id="Group_18" data-name="Group 18" transform="translate(0)">
                <g id="Group_17" data-name="Group 17">
                  <g id="Group_16" data-name="Group 16">
                    <ellipse id="Ellipse_2" data-name="Ellipse 2" cx="12.474" cy="12.474" rx="12.474" ry="12.474" transform="translate(0 24.625) rotate(-80.783)" fill="#69c908"/>
                  </g>
                </g>
              </g>
            </g>
            <g id="Group_23" data-name="Group 23">
              <g id="Group_22" data-name="Group 22">
                <g id="Group_21" data-name="Group 21">
                  <g id="Group_20" data-name="Group 20">
                    <path id="Path_8" data-name="Path 8" d="M1697.589,2006.038a16.339,16.339,0,1,1,16.339-16.34A16.359,16.359,0,0,1,1697.589,2006.038Zm0-30.836a14.5,14.5,0,1,0,14.5,14.5A14.513,14.513,0,0,0,1697.589,1975.2Z" transform="translate(-1681.249 -1973.359)" fill="#69c908"/>
                  </g>
                </g>
              </g>
            </g>
          </g>
          <path id="Path_9" data-name="Path 9" d="M1697.428,1998.022l-5.193-5.625,2.4-2.215,2.626,2.845,6.523-8.084,2.542,2.05Z" transform="translate(-1654.851 -1948.832)" fill="#fff"/>
        </g>
      </g>
    </g>
  </g>
</svg>
