<?xml version="1.0" encoding="UTF-8"?>
<svg width="27px" height="27px" viewBox="0 0 27 27" version="1.1" xmlns="http://www.w3.org/2000/svg" xmlns:xlink="http://www.w3.org/1999/xlink">
    <!-- Generator: Sketch 52.6 (67491) - http://www.bohemiancoding.com/sketch -->
    <title>Atoms/Icon/add-property</title>
    <desc>Created with Sketch.</desc>
    <defs>
        <path d="M22.1463978,12.3345577 L13.5026953,4.23215762 L4.85548579,12.3379735 C4.88478543,12.391747 4.90122768,12.4522446 4.90122768,12.5162434 L4.90122768,24.7798368 C4.90122768,25.0038511 5.10267857,25.1849691 5.35184152,25.1849691 L9.87388393,25.1849691 L17.1261161,25.1849691 L21.6481585,25.1849691 C21.8973214,25.1849691 22.0987723,25.0038511 22.0987723,24.7798368 L22.0987723,12.5162434 C22.0987723,12.4508859 22.1159202,12.3891797 22.1463978,12.3345577 Z M23,13.134704 L23,24.7798368 C23,25.4518798 22.390346,26 21.6428571,26 L5.35714286,26 C4.60965402,26 4,25.4518798 4,24.7798368 L4,13.1398982 L3.52484338,13.5853057 C3.49789078,13.6098289 3.46554767,13.6294475 3.43320455,13.649066 C3.18524064,13.8501562 2.86719998,13.9580583 2.53837829,13.962963 L2.38205322,13.962963 C1.82682969,13.962963 1.32551136,13.6588753 1.1152811,13.1880299 C0.888879271,12.7073752 1.00208018,12.1531509 1.40097864,11.7803983 L12.5162302,1.36784798 C13.0606726,0.877384005 13.9339368,0.877384005 14.4783793,1.36784798 L25.5990214,11.7803983 C25.9979198,12.1531509 26.1111207,12.7122798 25.8847189,13.1880299 C25.6744886,13.6588753 25.1731703,13.962963 24.6179468,13.962963 L24.4616217,13.962963 C24.1328,13.962963 23.8201499,13.8501562 23.572186,13.6539707 C23.5398429,13.6343521 23.5128903,13.6147335 23.4859377,13.5902103 L23,13.134704 Z M14.2246909,18.077614 L14.2246909,21.9008562 L12.9239096,21.9008562 L12.9239096,18.077614 L9.10066745,18.077614 L9.10066745,16.7768327 L12.9239096,16.7768327 L12.9239096,12.9535906 L14.2246909,12.9535906 L14.2246909,16.7768327 L18.0479331,16.7768327 L18.0479331,18.077614 L14.2246909,18.077614 Z" id="path-1"></path>
    </defs>
    <g id="Atoms/Icon/add-property" stroke="none" stroke-width="1" fill="none" fill-rule="evenodd">
        <mask id="mask-2" fill="white">
            <use xlink:href="#path-1"></use>
        </mask>
        <use id="Combined-Shape" fill="#00BDBB" xlink:href="#path-1"></use>
    </g>
</svg>