<?xml version="1.0" encoding="UTF-8"?>
<svg width="27px" height="27px" viewBox="0 0 27 27" version="1.1" xmlns="http://www.w3.org/2000/svg" xmlns:xlink="http://www.w3.org/1999/xlink">
    <!-- Generator: Sketch 57.1 (83088) - https://sketch.com -->
    <title>Atoms/Icon/app-tips</title>
    <desc>Created with Sketch.</desc>
    <g id="Atoms/Icon/app-tips" stroke="none" stroke-width="1" fill="none" fill-rule="evenodd">
        <path d="M14,2 C7.37566713,2.00743983 2.00743983,7.37566713 2,14 C2,14.316125 2.433875,14.375 2.75,14.375 L13.625,14.375 L13.625,22.25 C13.625,24.36575 15.149375,26 17.26475,26 C19.3829244,25.9979335 21.0996445,24.2815489 21.102125,22.163375 C21.102125,21.8478478 20.8463397,21.5920625 20.5308125,21.5920625 C20.2152853,21.5920625 19.9595,21.8478478 19.9595,22.163375 C19.9576401,23.6506054 18.7523556,24.8557221 17.265125,24.857375 C16.5781829,24.8695027 15.9171101,24.5955402 15.4401193,24.1010543 C14.9631286,23.6065684 14.7131462,22.93606 14.75,22.25 L14.75,14.375 L25.625,14.375 C25.940375,14.375 26,14.31575 26,14 C25.992354,7.37575268 20.6242473,2.00764603 14,2 Z M14,3.119 C19.7390506,3.07764985 24.5116995,7.52493569 24.875,13.252625 L3.125,13.252625 C3.48848346,7.52502227 8.26102283,3.07783844 14,3.119 Z" id="app-tips" fill="#263646" transform="translate(14.000000, 14.000000) scale(-1, 1) translate(-14.000000, -14.000000) "></path>
    </g>
</svg>