<?xml version="1.0" encoding="UTF-8"?>
<svg width="51px" height="32px" viewBox="0 0 51 32" version="1.1" xmlns="http://www.w3.org/2000/svg" xmlns:xlink="http://www.w3.org/1999/xlink">
    <!-- Generator: Sketch 52.6 (67491) - http://www.bohemiancoding.com/sketch -->
    <title>Atoms/Icon/Payment/applepay-white</title>
    <desc>Created with Sketch.</desc>
    <g id="Atoms/Icon/Payment/applepay-white" stroke="none" stroke-width="1" fill="none" fill-rule="evenodd">
        <g id="Apple_Pay_Mark_RGB_052318" transform="translate(0.000000, 0.800000)" fill-rule="nonzero">
            <path d="M46.2988139,0 L4.55411566,0 C4.38025482,0 4.20608675,0 4.03253313,0.000946415094 C3.88583133,0.00192150943 3.73946747,0.00344150943 3.59310362,0.00716981132 C3.27389277,0.0152286792 2.95194759,0.0328090566 2.63673072,0.0856935849 C2.3164753,0.139495849 2.01846325,0.22725434 1.72773253,0.365430943 C1.44191747,0.501112453 1.1802506,0.678579623 0.953484941,0.89034717 C0.72662711,1.10211472 0.536513857,1.34597434 0.39119458,1.61306415 C0.243140965,1.88445585 0.149067471,2.16273057 0.0918307242,2.46191245 C0.0348704833,2.75624755 0.0159144592,3.05672 0.00731204954,3.35438189 C0.00337951942,3.49100981 0.00168976038,3.62763774 0.000737350745,3.76423698 C-0.000276504676,3.92659019 6.1447131e-05,4.08882868 6.1447131e-05,4.25146868 L6.1447131e-05,26.1388377 C6.1447131e-05,26.3014777 -0.000276504676,26.4634294 0.000737350745,26.6260981 C0.00168976038,26.7626974 0.00337951942,26.8993253 0.00731204954,27.0359532 C0.0159144592,27.333357 0.0348704833,27.6338294 0.0918307242,27.9280785 C0.149067471,28.2273751 0.243140965,28.5055351 0.39119458,28.7769555 C0.536513857,29.0440453 0.72662711,29.2882204 0.953484941,29.4996725 C1.1802506,29.7117842 1.44191747,29.8892226 1.72773253,30.02456 C2.01846325,30.1631094 2.3164753,30.2508966 2.63673072,30.3046702 C2.95194759,30.3572106 3.27389277,30.3751064 3.59310362,30.3831653 C3.73946747,30.3862626 3.88583133,30.3880981 4.03253313,30.3887291 C4.20608675,30.3899909 4.38025482,30.3899909 4.55411566,30.3899909 L46.2988139,30.3899909 C46.4723675,30.3899909 46.6465355,30.3899909 46.8200584,30.3887291 C46.9664223,30.3880981 47.1127861,30.3862626 47.2598259,30.3831653 C47.5783608,30.3751064 47.9002446,30.3572106 48.2162295,30.3046702 C48.5360548,30.2508966 48.8341283,30.1631094 49.1248898,30.02456 C49.411012,29.8892226 49.6719108,29.7117842 49.8991374,29.4996725 C50.1256265,29.2882204 50.3157398,29.0440453 50.4614277,28.7769555 C50.6098193,28.5055351 50.7038006,28.2273751 50.7607608,27.9280785 C50.8177518,27.6338294 50.836247,27.333357 50.8448801,27.0359532 C50.8488741,26.8993253 50.8508404,26.7626974 50.8515163,26.6260981 C50.8528681,26.4634294 50.8528681,26.3014777 50.8528681,26.1388377 L50.8528681,4.25146868 C50.8528681,4.08882868 50.8528681,3.92659019 50.8515163,3.76423698 C50.8508404,3.62763774 50.8488741,3.49100981 50.8448801,3.35438189 C50.836247,3.05672 50.8177518,2.75624755 50.7607608,2.46191245 C50.7038006,2.16273057 50.6098193,1.88445585 50.4614277,1.61306415 C50.3157398,1.34597434 50.1256265,1.10211472 49.8991374,0.89034717 C49.6719108,0.678579623 49.411012,0.501112453 49.1248898,0.365430943 C48.8341283,0.22725434 48.5360548,0.139495849 48.2162295,0.0856935849 C47.9002446,0.0328090566 47.5783608,0.0152286792 47.2598259,0.00716981132 C47.1127861,0.00344150943 46.9664223,0.00192150943 46.8200584,0.000946415094 C46.6465355,0 46.4723675,0 46.2988139,0 Z" id="XMLID_96_" fill="#000000"></path>
            <path d="M46.2988139,1.01295094 L46.812347,1.01386868 C46.9514602,1.01478642 47.0905735,1.0161917 47.2304548,1.01974792 C47.4737801,1.02588528 47.7584277,1.03818868 48.0237506,1.08258415 C48.2543873,1.12135849 48.4478187,1.18032302 48.6334464,1.26854038 C48.8167084,1.35546717 48.984609,1.46938113 49.1312187,1.60603774 C49.2783813,1.74361208 49.4005663,1.90060226 49.4949163,2.07356679 C49.5888976,2.24549887 49.6516645,2.42520302 49.692956,2.64207547 C49.7403922,2.88705358 49.7535108,3.15348377 49.7601777,3.38202868 C49.7639259,3.51102792 49.7657693,3.64002717 49.7664452,3.77209509 C49.7677663,3.93180981 49.7677355,4.09143849 49.7677355,4.25146868 L49.7677355,26.1388377 C49.7677355,26.2988679 49.7677663,26.4582098 49.7664145,26.6213374 C49.7657693,26.7503079 49.7639259,26.8793072 49.760147,27.0085358 C49.7535108,27.2367366 49.7403922,27.5030234 49.6923723,27.7508981 C49.6516645,27.9647879 49.5889283,28.1445208 49.4944247,28.3173132 C49.4003512,28.4898475 49.2783506,28.6466657 49.1318331,28.7833796 C48.984394,28.92104 48.8170464,29.0346098 48.631603,29.1223396 C48.4473578,29.2101268 48.2542645,29.269034 48.0259012,29.3074068 C47.7552018,29.3524332 47.4586337,29.3648226 47.2352783,29.3704725 C47.0947518,29.3734264 46.9549012,29.3752045 46.8116404,29.3758355 C46.6409133,29.3770687 46.4695717,29.37704 46.2988139,29.37704 L4.55411566,29.37704 C4.55184217,29.37704 4.54963012,29.37704 4.5473259,29.37704 C4.37853434,29.37704 4.20940482,29.37704 4.03754096,29.3758068 C3.89741386,29.3752045 3.75759398,29.3734551 3.62241325,29.3705872 C3.39395783,29.3648226 3.09720542,29.3524619 2.82871807,29.3076936 C2.59838855,29.269034 2.40529518,29.2101268 2.21862289,29.1211925 C2.03493072,29.034237 1.86770602,28.9207819 1.72020542,28.7828634 C1.57384157,28.6464649 1.45220964,28.4901343 1.35816687,28.3173419 C1.26403193,28.1447215 1.20105,27.9644438 1.15963554,27.7480015 C1.11176928,27.5006143 1.09861988,27.2353887 1.09204518,27.0087366 C1.08829699,26.878963 1.08673012,26.7492181 1.08583916,26.6202189 L1.08516325,26.2393872 L1.08519398,26.1388377 L1.08519398,4.25146868 L1.08516325,4.15091925 L1.08580843,3.77089057 C1.08673012,3.64111698 1.08829699,3.51137208 1.09204518,3.38171321 C1.09861988,3.1548317 1.11176928,2.88949132 1.16003494,2.64003925 C1.20108072,2.42554717 1.26403193,2.24526943 1.35865843,2.07178868 C1.45196386,1.90031547 1.57381084,1.74378415 1.72094277,1.60646792 C1.86749096,1.46961057 2.03526867,1.35584 2.22012831,1.26808151 C2.40480361,1.18029434 2.59826566,1.12135849 2.82859518,1.08267019 C3.09397952,1.03816 3.37881145,1.02588528 3.6227512,1.01971925 C3.76180301,1.0161917 3.90085482,1.01478642 4.03886205,1.01389736 L4.55411566,1.01295094 L46.2988139,1.01295094" id="XMLID_227_" fill="#FFFFFF"></path>
            <g id="XMLID_34_" transform="translate(6.144578, 8.316981)" fill="#000000">
                <g id="XMLID_44_">
                    <path d="M7.22246024,1.94149887 C7.65356386,1.43817811 7.94610723,0.762323019 7.86896205,0.0716981132 C7.23788313,0.101008302 6.46781386,0.460330566 6.02196325,0.964081509 C5.62164398,1.39544604 5.26731687,2.09957887 5.35966988,2.76126642 C6.06807831,2.81862491 6.77584157,2.43073811 7.22246024,1.94149887" id="XMLID_46_"></path>
                    <path d="M7.86091265,2.89046642 C6.8321259,2.83325132 5.95744518,3.43548679 5.4661247,3.43548679 C4.97458916,3.43548679 4.22224699,2.91928906 3.4085512,2.93319849 C2.34947169,2.94771019 1.36676928,3.50669736 0.829303012,4.39572528 C-0.276106627,6.17426868 0.537589157,8.81244377 1.61255241,10.2609464 C2.13459578,10.9775834 2.76370843,11.7666355 3.59270422,11.7382717 C4.37595361,11.7095925 4.68293675,11.2648634 5.63500843,11.2648634 C6.58637349,11.2648634 6.86291024,11.7382717 7.69202892,11.7239321 C8.55183976,11.7095925 9.08936747,11.0069509 9.61141084,10.2896543 C10.2102614,9.47272604 10.4553994,8.68393208 10.4708223,8.64062642 C10.4553994,8.62628679 8.81289217,8.03807547 8.79765361,6.27433057 C8.78213855,4.79752151 10.0872163,4.09508075 10.1486313,4.05151698 C9.4116506,3.03400604 8.2601259,2.91928906 7.86091265,2.89046642" id="XMLID_45_"></path>
                </g>
                <g id="XMLID_35_" transform="translate(13.518072, 0.860377)">
                    <path d="M4.6002,0.0316045283 C6.83621205,0.0316045283 8.39337108,1.47038491 8.39337108,3.56514566 C8.39337108,5.6673917 6.80432169,7.11371472 4.54428434,7.11371472 L2.06857229,7.11371472 L2.06857229,10.7887306 L0.279731928,10.7887306 L0.279731928,0.0316045283 L4.6002,0.0316045283 Z M2.06857229,5.71210264 L4.12098434,5.71210264 C5.67829699,5.71210264 6.56462169,4.92944604 6.56462169,3.57263094 C6.56462169,2.21595925 5.67829699,1.44061585 4.12897229,1.44061585 L2.06857229,1.44061585 L2.06857229,5.71210264 Z" id="XMLID_41_"></path>
                    <path d="M8.83716325,8.5599517 C8.83716325,7.18070943 9.96318795,6.39051019 12.039441,6.27131925 L14.2674651,6.14447094 L14.2674651,5.54817208 C14.2674651,4.67595019 13.6525464,4.19884226 12.5585657,4.19884226 C11.65605,4.19884226 11.0012223,4.63121057 10.8655193,5.29467623 L9.25229096,5.29467623 C9.30034157,3.90060679 10.705791,2.88688151 12.6064627,2.88688151 C14.650856,2.88688151 15.984506,3.8858083 15.984506,5.43629434 L15.984506,10.7887306 L14.3313687,10.7887306 L14.3313687,9.49919698 L14.2914904,9.49919698 C13.8202934,10.3415351 12.7820747,10.8706958 11.65605,10.8706958 C9.99504759,10.8706958 8.83716325,9.94639245 8.83716325,8.5599517 Z M14.2674651,7.86660226 L14.2674651,7.26267472 L12.2789873,7.38200906 C11.1609813,7.44903245 10.5781066,7.83668981 10.5781066,8.51509736 C10.5781066,9.17107774 11.1850066,9.59613283 12.1352657,9.59613283 C13.3490657,9.59613283 14.2674651,8.87284226 14.2674651,7.86660226 Z" id="XMLID_38_"></path>
                    <path d="M17.5042446,13.6662913 L17.5042446,12.3767577 C17.6160759,12.3914415 17.8875127,12.4063834 18.0312036,12.4063834 C18.821888,12.4063834 19.2690596,12.0934928 19.54065,11.2882657 L19.7003783,10.8111577 L16.6736819,2.98378868 L18.5423096,2.98378868 L20.6506373,9.3350083 L20.6905157,9.3350083 L22.7988434,2.98378868 L24.6197277,2.98378868 L21.4812,11.2063004 C20.7624687,13.0922762 19.939894,13.7111457 18.1989506,13.7111457 C18.0632476,13.7111457 17.623941,13.6962038 17.5042446,13.6662913 Z" id="XMLID_36_"></path>
                </g>
            </g>
        </g>
    </g>
</svg>