<?xml version="1.0" encoding="UTF-8"?>
<svg width="51px" height="32px" viewBox="0 0 51 32" version="1.1" xmlns="http://www.w3.org/2000/svg" xmlns:xlink="http://www.w3.org/1999/xlink">
    <!-- Generator: Sketch 52.6 (67491) - http://www.bohemiancoding.com/sketch -->
    <title>Atoms/Icon/Payment/BankTransfer</title>
    <desc>Created with Sketch.</desc>
    <g id="Atoms/Icon/Payment/BankTransfer" stroke="none" stroke-width="1" fill="none" fill-rule="evenodd">
        <g id="iconfinder_bank_trasfer_payment_methods_copy_295564" transform="translate(2.000000, 2.000000)">
            <path d="M45.2273807,27.9686353 L1.41042946,27.9686353 C0.63175848,27.9686353 -1.81882759e-12,27.3505881 -1.81882759e-12,26.5872982 L-1.81882759e-12,1.64939595 C-1.81882759e-12,0.886446143 0.631411169,0.268058824 1.41042946,0.268058824 L45.227728,0.268058824 C46.006399,0.268058824 46.6381575,0.886446143 46.6381575,1.64939595 L46.6381575,26.5872982 C46.6378102,27.350248 46.006399,27.9686353 45.2273807,27.9686353 Z" id="Path" fill="#F5F5F5"></path>
            <g id="Group" transform="translate(3.173228, 7.388235)" fill="#263646">
                <path d="M14.7051496,5.86045882 C15.0995906,3.94611765 15.4777323,2.11310588 15.8627559,0.245811765 C16.8602677,0.245811765 17.8237323,0.202776471 18.7806772,0.262223529 C19.3402835,0.2976 19.7803622,0.624011765 19.9549449,1.21957647 C20.1769764,1.97998824 19.826,2.50662353 19.2229291,2.97709412 C19.811874,3.46178824 20.0444094,4.0362 19.7234961,4.75321176 C19.4076535,5.45672941 18.8368189,5.82107059 18.1058898,5.84951765 C17.0160157,5.89218824 15.9239685,5.86045882 14.7051496,5.86045882 Z M16.452063,3.54530588 C16.3568031,4.00191765 16.271685,4.41257647 16.1630236,4.9352 C16.8370866,4.88815294 17.4253071,4.91769412 17.9715118,4.77801176 C18.2094803,4.71674118 18.3616063,4.31264706 18.552126,4.06391765 C18.3112598,3.89141176 18.090315,3.62189412 17.8255433,3.56755294 C17.4129921,3.48330588 16.9707402,3.54530588 16.452063,3.54530588 Z M16.6755433,2.52887059 C17.170315,2.52887059 17.5788819,2.56752941 17.9758583,2.51865882 C18.3757323,2.46942353 18.7745197,2.27211765 18.7140315,1.79872941 C18.6865039,1.58282353 18.3565354,1.23416471 18.1808661,1.24364706 C17.7317323,1.27027059 17.1112756,0.859247059 16.8530236,1.5872 C16.7552283,1.86291765 16.7400157,2.16890588 16.6755433,2.52887059 Z" id="Shape"></path>
                <path d="M29.7417165,3.80534118 C29.9561417,2.78161176 30.1365197,1.95810588 30.2984252,1.13168235 C30.5008976,0.107588235 30.5034331,0.0999294118 31.6403937,0.296870588 C31.4831969,1.04925882 31.3249134,1.79945882 31.172063,2.55075294 C30.9826299,3.48257647 30.8196378,4.42096471 30.5947087,5.3444 C30.5443622,5.55082353 30.3031339,5.82325882 30.1129764,5.85827059 C29.7677953,5.92209412 29.3581417,6.01035294 29.1650866,5.47350588 C28.8036063,4.46764706 28.3754803,3.48658824 27.8535433,2.51209412 C27.6775118,3.35055294 27.5040157,4.19010588 27.3236378,5.02783529 C27.1164567,5.98774118 27.1128346,5.98737647 26.002315,5.79918824 C26.2486142,4.57596471 26.4938268,3.35383529 26.7415748,2.1328 C26.8328504,1.68749412 26.9255748,1.24255294 27.0230079,0.799435294 C27.0853071,0.513870588 27.0675591,0.1736 27.5286457,0.207152941 C27.9234488,0.236694118 28.3146299,0.116705882 28.5062362,0.679447059 C28.8477953,1.67545882 29.2755591,2.64083529 29.7417165,3.80534118 Z" id="Path"></path>
                <path d="M17.389811,11.3281294 C17.2036378,12.1884706 17.0178268,13.0484471 16.8320157,13.9091529 C16.6320787,14.8366 16.6320787,14.8366 15.5548819,14.6338235 C15.7946614,13.4317529 16.0333543,12.2296824 16.2734961,11.0279765 C16.3586142,10.6038235 16.4259843,10.1745647 16.5415276,9.75916471 C16.6230236,9.46521176 16.5284882,9.03741176 17.0873701,9.05090588 C17.5480945,9.06294118 17.8860315,9.083 18.0700315,9.62276471 C18.4028976,10.5950706 18.8219685,11.5371059 19.2797953,12.6786353 C19.4967559,11.6450588 19.6807559,10.8120706 19.8451969,9.97543529 C20.0444094,8.95936471 20.0650551,8.94003529 21.1654331,9.15484706 C20.8550236,10.6731176 20.5438898,12.1913882 20.2327559,13.7096588 C20.2030551,13.8577294 20.209937,14.0280471 20.1360472,14.1502235 C20.0114488,14.3566471 19.8600472,14.6604471 19.6771339,14.6954588 C19.3084094,14.7658471 18.8875276,14.8460824 18.690126,14.2789647 C18.3424094,13.2807647 17.9160945,12.3110118 17.5231024,11.3284941 C17.4785512,11.3288588 17.4336378,11.3288588 17.389811,11.3281294 Z" id="Path"></path>
                <path d="M9.46006299,14.6243412 C8.27022047,14.8621294 8.21770079,14.8358706 7.84354331,13.8854471 C7.75588976,13.6644353 7.67004724,13.4419647 7.57297638,13.2249647 C7.23322835,12.4656471 7.02170079,12.3467529 6.12777953,12.4262588 C6.02925984,12.8715647 5.92059843,13.33 5.82823622,13.7909882 C5.61888189,14.8351412 5.61851969,14.8384235 4.42867717,14.6382 C4.61050394,13.7556118 4.79305512,12.8755765 4.97379528,11.9948118 C5.14475591,11.1683882 5.33056693,10.3456118 5.47544882,9.51517647 C5.53593701,9.16542353 5.68480315,9.04798824 6.02998425,9.05783529 C6.78264567,9.07862353 7.53711811,9.05637647 8.29014173,9.06549412 C9.25722835,9.07752941 9.72302362,9.42983529 9.88130709,10.2478706 C10.042126,11.0746588 9.62088189,11.8606 8.83743307,12.1913882 C8.70124409,12.2490118 8.55925984,12.2898588 8.39228346,12.3489412 C8.75122835,13.1144588 9.10111811,13.8595529 9.46006299,14.6243412 Z M6.35669291,11.5980118 C6.98040945,11.5206941 7.56935433,11.5294471 8.09092913,11.346 C8.33722835,11.2588353 8.52811024,10.8142588 8.58714961,10.5013412 C8.60634646,10.3963059 8.1496063,10.0841176 7.89425197,10.0626 C6.59502362,9.95391765 6.59212598,9.97725882 6.35814173,11.2446118 C6.34691339,11.3047882 6.35669291,11.3697059 6.35669291,11.5980118 Z" id="Shape"></path>
                <path d="M40.186252,12.3722824 C40.5567874,13.1611412 40.8936378,13.8763294 41.2373701,14.6072 C40.1004094,14.8843765 40.0044252,14.8376941 39.6273701,13.8967529 C39.5397165,13.6764706 39.4386614,13.4605647 39.3578898,13.2366353 C39.1181102,12.5743294 38.682378,12.2563059 37.9141417,12.4284471 C37.8159843,12.8613529 37.7026142,13.3176 37.6084409,13.7782235 C37.4041575,14.7928353 37.4074173,14.7939294 36.2125039,14.6666471 C36.4041102,13.6983529 36.5917323,12.7358941 36.7869606,11.7752588 C36.9311181,11.0556941 37.1067874,10.3412353 37.2284882,9.61765882 C37.2976693,9.20517647 37.456315,9.03048235 37.8978425,9.05382353 C38.6052283,9.09175294 39.3162362,9.05892941 40.0250709,9.06512941 C41.030189,9.07315294 41.5072126,9.42545882 41.6647717,10.2642824 C41.8219685,11.0947176 41.4065197,11.8547647 40.6078583,12.1975882 C40.4742047,12.2552118 40.3391024,12.3084588 40.186252,12.3722824 Z M38.0717008,11.5834235 C38.7113543,11.5188706 39.2850866,11.5509647 39.7856535,11.3751765 C40.0587559,11.2796235 40.3423622,10.8463529 40.3800315,10.5352588 C40.4343622,10.0943294 39.9971811,10.0487412 39.6414961,10.0443647 C39.2390866,10.0399882 38.8377638,10.0436353 38.4027559,10.0436353 C38.2940945,10.5494824 38.1970236,11.0028118 38.0717008,11.5834235 Z" id="Shape"></path>
                <path d="M31.5125354,5.79845882 C31.8747402,4.0424 32.217748,2.32645882 32.585748,0.616717647 C32.688252,0.138223529 32.7896693,0.126188235 33.8911339,0.281552941 C33.7650866,0.950788235 33.6386772,1.61747059 33.4745984,2.49203529 C34.1508346,1.84905882 34.7644094,1.36582353 35.2530236,0.776094118 C35.862252,0.0419411765 36.5935433,0.219917647 37.536,0.242164706 C36.6199843,1.07114118 35.8466772,1.77210588 35.0422205,2.49969412 C35.632252,3.59417647 36.2128661,4.66932941 36.7996378,5.75615294 C35.699622,6.06943529 35.4844724,5.97825882 35.0273701,5.07634118 C34.745937,4.51907059 34.4529134,3.96763529 34.1439528,3.37243529 C33.5390709,3.79914118 33.0327087,4.18755294 32.9287559,4.97787059 C32.7958268,5.98190588 32.7067244,6.00087059 31.5125354,5.79845882 Z" id="Path"></path>
                <path d="M32.1655906,9.10269412 C33.5789134,9.10269412 34.9237795,9.10269412 36.265748,9.10269412 C36.2918268,10.0064353 36.2606772,10.0407176 35.4565827,10.0429059 C35.048378,10.0436353 34.6394488,10.0429059 34.2312441,10.0429059 C33.1207244,10.0432706 33.1207244,10.0432706 32.9881575,11.2814471 C33.9070709,11.2814471 34.818378,11.2814471 35.7322205,11.2814471 C35.6869449,12.2519294 35.6869449,12.2519294 34.8310551,12.2522941 C34.146126,12.2522941 33.4615591,12.2522941 32.734252,12.2522941 C32.6237795,12.7501176 32.5227244,13.206 32.4031969,13.7454 C33.4876378,13.7454 34.5065197,13.7454 35.5235906,13.7454 C35.5228661,14.7213529 35.5228661,14.7220824 34.652126,14.7224471 C33.4749606,14.7228118 32.2970709,14.7224471 31.0152283,14.7224471 C31.2202362,13.7231529 31.4093071,12.8015412 31.5987402,11.8795647 C31.784189,10.9710824 31.9703622,10.0622353 32.1655906,9.10269412 Z" id="Path"></path>
                <path d="M25.2579843,5.79043529 C24.1594173,6.00342353 24.1394961,5.99831765 23.9732441,5.05008235 C23.9145669,4.71564706 23.7758425,4.54277647 23.4201575,4.57961176 C23.2502835,4.59748235 23.0735276,4.60441176 22.9058268,4.57888235 C22.1368661,4.46108235 21.6011654,4.68902353 21.3128504,5.47861176 C21.0567717,6.17921176 20.4457323,5.79408235 19.8767087,5.8838 C19.9853701,5.63324706 20.0454961,5.45855294 20.1345984,5.29954118 C20.9980945,3.75245882 21.8963622,2.22288235 22.7207402,0.655011765 C23.063748,0.00109411765 23.5907559,0.247635294 24.0619843,0.222835294 C24.5839213,0.195117647 24.4455591,0.680176471 24.4908346,0.944223529 C24.7686457,2.55695294 25.0069764,4.17661176 25.2579843,5.79043529 Z M23.4342835,1.62111765 C23.031874,2.37095294 22.7218268,2.94864706 22.400189,3.54749412 C22.8898898,3.54749412 23.2857795,3.54749412 23.7294803,3.54749412 C23.6338583,2.92348235 23.5476535,2.35417647 23.4342835,1.62111765 Z" id="Shape"></path>
                <path d="M26.1232913,10.5939765 C25.5991811,10.7194353 25.1591024,10.8525529 24.7813228,10.2402118 C24.6397008,10.0097176 24.1000157,9.97142353 23.7385354,9.96011765 C23.5795276,9.95501176 23.3082362,10.2172353 23.2767244,10.3933882 C23.2455748,10.5615176 23.410378,10.8510941 23.5722835,10.9546706 C23.9685354,11.2077765 24.4140472,11.3846588 24.84,11.5910824 C25.4745827,11.8992588 25.8769921,12.369 25.8241102,13.1162824 C25.7715906,13.8591882 25.3579528,14.3883765 24.6972913,14.6542471 C23.8435748,14.9981647 22.9634173,14.9544 22.1321575,14.5462941 C21.9122992,14.4383412 21.666,14.2428588 21.5852283,14.0291412 C21.4874331,13.7727529 21.4925039,13.2165765 21.559874,13.2001647 C21.9108504,13.1071647 22.3288346,12.8781294 22.6026614,13.4284706 C22.8840945,13.9930353 24.0565512,14.0481059 24.4604094,13.5572118 C24.7708189,13.1793765 24.5770394,12.8989176 24.2459843,12.7074471 C23.8370551,12.4703882 23.3908189,12.3000706 22.9746457,12.0735882 C22.2183622,11.6629294 21.9311339,11.0925294 22.0608031,10.3186235 C22.1734488,9.64245882 22.7138583,9.12457647 23.4643465,8.97030588 C24.8352913,8.68948235 25.9479843,9.27957647 26.1577008,10.3992235 C26.1642205,10.4378824 26.1432126,10.4812824 26.1232913,10.5939765 Z" id="Path"></path>
                <path d="M9.58973228,14.6411176 C9.65674016,14.4799176 9.7063622,14.3183529 9.78640945,14.1750235 C10.6625827,12.6133529 11.5709921,11.0695529 12.4091339,9.48818824 C12.7575748,8.82989412 13.292189,9.08810588 13.7550866,9.10305882 C13.892,9.10816471 14.0894016,9.52210588 14.1325039,9.77083529 C14.413937,11.3839294 14.6605984,13.0032235 14.9174016,14.6159529 C13.8963465,14.8683294 13.844189,14.8336824 13.6286772,13.8449647 C13.601874,13.7213294 13.5464567,13.5061529 13.4917638,13.5021412 C12.8962992,13.4576471 12.296126,13.4058588 11.7042835,13.4514471 C11.5224567,13.4656706 11.3199843,13.7464941 11.1997323,13.9485412 C10.6777953,14.8318588 10.6662047,14.8468118 9.58973228,14.6411176 Z M12.0357008,12.4080235 C12.5453228,12.4080235 12.9451969,12.4080235 13.4012126,12.4080235 C13.3055906,11.7763529 13.2175748,11.1920941 13.1049291,10.4455412 C12.7115748,11.1676588 12.3964567,11.7464471 12.0357008,12.4080235 Z" id="Shape"></path>
                <path d="M27.4913386,9.09467059 C28.8467087,9.09467059 30.1082677,9.09467059 31.3680157,9.09467059 C31.405685,9.98637647 31.3604094,10.0407176 30.5856535,10.0432706 C30.1774488,10.0443647 29.7634488,10.0844824 29.3610394,10.0337882 C28.7195748,9.95318824 28.3848976,10.1800353 28.3722205,10.8478118 C28.3685984,11.0122941 28.3305669,11.1760471 28.2972441,11.4167529 C29.1857323,11.4167529 30.0148189,11.4167529 30.8417323,11.4167529 C30.8602047,12.3507647 30.8334016,12.3814 30.0253228,12.3832235 C29.4026929,12.3839529 28.7807874,12.3832235 28.0719528,12.3832235 C27.9665512,12.8657294 27.8589764,13.3402118 27.7622677,13.8176118 C27.5550866,14.8252941 27.5018425,14.8599412 26.3522047,14.6279882 C26.729622,12.7942471 27.1074016,10.9612353 27.4913386,9.09467059 Z" id="Path"></path>
                <path d="M0.893559055,14.6396588 C1.20179528,13.1181059 1.50097638,11.6406824 1.82152756,10.0607765 C1.26373228,10.0607765 0.785259843,10.0607765 0.30823622,10.0607765 C0.30896063,9.06549412 0.30896063,9.0644 1.16195276,9.06403529 C2.36193701,9.06330588 3.56228346,9.06403529 4.75828346,9.06403529 C4.7995748,10.0097176 4.76806299,10.0793765 3.91615748,10.0308706 C3.29497638,9.99622353 2.99941732,10.1559647 2.91031496,10.8361412 C2.78173228,11.8193882 2.51768504,12.7851294 2.31593701,13.7588941 C2.09426772,14.8351412 2.07724409,14.8482706 0.893559055,14.6396588 Z" id="Path"></path>
                <path d="M6.37262992,0.812929412 C4.43555906,0.813658824 2.49812598,0.820952941 0.561417323,0.802352941 C0.375244094,0.800529412 0.19088189,0.640423529 0.00507086614,0.553258824 C0.183637795,0.482870588 0.361480315,0.351211765 0.540409449,0.350482353 C4.45729134,0.338447059 8.37453543,0.338082353 12.2914173,0.351211765 C12.4884567,0.351576471 12.6844094,0.491988235 12.8807244,0.567482353 C12.6909291,0.649176471 12.5025827,0.7998 12.3124252,0.800894118 C10.3326142,0.8184 8.35280315,0.811835294 6.37262992,0.812929412 Z" id="Path"></path>
                <path d="M5.50297638,3.15361176 C3.84733858,3.15470588 2.19061417,3.16127059 0.535338583,3.14449412 C0.358944882,3.14230588 0.183637795,3.00481176 0.00724409449,2.93077647 C0.175669291,2.84871765 0.344094488,2.69590588 0.512519685,2.69517647 C3.82415748,2.68131765 7.13579528,2.68168235 10.4467087,2.69590588 C10.6115118,2.69663529 10.7752283,2.85528235 10.9389449,2.93952941 C10.7614646,3.01064706 10.5843465,3.14157647 10.4057795,3.14376471 C8.77151181,3.15981176 7.13724409,3.15324706 5.50297638,3.15361176 Z" id="Path"></path>
                <path d="M4.43229921,5.15912941 C5.74275591,5.15912941 7.0535748,5.15074118 8.3640315,5.16934118 C8.53535433,5.17225882 8.70414173,5.31595294 8.87510236,5.39472941 C8.70124409,5.47058824 8.52811024,5.61136471 8.35425197,5.61318824 C5.73333858,5.62704706 3.11170079,5.62668235 0.491149606,5.61391765 C0.331779528,5.61318824 0.173133858,5.48554118 0.0141259843,5.41734118 C0.176755906,5.33163529 0.337212598,5.17298824 0.500929134,5.17043529 C1.81138583,5.14964706 3.12184252,5.15876471 4.43229921,5.15912941 Z" id="Path"></path>
            </g>
        </g>
    </g>
</svg>