<?xml version="1.0" encoding="UTF-8"?>
<svg width="27px" height="27px" viewBox="0 0 27 27" version="1.1" xmlns="http://www.w3.org/2000/svg" xmlns:xlink="http://www.w3.org/1999/xlink">
    <title>Atoms/Icon/basket</title>
    <g id="Atoms/Icon/basket" stroke="none" stroke-width="1" fill="none" fill-rule="evenodd">
        <path d="M19.0371259,2 L19.0371259,3.58201318 L19.2679824,3.58201318 C20.894614,3.58201318 22.3360711,4.55787514 22.9402015,6.06820102 L22.9402015,6.06820102 L25.1097527,11.4921322 L25.1097527,11.4921322 L27,11.4921322 L27,13.0741454 L25.8621503,13.0741454 C25.4862174,13.0741454 25.1260259,13.3373357 25.0420008,13.67333 L25.0420008,13.67333 L22.4770526,23.9328567 C22.2124797,24.9912016 21.2658138,25.7303572 20.1749224,25.7303572 L20.1749224,25.7303572 L6.82502437,25.7303572 C5.72089107,25.7303572 4.73056401,24.9743965 4.47013916,23.9328567 L4.47013916,23.9328567 L1.90524419,13.67333 C1.81707094,13.3205306 1.50144474,13.0741986 1.13784974,13.0741454 L1.13784974,13.0741454 L0,13.0741454 L0,11.4921322 L0,11.4921322 L1.83749224,11.4921322 L4.00709664,6.06820102 C4.60192041,4.58111502 6.0988448,3.58201318 7.73201761,3.58201318 L7.73201761,3.58201318 L7.96287411,3.58201318 L7.96287411,2 L19.0371259,2 Z M23.573262,13.0736668 L3.37483381,13.0736668 C3.39961592,13.14445 3.42163264,13.2162437 3.43997991,13.2896859 L3.43997991,13.2896859 L6.00487488,23.5492126 C6.08890005,23.885207 6.44914468,24.1483972 6.82502437,24.1483972 L6.82502437,24.1483972 L20.1749224,24.1483972 C20.5385706,24.1483972 20.8540905,23.902012 20.9423169,23.5492126 L20.9423169,23.5492126 L23.507265,13.2896859 C23.5255591,13.2162969 23.5478949,13.1445564 23.573262,13.0736668 L23.573262,13.0736668 Z M14.29098,14.6562118 L14.29098,22.5663308 L12.7089668,22.5663308 L12.7089668,14.6562118 L14.29098,14.6562118 Z M19.0370195,14.6562118 L19.0370195,22.5663308 L17.4550064,22.5663308 L17.4550064,14.6562118 L19.0370195,14.6562118 Z M9.54488729,14.6562118 L9.54488729,22.5663308 L7.96287411,22.5663308 L7.96287411,14.6562118 L9.54488729,14.6562118 Z M7.96287411,5.16402635 L7.73201761,5.16402635 C6.73951015,5.16402635 5.832836,5.76353 5.47599492,6.65573906 L5.47599492,6.65573906 L3.5413951,11.4921322 L23.4057967,11.4921322 L21.47125,6.65573906 C21.1087718,5.74959671 20.2439507,5.16402635 19.2679292,5.16402635 L19.2679292,5.16402635 L19.0370727,5.16402635 L19.0370727,6.74603953 L7.96287411,6.74603953 L7.96287411,5.16402635 Z M17.4550064,3.58201318 L9.54488729,3.58201318 L9.54488729,5.16402635 L17.4550064,5.16402635 L17.4550064,3.58201318 Z" id="Combined-Shape" fill="#00BDBB"></path>
    </g>
</svg>