<svg viewBox="0 0 20 20" version="1.1" xmlns="http://www.w3.org/2000/svg" xmlns:xlink="http://www.w3.org/1999/xlink"><!-- Generator: Sketch 53.2 (72643) - https://sketchapp.com --><desc>Created with Sketch.</desc><g id="Page-1" stroke="none" stroke-width="1" fill="none" fill-rule="evenodd" stroke-linecap="round" stroke-linejoin="round"><g id="01_Home" transform="translate(-313.000000, -1369.000000)" stroke="#1A2B50" stroke-width="0.5"><g id="top-hotel" transform="translate(134.000000, 829.000000)"><g id="h1-g" transform="translate(0.000000, 109.000000)"><g id="metadata" transform="translate(21.000000, 409.000000)"><g id="bathroom-tub-towel" transform="translate(158.000000, 22.000000)"><path d="M10.625,11.875 L19.375,11.875 L18.8216667,15.1966667 C18.4199536,17.6079348 16.3336681,19.3752326 13.8891667,19.375 L6.11083333,19.375 C3.66633185,19.3752326 1.5800464,17.6079348 1.17833333,15.1966667 L0.625,11.875 L4.375,11.875" id="Shape"/><path d="M10,16.875 L5,16.875 C4.65482203,16.875 4.375,16.595178 4.375,16.25 L4.375,11.875 C4.375,11.1846441 4.93464406,10.625 5.625,10.625 L9.375,10.625 C10.0653559,10.625 10.625,11.1846441 10.625,11.875 L10.625,16.25 C10.625,16.595178 10.345178,16.875 10,16.875 Z" id="Shape"/><path d="M13.125,3.125 C13.125,1.74428813 14.2442881,0.625 15.625,0.625 C17.0057119,0.625 18.125,1.74428813 18.125,3.125 L18.125,11.875" id="Shape"/><path d="M10.625,5.625 C10.625,4.24428813 11.7442881,3.125 13.125,3.125 C14.5057119,3.125 15.625,4.24428813 15.625,5.625 L10.625,5.625 Z" id="Shape"/></g></g></g></g></g></g></svg>