<?xml version="1.0" encoding="UTF-8"?>
<svg width="370px" height="209px" viewBox="0 0 370 209" version="1.1" xmlns="http://www.w3.org/2000/svg" xmlns:xlink="http://www.w3.org/1999/xlink">
    <!-- Generator: Sketch 52.6 (67491) - http://www.bohemiancoding.com/sketch -->
    <title>Atoms/Scenery/bookings</title>
    <desc>Created with Sketch.</desc>
    <defs>
        <polygon id="path-1" points="0 209.919998 369.169737 209.919998 369.169737 0.273059998 0 0.273059998"></polygon>
    </defs>
    <g id="Mobile" stroke="none" stroke-width="1" fill="none" fill-rule="evenodd">
        <g id="05.0-Trips-empty" transform="translate(-3.000000, -368.000000)">
            <g id="Atoms/Scenery/bookings" transform="translate(3.000000, 368.000000)">
                <g id="bg" transform="translate(0.000000, 0.820000)" stroke="#42BFB8">
                    <path d="M247.229998,37.7691997 L264.449998,37.7691997" id="Path" stroke-width="0.819999993"></path>
                    <path d="M53.0949995,87.5759992 C53.0949995,90.0359992 48.6259996,96.1449992 48.6259996,96.1449992 C48.6259996,96.1449992 44.1487996,90.0441992 44.1487996,87.5759992 C44.0784044,85.9322285 44.9152417,84.3822799 46.328213,83.5393981 C47.7411843,82.6965162 49.5026148,82.6965162 50.9155861,83.5393981 C52.3285574,84.3822799 53.1653948,85.9322285 53.0949995,87.5759992 Z" id="Path" stroke-width="0.819999993"></path>
                    <path d="M50.0937996,87.5759992 C50.0937903,88.1737297 49.7332808,88.7124444 49.18073,88.9404123 C48.6281792,89.1683803 47.9926871,89.0405898 47.5712068,88.6167548 C47.1497265,88.1929198 47.0254783,87.5567257 47.2565209,87.0054535 C47.4875636,86.4541813 48.0282783,86.0966785 48.6259996,86.0999992 C49.0167093,86.0999932 49.391298,86.255761 49.6668008,86.532803 C49.9423037,86.8098449 50.0959823,87.1852957 50.0937996,87.5759992 Z" id="Path" stroke-width="0.819999993"></path>
                    <path d="M299.603397,82.2787993 C299.603397,84.7387993 295.126197,90.8559992 295.126197,90.8559992 C295.126197,90.8559992 290.648997,84.7469993 290.648997,82.2787993 C290.648997,79.80611 292.653508,77.8015993 295.126197,77.8015993 C297.598887,77.8015993 299.603397,79.80611 299.603397,82.2787993 Z" id="Path" stroke-width="0.819999993"></path>
                    <path d="M296.593997,82.2787993 C296.589475,83.08836 295.930329,83.7414001 295.120761,83.7383891 C294.311194,83.7353781 293.656924,83.0774532 293.658423,82.2678812 C293.659922,81.4583093 294.316624,80.8028119 295.126197,80.8027993 C295.516907,80.8027932 295.891496,80.9585611 296.166999,81.235603 C296.442502,81.512645 296.59618,81.8880957 296.593997,82.2787993 Z" id="Path" stroke-width="0.819999993"></path>
                    <path d="M348.335997,78.4001993 C348.335997,80.8601993 343.866997,86.9773992 343.866997,86.9773992 C343.866997,86.9773992 339.389797,80.8683993 339.389797,78.4001993 C339.319402,76.7564286 340.156239,75.20648 341.56921,74.3635982 C342.982182,73.5207163 344.743612,73.5207163 346.156584,74.3635982 C347.569555,75.20648 348.406392,76.7564286 348.335997,78.4001993 Z" id="Path" stroke-width="0.819999993"></path>
                    <path d="M345.359397,78.4001993 C345.359388,78.9979298 344.998878,79.5366445 344.446327,79.7646124 C343.893777,79.9925804 343.258285,79.8647898 342.836804,79.4409549 C342.415324,79.0171199 342.291076,78.3809258 342.522118,77.8296536 C342.753161,77.2783814 343.293876,76.9208786 343.891597,76.9241993 C344.282307,76.9241932 344.656895,77.0799611 344.932398,77.3570031 C345.207901,77.634045 345.36158,78.0094957 345.359397,78.4001993 Z" id="Path" stroke-width="0.819999993"></path>
                    <path d="M71.2825994,63.0989994 C73.6519437,65.4731795 73.6493306,69.318164 71.2767614,71.6891213 C68.9041921,74.0600787 65.0592067,74.0600787 62.6866375,71.6891213 C60.3140682,69.318164 60.3114551,65.4731795 62.6807995,63.0989994 C63.8195874,61.9547906 65.3673724,61.3115232 66.9816994,61.3115232 C68.5960264,61.3115232 70.1438115,61.9547906 71.2825994,63.0989994 Z" id="Path" stroke-width="0.819999993"></path>
                    <circle id="Oval" stroke-width="0.819999993" cx="66.9857994" cy="67.3957994" r="4.29679996"></circle>
                    <path d="M71.2825994,71.6925994 C70.8230172,72.1553211 70.2912854,72.5402728 69.7081994,72.8323994 L77.5637993,80.6797993 C77.9211835,81.0413645 78.4084167,81.2448449 78.9167993,81.2448449 C79.4251819,81.2448449 79.9124151,81.0413645 80.2697993,80.6797993 C80.6313645,80.3224151 80.8348449,79.8351819 80.8348449,79.3267993 C80.8348449,78.8184167 80.6313645,78.3311835 80.2697993,77.9737993 L72.4223994,70.1181994 C72.1302728,70.7012854 71.7453211,71.2330172 71.2825994,71.6925994 Z" id="Path" stroke-width="0.819999993"></path>
                    <path d="M93.0699992,65.0505994 L93.0699992,71.2169994 C93.0699992,72.8699876 94.4100109,74.2099994 96.0629992,74.2099994 L108.428599,74.2099994 L111.364199,76.6699993 L111.364199,65.0505994 C111.364199,63.3976112 110.024187,62.0575995 108.371199,62.0575995 L96.0793992,62.0575995 C95.2827685,62.0532343 94.5172673,62.3666392 93.9524189,62.9284094 C93.3875705,63.4901796 93.0699872,64.2539568 93.0699992,65.0505994 Z" id="Path" stroke-width="0.819999993"></path>
                    <path d="M96.2843992,69.8311994 L108.190799,69.8311994" id="Path" stroke-width="0.819999993"></path>
                    <path d="M96.2843992,66.5511994 L108.190799,66.5511994" id="Path" stroke-width="0.819999993"></path>
                    <rect id="Rectangle" stroke-width="0.819999993" x="135.824799" y="57.2605995" width="8.60999992" height="27.0599998"></rect>
                    <path d="M137.513999,59.8927995 L142.737399,59.8927995" id="Path" stroke-width="0.819999993"></path>
                    <path d="M137.513999,62.3527995 L142.737399,62.3527995" id="Path" stroke-width="0.819999993"></path>
                    <path d="M137.513999,64.8127994 L142.737399,64.8127994" id="Path" stroke-width="0.819999993"></path>
                    <path d="M137.513999,67.2727994 L142.737399,67.2727994" id="Path" stroke-width="0.819999993"></path>
                    <path d="M137.513999,69.7327994 L142.737399,69.7327994" id="Path" stroke-width="0.819999993"></path>
                    <path d="M137.513999,72.1927994 L142.737399,72.1927994" id="Path" stroke-width="0.819999993"></path>
                    <path d="M137.513999,74.6527993 L142.737399,74.6527993" id="Path" stroke-width="0.819999993"></path>
                    <path d="M137.513999,77.1127993 L142.737399,77.1127993" id="Path" stroke-width="0.819999993"></path>
                    <path d="M137.513999,79.5727993 L142.737399,79.5727993" id="Path" stroke-width="0.819999993"></path>
                    <rect id="Rectangle" stroke-width="0.819999993" x="144.434799" y="69.8311994" width="11.8161999" height="14.4893999"></rect>
                    <rect id="Rectangle" stroke-width="0.819999993" x="146.804599" y="71.9385994" width="2.14839998" height="2.15659998"></rect>
                    <rect id="Rectangle" stroke-width="0.819999993" x="151.724599" y="71.9385994" width="2.14839998" height="2.15659998"></rect>
                    <rect id="Rectangle" stroke-width="0.819999993" x="146.804599" y="76.0385993" width="2.14839998" height="2.14839998"></rect>
                    <rect id="Rectangle" stroke-width="0.819999993" x="151.724599" y="76.0385993" width="2.14839998" height="2.14839998"></rect>
                    <rect id="Rectangle" stroke-width="0.819999993" x="146.804599" y="80.1385993" width="2.14839998" height="2.14839998"></rect>
                    <rect id="Rectangle" stroke-width="0.819999993" x="151.724599" y="80.1385993" width="2.14839998" height="2.14839998"></rect>
                    <path d="M147.329399,69.8311994 L147.329399,59.8927995" id="Path" stroke-width="0.819999993"></path>
                    <path d="M150.338799,69.8311994 L150.338799,64.8127994" id="Path" stroke-width="0.819999993"></path>
                    <path d="M135.824799,84.3205993 L120.064399,84.3205993" id="Path" stroke-width="0.819999993"></path>
                    <path d="M156.242799,84.3205993 L160.752799,84.3205993" id="Path" stroke-width="0.819999993"></path>
                    <path d="M167.419399,72.1599994 L168.649399,72.1599994 C169.500801,72.1599994 170.190999,72.8501972 170.190999,73.7015994 L170.190999,78.0065993 C170.191004,78.414707 170.028325,78.8059812 169.738981,79.0937863 C169.449637,79.3815915 169.0575,79.5421817 168.649399,79.5399993 L167.419399,79.5399993 C166.574389,79.5355164 165.890481,78.8516089 165.885999,78.0065993 L165.885999,73.7343994 C165.877202,73.3213069 166.034601,72.9219735 166.322888,72.6259781 C166.611176,72.3299827 167.006218,72.1621035 167.419399,72.1599994 Z" id="Path" stroke-width="0.819999993"></path>
                    <path d="M168.034399,77.0799993 L168.034399,84.3205993" id="Path" stroke-width="0.819999993" stroke-linecap="square"></path>
                    <path d="M177.513598,78.6297993 C177.513593,79.678587 176.881377,80.6239471 175.912105,81.0245304 C174.942832,81.4251137 173.827671,81.2019146 173.087242,80.4591354 C172.346813,79.7163562 172.12715,78.6004926 172.530803,77.632495 C172.934457,76.6644974 173.881816,76.0352804 174.930598,76.0385993 C176.358475,76.043118 177.513606,77.2019153 177.513598,78.6297993 Z" id="Path" stroke-width="0.819999993" stroke-linecap="square"></path>
                    <path d="M174.922398,78.6297993 L174.922398,84.3205993" id="Path" stroke-width="0.819999993" stroke-linecap="square"></path>
                    <path d="M122.630999,71.9385994 L123.860999,71.9385994 C124.267682,71.9385994 124.657708,72.1001536 124.945276,72.3877218 C125.232845,72.6752901 125.394399,73.0653164 125.394399,73.4719994 L125.394399,77.7769993 C125.394399,78.6238727 124.707872,79.3103993 123.860999,79.3103993 L122.630999,79.3103993 C121.785989,79.3059164 121.102082,78.6220089 121.097599,77.7769993 L121.097599,73.4719994 C121.102082,72.6269898 121.785989,71.9430823 122.630999,71.9385994 Z" id="Path" stroke-width="0.819999993"></path>
                    <path d="M123.245999,76.8175993 L123.245999,84.0663993" id="Path" stroke-width="0.819999993" stroke-linecap="square"></path>
                    <path d="M132.733399,78.3755993 C132.733399,79.8066795 131.573279,80.9667993 130.142199,80.9667993 C128.711119,80.9667993 127.550999,79.8066795 127.550999,78.3755993 C127.550999,76.9445191 128.711119,75.7843993 130.142199,75.7843993 C130.830096,75.782212 131.49045,76.0545102 131.976869,76.5409295 C132.463288,77.0273487 132.735586,77.6877021 132.733399,78.3755993 Z" id="Path" stroke-width="0.819999993" stroke-linecap="square"></path>
                    <path d="M130.142199,78.3673993 L130.142199,84.0663993" id="Path" stroke-width="0.819999993" stroke-linecap="square"></path>
                    <path d="M174.463198,56.9899995 C174.463198,56.8833995 174.463198,56.7767995 174.463198,56.6701995 C174.463198,55.2844066 173.339791,54.1609995 171.953999,54.1609995 C171.794631,54.1620856 171.6356,54.1757952 171.478399,54.2019995 C171.517253,53.9743356 171.53918,53.7441049 171.543999,53.5131995 C171.543999,51.0948551 169.583543,49.1343996 167.165199,49.1343996 C164.746854,49.1343996 162.786399,51.0948551 162.786399,53.5131995 L162.786399,53.5705995 C161.162622,53.7265505 159.921572,55.0881593 159.916399,56.7193995 C159.916399,56.8095995 159.916399,56.8997995 159.916399,56.9899995" id="Path" stroke-width="0.819999993"></path>
                    <path d="M122.442399,53.0621995 C122.442399,52.9555995 122.442399,52.8489995 122.442399,52.7423995 C122.442399,51.3566067 121.318992,50.2331996 119.933199,50.2331996 C119.770648,50.2324886 119.608479,50.2489804 119.449399,50.2823996 C119.490152,50.0548188 119.514814,49.8246484 119.523199,49.5935996 C119.592901,47.9825166 118.773104,46.4630691 117.388326,45.636731 C116.003547,44.8103928 114.277051,44.8103928 112.892272,45.636731 C111.507494,46.4630691 110.687697,47.9825166 110.757399,49.5935996 L110.757399,49.6427996 C109.133622,49.7987505 107.892573,51.1603593 107.887399,52.7915995 C107.887399,52.8817995 107.887399,52.9719995 107.887399,53.0621995" id="Path" stroke-width="0.819999993"></path>
                    <path d="M137.579599,41.4919996 C137.582917,42.9984734 136.677993,44.358456 135.287144,44.9372593 C133.896295,45.5160625 132.293709,45.1995828 131.227295,44.1355175 C130.16088,43.0714522 129.840868,41.4695682 130.416603,40.0774462 C130.992338,38.6853242 132.350321,37.7774033 133.856799,37.7773997 C134.843392,37.7752218 135.790323,38.1656186 136.48872,38.8624774 C137.187117,39.5593362 137.579601,40.5054041 137.579599,41.4919996 Z" id="Path" stroke-width="0.819999993"></path>
                    <path d="M227.279398,63.2793994 C227.396897,60.3333159 225.80559,57.5834484 223.192718,56.2173899 C220.579847,54.8513315 217.413602,55.1138611 215.061398,56.8915995 L227.279398,63.2793994 Z" id="Path" stroke-width="0.819999993"></path>
                    <path d="M226.582398,48.4127996 C223.994859,46.9976678 220.823304,47.2013876 218.438079,48.9359367 C216.052855,50.6704858 214.881606,53.6248793 215.430398,56.5225995 L226.582398,48.4127996 Z" id="Path" stroke-width="0.819999993"></path>
                    <path d="M203.081198,63.2793994 C202.963699,60.3333159 204.555006,57.5834484 207.167878,56.2173899 C209.78075,54.8513315 212.946995,55.1138611 215.299198,56.8915995 L203.081198,63.2793994 Z" id="Path" stroke-width="0.819999993"></path>
                    <path d="M203.794598,48.3881996 C206.383651,46.9459163 209.574186,47.1361396 211.973525,48.8758365 C214.372865,50.6155333 215.545432,53.5888795 214.979398,56.4979995 L203.794598,48.3881996 Z" id="Path" stroke-width="0.819999993"></path>
                    <polygon id="Path" stroke-width="0.819999993" points="216.832598 78.6297993 213.765798 78.6297993 214.380798 57.3425995 215.299198 56.8587995 216.012598 57.3835995"></polygon>
                    <path d="M213.765798,76.4649993 L216.832598,76.4649993" id="Path" stroke-width="0.819999993"></path>
                    <path d="M213.905198,73.7343994 L216.643998,73.7343994" id="Path" stroke-width="0.819999993"></path>
                    <path d="M213.987198,70.7249994 L216.529198,70.7249994" id="Path" stroke-width="0.819999993"></path>
                    <path d="M214.077398,67.7401994 L216.414398,67.7401994" id="Path" stroke-width="0.819999993"></path>
                    <path d="M214.151198,65.1243994 L216.307798,65.1243994" id="Path" stroke-width="0.819999993"></path>
                    <path d="M214.224998,62.5905995 L216.209398,62.5905995" id="Path" stroke-width="0.819999993"></path>
                    <path d="M214.290598,60.2699995 L216.127398,60.2699995" id="Path" stroke-width="0.819999993"></path>
                    <path d="M142.737399,96.4893992 L193.052598,96.4893992" id="Path" stroke-width="0.819999993"></path>
                    <path d="M199.399398,96.4893992 L206.500598,96.4893992" id="Path" stroke-width="0.819999993"></path>
                    <rect id="Rectangle" stroke-width="0.819999993" x="239.874598" y="74.0295994" width="15.5389999" height="10.5861999" rx="1.59899999"></rect>
                    <rect id="Rectangle" stroke-width="0.819999993" x="239.874598" y="80.2943993" width="15.5389999" height="1.98439998"></rect>
                    <path d="M241.629398,77.7933993 L243.695798,77.7933993" id="Path" stroke-width="0.819999993"></path>
                    <path d="M245.729398,77.7933993 L248.394398,77.7933993" id="Path" stroke-width="0.819999993"></path>
                    <path d="M250.239398,77.7933993 L252.289398,77.7933993" id="Path" stroke-width="0.819999993"></path>
                    <path d="M310.591397,34.6367997 L310.050197,34.1201997 C309.488411,33.5971751 308.742788,33.3171981 307.975597,33.3411997 L303.055597,33.4887997 L293.814197,19.1551998 L291.559197,19.1551998 L295.659197,33.6609997 L285.048398,34.0299997 L283.974198,32.3899997 L282.817998,32.3899997 L283.293598,35.6699997 L282.842598,38.8843997 L284.015198,38.8843997 L285.146798,37.1295997 L295.716597,37.4985997 L291.542797,52.1519995 L293.797797,52.1519995 L303.129397,37.6707997 L307.975597,37.8101997 C308.743987,37.8415545 309.492349,37.5605491 310.050197,37.0311997 L310.591397,36.5227997 C310.855739,36.2805051 311.006246,35.9383843 311.006246,35.5797997 C311.006246,35.2212151 310.855739,34.8790942 310.591397,34.6367997 Z" id="Path" stroke-width="0.819999993"></path>
                    <path d="M276.372798,32.6277997 L263.154398,32.6277997" id="Path" stroke-width="0.819999993"></path>
                    <path d="M257.717798,27.8143998 L242.662598,27.8143998" id="Path" stroke-width="0.819999993"></path>
                    <path d="M325.843397,39.8273997 L325.843397,56.3995995" id="Path" stroke-width="0.819999993"></path>
                    <polygon id="Path" stroke-width="0.819999993" points="325.843397 44.3373996 325.843397 38.4989997 333.772797 41.4181996"></polygon>
                    <path d="M323.621197,56.3995995 L328.065597,56.3995995" id="Path" stroke-width="0.819999993"></path>
                    <path d="M191.396198,29.1099997 C190.340775,29.1105395 189.373411,29.6985455 188.886998,30.6351997 C188.285285,29.4796474 186.972199,28.8844456 185.706573,29.1935615 C184.440948,29.5026774 183.550078,30.6361724 183.548798,31.9389997 C183.548798,34.7679997 188.886998,38.4087997 188.886998,38.4087997 C188.886998,38.4087997 194.225198,34.7679997 194.225198,31.9389997 C194.220695,30.3784555 192.956743,29.1145035 191.396198,29.1099997 Z" id="Path" stroke-width="0.819999993"></path>
                    <polygon id="Path" stroke-width="0.819999993" points="314.076397 85.9687993 315.002997 87.8629992 317.093997 88.1663992 315.585197 89.6423992 315.945997 91.7169992 314.076397 90.7411992 312.206797 91.7169992 312.559397 89.6423992 311.050597 88.1663992 313.141597 87.8629992"></polygon>
                    <polygon id="Path" stroke-width="0.819999993" points="325.556397 85.9687993 326.482997 87.8629992 328.573997 88.1663992 327.065197 89.6423992 327.425997 91.7169992 325.556397 90.7411992 323.686797 91.7169992 324.039397 89.6423992 322.530597 88.1663992 324.621597 87.8629992"></polygon>
                    <polygon id="Path" stroke-width="0.819999993" points="319.816397 80.2943993 320.742997 82.1803993 322.833997 82.4837993 321.325197 83.9597993 321.685997 86.0425992 319.816397 85.0585993 317.946797 86.0425992 318.299397 83.9597993 316.790597 82.4837993 318.881597 82.1803993"></polygon>
                    <rect id="Rectangle" stroke-width="0.819999993" x="15.7931999" y="59.8927995" width="23.8783998" height="19.5487998"></rect>
                    <rect id="Rectangle" stroke-width="0.819999993" x="15.7931999" y="59.8927995" width="23.8783998" height="4.26399996"></rect>
                    <rect id="Rectangle" stroke-width="0.819999993" x="18.7615998" y="66.5511994" width="3.27999997" height="3.27999997"></rect>
                    <rect id="Rectangle" stroke-width="0.819999993" x="26.1415998" y="66.5511994" width="3.27999997" height="3.27999997"></rect>
                    <rect id="Rectangle" stroke-width="0.819999993" x="33.5215997" y="66.5511994" width="3.27999997" height="3.27999997"></rect>
                    <rect id="Rectangle" stroke-width="0.819999993" x="18.7615998" y="73.1111994" width="3.27999997" height="3.27999997"></rect>
                    <rect id="Rectangle" stroke-width="0.819999993" x="26.1415998" y="73.1111994" width="3.27999997" height="3.27999997"></rect>
                    <rect id="Rectangle" stroke-width="0.819999993" x="33.5215997" y="73.1111994" width="3.27999997" height="3.27999997"></rect>
                    <path d="M20.4015998,62.0247995 L20.4015998,57.1293995" id="Path" stroke-width="0.819999993"></path>
                    <path d="M27.7323998,62.0247995 L27.7323998,57.1293995" id="Path" stroke-width="0.819999993"></path>
                    <path d="M35.2189997,62.0247995 L35.2189997,57.1293995" id="Path" stroke-width="0.819999993"></path>
                    <rect id="Rectangle" stroke-width="0.819999993" x="68.8717994" y="36.4079997" width="23.7635998" height="16.0227999"></rect>
                    <rect id="Rectangle" stroke-width="0.819999993" x="68.8717994" y="36.4079997" width="23.7635998" height="3.55879997"></rect>
                    <circle id="Oval" stroke-width="0.819999993" cx="80.7535993" cy="45.5919996" r="5.41199995"></circle>
                    <rect id="Rectangle" stroke-width="0.819999993" x="86.1737992" y="33.7593997" width="4.57559996" height="2.65679998"></rect>
                    <path d="M73.0619994,36.4079997 L73.0619994,33.7593997" id="Path" stroke-width="0.819999993"></path>
                    <circle id="Oval" stroke-width="0.819999993" cx="78.6543993" cy="44.2799996" r="2.09919998"></circle>
                    <path d="M248.394398,176.406598 L299.603397,176.406598" id="Path" stroke-width="0.819999993"></path>
                    <path d="M55.7845995,27.2649998 C55.8560557,26.7458974 55.8943999,26.2227733 55.8993995,25.6987998 C55.8994003,22.5439545 54.6455819,19.5184431 52.4140005,17.2883998 C50.1824192,15.0583564 47.1560442,13.8066241 44.0011996,13.8087999 C43.0246604,13.8096745 42.0521266,13.9336519 41.1065996,14.1777999 C39.881937,6.34829482 33.1763627,0.551719936 25.252054,0.472476849 C17.3277453,0.393233761 10.5075921,6.05455137 9.12659992,13.8579999 C4.18324733,14.3667177 0.425518671,18.5317403 0.426399996,23.5011998 C0.424114797,24.7943961 0.683519566,26.0746841 1.18899999,27.2649998" id="Path" stroke-width="0.819999993"></path>
                </g>
                <g id="Group-299" transform="translate(0.000000, 26.240000)">
                    <g id="Group-298" transform="translate(0.000000, 0.546940)">
                        <g id="guy-standing-with-paper" transform="translate(93.479999, 72.159999)">
                            <path d="M30.4301177,68.3034574 L29.4961377,72.7314574 L28.6523578,75.4956773 C28.5933178,75.6859173 28.7359977,75.8777973 28.9352577,75.8777973 L30.8606177,75.8777973 L30.8606177,75.2619773 L31.7962377,75.8777973 C31.7962377,75.8777973 36.7793777,76.1524973 36.9491177,75.8777973 C37.5903577,74.8413173 34.7244577,74.3517774 32.5711377,73.6203374 C30.8343777,73.0315774 32.8392777,68.6363774 32.8392777,68.6363774 L30.4301177,68.3034574 Z" id="Fill-111" fill="#FA968C"></path>
                            <path d="M18.5748858,68.3034574 L19.5088658,72.7314574 L20.3526458,75.4956773 C20.4108658,75.6859173 20.2690058,75.8777973 20.0697458,75.8777973 L18.1443858,75.8777973 L18.1443858,75.2619773 L17.2087658,75.8777973 C17.2087658,75.8777973 12.2256259,76.1524973 12.0558859,75.8777973 C11.4146459,74.8413173 14.2805459,74.3517774 16.4338659,73.6203374 C18.1706258,73.0315774 16.1657259,68.6363774 16.1657259,68.6363774 L18.5748858,68.3034574 Z" id="Fill-113" fill="#FA968C"></path>
                            <path d="M33.1434977,73.8048374 C32.6359177,74.0532974 32.0389577,74.1992574 31.3468777,74.1992574 C30.4998177,74.1992574 29.7937977,73.9835974 29.2230777,73.6252574 L28.6515378,75.4964973 C28.5933178,75.6859173 28.7359977,75.8777973 28.9352577,75.8777973 L30.8606177,75.8777973 L30.8606177,75.2619773 L31.7954177,75.8777973 C31.7954177,75.8777973 36.7793777,76.1524973 36.9491177,75.8777973 C37.5345977,74.9306973 35.1943177,74.4395174 33.1434977,73.8048374" id="Fill-115" fill="#373C41"></path>
                            <path d="M19.6984498,73.3523614 C19.0736098,73.8714214 18.2445898,74.1994214 17.2023698,74.1994214 C16.5914699,74.1994214 16.0551899,74.0854414 15.5886099,73.8886414 C13.6099499,74.4847814 11.4959899,74.9726813 12.0560499,75.8779613 C12.2257899,76.1526613 17.2089298,75.8779613 17.2089298,75.8779613 L18.1437298,75.2621413 L18.1437298,75.8779613 L20.0699098,75.8779613 C20.2691698,75.8779613 20.4110298,75.6860813 20.3528098,75.4958413 L19.6984498,73.3523614 Z" id="Fill-117" fill="#373C41"></path>
                            <path d="M13.2269279,11.6705679 C10.5799679,13.3925679 -0.462971996,22.7692678 0.671907994,24.5142278 C1.80678798,26.2591878 14.6906279,19.7114878 17.3375878,17.9903078 C19.9845478,16.2683079 21.2096278,13.4581679 20.0755678,11.7132079 C18.9398678,9.96742791 15.8738879,9.94856791 13.2269279,11.6705679" id="Fill-119" fill="#FAB9AF"></path>
                            <path d="M35.6408077,22.0795658 C39.7645877,26.2230258 44.8453076,27.8613858 45.8448876,26.8585258 C46.8903876,25.8097458 44.2672076,21.2644858 40.3730276,17.1784259 C36.3402677,12.9455859 32.4223077,10.3478259 30.9102277,11.8525259 C29.3989677,13.3564059 31.5170277,17.9352858 35.6408077,22.0795658" id="Fill-121" fill="#FAB9AF"></path>
                            <path d="M32.6282097,70.0587494 C34.8750097,65.3035694 37.6039697,58.0424695 38.1418897,56.6238695 C39.0012497,54.3565695 38.6240497,52.1114095 37.3005697,51.6095695 C35.9762697,51.1077296 34.2058897,52.5386295 33.3465297,54.8067495 C32.7758097,56.3122695 30.6839897,64.2654494 29.8090497,69.5569094 L32.6282097,70.0587494 Z" id="Fill-123" fill="#00558C"></path>
                            <path d="M19.0469598,69.5566634 C18.1720198,64.2652034 16.2286199,56.3128435 15.6587199,54.8065035 C14.7985399,52.5392035 13.0289799,51.1074836 11.7046799,51.6093235 C10.3803799,52.1111635 10.0039999,54.3563235 10.8633599,56.6244435 C11.4004599,58.0422235 14.2376599,65.3033234 16.4844599,70.0585034 L19.0469598,69.5566634 Z" id="Fill-125" fill="#00558C"></path>
                            <path d="M33.5739157,36.6537537 C32.1733557,33.9584137 29.1286957,32.7669537 26.7720158,33.9912137 C26.1857158,34.2954337 25.6978158,34.7210137 25.3165158,35.2294137 C24.8983158,35.7870137 24.1070158,35.7870137 23.6888158,35.2294137 C23.3075158,34.7210137 22.8196158,34.2954337 22.2333158,33.9912137 C19.8766358,32.7669537 16.8311559,33.9584137 15.4314159,36.6537537 C14.0308559,39.3482737 8.91815592,55.4276535 11.2748359,56.6519135 C12.8377559,57.4637135 17.7782558,50.9988336 21.1656758,45.7270536 C22.7294158,43.2924736 26.2750958,43.2932936 27.8388358,45.7270536 C31.2254357,50.9996536 36.1659357,57.4637135 37.7304957,56.6519135 C40.0871757,55.4276535 34.9744757,39.3482737 33.5739157,36.6537537" id="Fill-127" fill="#004F82"></path>
                            <path d="M20.9099998,41.0616636 L30.5433597,41.0616636 C31.1960797,40.2301836 31.6429797,39.2248637 31.7954997,38.1154037 L34.9147797,15.4104239 C35.1911197,13.4006039 33.7101997,11.5761039 31.6864397,11.4326039 L18.0465598,10.4625439 C15.3274399,10.2698439 13.2159399,12.7913439 13.8825999,15.4342039 L19.7751198,38.7812437 C19.9907798,39.6365037 20.3901198,40.4023836 20.9099998,41.0616636" id="Fill-129" fill="#FA968C"></path>
                            <path d="M20.9099998,41.0616636 L31.3297397,41.0616636 C31.9824597,40.2301836 33.1165197,37.2404637 33.2690397,36.1310037 L34.9147797,15.4104239 C35.1911197,13.4006039 33.7101997,11.5761039 31.6864397,11.4326039 L27.5101798,11.1349439 C27.8160398,12.7019639 27.0107998,14.5141639 24.9583398,14.6486439 C22.5721398,14.8044439 21.5618998,12.5051639 22.1055598,10.7511839 L18.0465598,10.4625439 C15.3274399,10.2698439 13.2159399,12.7913439 13.8825999,15.4342039 L18.9182198,37.0584237 C19.1338798,37.9145037 20.3901198,40.4023836 20.9099998,41.0616636" id="Fill-131" fill="#FF7350"></path>
                            <path d="M18.6241678,4.81430196 C19.6737678,9.64902192 24.0148478,10.7248619 26.7192078,10.1385619 C29.4227477,9.55144192 28.2895078,4.72820196 27.8385078,2.65032198 C27.3875078,0.572441995 24.9750678,-0.0605979995 22.2707078,0.526521995 C19.5663478,1.11282199 18.1731678,2.73642198 18.6241678,4.81430196" id="Fill-133" fill="#69280F"></path>
                            <polygon id="Fill-135" fill="#FA968C" points="22.6965338 11.2173539 27.4107138 12.2087339 26.9293738 4.19405396 24.0126338 6.62699394"></polygon>
                            <path d="M11.2730319,21.2343098 C13.9552519,19.9354298 16.3537519,18.6299898 17.3377518,17.9895698 C19.9847118,16.2683899 21.2097918,13.4582499 20.0749118,11.7132899 C18.9400318,9.96750991 15.8740519,9.94864991 13.2270919,11.6706499 C12.2086519,12.3332099 9.94955191,14.1281899 7.61829193,16.1863899 C7.97007193,19.2441698 11.2730319,21.2343098 11.2730319,21.2343098" id="Fill-137" fill="#FF7350"></path>
                            <path d="M40.3733556,17.1783439 C36.3405957,12.9455039 32.4218157,10.3477439 30.9105557,11.8524439 C29.4763757,13.2792439 31.3115357,17.4710838 35.0228557,21.4349638 C35.0228557,21.4349638 39.7206357,19.5112438 40.3733556,17.1783439" id="Fill-139" fill="#FF7350"></path>
                            <path d="M38.2405357,25.5484938 C35.9264957,25.9757138 25.5977758,28.6275938 25.8388558,29.9379537 C26.0807558,31.2483137 36.9359157,30.3717337 39.2245357,29.8272537 C43.4286756,28.8276737 46.3035956,27.4164538 46.0616956,26.1060938 C45.8197956,24.7957338 40.5537556,25.1212738 38.2405357,25.5484938" id="Fill-141" fill="#FAB9AF"></path>
                            <path d="M19.6576138,7.60180993 C20.4128338,11.0818899 21.4566938,12.6480899 23.2451138,12.2602299 C25.4222138,11.7870899 27.6534338,8.80228992 27.0310538,5.93474995 C26.4086738,3.06720997 24.7817938,1.68386999 22.6038738,2.15618998 C20.4267738,2.62932998 19.0352338,4.73426996 19.6576138,7.60180993" id="Fill-143" fill="#FAB9AF"></path>
                            <path d="M26.7120738,4.82750396 L21.1975738,6.02388395 C20.6161938,6.15098395 20.0389138,6.08456395 19.5280538,5.87300395 C19.6731938,3.90910397 20.8933538,2.52822398 22.6038738,2.15676398 C24.4783938,1.75004398 25.9437338,2.72092398 26.7120738,4.82750396" id="Fill-145" fill="#FF9669"></path>
                            <path d="M21.0813798,5.49014595 L27.4281798,4.11254596 L27.1534798,2.84728598 C26.8254798,1.33766599 25.3355398,0.379085997 23.8259198,0.707085994 L17.4618998,2.08796598 L17.7333198,3.33600597 C18.0629598,4.85546596 19.5619198,5.81978595 21.0813798,5.49014595" id="Fill-147" fill="#69280F"></path>
                            <path d="M26.0826418,6.66692794 L25.3979418,3.50992797 L24.0195218,3.80922797 L24.4057418,5.58780795 C24.5713818,6.34876794 25.3216818,6.83174794 26.0826418,6.66692794" id="Fill-149" fill="#69280F"></path>
                            <path d="M25.4240178,6.17000795 C25.6298378,7.11874794 26.0955978,7.82394793 26.8688578,7.65584793 C27.6412978,7.48774793 27.8536778,6.07488795 27.6478578,5.12614796 C27.4420378,4.17740796 26.8950978,4.05194796 26.1226578,4.21922796 C25.3502178,4.38650796 25.2181978,5.22126795 25.4240178,6.17000795" id="Fill-151" fill="#FAB9AF"></path>
                            <path d="M4.60569396,26.6527878 C6.90087394,26.7979278 18.3734938,27.0324478 18.4530338,25.7753878 C18.5325738,24.5183278 7.18951394,22.2452878 4.89433396,22.0993278 C2.59833398,21.9541878 0.672973994,22.8553678 0.592613995,24.1124278 C0.513073996,25.3703078 2.30969398,26.5068278 4.60569396,26.6527878" id="Fill-153" fill="#FAB9AF"></path>
                            <path d="M18.9865258,23.5654058 C18.9865258,23.5654058 19.3456858,25.7802258 18.7069058,26.1139658 C18.0664858,26.4477058 17.5769458,26.5543058 17.0562459,25.6416458 C16.5355459,24.7289858 16.2559259,23.2292058 16.2690459,22.2960458 C16.2813459,21.3628858 16.9627659,19.8073458 17.1448059,19.6892658 C17.8106458,19.2587658 17.6105658,20.9471458 17.5531658,21.7687858 C17.4965858,22.5912458 17.5138058,23.5244058 17.9172458,23.4407658 C18.3206858,23.3563058 18.3116658,21.7737058 18.7413458,21.5236058 C19.1718458,21.2743258 18.9865258,23.5654058 18.9865258,23.5654058" id="Fill-155" fill="#FAB9AF"></path>
                            <path d="M25.4012218,31.0406897 L18.3607018,31.0406897 C17.8875618,31.0406897 17.4906818,30.6864497 17.4349218,30.2174097 L16.2746219,20.3462498 C16.2098419,19.7919298 16.6428019,19.3048498 17.2004018,19.3048498 L24.2409218,19.3048498 C24.7140618,19.3048498 25.1109418,19.6590898 25.1667018,20.1281298 L26.3270018,29.9992897 C26.3917818,30.5536097 25.9588218,31.0406897 25.4012218,31.0406897" id="Fill-157" fill="#C8E6EB"></path>
                            <path d="M26.3269198,29.9996997 L25.1666198,20.1277198 C25.1116798,19.6586798 24.7139798,19.3052598 24.2408398,19.3052598 L17.2003198,19.3052598 C16.9075799,19.3052598 16.6517399,19.4413798 16.4819999,19.6480198 C16.5525199,19.6307998 16.6254999,19.6201398 16.7017599,19.6201398 L23.7422798,19.6201398 C24.2154198,19.6201398 24.6131198,19.9743798 24.6680598,20.4442398 L25.8283598,30.3153997 C25.8595198,30.5786197 25.7758798,30.8246197 25.6217198,31.0123997 C26.0677998,30.9041597 26.3834998,30.4777597 26.3269198,29.9996997" id="Fill-159" fill="#A5C8CD"></path>
                            <path d="M25.0376338,28.1430558 C25.0376338,28.1430558 27.2376938,28.5842158 27.3254338,29.3000757 C27.4131738,30.0159357 27.3410138,30.5128557 26.3037138,30.6801357 C25.2664138,30.8465957 23.7633538,30.5817357 22.8941538,30.2422557 C22.0249538,29.9027757 20.8088938,28.7186957 20.7621538,28.5063158 C20.5924138,27.7322358 22.1020338,28.5120558 22.8523338,28.8539957 C23.6018138,29.1959357 24.4824938,29.5083557 24.5448138,29.1008157 C24.6079538,28.6932757 23.1229338,28.1463358 23.0401138,27.6559758 C22.9572938,27.1656158 25.0376338,28.1430558 25.0376338,28.1430558" id="Fill-161" fill="#FAB9AF"></path>
                        </g>
                        <path d="M332.394295,149.967093 C332.394295,150.853513 331.675155,151.572653 330.787915,151.572653 L49.2113976,151.572653 C48.3249776,151.572653 47.6058376,150.853513 47.6058376,149.967093 L47.6058376,149.671893 C47.6058376,148.784653 48.3249776,148.066333 49.2113976,148.066333 L330.787915,148.066333 C331.675155,148.066333 332.394295,148.784653 332.394295,149.671893 L332.394295,149.967093 Z" id="Fill-163" fill="#42BEB7"></path>
                        <mask id="mask-2" fill="white">
                            <use xlink:href="#path-1"></use>
                        </mask>
                        <g id="Clip-165"></g>
                        <text id="BOOKINGS" mask="url(#mask-2)" font-family="SourceSansPro-Black, Source Sans Pro" font-size="74.4983114" font-weight="700" fill="#42BEB7">
                            <tspan x="0" y="143.277777">BOOKINGS</tspan>
                        </text>
                        <g id="girl-on-floor" mask="url(#mask-2)">
                            <g transform="translate(132.839999, 136.939999)">
                                <path d="M48.6522396,38.8246217 C75.4285193,38.8246217 97.1347392,39.8127217 97.1347392,41.0312416 C97.1347392,42.2489416 75.4285193,43.2370416 48.6522396,43.2370416 C21.8759598,43.2370416 0.169739999,42.2489416 0.169739999,41.0312416 C0.169739999,39.8127217 21.8759598,38.8246217 48.6522396,38.8246217 Z" id="Fill-166" stroke="none" fill="#42BEB7" fill-rule="evenodd"></path>
                                <path d="M85.2995973,40.7413716 C85.2995973,40.7413716 87.9596772,40.7856516 88.6615972,41.1661316 C89.3635172,41.5457916 90.7812972,41.8295116 90.9944972,40.7298916 C91.0904372,40.2395316 90.9239772,39.7171917 90.8993772,39.0521717 C90.8485372,37.6835917 91.9760372,35.1916117 90.8140972,35.1916117 C90.5328372,35.1916117 90.5156172,36.2731917 90.2335372,36.9259117 C89.6554372,38.2575917 88.8624972,39.5400717 85.9047573,39.0907117 L85.2995973,40.7413716 Z" id="Fill-167" stroke="none" fill="#FA968C" fill-rule="evenodd"></path>
                                <path d="M89.2759412,40.3429336 C88.9594212,41.0817536 67.7780014,40.8373936 65.0998814,40.3527736 C62.4217615,39.8681537 60.4808215,38.2076537 60.7637215,36.6447337 C61.0474415,35.0809937 63.4467614,34.2052337 66.1248814,34.6898537 C68.8030014,35.1752937 89.6433012,39.4901337 89.2759412,40.3429336 Z" id="Fill-168" stroke="none" fill="#FA968C" fill-rule="evenodd"></path>
                                <path d="M66.1245534,34.6901817 C63.4472534,34.2055617 61.0471135,35.0805017 60.7633935,36.6434217 C60.4813135,38.2079817 62.4222535,39.8684817 65.0995534,40.3531016 C65.7235734,40.4662616 67.3553734,40.5654816 69.4873734,40.6425616 C69.4873734,40.6425616 69.7341934,39.8725817 69.7333734,38.4646417 C69.7333734,37.6864617 69.4873734,35.3601217 69.4873734,35.3601217 C67.8703334,35.0272017 66.6485334,34.7853017 66.1245534,34.6901817 Z" id="Fill-169" stroke="none" fill="#50374B" fill-rule="evenodd"></path>
                                <path d="M44.3569976,32.1862297 C42.7292976,32.4568297 39.4665177,20.9858498 39.0032177,18.1986698 C38.5399177,15.4114899 39.4829177,12.9318099 41.1106176,12.6612099 C42.7391376,12.3914299 44.4340776,14.4315899 44.8973776,17.2187698 C45.3606776,20.0059498 45.9846976,31.9156297 44.3569976,32.1862297 Z" id="Fill-170" stroke="none" fill="#FA968C" fill-rule="evenodd"></path>
                                <path d="M44.0723756,21.4407858 C44.5036956,21.4407858 44.9071356,21.4834258 45.2884356,21.5572258 C45.1851156,19.6712258 45.0342356,18.0443458 44.8972956,17.2186058 C44.4339956,14.4314259 42.7382356,12.3912659 41.1105356,12.6618659 C39.4836557,12.9324659 38.5398357,15.4113259 39.0031357,18.1985058 C39.1531957,19.1021458 39.5984557,20.9176258 40.1855756,22.9504058 C41.1023356,22.0361058 42.3946556,21.4407858 44.0723756,21.4407858 Z" id="Fill-171" stroke="none" fill="#F582A0" fill-rule="evenodd"></path>
                                <path d="M57.7225055,24.3360418 C58.1062655,25.2798618 47.7267056,30.6024817 46.0161856,31.2962017 C44.3056656,31.9899217 42.6090856,31.7873817 42.2253256,30.8427417 C41.8432056,29.8981017 42.9190456,28.5705218 44.6295656,27.8768018 C46.3400856,27.1822618 57.3395655,23.3914018 57.7225055,24.3360418 Z" id="Fill-172" stroke="none" fill="#FA968C" fill-rule="evenodd"></path>
                                <path d="M67.8198214,39.0178137 C67.3352014,41.4925736 46.3210616,41.1981936 42.0308216,40.4774136 C33.3035617,39.0104337 33.1715417,32.0847137 36.8033217,29.3836337 C39.3248217,27.5082938 43.5896416,29.1400937 47.8134616,30.1806737 C52.0372815,31.2204337 68.4249814,35.9346137 67.8198214,39.0178137 Z" id="Fill-173" stroke="none" fill="#50374B" fill-rule="evenodd"></path>
                                <path d="M82.7345553,43.4030096 C82.1006953,43.8884496 63.8942354,33.3719497 61.8138955,31.6499497 C59.7319155,29.9279497 58.8602555,27.5466698 59.8663955,26.3314298 C60.8717155,25.1161898 63.3743554,25.5270098 65.4546954,27.2490098 C67.5358554,28.9718297 83.4659953,42.8445896 82.7345553,43.4030096 Z" id="Fill-174" stroke="none" fill="#FAB9AF" fill-rule="evenodd"></path>
                                <path d="M43.8977976,16.4774899 L43.9617576,15.8567499 C44.1388776,14.1347499 42.7875176,12.6374299 41.0564976,12.6374299 L30.7548377,12.6374299 C29.1902777,12.6374299 28.0890178,14.1773899 28.5957778,15.6583099 L33.4632977,29.8910497 L34.9770177,34.7667697 L41.9027376,35.8663897 L43.0326976,24.8865898 L43.1351976,24.8865898 C45.2885176,24.4970898 45.7485376,23.0342098 44.7087776,20.3290298 L43.8977976,16.4774899 Z" id="Fill-175" stroke="none" fill="#EB5A7D" fill-rule="evenodd"></path>
                                <path d="M63.8717674,26.6560678 C64.6368274,29.6802277 48.2204276,38.8306077 44.1253476,40.2008276 C35.7949677,42.9888276 32.4477277,36.9839677 34.3689877,32.9225077 C35.7031277,30.1033477 40.2008276,29.5424677 44.3861076,28.4830278 C48.5713876,27.4227678 63.1058874,23.6327278 63.8717674,26.6560678 Z" id="Fill-176" stroke="none" fill="#695A6E" fill-rule="evenodd"></path>
                                <path d="M56.2486375,24.2765098 C56.5774575,24.8578898 56.9038175,25.1883498 57.7689175,24.7422698 C58.6331975,24.2970098 59.6073575,23.2728298 60.0681975,22.5430298 C60.5298575,21.8115898 60.7856975,20.2601498 60.7036975,20.0764698 C60.4043975,19.4057098 59.7082175,20.8177498 59.3375775,21.4852298 C58.9669375,22.1518898 58.4814975,22.8677498 58.2117175,22.5987898 C57.9411175,22.3298298 58.7463575,21.1063898 58.5380775,20.6947498 C58.3297975,20.2839298 57.3179175,22.1559898 57.3179175,22.1559898 C57.3179175,22.1559898 55.9206375,23.6943098 56.2486375,24.2765098 Z" id="Fill-177" stroke="none" fill="#FA968C" fill-rule="evenodd"></path>
                                <path d="M56.7567915,26.2473798 C56.4484715,26.1399598 56.2852915,25.8037598 56.3927115,25.4954398 L59.7440515,15.8702799 C59.8514715,15.5619599 60.1884915,15.3987799 60.4968115,15.5061999 L60.9650315,15.6685599 C61.2725315,15.7759799 61.4357115,16.1129999 61.3282915,16.4213199 L57.9769515,26.0472998 C57.8695315,26.3547998 57.5325115,26.5179798 57.2241915,26.4105598 L56.7567915,26.2473798 Z" id="Fill-178" stroke="none" fill="#D2D2D7" fill-rule="evenodd"></path>
                                <path d="M23.8697078,31.2345377 C22.3305678,30.6392177 25.3571878,19.1034578 26.3764478,16.4679779 C27.3948878,13.8324979 29.4686677,12.1785579 31.0078077,12.7738779 C32.5469477,13.3683779 32.9684277,15.9874579 31.9491677,18.6229378 C30.9299077,21.2584178 25.4080278,31.8290377 23.8697078,31.2345377 Z" id="Fill-179" stroke="none" fill="#FAB9AF" fill-rule="evenodd"></path>
                                <path d="M29.8284837,23.0343738 C30.8149437,21.1647738 31.6185437,19.4772138 31.9490037,18.6227738 C32.9682637,15.9872939 32.5467837,13.3682139 31.0076437,12.7737139 C29.4685037,12.1783939 27.3955438,13.8323339 26.3762838,16.4678139 C26.0245038,17.3771938 25.4341038,19.3460138 24.8748638,21.5583738 C26.3918638,21.2024938 28.0761438,21.5034338 29.6161037,22.8326538 C29.6923637,22.8982538 29.7571437,22.9671338 29.8284837,23.0343738 Z" id="Fill-180" stroke="none" fill="#F582A0" fill-rule="evenodd"></path>
                                <path d="M12.1007399,40.3192356 C11.4283399,39.5533557 19.4782798,31.1130957 20.8657198,29.8953957 C22.2531598,28.6776957 23.9226798,28.3111558 24.5950798,29.0762157 C25.2666598,29.8429157 24.6869198,31.4509357 23.3002998,32.6686357 C21.9128598,33.8855157 12.7731399,41.0851156 12.1007399,40.3192356 Z" id="Fill-181" stroke="none" fill="#FAB9AF" fill-rule="evenodd"></path>
                                <path d="M8.95095592,38.9527057 C8.42779593,39.1298257 5.88907595,40.0720057 6.25889595,40.3450656 C6.62953594,40.6173056 8.16867593,40.4754456 9.21335592,40.2138656 C10.2580359,39.9514657 10.4367959,40.8132856 12.2006159,40.5763056 C13.1190159,40.4533056 13.0058559,39.3167857 13.0058559,39.3167857 C13.0058559,39.3167857 9.47329592,38.7747657 8.95095592,38.9527057 Z" id="Fill-182" stroke="none" fill="#FAB9AF" fill-rule="evenodd"></path>
                                <path d="M65.4546134,27.2490098 C63.3742734,25.5270098 60.8716335,25.1161898 59.8663135,26.3314298 C58.8601735,27.5466698 59.7326535,29.9279497 61.8138135,31.6499497 C62.2254535,31.9902497 63.2717734,32.6774097 64.6879134,33.5539897 C65.5193934,34.0697697 67.3348734,28.8553897 67.3348734,28.8553897 C66.4484534,28.0886898 65.7801534,27.5179698 65.4546134,27.2490098 Z" id="Fill-183" stroke="none" fill="#695A6E" fill-rule="evenodd"></path>
                                <path d="M78.3376333,41.4083596 C78.3376333,41.4083596 80.4253533,42.7916996 81.3896733,43.8437596 C82.3523533,44.8949996 82.7959733,44.7728196 83.8201533,43.7888196 C84.6647533,42.9778396 87.3748532,42.0766596 87.3978132,41.4928196 C87.4166732,40.9712996 85.4011133,41.7699796 83.6512333,41.9192196 C82.1785133,42.0446796 81.1215333,41.1418596 80.1580333,40.4915996 L78.3376333,41.4083596 Z" id="Fill-184" stroke="none" fill="#FAB9AF" fill-rule="evenodd"></path>
                                <path d="M88.6613512,41.1658856 C89.3632712,41.5463656 90.7810512,41.8292656 90.9950712,40.7304656 C91.0901912,40.2392856 90.9245512,39.7169457 90.8991312,39.0527457 C90.8482912,37.6833457 91.9757912,35.1921857 90.8138512,35.1921857 C90.5325912,35.1921857 90.5161912,36.2729457 90.2332912,36.9256657 C89.6560112,38.2573457 88.8622512,39.5398257 85.9053313,39.0912857 C85.9053313,39.0912857 85.4215313,40.7427656 85.6199713,40.7501456 C86.3489512,40.7755656 88.1103112,40.8674056 88.6613512,41.1658856 Z" id="Fill-185" stroke="none" fill="#FFDCD7" fill-rule="evenodd"></path>
                                <path d="M81.3892633,43.8433496 C82.3527633,44.8954096 82.7955633,44.7724096 83.8197433,43.7892296 C84.6643433,42.9782496 87.3752632,42.0770696 87.3974032,41.4924096 C87.4170832,40.9708896 85.4015233,41.7703896 83.6516433,41.9196296 C82.1781033,42.0450896 81.1211233,41.1414496 80.1576233,40.4911896 C80.1576233,40.4911896 78.5045033,41.5186496 78.7644433,41.7006896 C79.4278233,42.1631696 80.6971833,43.0889496 81.3892633,43.8433496 Z" id="Fill-186" stroke="none" fill="#FFDCD7" fill-rule="evenodd"></path>
                                <path d="M57.0888915,22.4251138 C57.0888915,22.4251138 57.4677315,21.2803938 57.5013515,20.9581338 C57.5357915,20.6366938 58.0884715,20.6268538 58.0884715,20.6268538 L57.5882715,22.0626738 L57.0888915,22.4251138 Z" id="Fill-187" stroke="none" fill="#FA968C" fill-rule="evenodd"></path>
                                <path d="M60.1326495,17.1174999 L59.5857095,18.6894398" id="Stroke-188" stroke="#A0A0A5" stroke-width="0.614999995" fill="none" stroke-linecap="round"></path>
                                <path d="M59.2782095,19.6459698 L59.0732095,20.3290298" id="Stroke-189" stroke="#A0A0A5" stroke-width="0.614999995" fill="none" stroke-linecap="round"></path>
                                <path d="M35.4077637,11.6177599 C33.5119237,11.6177599 31.9752437,10.0802599 31.9752437,8.18441993 C31.9752437,6.28857995 33.5119237,4.75107996 35.4077637,4.75107996 C37.3036037,4.75107996 38.8411037,6.28857995 38.8411037,8.18441993 C38.8411037,10.0802599 37.3036037,11.6177599 35.4077637,11.6177599 Z" id="Fill-190" stroke="none" fill="#B80B5A" fill-rule="evenodd"></path>
                                <path d="M34.5917817,4.75353996 L35.2805817,2.73879998 C35.6110417,2.02293998 36.3277217,1.56455999 37.1157417,1.56455999 L37.4355417,1.56455999 C42.6663216,1.55799999 42.3186416,0.0778999993 42.3186416,0.0778999993 C43.1058416,0.265679998 43.7290416,0.890519992 43.9143616,1.67853999 C44.2554816,3.12583997 43.1673416,4.41241996 41.7774416,4.41241996 C41.5560416,4.41241996 38.6024017,6.81173994 38.8762817,8.21311993 C38.9853417,8.77399992 38.5614017,9.02081992 37.9062217,9.08887992 C35.5807017,9.33077992 33.8365617,6.96671994 34.5917817,4.75353996 Z" id="Fill-191" stroke="none" fill="#B80B5A" fill-rule="evenodd"></path>
                                <path d="M34.9907117,12.6375939 L37.2030717,8.36785393 L39.2383117,8.78441392 L39.2383117,12.6523539 C39.2383117,12.6523539 40.4002516,17.1754739 39.2383117,17.6043338 C37.7057317,18.1701338 34.9907117,12.6375939 34.9907117,12.6375939 Z" id="Fill-192" stroke="none" fill="#FA968C" fill-rule="evenodd"></path>
                                <path d="M36.7643717,9.22852592 C34.7365117,9.22852592 34.8832917,6.22978595 34.8832917,4.67178596 C34.8832917,3.11460597 36.5118117,2.28558598 38.5396717,2.28558598 C40.5675316,2.28558598 41.8172116,3.23186597 41.8172116,4.78986596 C41.8172116,8.41508593 38.7922317,9.22852592 36.7643717,9.22852592 Z" id="Fill-193" stroke="none" fill="#B80B5A" fill-rule="evenodd"></path>
                                <path d="M39.3650837,11.5055019 C37.7324637,11.5055019 35.9711037,9.04878192 35.9711037,6.89874194 C35.9711037,4.74870196 36.9214837,3.50558197 38.5541037,3.50558197 C40.1875436,3.50558197 41.7111036,3.77618197 41.7111036,5.92622195 C41.7111036,8.07626193 40.9977036,11.5055019 39.3650837,11.5055019 Z" id="Fill-194" stroke="none" fill="#FAB9AF" fill-rule="evenodd"></path>
                                <path d="M40.1627796,6.05627395 C40.5990196,6.05627395 41.3583396,5.75943395 41.6912596,5.52901395 C41.6912596,3.98905397 40.9319396,3.22071397 38.5547597,3.50525397 C37.1591197,3.67253397 36.2505597,4.42857396 36.0275197,6.05627395 L40.1627796,6.05627395 Z" id="Fill-195" stroke="none" fill="#FF9669" fill-rule="evenodd"></path>
                                <path d="M35.4043197,5.65553995 L35.4043197,4.70679996 C35.4043197,3.57437997 36.3218997,2.65679998 37.4543197,2.65679998 L42.2258996,2.65679998 L42.2258996,3.59241997 C42.2258996,4.73221996 41.3025796,5.65553995 40.1627796,5.65553995 L35.4043197,5.65553995 Z" id="Fill-196" stroke="none" fill="#B80B5A" fill-rule="evenodd"></path>
                                <path d="M36.7642897,4.90901196 L37.7974897,4.90901196 L37.7974897,6.24233195 C37.7974897,6.81305194 37.3350097,7.27553194 36.7642897,7.27553194 L36.7642897,4.90901196 Z" id="Fill-197" stroke="none" fill="#B80B5A" fill-rule="evenodd"></path>
                                <path d="M36.3558477,8.10569993 C35.7761077,8.10569993 35.5325677,7.28241994 35.5325677,6.57147994 C35.5325677,5.85971995 35.7761077,5.52925995 36.3558477,5.52925995 C36.9347677,5.52925995 37.1586277,6.10571995 37.1586277,6.81747994 C37.1586277,7.52923993 36.9347677,8.10569993 36.3558477,8.10569993 Z" id="Fill-198" stroke="none" fill="#FAB9AF" fill-rule="evenodd"></path>
                                <path d="M43.0323696,24.8866718 C43.0323696,24.8866718 42.2566496,24.8899518 41.5448896,23.7501518 C41.5555496,23.6369918 41.5793296,23.5271118 41.5793296,23.4106718 C41.5793296,23.2507718 41.4628896,23.1146518 41.3054496,23.0884118 C41.1471896,23.0621718 40.9938496,23.1548318 40.9421896,23.3065318 C40.8159096,23.6804518 40.5994296,24.0773318 40.2615896,24.4988118 C39.5850897,25.3442318 38.6092897,25.9403718 37.5277097,25.9247918 C37.2808897,25.9206918 37.0726097,26.1068318 37.0488297,26.3520118 C37.0250497,26.5971918 37.1931497,26.8194118 37.4350497,26.8636918 C37.6400497,26.9014118 37.8516097,26.9210918 38.0680897,26.9210918 C38.9717297,26.9210918 39.7925497,26.5783318 40.4116496,26.0158118 C41.1020896,25.3885118 42.1221696,25.3040518 42.8290096,25.9133118 L42.9192096,25.9903918 L43.0323696,24.8866718 Z" id="Fill-199" stroke="none" fill="#EB5277" fill-rule="evenodd"></path>
                            </g>
                        </g>
                        <g id="girl-on-top" mask="url(#mask-2)">
                            <g transform="translate(201.719998, 68.059999)">
                                <path d="M29.0047117,9.70305992 C26.7743118,11.3069799 9.65681192,24.2859398 10.3603719,24.9042198 C10.9704519,25.4396798 30.1666517,16.0227999 32.3970517,14.4188799 C34.6266317,12.8149599 35.6754117,10.4590999 34.7381517,9.15693992 C33.8025317,7.85477993 31.2351117,8.09913993 29.0047117,9.70305992" id="Fill-200" stroke="none" fill="#FAB9AF" fill-rule="evenodd"></path>
                                <path d="M34.7383157,9.15652992 C33.8018757,7.85436993 31.2352757,8.09872993 29.0048757,9.70346992 C27.6436758,10.6825499 20.7392758,15.8977499 15.7225159,19.9542898 L16.7516159,22.3650898 C22.6334758,19.6131698 31.0556957,15.3836099 32.3972157,14.4184699 C34.6267957,12.8145499 35.6755757,10.4586899 34.7383157,9.15652992" id="Fill-201" stroke="none" fill="#AA321E" fill-rule="evenodd"></path>
                                <path d="M49.6104096,13.2529219 C45.5005696,11.7047619 31.2456897,6.21814195 30.1272097,9.18654192 C29.0087297,12.1549419 43.2226096,22.8600418 49.0273896,25.0404218 C56.8460895,27.9768418 60.6713895,24.4992218 61.7906895,21.5308218 C62.9083495,18.5624218 53.7194295,14.8010819 49.6104096,13.2529219" id="Fill-202" stroke="none" fill="#AA321E" fill-rule="evenodd"></path>
                                <path d="M14.1398339,23.5458078 C14.1398339,23.5458078 11.5461739,24.7684278 10.3883339,26.4199078 C9.23049392,28.0713878 8.66469392,27.9877478 6.93941394,27.3489678 C5.21331395,26.7101878 3.49295397,27.7761878 2.34659398,27.7556878 C-0.0346859997,27.7130478 0.147353999,26.7183878 2.01531398,26.3764478 C3.77995397,26.0533678 10.9270739,23.8565878 14.0397939,21.3318078 L14.1398339,23.5458078 Z" id="Fill-203" stroke="none" fill="#FAB9AF" fill-rule="evenodd"></path>
                                <path d="M79.9191673,24.7885998 C80.7711473,22.1768998 83.1097873,10.8215399 81.5845873,10.3237999 C80.0602073,9.82605991 75.2492673,20.3745398 74.3972874,22.9862398 C73.5444874,25.5979398 74.0897874,28.1186198 75.6141673,28.6155398 C77.1393673,29.1132797 79.0663673,27.4002998 79.9191673,24.7885998" id="Fill-204" stroke="none" fill="#FAB9AF" fill-rule="evenodd"></path>
                                <path d="M83.2640293,13.2853939 C85.0483493,13.0943339 96.2142892,11.2903339 96.1085092,10.3055139 C96.0027292,9.32069392 84.6654093,9.52733392 82.8810893,9.71839392 C81.0967693,9.90945391 79.7355693,10.8631139 79.8413493,11.8487539 C79.9471293,12.8335739 81.4788893,13.4764539 83.2640293,13.2853939" id="Fill-205" stroke="none" fill="#FAB9AF" fill-rule="evenodd"></path>
                                <polygon id="Fill-206" stroke="none" fill="#FA968C" fill-rule="evenodd" points="78.6370973 19.5041918 78.5977373 24.5972118 82.4312373 24.6234518 83.7432373 22.8907918"></polygon>
                                <path d="M51.8701655,18.6741878 L58.5638255,25.9869478 L59.6347455,27.3374878 L74.4964254,28.4330078 C78.4357053,28.8175877 80.2749653,27.2735278 79.9354853,23.4236278 L79.4197053,17.5770278 C79.3008053,16.2387879 78.0519453,15.2966079 76.7317453,15.5508079 L51.8701655,18.6741878 Z" id="Fill-207" stroke="none" fill="#6EE1FF" fill-rule="evenodd"></path>
                                <path d="M76.4269513,21.6703038 L75.9169113,15.8835639 L70.5393514,14.5748439 C68.8640914,14.1664839 67.2839514,15.5252239 67.4348314,17.2431238 L67.6365514,19.5301038 L76.4269513,21.6703038 Z" id="Fill-208" stroke="none" fill="#6EE1FF" fill-rule="evenodd"></path>
                                <path d="M80.0697193,22.4715258 C79.6219993,19.7614258 76.4649993,8.60532592 74.8815793,8.86608592 C73.2989794,9.12766592 73.8910194,20.7068858 74.3379194,23.4169858 C74.7848193,26.1270858 76.4305593,28.1131258 78.0131593,27.8523658 C79.5957593,27.5907858 80.5166193,25.1824458 80.0697193,22.4715258" id="Fill-209" stroke="none" fill="#FAB9AF" fill-rule="evenodd"></path>
                                <path d="M47.4851336,30.2643137 C43.1120736,30.6636537 30.3569737,33.3967137 30.0691537,30.2372537 C29.7805137,27.0786138 45.2375136,18.9343738 49.6105736,18.5350338 C53.9836335,18.1356938 61.1397735,22.3660738 61.4284135,25.5255338 C61.7162335,28.6841737 51.8581935,29.8649737 47.4851336,30.2643137" id="Fill-210" stroke="none" fill="#C8462D" fill-rule="evenodd"></path>
                                <path d="M29.1424717,31.5399877 C28.2314518,34.1320077 21.6870318,51.2462276 22.6177318,51.3503676 C22.8366718,51.3749676 23.7534318,50.2605876 24.9908118,48.5722076 C28.3150918,44.0367876 33.9583317,35.3562677 34.6225317,33.4678077 C35.5335517,30.8766077 35.0456517,28.3444478 33.5327517,27.8122678 C32.0198517,27.2792678 30.0534917,28.9487877 29.1424717,31.5399877" id="Fill-211" stroke="none" fill="#FA968C" fill-rule="evenodd"></path>
                                <path d="M26.0882178,47.0438916 C29.3140977,42.3838316 34.0750177,35.0235117 34.6219577,33.4671517 C35.5346177,30.8767717 35.0458977,28.3437918 33.5329977,27.8116118 C32.0192777,27.2794318 30.0537377,28.9489517 29.1427177,31.5401517 C28.5678978,33.1727717 25.7593978,40.5691716 23.9914778,45.8450516 L26.0882178,47.0438916 Z" id="Fill-212" stroke="none" fill="#C8462D" fill-rule="evenodd"></path>
                                <path d="M78.0741673,10.2591839 C79.4468473,9.10298392 87.6968672,1.36628399 87.0589072,0.607783995 C86.4209472,-0.149075999 77.1352673,6.35926394 75.7634073,7.51546393 C74.3907274,8.67084392 73.7954074,10.2231039 74.4333674,10.9799639 C75.0713273,11.7384639 76.7014873,11.4153839 78.0741673,10.2591839" id="Fill-213" stroke="none" fill="#FAB9AF" fill-rule="evenodd"></path>
                                <path d="M90.9330792,25.4632138 C91.0150792,24.1954938 90.0540392,23.1016138 88.7854992,23.0196138 C87.5177792,22.9376138 86.4238992,23.8994738 86.3418992,25.1671938 C86.2607192,26.4349138 87.2217592,27.5287938 88.4894792,27.6107938 C88.4894792,27.6107938 89.5382592,26.5603738 89.9859792,25.9355338 C90.2278792,25.5976938 90.9043792,25.9076538 90.9330792,25.4632138" id="Fill-214" stroke="none" fill="#823264" fill-rule="evenodd"></path>
                                <path d="M86.3783072,2.89320597 C86.3783072,2.89320597 85.0187473,1.58038599 85.9371473,0.762025993 C86.8555472,-0.0571539995 90.0601072,1.03180599 90.3676072,1.84524598 C90.6759272,2.65868598 88.3922272,2.47828598 86.3783072,2.89320597" id="Fill-215" stroke="none" fill="#FAB9AF" fill-rule="evenodd"></path>
                                <path d="M85.2235833,2.68861598 C85.2686833,2.99611597 85.5532233,3.20849597 85.8607233,3.16421597 L92.2214632,2.24007598 C92.5289632,2.19497598 92.7413432,1.91043598 92.6970632,1.60293599 C92.6527832,1.29625599 92.3674232,1.08305599 92.0599232,1.12815599 L85.6991833,2.05229598 C85.3916833,2.09657598 85.1793033,2.38111598 85.2235833,2.68861598" id="Fill-216" stroke="none" fill="#0073AA" fill-rule="evenodd"></path>
                                <path d="M89.7399792,2.97569797 C89.6382992,3.15773797 89.0560992,2.97487797 88.4041992,2.69525798 C88.0442192,2.54109798 87.6333992,2.46647798 87.2619392,2.59439798 C87.0208592,2.67803798 86.7190992,2.65179798 86.4452192,2.50009798 C85.9901192,2.24671798 85.7867593,1.74159798 85.9917592,1.37177799 C86.2598992,0.889617992 87.1766592,1.27255799 87.5194192,1.44229799 C88.1237592,1.74159798 89.8678992,2.74445798 89.7399792,2.97569797" id="Fill-217" stroke="none" fill="#FAB9AF" fill-rule="evenodd"></path>
                                <path d="M87.4120812,45.0315296 L87.4120812,49.9515296 C83.8327813,49.9515296 80.9308013,47.0495496 80.9308013,43.4702496 L80.9308013,25.3154498 L87.4120812,25.3154498 L87.4120812,45.0315296 Z" id="Fill-218" stroke="none" fill="#823264" fill-rule="evenodd"></path>
                                <path d="M90.4550192,52.0015295 L90.4550192,56.9215295 C86.8757192,56.9215295 83.9737393,54.0195495 83.9737393,50.4402496 L83.9737393,29.0054497 L90.4550192,24.9054498 L90.4550192,52.0015295 Z" id="Fill-219" stroke="none" fill="#823264" fill-rule="evenodd"></path>
                                <path d="M96.4648812,8.48109593 C96.4648812,8.48109593 95.0085612,9.44705592 95.1553412,9.98907591 C95.3029412,10.5310959 95.5013812,10.8689359 96.2992412,10.6836159 C97.0962812,10.4982959 98.1016011,9.86443591 98.6296811,9.36423592 C99.1561211,8.86321592 99.6850211,7.65125593 99.6563211,7.48397593 C99.5505411,6.87553594 98.6911811,7.88249593 98.2508411,8.34989593 C97.8113211,8.81811592 97.2676612,9.30191592 97.1020212,9.02721592 C96.9372012,8.75169592 97.8474011,7.91939593 97.7621211,7.54137593 C97.6776611,7.16335594 96.4648812,8.48109593 96.4648812,8.48109593" id="Fill-220" stroke="none" fill="#FAB9AF" fill-rule="evenodd"></path>
                                <path d="M88.5267892,24.2484658 C86.0233292,21.4006058 83.0852693,22.8503658 81.4928293,24.2501058 C79.8995693,25.6498458 82.0856893,27.9040258 83.1598893,29.1274657 C84.2357293,30.3509057 86.0872892,29.8777657 87.6805492,28.4780258 C89.2729892,27.0782858 89.6018092,25.4719058 88.5267892,24.2484658" id="Fill-221" stroke="none" fill="#823264" fill-rule="evenodd"></path>
                                <path d="M87.6579172,23.4292858 C86.1737172,21.7400858 83.2471373,19.5392058 81.9646573,20.6658858 C80.6821773,21.7925658 80.9937773,24.9380858 82.4787973,26.6272858 C83.9621773,28.3164858 85.5669173,28.6371058 86.8502172,27.5104258 C88.1326972,26.3829258 89.1429372,25.1184858 87.6579172,23.4292858" id="Fill-222" stroke="none" fill="#FAB9AF" fill-rule="evenodd"></path>
                                <path d="M83.1038833,27.2501578 L86.3519032,24.3957378 C86.6946632,24.0947978 87.4958032,23.8028778 87.9172832,23.7544978 C88.9808232,24.9648178 88.9144032,26.0923178 86.8496432,27.5100978 C85.6385033,28.3415778 84.4035833,28.3751978 83.1038833,27.2501578" id="Fill-223" stroke="none" fill="#FF9669" fill-rule="evenodd"></path>
                                <path d="M86.6288992,24.7105358 L82.8905193,27.9954558 L83.5456993,28.7408357 C84.3271593,29.6305357 85.6817993,29.7174557 86.5714992,28.9359957 L90.3197192,25.6420558 L89.6735592,24.9065158 C88.8871792,24.0118958 87.5243392,23.9241558 86.6288992,24.7105358" id="Fill-224" stroke="none" fill="#823264" fill-rule="evenodd"></path>
                                <path d="M82.8412373,25.7839158 L84.4746773,27.6436758 L85.2864773,26.9294558 L84.3656173,25.8823158 C83.9720173,25.4337758 83.2889573,25.3903158 82.8412373,25.7839158" id="Fill-225" stroke="none" fill="#823264" fill-rule="evenodd"></path>
                                <path d="M83.4674713,25.8716558 C82.9754713,25.3124158 82.4014713,25.0139358 81.9471913,25.4140958 C81.4920913,25.8142558 81.8684713,26.6285158 82.3596513,27.1877558 C82.8508313,27.7469958 83.2706713,27.8380158 83.7249513,27.4386758 C84.1808713,27.0385158 83.9586513,26.4308958 83.4674713,25.8716558" id="Fill-226" stroke="none" fill="#FAB9AF" fill-rule="evenodd"></path>
                                <path d="M25.3019198,48.1041516 C25.3019198,48.1041516 23.9046398,50.6084316 23.9243198,52.6248115 C23.9448198,54.6420115 23.4364198,54.9035915 21.6611198,55.3882115 C19.8858198,55.8736515 18.8517998,57.4767515 18.1629998,58.3918715 C17.4741998,59.3086315 16.4664199,59.2610715 17.3159398,57.6809315 C18.1662798,56.0999715 22.8706198,50.2271316 23.9316998,46.3624716 L25.3019198,48.1041516 Z" id="Fill-227" stroke="none" fill="#FA968C" fill-rule="evenodd"></path>
                                <polygon id="Fill-228" stroke="none" fill="#C8462D" fill-rule="evenodd" points="61.8831855 27.7130478 60.4949255 17.5909678 49.9161056 18.5175678 59.3469255 27.8745878"></polygon>
                                <polygon id="Fill-229" stroke="none" fill="#823214" fill-rule="evenodd" points="59.8291675 28.1062378 58.2842875 17.7110978 59.9070675 17.4700178 61.4519475 27.8651578"></polygon>
                                <polygon id="Fill-230" stroke="none" fill="#965028" fill-rule="evenodd" points="61.0255475 27.9284618 61.4519475 27.8653218 59.9070675 17.4701818 59.4806675 17.5333218"></polygon>
                                <path d="M58.6400035,20.1027918 L60.2677035,19.9018918" id="Stroke-231" stroke="#C8462D" stroke-width="0.819999993" fill="none" stroke-linecap="square"></path>
                                <path d="M59.1244595,24.4290298 L60.9694595,24.1731898" id="Stroke-232" stroke="#C8462D" stroke-width="0.819999993" fill="none" stroke-linecap="square"></path>
                            </g>
                        </g>
                        <path d="M369.170147,180.142928 C369.170147,180.904708 357.482687,181.521348 343.066267,181.521348 C328.649847,181.521348 316.963207,180.904708 316.963207,180.142928 C316.963207,179.381968 328.649847,178.764508 343.066267,178.764508 C357.482687,178.764508 369.170147,179.381968 369.170147,180.142928" id="Fill-233" fill="#0091C8" mask="url(#mask-2)"></path>
                        <path d="M343.461097,94.1887252 C343.461097,98.7430051 347.156837,100.558485 349.703757,100.558485 C352.251497,100.558485 352.172777,95.9984652 352.172777,94.0411252 C352.172777,92.0837852 350.126877,91.0432052 347.579137,91.0432052 C345.032217,91.0432052 343.461097,92.2313852 343.461097,94.1887252" id="Fill-234" fill="#1E2D64" mask="url(#mask-2)"></path>
                        <path d="M337.022785,106.608773 C336.180645,109.124533 333.909245,121.096533 335.677985,121.688573 C337.447545,122.281433 342.585665,111.269653 343.428625,108.753893 C344.270765,106.238133 343.519645,103.718273 341.750905,103.126233 C339.981345,102.534193 337.864925,104.093013 337.022785,106.608773" id="Fill-235" fill="#FAB9AF" mask="url(#mask-2)"></path>
                        <path d="M341.744181,112.709163 C342.548601,110.994543 343.178361,109.498863 343.428461,108.753483 C344.270601,106.237723 343.519481,103.718683 341.750741,103.125823 C339.982001,102.533783 337.865581,104.093423 337.022621,106.609183 C336.690521,107.599743 336.137841,110.058103 335.697501,112.709163 L341.744181,112.709163 Z" id="Fill-236" fill="#FFAA50" mask="url(#mask-2)"></path>
                        <path d="M330.249831,170.679309 L328.893551,176.388148 C328.893551,176.388148 329.340451,177.382808 329.350291,178.046188 C329.356031,178.432408 329.372431,178.950648 329.383911,179.315548 C329.392111,179.574668 329.211711,179.799348 328.958331,179.847728 L327.644691,180.096188 C327.394591,180.144568 327.153511,179.978108 327.109231,179.726368 L327.050191,179.391808 L325.921051,180.145388 C325.528271,180.406968 325.029711,180.442228 324.605771,180.235588 C323.518451,179.705868 321.533231,178.693168 321.628351,178.415188 C321.929291,177.541888 325.318351,178.363528 325.318351,178.363528 L327.194511,176.161008 L327.932511,172.384088 L330.249831,170.679309 Z" id="Fill-237" fill="#FA968C" mask="url(#mask-2)"></path>
                        <path d="M360.187785,169.098595 L362.220565,174.602434 C362.220565,174.602434 363.143065,175.182994 363.519445,175.730754 C363.738385,176.048914 364.038505,176.471214 364.250885,176.768874 C364.401765,176.978794 364.374705,177.266614 364.191025,177.447834 L363.235725,178.381814 C363.052865,178.560574 362.760125,178.554834 362.584645,178.371154 L362.350125,178.125154 L361.826965,179.377294 C361.644925,179.812714 361.249685,180.117754 360.782285,180.181714 C359.583445,180.342434 357.369445,180.599094 357.294825,180.313734 C357.061125,179.421574 360.339485,178.227654 360.339485,178.227654 L360.681425,175.354374 L359.202965,171.801315 L360.187785,169.098595 Z" id="Fill-238" fill="#FAB9AF" mask="url(#mask-2)"></path>
                        <path d="M330.439579,153.225527 C330.001699,155.775727 327.077579,175.801766 327.958259,175.752566 C328.721679,175.709106 335.394839,156.703147 335.832719,154.152127 C336.270599,151.601927 335.418619,149.326427 333.930319,149.070587 C332.440379,148.814747 330.877459,150.675327 330.439579,153.225527" id="Fill-239" fill="#FA968C" mask="url(#mask-2)"></path>
                        <path d="M340.169043,130.287913 C338.029663,133.352253 328.634103,152.850213 330.788243,154.354913 C332.942383,155.859613 346.262463,139.011073 348.402663,135.946733 C350.542043,132.882393 350.100063,128.969353 347.945103,127.464653 C345.790963,125.959953 342.309243,127.223573 340.169043,130.287913" id="Fill-240" fill="#3C5064" mask="url(#mask-2)"></path>
                        <path d="M350.678491,154.461103 C351.725631,156.827623 360.384011,175.120182 361.090031,174.591282 C361.701751,174.132082 356.730091,154.611983 355.682951,152.245463 C354.634171,149.878943 352.665351,148.457063 351.282831,149.068783 C349.901131,149.680503 349.630531,152.095403 350.678491,154.461103" id="Fill-241" fill="#FAB9AF" mask="url(#mask-2)"></path>
                        <path d="M330.469181,172.404998 C332.720081,166.673199 335.522841,155.959079 335.832801,154.151799 C336.270681,151.601599 335.418701,149.326099 333.930401,149.070259 C332.440461,148.814419 330.877541,150.674999 330.439661,153.225199 C330.126421,155.047239 328.351121,165.666239 327.793521,171.636659 L330.469181,172.404998 Z" id="Fill-242" fill="#3C5064" mask="url(#mask-2)"></path>
                        <path d="M359.039457,172.404998 L361.601957,171.379999 C360.493317,165.777759 356.492537,154.074719 355.682377,152.245299 C354.634417,149.878779 352.665597,148.456899 351.283077,149.068619 C349.900557,149.681159 349.629957,152.094419 350.678737,154.460939 C351.451997,156.207539 356.231777,167.276719 359.039457,172.404998" id="Fill-243" fill="#3C5A73" mask="url(#mask-2)"></path>
                        <path d="M346.074847,129.974427 C345.989567,133.711167 348.966987,155.148427 351.594267,155.208287 C354.221547,155.268147 355.978807,133.862047 356.064087,130.126127 C356.148547,126.389387 353.612287,123.376707 350.985007,123.316847 C348.357727,123.256987 346.160127,126.237687 346.074847,129.974427" id="Fill-244" fill="#3C5A73" mask="url(#mask-2)"></path>
                        <polygon id="Fill-245" fill="#46738C" mask="url(#mask-2)" points="330.384311 173.667798 327.160071 172.838778 327.524151 171.425099 330.747571 172.252478"></polygon>
                        <polygon id="Fill-246" fill="#55879B" mask="url(#mask-2)" points="362.160951 172.293724 359.175331 173.454844 358.711211 172.260104 361.696831 171.098985"></polygon>
                        <path d="M328.893305,176.387246 L329.483705,173.903466 C328.867885,173.847706 328.252065,173.835406 327.637065,173.896086 L327.195085,176.160926 L325.318925,178.363446 C325.318925,178.363446 321.929045,177.541806 321.628925,178.415106 C321.532985,178.693906 323.518205,179.705786 324.605525,180.235506 C325.029465,180.442146 325.528025,180.406886 325.920805,180.145306 L327.049945,179.391726 L327.108985,179.726286 C327.153265,179.978026 327.394345,180.144486 327.645265,180.096106 L328.958085,179.847646 C329.212285,179.799266 329.391865,179.574586 329.384485,179.315466 C329.372185,178.950566 329.355785,178.432326 329.350865,178.046106 C329.340205,177.382726 328.893305,176.387246 328.893305,176.387246" id="Fill-247" fill="#C34646" mask="url(#mask-2)"></path>
                        <path d="M363.519855,175.730672 C363.143475,175.182912 362.220155,174.602352 362.220155,174.602352 L361.776535,173.400232 C361.177935,173.472392 360.579335,173.557672 359.984015,173.679032 L360.681015,175.354292 L360.339075,178.227572 C360.339075,178.227572 357.061535,179.421492 357.294415,180.313652 C357.369855,180.599012 359.583855,180.342352 360.781875,180.181632 C361.249275,180.118492 361.645335,179.813452 361.827375,179.377212 L362.349715,178.125072 L362.584235,178.371072 C362.760535,178.554752 363.053275,178.560492 363.235315,178.381732 L364.190615,177.447752 C364.375115,177.266532 364.401355,176.978712 364.251295,176.768792 C364.038915,176.470312 363.738795,176.048832 363.519855,175.730672" id="Fill-248" fill="#C34646" mask="url(#mask-2)"></path>
                        <path d="M329.179157,177.160834 C328.679777,177.397814 328.093477,177.536394 327.418617,177.536394 C326.963517,177.536394 326.550237,177.471614 326.174677,177.358454 L325.318597,178.363774 C325.318597,178.363774 321.928717,177.542134 321.628597,178.414614 C321.533477,178.693414 323.518697,179.706114 324.606017,180.235834 C325.029137,180.442474 325.528517,180.407214 325.920477,180.145634 L327.049617,179.392054 L327.109477,179.726614 C327.152937,179.978354 327.394017,180.144814 327.644937,180.096434 L328.957757,179.847154 C329.211957,179.799594 329.392357,179.574094 329.384157,179.315794 C329.371857,178.950894 329.356277,178.432654 329.350537,178.046434 C329.346437,177.775834 329.268537,177.451114 329.179157,177.160834" id="Fill-249" fill="#373C41" mask="url(#mask-2)"></path>
                        <path d="M364.250967,176.768464 C364.038587,176.470804 363.738467,176.048504 363.519527,175.730344 C363.259587,175.351504 362.742987,174.962004 362.446147,174.754544 C362.122247,175.710664 361.469527,176.541324 360.486347,176.985764 L360.338747,178.227244 C360.338747,178.227244 357.061207,179.421164 357.294907,180.313324 C357.369527,180.599504 359.584347,180.342024 360.782367,180.181304 C361.249767,180.118164 361.645007,179.813124 361.827047,179.377704 L362.350207,178.124744 L362.584727,178.370744 C362.761027,178.555244 363.052947,178.560984 363.235807,178.382224 L364.191107,177.447424 C364.374787,177.266204 364.401847,176.979204 364.250967,176.768464" id="Fill-250" fill="#373C41" mask="url(#mask-2)"></path>
                        <path d="M334.595667,117.254013 C332.836767,116.075673 322.859007,110.310253 322.212847,111.273753 C321.567507,112.237253 330.498947,119.563953 332.257847,120.743113 C334.017567,121.921453 335.966707,122.096113 336.612047,121.132613 C337.257387,120.169113 336.355387,118.432353 334.595667,117.254013" id="Fill-251" fill="#FAB9AF" mask="url(#mask-2)"></path>
                        <path d="M323.312631,109.361513 C323.312631,109.361513 324.608231,110.968713 324.249071,111.527133 C323.889091,112.085553 323.545511,112.394693 322.714031,111.901873 C321.881731,111.409053 320.973991,110.335673 320.559891,109.583733 C320.144971,108.831793 319.981791,107.277893 320.073631,107.099953 C320.409831,106.452153 321.018271,107.893713 321.347911,108.576773 C321.675911,109.260653 322.115431,110.000293 322.399971,109.748553 C322.683691,109.497633 321.955531,108.235653 322.185951,107.840413 C322.416371,107.445173 323.312631,109.361513 323.312631,109.361513" id="Fill-252" fill="#FAB9AF" mask="url(#mask-2)"></path>
                        <path d="M354.492639,104.528351 L342.022079,102.817011 C339.536659,102.475891 337.444839,104.665291 337.899119,107.131851 L341.905639,128.932371 C342.383699,131.535051 344.605079,133.455491 347.249579,133.553071 C350.006419,133.654751 355.510259,132.829011 356.063759,130.125471 L357.218319,108.376611 C357.593059,106.547191 356.343379,104.782551 354.492639,104.528351" id="Fill-253" fill="#FAC855" mask="url(#mask-2)"></path>
                        <path d="M338.360123,112.481367 C336.321603,111.460467 326.975243,107.552347 326.343843,108.814327 C325.712443,110.075487 334.353603,115.812207 336.447063,116.717487 C340.290403,118.380447 343.372783,118.897867 344.004183,117.636707 C344.635583,116.374727 340.398643,113.501447 338.360123,112.481367" id="Fill-254" fill="#FAB9AF" mask="url(#mask-2)"></path>
                        <path d="M350.918751,114.428047 C346.692471,117.898287 341.833151,118.974947 341.009871,117.963887 C340.149691,116.907727 343.029531,112.938107 347.037691,109.501487 C351.188531,105.941867 355.047451,103.898427 356.315991,105.397387 C358.527531,108.013187 355.145031,110.957807 350.918751,114.428047" id="Fill-255" fill="#FAB9AF" mask="url(#mask-2)"></path>
                        <path d="M351.517761,114.558591 C354.677221,111.820611 359.090461,108.097811 356.316401,105.397551 C354.909281,104.028151 351.188941,105.942031 347.037281,109.501651 C348.936401,112.356071 351.517761,114.558591 351.517761,114.558591" id="Fill-256" fill="#FFAA50" mask="url(#mask-2)"></path>
                        <path d="M324.914173,109.364301 C324.914173,109.364301 326.682913,110.429481 327.187213,109.997341 C327.691513,109.565201 327.950633,109.183081 327.349573,108.425401 C326.747693,107.668541 325.561973,106.915781 324.760833,106.606641 C323.958873,106.298321 322.396773,106.347521 322.232773,106.463141 C321.637453,106.884621 323.147893,107.291341 323.870313,107.524221 C324.591093,107.757101 325.383213,108.091661 325.173293,108.407361 C324.963373,108.723061 323.614473,108.172841 323.253673,108.455741 C322.892873,108.737001 324.914173,109.364301 324.914173,109.364301" id="Fill-257" fill="#FAB9AF" mask="url(#mask-2)"></path>
                        <path d="M347.037363,107.854845 C348.283763,108.212365 350.478903,103.977065 350.478903,103.977065 L349.648243,99.4728051 L346.849583,99.8196651 L346.284603,103.401425 C346.284603,103.401425 345.952503,107.544065 347.037363,107.854845" id="Fill-258" fill="#FA968C" mask="url(#mask-2)"></path>
                        <path d="M343.847071,96.8981692 C343.847071,100.176529 344.479291,101.788649 346.164391,101.788649 C348.215211,101.788649 350.805591,99.5393891 350.805591,96.8383092 C350.805591,94.1372292 349.611671,92.5751292 347.560031,92.5751292 C345.509211,92.5751292 343.847071,94.1970892 343.847071,96.8981692" id="Fill-259" fill="#FAB9AF" mask="url(#mask-2)"></path>
                        <path d="M350.734579,95.7798532 L345.539879,95.7798532 C344.992119,95.7798532 344.486179,95.6076532 344.067159,95.3181932 C344.582119,93.5789732 345.949059,92.5752932 347.560359,92.5752932 C349.325819,92.5752932 350.454139,93.7347732 350.734579,95.7798532" id="Fill-260" fill="#FF9669" mask="url(#mask-2)"></path>
                        <path d="M345.539879,95.2765372 L351.517679,95.2765372 L351.517679,94.0842572 C351.517679,92.6623772 350.364759,91.5094572 348.942059,91.5094572 L342.948679,91.5094572 L342.948679,92.6845172 C342.948679,94.1162372 344.108979,95.2765372 345.539879,95.2765372" id="Fill-261" fill="#1E2D64" mask="url(#mask-2)"></path>
                        <path d="M349.809701,97.3113672 L349.809701,94.3380472 L348.511641,94.3380472 L348.511641,96.0133072 C348.511641,96.7308072 349.092201,97.3113672 349.809701,97.3113672" id="Fill-262" fill="#1E2D64" mask="url(#mask-2)"></path>
                        <path d="M349.314011,96.7359732 C349.314011,97.6297731 349.595271,98.3546531 350.322611,98.3546531 C351.050771,98.3546531 351.518171,97.1254732 351.518171,96.2308532 C351.518171,95.3370532 351.050771,95.1172932 350.322611,95.1172932 C349.595271,95.1172932 349.314011,95.8421732 349.314011,96.7359732" id="Fill-263" fill="#FAB9AF" mask="url(#mask-2)"></path>
                        <path d="M324.841275,110.650717 L322.203335,104.245697 C322.161515,104.145657 322.079515,104.069397 321.977015,104.034957 L319.291515,103.146077 C318.990575,103.046857 318.711775,103.346977 318.833135,103.639717 L321.482555,110.029977 C321.523555,110.128377 321.605555,110.204637 321.706415,110.239077 L324.380435,111.142717 C324.681375,111.244397 324.961815,110.944277 324.841275,110.650717" id="Fill-264" fill="#50555A" mask="url(#mask-2)"></path>
                        <path d="M324.283183,111.101553 L321.645243,104.696533 C321.604243,104.596493 321.522243,104.520233 321.419743,104.485793 L318.832643,103.629713 C318.833463,103.632993 318.832643,103.636273 318.833463,103.639553 L321.482883,110.029813 C321.523883,110.128213 321.605063,110.204473 321.705923,110.238913 L324.284003,111.109753 C324.283183,111.107293 324.284003,111.104013 324.283183,111.101553" id="Fill-265" fill="#373C41" mask="url(#mask-2)"></path>
                        <path d="M321.234587,105.731537 C321.387927,106.114477 321.344467,106.491677 321.136187,106.575317 C320.928727,106.658957 320.635987,106.416237 320.481827,106.033297 C320.328487,105.650357 320.371947,105.273157 320.580227,105.189517 C320.787687,105.105877 321.081247,105.348597 321.234587,105.731537" id="Fill-266" fill="#50555A" mask="url(#mask-2)"></path>
                        <path d="M53.9350075,97.6232131 C53.9350075,97.1713932 55.2601275,95.0623532 55.1100675,93.9200932 C54.9821475,92.9541332 54.2121675,92.1398732 53.2527675,91.9684932 C51.7964475,91.7093732 50.5295476,92.8229332 50.5295476,94.2316932 C50.5295476,94.6835132 50.6648476,95.1017132 50.8895276,95.4567732 C49.9875276,95.7675532 49.3348076,96.6154332 49.3348076,97.6232131 C49.3348076,98.1111131 49.4889676,98.5621131 49.7480876,98.9343931 C47.1208076,99.5403731 45.2413676,102.102053 45.7415676,105.008133 C46.1048276,107.114713 47.7768076,108.833433 49.8751876,109.241793 C53.2535875,109.900253 56.2113275,107.330373 56.2113275,104.070053 C56.2113275,101.965113 53.9350075,98.2906931 53.9350075,97.6232131" id="Fill-267" fill="#FF7350" mask="url(#mask-2)"></path>
                        <path d="M52.7538795,148.621391 C52.7538795,148.621391 51.3123196,151.197831 50.5177396,151.063351 C49.7231596,150.928051 48.4127996,151.109271 48.4308396,152.239231 C48.4439596,153.078091 48.4021396,154.003871 48.4792196,154.671351 C48.5456396,155.245351 47.5780396,159.866051 47.5780396,159.866051 C49.5148796,160.219471 50.4299996,152.621351 53.4352995,150.894431 L52.7538795,148.621391 Z" id="Fill-268" fill="#FA968C" mask="url(#mask-2)"></path>
                        <path d="M56.4246095,177.618066 C56.4246095,178.037906 51.4094896,178.379026 45.2225896,178.379026 C39.0356897,178.379026 34.0205697,178.037906 34.0205697,177.618066 C34.0205697,177.197406 39.0356897,176.857106 45.2225896,176.857106 C51.4094896,176.857106 56.4246095,177.197406 56.4246095,177.618066" id="Fill-269" fill="#0091C8" mask="url(#mask-2)"></path>
                        <path d="M65.1227594,144.213481 C62.7349195,145.571401 49.1425996,153.729581 48.8744596,152.832501 C48.8113196,152.621761 49.8551796,151.686141 51.2967396,150.167501 C55.1679595,146.088821 60.5110795,140.153661 62.2511195,139.163921 C64.6389594,137.806821 67.2178594,137.835521 68.0099794,139.229521 C68.8037394,140.624341 67.5105994,142.855561 65.1227594,144.213481" id="Fill-270" fill="#FA968C" mask="url(#mask-2)"></path>
                        <path d="M53.4890095,89.6234572 C52.7272295,89.4405972 52.0130095,89.6365772 51.4898496,90.0605172 C50.6608296,90.7312772 49.6743696,91.1765372 48.6083696,91.1765372 L48.0450296,91.1765372 C47.2201096,91.1765372 46.4706296,91.6562372 46.1254096,92.4048972 L44.9495296,94.9526372 L45.9532096,95.3232772 L52.2590095,94.9526372 L52.2590095,94.0473572 C52.4689295,94.1113172 52.6878695,94.1555972 52.9199295,94.1555972 C54.3721495,94.1555972 55.5094895,92.8107972 55.1552495,91.2987172 C54.9641895,90.4828172 54.3049095,89.8194372 53.4890095,89.6234572" id="Fill-271" fill="#FF7350" mask="url(#mask-2)"></path>
                        <path d="M51.0358156,103.199869 C51.0358156,107.903389 47.8952156,111.717209 44.0215356,111.717209 C40.1486756,111.717209 37.0080757,107.903389 37.0080757,103.199869 C37.0080757,98.4963491 40.1486756,94.6833492 44.0215356,94.6833492 C47.8952156,94.6833492 51.0358156,98.4963491 51.0358156,103.199869" id="Fill-272" fill="#FF7350" mask="url(#mask-2)"></path>
                        <path d="M51.6772195,135.051785 C55.5968195,137.032085 66.5757994,143.461705 68.0058794,140.630245 C69.4359594,137.798785 57.9354595,125.342985 54.0158595,123.363505 C50.0962596,121.383205 41.8855996,122.683725 40.4546996,125.516005 C39.0246197,128.347465 47.7576196,133.071485 51.6772195,135.051785" id="Fill-273" fill="#A03C37" mask="url(#mask-2)"></path>
                        <path d="M56.6793015,106.666091 C57.1294815,109.375371 57.7371015,120.953771 56.1545015,121.216991 C54.5719015,121.480211 51.4001416,110.328211 50.9491416,107.618931 C50.4981416,104.908831 51.4165416,102.498851 52.9983215,102.235631 C54.5809215,101.972411 56.2291215,103.955991 56.6793015,106.666091" id="Fill-274" fill="#FAB9AF" mask="url(#mask-2)"></path>
                        <path d="M57.9841675,117.857369 C59.6848475,117.283369 70.5785474,114.240349 70.8958874,115.178429 C71.2124074,116.117329 60.8328475,120.682269 59.1321675,121.256269 C57.4323075,121.830269 55.7972275,121.535069 55.4798875,120.596169 C55.1625475,119.658089 56.2843075,118.431369 57.9841675,117.857369" id="Fill-275" fill="#FAB9AF" mask="url(#mask-2)"></path>
                        <path d="M57.3511275,110.793725 L55.7078475,105.945885 L55.7693475,105.342365 C55.9415475,103.667925 54.6287275,102.212425 52.9452675,102.212425 L42.9306076,102.212425 C41.4095076,102.212425 40.3385876,103.708925 40.8314076,105.148845 L45.5636276,118.985525 L47.0347076,123.725945 L53.7677275,124.794405 L54.8665275,114.120465 L54.9657475,114.120465 C56.6902075,114.120465 57.9046275,112.426345 57.3511275,110.793725" id="Fill-276" fill="#39AE96" mask="url(#mask-2)"></path>
                        <path d="M48.7919676,152.455137 C48.4106676,155.175077 44.8961476,176.367976 44.0220276,176.033416 C43.2635276,175.742316 42.6583676,154.369837 43.0388476,151.649897 C43.4201476,148.929137 45.0166876,146.903737 46.6050276,147.125957 C48.1941876,147.348997 49.1724476,149.735197 48.7919676,152.455137" id="Fill-277" fill="#FAB9AF" mask="url(#mask-2)"></path>
                        <path d="M68.0103894,139.229849 C67.2174494,137.835849 64.6385494,137.806329 62.2515295,139.164249 C60.6361295,140.082649 55.9194895,145.258489 52.1548695,149.259269 L52.1548695,149.274849 L53.6546495,150.775449 C57.8981495,148.484369 63.6471694,145.053489 65.1231694,144.213809 C67.5110094,142.855889 68.8033294,140.624669 68.0103894,139.229849" id="Fill-278" fill="#A03C37" mask="url(#mask-2)"></path>
                        <path d="M45.4675236,171.123749 C46.8115036,164.775309 48.5318636,154.312109 48.7918036,152.454809 C49.1731036,149.734869 48.1940236,147.348669 46.6056836,147.126449 C45.0165236,146.904229 43.4199836,148.928809 43.0395036,151.648749 C42.7721836,153.551149 42.9894836,164.566209 43.4019436,171.123749 L45.4675236,171.123749 Z" id="Fill-279" fill="#C34646" mask="url(#mask-2)"></path>
                        <path d="M50.2646056,104.946387 C48.0899656,105.241587 46.1383656,102.212507 46.1383656,102.212507 L48.1350656,98.2920871 L50.2646056,98.7275071 C50.2646056,98.7275071 49.9210256,100.542987 50.0850256,102.212507 C50.2195056,103.581907 50.9591456,104.852087 50.2646056,104.946387" id="Fill-280" fill="#FA968C" mask="url(#mask-2)"></path>
                        <path d="M49.7653896,132.745125 C49.7653896,137.136225 49.8728096,152.410365 46.7010496,152.410365 C43.5284696,152.410365 38.2706297,135.763545 38.2780097,129.562705 C38.2870297,121.211005 43.1414296,118.428745 46.3140096,118.428745 C49.4857696,118.428745 49.7653896,128.354025 49.7653896,132.745125" id="Fill-281" fill="#C34646" mask="url(#mask-2)"></path>
                        <path d="M56.4626575,125.092065 C55.5040775,124.293385 54.6578375,123.687405 54.0157775,123.363505 C52.6791775,122.687825 50.8423776,122.402465 48.9465376,122.420505 C48.4397776,120.123685 47.6238776,118.428745 46.3135176,118.428745 C44.3217376,118.428745 41.6714976,119.530825 39.9724577,122.417225 C39.0917777,123.912085 47.8321576,126.082625 50.5578376,126.280245 C52.5742175,126.425385 57.5532575,125.999805 56.4626575,125.092065" id="Fill-282" fill="#39AE96" mask="url(#mask-2)"></path>
                        <path d="M43.4039116,171.162207 C43.4039116,171.162207 43.3186316,173.707486 42.9233916,175.103946 C42.5265116,176.498766 42.8249916,177.085886 44.2665516,177.179366 C45.7081116,177.272026 49.3308716,177.821426 49.7548116,177.403226 C50.1779316,176.986666 48.4879116,176.315086 47.3210516,175.812426 C45.9401716,175.217106 45.1193516,173.430326 45.1685516,172.248706 L43.4039116,171.162207 Z" id="Fill-283" fill="#FAB9AF" mask="url(#mask-2)"></path>
                        <path d="M49.8362376,152.164037 C49.9567776,151.766337 50.1314376,151.387497 50.3643176,151.046377 C49.5648176,150.957817 48.4135376,151.177577 48.4307576,152.238657 C48.4438776,153.077517 48.4020576,154.004117 48.4791376,154.671597 C48.5455576,155.244777 47.5779576,159.866297 47.5779576,159.866297 C48.5242376,160.038497 49.2269776,158.311577 50.0494376,156.299297 C49.3114376,155.082417 49.2433776,153.460457 49.8362376,152.164037" id="Fill-284" fill="#642823" mask="url(#mask-2)"></path>
                        <path d="M47.3209696,175.812344 C47.2873496,175.797584 47.2586496,175.775444 47.2266696,175.759864 C46.7822296,176.066544 46.2262696,176.259244 45.5432096,176.259244 C44.2959896,176.259244 43.4513896,175.639324 42.9995696,174.798824 C42.9757896,174.905424 42.9503696,175.007924 42.9224896,175.103864 C42.5264296,176.498684 42.8257296,177.085804 44.2664696,177.179284 C45.7080296,177.271944 49.3307896,177.821344 49.7547296,177.403144 C50.1778496,176.986584 48.4878296,176.315004 47.3209696,175.812344" id="Fill-285" fill="#642823" mask="url(#mask-2)"></path>
                        <path d="M46.7944476,105.044459 C48.3171876,107.330619 53.6234075,117.639659 52.2884475,118.528539 C50.9534876,119.418239 43.4832876,110.551579 41.9597276,108.265419 C40.4369876,105.979259 40.2844676,103.405279 41.6194276,102.515579 C42.9543876,101.626699 45.2717076,102.758299 46.7944476,105.044459" id="Fill-286" fill="#FAB9AF" mask="url(#mask-2)"></path>
                        <path d="M52.7478935,114.700287 C54.2411135,113.705627 63.9753334,107.944307 64.5247334,108.769227 C65.0741334,109.593327 56.2304335,116.690427 54.7372135,117.685907 C53.2431735,118.680567 51.5875936,118.819147 51.0381936,117.995047 C50.4896136,117.170127 51.2546736,115.694947 52.7478935,114.700287" id="Fill-287" fill="#FAB9AF" mask="url(#mask-2)"></path>
                        <path d="M63.2076494,107.924463 C63.2076494,107.924463 63.6947294,109.750603 64.8558494,109.345523 C66.0177894,108.941263 66.6229494,105.610423 66.0612494,104.946223 C65.5003694,104.282023 64.5491694,106.365643 63.2076494,107.924463" id="Fill-288" fill="#FAB9AF" mask="url(#mask-2)"></path>
                        <path d="M62.8256935,109.033185 C62.5788735,108.845405 62.5313135,108.491985 62.7199135,108.245985 L66.6173734,103.134105 C66.8059734,102.887285 67.1577534,102.840545 67.4045734,103.028325 C67.6513934,103.216105 67.6989534,103.568705 67.5103534,103.815525 L63.6128934,108.927405 C63.4251134,109.173405 63.0725134,109.220965 62.8256935,109.033185" id="Fill-289" fill="#0073AA" mask="url(#mask-2)"></path>
                        <path d="M64.7687654,104.946387 C64.5596654,104.946387 64.4374854,105.544167 64.3645054,106.249367 C64.3243254,106.639687 64.1898454,107.034927 63.8979254,107.297327 C63.7076854,107.467887 63.5838654,107.744227 63.5838654,108.056647 C63.5838654,108.578167 63.9266254,109.001287 64.3497454,109.001287 C64.9016054,109.001287 65.0123054,108.014007 65.0303454,107.631887 C65.0623254,106.958667 65.0336254,104.946387 64.7687654,104.946387" id="Fill-290" fill="#FAB9AF" mask="url(#mask-2)"></path>
                        <path d="M69.9402594,113.457085 C69.9402594,113.457085 69.1571594,115.019185 69.5548594,115.416885 C69.9525594,115.813765 70.2920394,116.007285 70.8914594,115.450505 C71.4916994,114.892905 72.0484794,113.843305 72.2567594,113.147125 C72.4650394,112.450125 72.3207194,111.134845 72.2124794,111.004465 C71.8180594,110.529685 71.5736994,111.831025 71.4244594,112.455045 C71.2752194,113.079885 71.0447994,113.770325 70.7643594,113.612885 C70.4847394,113.457085 70.8602994,112.282025 70.5987194,111.996665 C70.3371394,111.711305 69.9402594,113.457085 69.9402594,113.457085" id="Fill-291" fill="#FAB9AF" mask="url(#mask-2)"></path>
                        <path d="M52.8503935,95.7381972 C52.8503935,97.9866371 52.1041935,101.572497 50.3969536,101.572497 C48.6897136,101.572497 46.8479936,99.0034371 46.8479936,96.7549972 C46.8479936,94.5065572 47.8418336,93.2068572 49.5490736,93.2068572 C51.2563136,93.2068572 52.8503935,93.4897572 52.8503935,95.7381972" id="Fill-292" fill="#FAB9AF" mask="url(#mask-2)"></path>
                        <path d="M46.9069516,95.8743172 L51.2308116,95.8743172 C51.6867315,95.8743172 52.4813115,95.5643572 52.8298115,95.3232772 C52.8298115,93.7119772 52.0352315,92.9083772 49.5489916,93.2068572 C48.0902116,93.3815172 47.1406516,94.1719972 46.9069516,95.8743172" id="Fill-293" fill="#FF9669" mask="url(#mask-2)"></path>
                        <path d="M51.2312216,95.4555432 L46.2546416,95.4555432 L46.2546416,94.4633432 C46.2546416,93.2792632 47.2148616,92.3190432 48.3989416,92.3190432 L53.3886415,92.3190432 L53.3886415,93.2981232 C53.3886415,94.4895832 52.4226815,95.4555432 51.2312216,95.4555432" id="Fill-294" fill="#FF7350" mask="url(#mask-2)"></path>
                        <path d="M47.6773416,97.1491712 L47.6773416,94.6744112 L48.7572816,94.6744112 L48.7572816,96.0692312 C48.7572816,96.6653712 48.2743016,97.1491712 47.6773416,97.1491712" id="Fill-295" fill="#FF7350" mask="url(#mask-2)"></path>
                        <path d="M48.0897196,96.6702912 C48.0897196,97.4140312 47.8551996,98.0175511 47.2492196,98.0175511 C46.6432396,98.0175511 46.3890396,97.1565512 46.3890396,96.4128112 C46.3890396,95.6682512 46.6432396,95.3230312 47.2492196,95.3230312 C47.8551996,95.3230312 48.0897196,95.9257312 48.0897196,96.6702912" id="Fill-296" fill="#FAB9AF" mask="url(#mask-2)"></path>
                        <path d="M54.0275035,123.253871 L53.4141435,123.227631 C47.3395836,122.585571 44.3392036,118.720911 44.3392036,118.720911 L45.0083236,117.362171 C45.0083236,117.362171 48.3063636,121.038231 53.5863435,121.596651 L54.1972435,121.698331 L54.0275035,123.253871 Z" id="Fill-297" fill="#F07D4B" mask="url(#mask-2)"></path>
                    </g>
                </g>
            </g>
        </g>
    </g>
</svg>