<?xml version="1.0" encoding="UTF-8"?>
<svg width="27px" height="27px" viewBox="0 0 27 27" version="1.1" xmlns="http://www.w3.org/2000/svg" xmlns:xlink="http://www.w3.org/1999/xlink">
    <!-- Generator: Sketch 52.6 (67491) - http://www.bohemiancoding.com/sketch -->
    <title>Atoms/Icon/calender</title>
    <desc>Created with Sketch.</desc>
    <defs>
        <path d="M7.7683211,10.9046079 L4.68436834,10.9046079 L4.68436834,14.0392518 L7.7683211,14.0392518 L7.7683211,10.9046079 Z M8.80540256,9.85047989 L8.80540256,15.0933799 L3.64728688,15.0933799 L3.64728688,9.85047989 L8.80540256,9.85047989 Z M14.83685,10.9046079 L11.7801889,10.9046079 L11.7801889,14.0392518 L14.83685,14.0392518 L14.83685,10.9046079 Z M15.9012231,9.85047989 L15.8739315,9.85047989 L15.8739315,15.0933799 L10.7158158,15.0933799 L10.7158158,9.85047989 L15.9012231,9.85047989 Z M21.9326705,10.9046079 L18.8487178,10.9046079 L18.8487178,14.0392518 L21.9326705,14.0392518 L21.9326705,10.9046079 Z M22.969752,9.85047989 L22.969752,15.0933799 L17.8116363,15.0933799 L17.8116363,9.85047989 L22.969752,9.85047989 Z M7.7683211,18.0615825 L4.68436834,18.0615825 L4.68436834,21.1962264 L7.7683211,21.1962264 L7.7683211,18.0615825 Z M8.80540256,16.9797143 L8.80540256,22.2226143 L3.64728688,22.2226143 L3.64728688,16.9797143 L8.80540256,16.9797143 Z M14.83685,18.0615825 L11.7801889,18.0615825 L11.7801889,21.1962264 L14.83685,21.1962264 L14.83685,18.0615825 Z M15.9012231,16.9797143 L15.8739315,16.9797143 L15.8739315,22.2226143 L10.7158158,22.2226143 L10.7158158,16.9797143 L15.9012231,16.9797143 Z M21.9326705,18.0615825 L18.8487178,18.0615825 L18.8487178,21.1962264 L21.9326705,21.1962264 L21.9326705,18.0615825 Z M22.969752,16.9797143 L22.969752,22.2226143 L17.8116363,22.2226143 L17.8116363,16.9797143 L22.969752,16.9797143 Z M18.4939267,7.07645873 C18.1937189,7.07645873 17.9480944,6.82679682 17.9480944,6.52165449 L17.9480944,2.55480423 C17.9480944,2.2496619 18.1937189,2 18.4939267,2 C18.7941345,2 19.0397591,2.2496619 19.0397591,2.55480423 L19.0397591,6.52165449 C19.0397591,6.82679682 18.7941345,7.07645873 18.4939267,7.07645873 Z M8.12311213,7.07645873 C7.82290434,7.07645873 7.57727978,6.82679682 7.57727978,6.52165449 L7.57727978,2.55480423 C7.57727978,2.2496619 7.82290434,2 8.12311213,2 C8.42331992,2 8.66894448,2.2496619 8.66894448,2.55480423 L8.66894448,6.52165449 C8.66894448,6.82679682 8.42331992,7.07645873 8.12311213,7.07645873 Z M9.76060917,3.58119206 L16.8564297,3.58119206 L16.8564297,4.6353201 L9.76060917,4.6353201 L9.76060917,3.58119206 Z M23.5155843,3.58119206 C24.6618322,3.58119206 25.6170389,4.52435926 25.6170389,5.71718836 L25.6170389,23.110301 C25.6170389,24.3031301 24.6618322,25.2462973 23.5155843,25.2462973 L3.10145454,25.2462973 C1.92791499,25.2462973 1,24.2753899 1,23.110301 L1,5.74492857 C1,4.55209947 1.95520661,3.60893227 3.10145454,3.60893227 L6.48561509,3.60893227 L6.48561509,4.66306031 L3.10145454,4.66306031 C2.52833057,4.66306031 2.06437308,5.13464391 2.06437308,5.71718836 L2.06437308,23.0548206 C2.06437308,23.6373651 2.52833057,24.1089487 3.10145454,24.1089487 L23.5155843,24.1089487 C24.0887083,24.1089487 24.5526658,23.6373651 24.5526658,23.0548206 L24.5526658,5.68944814 C24.5526658,5.1069037 24.0887083,4.6353201 23.5155843,4.6353201 L20.1314238,4.6353201 L20.1314238,3.58119206 L23.5155843,3.58119206 Z" id="path-1"></path>
    </defs>
    <g id="Atoms/Icon/calender" stroke="none" stroke-width="1" fill="none" fill-rule="evenodd">
        <mask id="mask-2" fill="white">
            <use xlink:href="#path-1"></use>
        </mask>
        <use id="Calendar-icon" fill="#A1BCCF" xlink:href="#path-1"></use>
    </g>
</svg>