<?xml version="1.0" encoding="UTF-8"?>
<svg width="27px" height="27px" viewBox="0 0 27 27" version="1.1" xmlns="http://www.w3.org/2000/svg" xmlns:xlink="http://www.w3.org/1999/xlink">
    <!-- Generator: Sketch 52.6 (67491) - http://www.bohemiancoding.com/sketch -->
    <title>Atoms/Icon/close</title>
    <desc>Created with Sketch.</desc>
    <defs>
        <path d="M13.4927731,1 C20.3813781,1 25.985631,6.60425289 25.985631,13.4926884 C25.985631,15.0459273 25.7039481,16.5617102 25.1484633,17.998005 C25.0471116,18.259943 24.7528021,18.3899375 24.4907794,18.2888401 C24.2288414,18.1874885 24.0986775,17.8930942 24.1999443,17.6311562 C24.7100074,16.3123988 24.9686404,14.9200005 24.9686404,13.4927731 C24.9686404,7.16499173 19.8205545,2.01690585 13.4927731,2.01690585 C7.16499173,2.01690585 2.01690585,7.16490698 2.01690585,13.4927731 C2.01690585,19.8206393 7.16499173,24.9687251 13.4928579,24.9686404 C16.4732394,24.9686404 19.2974412,23.8314854 21.4452311,21.7665734 C21.6477649,21.5719206 21.9696156,21.578361 22.1640988,21.7807253 C22.3587515,21.9830896 22.3523959,22.305025 22.1499469,22.499593 C19.8117413,24.7475481 16.737296,25.9855463 13.4927731,25.9855463 C6.60425289,25.9855463 1,20.3812934 1,13.4927731 C1,6.60425289 6.60425289,1 13.4927731,1 Z M15.2043952,14.5701001 L19.2072756,18.4881536 C19.4078602,18.684586 19.4113347,19.0065214 19.2149024,19.2071908 C19.1153303,19.3088814 18.9834715,19.3599809 18.851528,19.3599809 C18.7232284,19.3599809 18.594844,19.3117626 18.4958652,19.2149024 L14.4929848,15.2967641 C14.2924001,15.1003318 14.2889257,14.7783964 14.485358,14.5777269 C14.6817056,14.3771423 15.0035563,14.3735831 15.2043952,14.5701001 Z M11.6078534,12.3268906 L7.77454204,8.49349448 C7.57599117,8.29494361 7.57599117,7.97300817 7.77454204,7.7744573 C7.97300817,7.57590643 8.29502835,7.57590643 8.49357922,7.7744573 L12.3269753,11.6078534 C12.5255262,11.8064043 12.5255262,12.1283397 12.3269753,12.3268906 C12.2276575,12.4261236 12.0975783,12.4757825 11.9674144,12.4757825 C11.8372504,12.4757825 11.7070865,12.4261236 11.6078534,12.3268906 Z M19.211089,7.7744573 C19.4096398,7.97309291 19.4096398,8.29494361 19.211089,8.49357922 L8.49357922,19.211089 C8.39426142,19.310322 8.26418221,19.3599809 8.13401826,19.3599809 C8.00385431,19.3599809 7.87369036,19.310322 7.7744573,19.211089 C7.57590643,19.0125381 7.57590643,18.6906026 7.7744573,18.4920518 L18.4920518,7.7744573 C18.6905179,7.57590643 19.0125381,7.57590643 19.211089,7.7744573 Z" id="path-1"></path>
    </defs>
    <g id="Atoms/Icon/close" stroke="none" stroke-width="1" fill="none" fill-rule="evenodd">
        <mask id="mask-2" fill="white">
            <use xlink:href="#path-1"></use>
        </mask>
        <use id="Combined-Shape" fill="#263646" xlink:href="#path-1"></use>
    </g>
</svg>