<?xml version="1.0" encoding="UTF-8"?>
<svg width="25px" height="25px" viewBox="0 0 25 25" version="1.1" xmlns="http://www.w3.org/2000/svg" xmlns:xlink="http://www.w3.org/1999/xlink">
    <!-- Generator: Sketch 52.6 (67491) - http://www.bohemiancoding.com/sketch -->
    <title>Combined Shape</title>
    <desc>Created with Sketch.</desc>
    <defs>
        <path d="M6.7507808,9.51288996 C6.94164992,9.70380791 6.94164992,10.0128899 6.7507808,10.2033196 C6.56039995,10.3942375 6.25082967,10.3942375 6.06039999,10.2033196 C5.86948204,10.0128899 5.86948204,9.70380791 6.06039999,9.51288996 C6.25078084,9.32246028 6.56035113,9.32246028 6.7507808,9.51288996 Z M13.3632315,22.8611799 C14.1401357,23.2701643 14.6713856,24.0852521 14.6713856,25.0225567 L14.6713856,25.5108379 C14.6713856,25.7805156 14.4527333,25.9991191 14.1831044,25.9991191 L1.48828121,25.9991191 C1.21865233,25.9991191 1,25.7805156 1,25.5108379 L1,25.0225567 C1,24.0848126 1.53178707,23.269383 2.30927724,22.860594 C2.10034171,22.5771467 1.9765136,22.2272444 1.9765136,21.8488753 C1.9765136,21.3921859 2.15424796,20.9630355 2.47700184,20.6403793 C2.79960923,20.3176743 3.22875959,20.1399399 3.68544901,20.1399399 L11.9859366,20.1399399 C12.9282705,20.1399399 13.6948721,20.9065902 13.6948721,21.8488753 C13.6948721,22.2182601 13.5785146,22.5695784 13.3632315,22.8611799 Z M3.1674803,21.330809 C3.02919906,21.4690902 2.95307602,21.6530746 2.95307602,21.8488265 C2.95307602,22.2526351 3.28159162,22.5811995 3.68544901,22.5811995 L11.9858878,22.5811995 C12.1816397,22.5811995 12.3656241,22.5050764 12.5038565,22.3667952 C12.6421378,22.228514 12.7183096,22.0445784 12.7183096,21.8487777 C12.7183096,21.4449691 12.389794,21.1164047 11.9859366,21.1164047 L3.68544901,21.1164047 C3.48969707,21.1164047 3.30571271,21.1925277 3.1674803,21.330809 Z M1.9765136,25.0225567 L13.6948721,25.0225567 C13.6948721,24.2148908 13.0377432,23.5577619 12.2300772,23.5577619 L11.9859366,23.5577619 L3.68544901,23.5577619 L3.4413084,23.5577619 C2.63364245,23.5577619 1.9765136,24.2148908 1.9765136,25.0225567 Z M25.5455547,21.5138167 C26.1143047,22.3928694 26.1522929,23.5504377 25.6418926,24.4622052 C25.1759747,25.2941387 24.3813946,25.8441387 23.46201,25.9713848 C23.3244611,25.9904277 23.1871076,25.9998027 23.0510237,25.9998027 C22.2790511,25.9998027 21.5437484,25.6978008 20.987059,25.1413067 C20.9311508,25.0853985 20.8772934,25.0269024 20.8269027,24.9674298 L18.7999986,22.6386213 C18.7907701,22.6307112 18.7814927,22.6227522 18.7727525,22.614012 C18.7471666,22.588426 18.7252916,22.5605452 18.7065416,22.5312483 L11.9044913,14.7161122 C11.6308097,14.977245 11.2735832,15.1209462 10.8939445,15.1209462 C10.5025383,15.1209462 10.1347161,14.9685536 9.85805595,14.6918935 C9.73862236,14.5725087 9.64247979,14.4359853 9.57163019,14.2880361 L8.98203062,14.8776845 C9.15517514,15.5291493 8.98730406,16.2531726 8.47734316,16.7631824 C8.09653265,17.143944 7.5963862,17.3343249 7.09619093,17.3343249 C6.59604448,17.3343249 6.09589804,17.143944 5.71508752,16.7631824 L1.57216792,12.6202139 C0.810644546,11.8586417 0.810644546,10.6195305 1.57216792,9.85800712 C1.94086907,9.4893548 2.43115223,9.28627865 2.95302719,9.28627865 C3.12617171,9.28627865 3.29565412,9.30913021 3.45854473,9.35244075 L9.35331966,3.45771465 C9.18017514,2.80624986 9.34804622,2.08217765 9.85800712,1.57221675 C10.2269524,1.20322264 10.7173332,1 11.2388664,1 C11.7606437,1 12.251171,1.20322264 12.6201651,1.57221675 L16.7631335,5.71508752 C17.1321276,6.08408163 17.3353503,6.57456011 17.3353503,7.09619093 C17.3353503,7.61782175 17.1321276,8.10830022 16.7630847,8.47729433 C16.3824207,8.85795837 15.8823231,9.04829038 15.3822743,9.04833921 C15.2124501,9.04833921 15.0427723,9.02587828 14.8776356,8.9819818 L14.2868154,9.57280206 C14.4335439,9.64228448 14.5708485,9.73715752 14.6916493,9.8578118 C14.9686512,10.1347649 15.1210438,10.5026848 15.1210438,10.8941887 C15.1210438,11.2742179 14.9770985,11.631591 14.7156728,11.904882 L21.1019027,17.4757311 L22.4816389,18.6791002 C22.5293928,18.7022447 22.5743147,18.7331529 22.6139631,18.7727525 C22.6375471,18.7963365 22.6581526,18.8217271 22.675926,18.8484849 L24.95742,20.8383773 C25.1818829,21.0295883 25.3797344,21.2568343 25.5455547,21.5138167 Z M10.5485832,2.26274404 C10.1678704,2.64340807 10.1678704,3.26279279 10.5485832,3.64345682 C10.5486809,3.64355448 10.5487297,3.64360331 10.5488274,3.64370096 L14.6919423,7.78681587 C15.0725575,8.16752873 15.691991,8.16752873 16.0726062,7.78681587 C16.2571765,7.6022944 16.3587879,7.35703075 16.3587879,7.09623976 C16.3587879,6.83544876 16.2571765,6.59018511 16.0726551,6.40566364 L11.9296866,2.26274404 C11.745214,2.07822257 11.4998527,1.97656242 11.2389152,1.97656242 C10.9783195,1.97656242 10.7331047,2.07822257 10.5485832,2.26274404 Z M7.78681587,16.0726551 C8.16752873,15.6920399 8.16752873,15.0726063 7.78676705,14.6919911 L3.64311503,10.5483391 C3.45898418,10.3642571 3.21391584,10.2628411 2.95302719,10.2628411 C2.69208971,10.2628411 2.44687489,10.3643059 2.26269521,10.5485344 C1.8818847,10.9293938 1.8818847,11.548925 2.26269521,11.9297355 L6.40561481,16.0726551 C6.7863765,16.4534656 7.40605418,16.4534168 7.78681587,16.0726551 Z M9.84257743,12.6361319 C9.84819266,12.6302237 9.85371024,12.6243643 9.85942313,12.6187491 L12.6200674,9.85805595 C12.6247549,9.85341727 12.6291006,9.84931571 12.633544,9.84511649 L14.0013173,8.47729433 L9.85800712,4.33393529 L4.33393529,9.85810477 L8.47729433,14.0014638 L9.84257743,12.6361319 Z M11.5860343,13.6547353 L13.6525381,11.5881828 C13.654833,11.585839 13.6571767,11.5834953 13.6595205,11.5812003 L14.0013662,11.2393547 C14.0938466,11.1471183 14.1445302,11.0247062 14.1445302,10.8941887 C14.1445302,10.7635735 14.0937001,10.6408196 14.001415,10.5485344 C13.8135732,10.3608879 13.506249,10.358593 13.3161611,10.5434563 L10.542675,13.3169424 C10.4541496,13.407665 10.4053704,13.5279287 10.4053704,13.6557607 C10.4053704,13.7863759 10.4562004,13.9091298 10.5485344,14.001415 C10.6407219,14.0936513 10.7633781,14.1444326 10.8938957,14.1444326 C11.0244621,14.1444326 11.1470695,14.0936513 11.2393058,14.0014638 L11.5831535,13.6576162 C11.58413,13.6566396 11.5850578,13.6557119 11.5860343,13.6547353 Z M12.5971671,14.0246084 L17.8615221,20.0726548 L20.0663071,17.8678209 L14.0242177,12.5975577 L12.5971671,14.0246084 Z M18.504149,20.8110336 L19.1467759,21.5494613 L21.5415511,19.1546372 L20.8039047,18.5112291 L18.504149,20.8110336 Z M24.7898907,23.9851544 C25.1204083,23.3946271 25.0945294,22.6143538 24.7252911,22.0437972 C24.6103985,21.8657698 24.4749982,21.7099593 24.3224103,21.580223 C24.320799,21.5788558 24.3192365,21.5775374 24.3177228,21.5761703 L22.2791487,19.7979966 L19.789354,22.2878401 L21.565721,24.3289532 C21.5673324,24.3307599 21.5688949,24.3326154 21.5704574,24.3344708 C21.6039535,24.3741193 21.639891,24.4132306 21.6774398,24.4507306 C22.1140608,24.8871563 22.7157698,25.0888653 23.3281721,25.0040997 C23.9419904,24.9191387 24.474754,24.5478009 24.7898907,23.9851544 Z M10.2033196,6.06030234 C10.3939934,6.25102498 10.3939934,6.56015581 10.2033196,6.7507808 L8.13164007,8.82246032 C8.03627874,8.91777282 7.91132758,8.96547789 7.78637642,8.96547789 C7.66142526,8.96547789 7.5364741,8.91782164 7.44111278,8.82246032 C7.25043896,8.63183534 7.25043896,8.32265568 7.44111278,8.13198186 L9.5127923,6.06030234 C9.70351494,5.86962852 10.0125969,5.86962852 10.2033196,6.06030234 Z" id="path-1"></path>
    </defs>
    <g id="Symbols" stroke="none" stroke-width="1" fill="none" fill-rule="evenodd">
        <g id="Atoms/Icon/legal" transform="translate(-1.000000, -1.000000)">
            <mask id="mask-2" fill="white">
                <use xlink:href="#path-1"></use>
            </mask>
            <use id="Combined-Shape" fill="#A1BCCF" xlink:href="#path-1"></use>
        </g>
    </g>
</svg>