<?xml version="1.0" encoding="UTF-8"?>
<svg width="27px" height="27px" viewBox="0 0 27 27" version="1.1" xmlns="http://www.w3.org/2000/svg" xmlns:xlink="http://www.w3.org/1999/xlink">
    <!-- Generator: Sketch 52.6 (67491) - http://www.bohemiancoding.com/sketch -->
    <title>Atoms/Icon/Contact</title>
    <desc>Created with Sketch.</desc>
    <g id="Atoms/Icon/Contact" stroke="none" stroke-width="1" fill="none" fill-rule="evenodd">
        <path d="M24.9265741,20.8829689 C24.8536358,20.3316702 24.5353731,19.8563324 24.0534946,19.5788992 L18.393541,16.3201126 C17.7003298,15.9209834 16.8209078,16.0371793 16.2550908,16.6029467 L15.1402545,17.7177831 C14.8435957,18.0144914 14.3742536,18.0407531 14.0487564,17.7787797 C13.1698795,17.0715952 12.3045298,16.2933058 11.476789,15.4655154 C10.6490482,14.6377745 9.87075874,13.7724744 9.16352468,12.893548 C8.90155127,12.5680013 8.92776348,12.0987086 9.22452133,11.8020004 L10.3393081,10.687164 C10.9050755,10.1214461 11.0214201,9.24212326 10.6221918,8.54876334 L7.36340516,2.88880978 C7.08592245,2.40688177 6.61063421,2.08866856 6.05933552,2.01573025 C5.50798729,1.94264329 4.96625185,2.12652513 4.57301921,2.51975777 L2.89320826,4.19961828 C1.72079427,5.37208182 1.70196508,7.51672586 2.84018924,10.2385835 C3.93466033,12.8557409 5.97713127,15.7368043 8.59126615,18.3510382 C11.2055001,20.9652227 14.0865634,23.0076936 16.7037705,24.1021647 C18.043566,24.662432 19.2433814,24.9423922 20.2563915,24.9423427 C21.3013121,24.9423427 22.1473866,24.6443956 22.7427357,24.0490961 L24.4225466,22.3692356 C24.8157297,21.976003 24.9994629,21.4342675 24.9265741,20.8829689 Z M18.0227052,16.9642193 L23.6826588,20.223006 C23.9625695,20.3841441 24.1473928,20.6602394 24.1897089,20.9804347 C24.2252861,21.2491469 24.1554695,21.5137465 23.9972053,21.7269623 L16.4751941,17.4340074 L16.7806728,17.1285287 C17.1092421,16.7999594 17.6201075,16.7324221 18.0227052,16.9642193 Z M5.96182017,2.7525955 C6.28206495,2.79496116 6.55811069,2.97978447 6.71924887,3.25969515 L9.97803553,8.91964871 C10.2099318,9.32234549 10.1423449,9.83311188 9.81377568,10.1616316 L9.53317129,10.442236 L5.21663045,2.94509913 C5.39307972,2.8144345 5.60411523,2.74347821 5.82411938,2.74347821 C5.86975537,2.74347821 5.91578777,2.74650079 5.96182017,2.7525955 Z M22.2171041,23.5235141 C21.2856541,24.4549641 19.3806362,24.4159184 16.9905191,23.416386 C14.4604714,22.3583841 11.664288,20.3727971 9.11689768,17.8254563 C6.56950731,15.2780659 4.58392032,12.481833 3.52591839,9.95183484 C2.52633648,7.56166815 2.48734025,5.65665025 3.41879024,4.72515071 L4.66582727,3.47806413 L8.98885923,10.986548 L8.69893935,11.2764679 C8.13332057,11.8421362 8.08406739,12.7376126 8.58442818,13.3595703 C9.3083112,14.2592088 10.104637,15.1445769 10.9511575,15.9910974 C11.7977771,16.8376674 12.6831451,17.6339932 13.5827341,18.3578762 C14.2045927,18.858237 15.100069,18.8090334 15.6658365,18.2433155 L15.9303369,17.978815 L23.4628033,22.2777654 L22.2171041,23.5235141 Z" id="Shape" fill="#A1BCCF"></path>
    </g>
</svg>