<?xml version="1.0" encoding="UTF-8"?>
<svg width="27px" height="27px" viewBox="0 0 27 27" version="1.1" xmlns="http://www.w3.org/2000/svg" xmlns:xlink="http://www.w3.org/1999/xlink">
    <title>Atoms/Icon/duration</title>
    <g id="Atoms/Icon/duration" stroke="none" stroke-width="1" fill="none" fill-rule="evenodd">
        <path d="M13.0006537,3.00000262 C16.4165398,2.99821233 19.6949605,4.32251184 22.1226886,6.68479964 C22.1715257,6.72085328 22.2149271,6.76351939 22.2516022,6.81152902 C24.6546039,9.19812432 26.0017276,12.420999 25.9999521,15.77901 C26.0093371,19.1700735 24.6384389,22.4239281 22.1927503,24.8153655 C22.0730981,24.9335529 21.9104711,25.0000026 21.7408523,25.0000026 C21.5712335,25.0000026 21.4086065,24.9335529 21.2889542,24.8153655 L21.2889542,24.8153655 L19.2865905,22.8483052 C19.0366272,22.6029574 19.0363135,22.2048616 19.2858899,21.9591333 C19.5354663,21.7134051 19.9404232,21.7130968 20.1903866,21.9584446 L20.1903866,21.9584446 L21.7275406,23.4709321 C23.5150076,21.5225298 24.5659283,19.0287535 24.7037621,16.4085244 L24.7037621,16.4085244 L22.5290465,16.4085244 C22.1757702,16.4085244 21.8893831,16.1269895 21.8893831,15.7796987 C21.8893831,15.4324079 22.1757702,15.150873 22.5290465,15.150873 L22.5290465,15.150873 L24.7037621,15.150873 C24.5596539,12.5324956 23.5078388,10.0415759 21.7233368,8.09259772 L21.7233368,8.09259772 L20.1903866,9.59957532 C19.9408102,9.84492315 19.5361669,9.84492315 19.2865905,9.59957531 C19.0370141,9.35422747 19.0370141,8.95644003 19.2865905,8.71109218 L19.2865905,8.71109218 L20.8195408,7.20411459 C18.8369721,5.4498473 16.3031215,4.41585311 13.6396165,4.27418649 L13.6396165,4.27418649 L13.6396165,6.41067849 C13.6396165,6.75796931 13.3532294,7.03950415 12.9999531,7.03950415 C12.6466767,7.03950415 12.3602896,6.75796931 12.3602896,6.41067849 L12.3602896,6.41067849 L12.3602896,4.27556398 C9.69710861,4.41635585 7.16326345,5.44937558 5.18036535,7.2027371 L5.18036535,7.2027371 L6.71331562,8.71109218 C6.83319524,8.82889734 6.90054661,8.98870144 6.90054661,9.15533375 C6.90054661,9.32196606 6.83319524,9.48177016 6.71331562,9.59957532 C6.59366339,9.71776269 6.43103639,9.78420715 6.26141757,9.78420715 C6.09179875,9.78420715 5.92917176,9.71776269 5.80951953,9.59957532 L5.80951953,9.59957532 L4.27656927,8.09259772 C2.49206728,10.0415759 1.44025226,12.5324956 1.29614403,15.150873 L1.29614403,15.150873 L3.47085958,15.150873 C3.82413593,15.150873 4.11052301,15.4324079 4.11052301,15.7796987 C4.11052301,16.1269895 3.82413593,16.4085244 3.47085958,16.4085244 L3.47085958,16.4085244 L1.29614403,16.4085244 C1.43436639,19.0289261 2.48579048,21.5227227 4.2737668,23.4709321 L4.2737668,23.4709321 L5.80951953,21.9570671 C6.05948287,21.7117193 6.46443983,21.7120276 6.71401622,21.9577558 C6.96359261,22.2034841 6.96327894,22.6015799 6.71331562,22.8469277 L6.71331562,22.8469277 L4.74318027,24.7836832 L4.71375435,24.8153655 C4.59410213,24.9335529 4.43147513,25.0000026 4.26185631,25.0000026 C4.09223749,25.0000026 3.92961049,24.9335529 3.80995826,24.8153655 L3.80995826,24.8153655 L3.80715579,24.8153655 C1.3521934,22.3992424 1.17453806e-06,19.1910607 1.17453806e-06,15.7776325 C-0.00145203376,12.4200985 1.34564393,9.19778533 3.74830396,6.81152902 C3.78504935,6.76357948 3.82844156,6.72092246 3.87721751,6.68479964 C6.30529044,4.3221759 9.58428236,2.9978491 13.0006537,3.00000262 Z M15.4484259,8.57764682 C15.6042727,8.51202389 15.7802604,8.50998007 15.9376407,8.57196537 C16.0950653,8.63384164 16.2210208,8.75468652 16.2877748,8.90789281 C16.3545287,9.0610991 16.3566078,9.23410505 16.2935542,9.38881885 L16.2935542,9.38881885 L14.4593385,13.8877117 C14.5078416,13.9176461 14.5555014,13.948881 14.6022644,13.9813813 C14.6893185,14.0441989 14.765901,14.1199486 14.8292644,14.2059127 C15.4388013,15.0310311 15.5494988,16.0159388 15.1221223,16.8396797 C14.7129619,17.6289834 13.9002461,18.1193709 13.0006537,18.1193709 C12.4485674,18.1193709 11.8950799,17.9320319 11.3990429,17.5766386 C11.3107652,17.5160289 11.2336973,17.4388893 11.1706418,17.3534847 C10.5611049,16.5283663 10.4518086,15.5434586 10.879185,14.7183402 C11.3263485,13.85036 12.2749286,13.3467615 13.2584808,13.4551789 L13.2584808,13.4551789 L15.1067087,8.92184865 C15.1696515,8.76709121 15.2925791,8.64326976 15.4484259,8.57764682 Z M12.9992524,14.6962992 C12.5847277,14.695735 12.2052685,14.924882 12.0183885,15.2886224 C11.8152095,15.6798304 11.8754626,16.1495556 12.1823329,16.583466 C12.4513699,16.7680501 12.727413,16.8617207 13.0006537,16.8617207 C13.4151784,16.8622849 13.7946376,16.6331379 13.9815176,16.2693975 L13.9815176,16.2693975 C14.1846966,15.8781895 14.1244435,15.4084643 13.8175732,14.9759314 C13.6970671,14.8932818 13.5751597,14.8299171 13.4546536,14.7830823 L13.4546536,14.7830823 L13.4126165,14.7693074 L13.3986042,14.7637974 C13.2654869,14.7197177 13.1323697,14.6962992 12.9992524,14.6962992 Z" id="Combined-Shape" fill="#A1BCCF"></path>
    </g>
</svg>