<svg xmlns="http://www.w3.org/2000/svg" xmlns:xlink="http://www.w3.org/1999/xlink" viewBox="0 0 36 36" version="1.1"><script xmlns="" id="tinyhippos-injected"/><!-- Generator: Sketch 49 (51002) - http://www.bohemiancoding.com/sketch --><title>email</title><desc>Created with Sketch.</desc><defs/><g id="Page-1" stroke="none" stroke-width="1" fill="currentColor" fill-rule="evenodd"><g id="01_Home" transform="translate(-765.000000, -660.000000)" fill="currentColor" fill-rule="nonzero"><g id="1" transform="translate(735.000000, 600.000000)"><g id="email" transform="translate(30.000000, 60.000000)"><path d="M33,10.8 L32.4,10.8 L32.4,5.4 C32.4,5.38681643 32.3932617,5.3759766 32.3926758,5.36279295 C32.3891602,5.3088867 32.3783203,5.25556642 32.3604492,5.20429687 C32.3537109,5.18525392 32.3490234,5.16650392 32.3405273,5.14804688 C32.3124023,5.08476562 32.2731445,5.02675785 32.2248046,4.97695312 L27.4248046,0.176953125 C27.374707,0.1286133 27.3164062,0.08935545 27.2525391,0.06123045 C27.2352539,0.052734375 27.2165039,0.048046875 27.1986328,0.041308575 C27.1461914,0.0228516 27.0914062,0.0120117 27.0360352,0.00908205 C27.0228516,0.006738285 27.0125977,0 27,0 L6,0 C4.67460937,0 3.6,1.07460938 3.6,2.4 L3.6,10.8 L3,10.8 C1.34384767,10.8020508 0.002050785,12.1438477 -5.68434189e-14,13.8 L-5.68434189e-14,33 C0.002050785,34.6561523 1.34384767,35.9979492 3,36 L33,36 C34.6561523,35.9979492 35.9979492,34.6561523 36,33 L36,13.8 C35.9979492,12.1438477 34.6561523,10.8020508 33,10.8 Z M14.6581054,24 L21.3418945,24 L31.6019531,34.8 L4.39804687,34.8 L14.6581054,24 Z M33,12 C33.8786133,11.9997071 34.6289062,12.6336914 34.7753906,13.5 L32.4,15.1541016 L32.4,11.9999999 L33,12 Z M30.3515625,4.8 L28.2,4.8 C27.8686523,4.8 27.6,4.53134767 27.6,4.2 L27.6,2.0484375 L30.3515625,4.8 Z M4.8,2.4 C4.8,1.73730465 5.33730465,1.2 6,1.2 L26.4,1.2 L26.4,4.2 C26.4,5.19404295 27.205957,6 28.2,6 L31.2,6 L31.2,15.9881836 L21.4116211,22.8 L14.5883789,22.8 L4.8,15.9881836 L4.8,2.4 Z M3,12 L3.6,12 L3.6,15.1541016 L1.22460937,13.5029297 C1.36962892,12.6354492 2.12050785,12 3,12 Z M1.2,33 L1.2,14.9478516 L13.4838867,23.493457 L2.76005857,34.7838867 C1.86679687,34.6637696 1.2,33.9011719 1.2,33 Z M33.2399414,34.7838867 L22.5161133,23.4934571 L34.8,14.9478516 L34.8,33 C34.8,33.9011719 34.1332031,34.6637696 33.2399414,34.7838867 Z" id="Shape"/><path d="M12.6,4.8 L23.4,4.8 C23.7313477,4.8 24,4.53134768 24,4.2 C24,3.86865233 23.7313477,3.6 23.4,3.6 L12.6,3.6 C12.2686523,3.6 12,3.86865233 12,4.2 C12,4.53134768 12.2686523,4.8 12.6,4.8 Z" id="Shape"/><path d="M7.2,7.8 C7.2,8.13134768 7.46865233,8.4 7.8,8.4 L28.2,8.4 C28.5313477,8.4 28.8,8.13134768 28.8,7.8 C28.8,7.46865233 28.5313477,7.2 28.2,7.2 L7.8,7.2 C7.46865233,7.2 7.2,7.46865233 7.2,7.8 Z" id="Shape"/><path d="M28.2,10.8 L7.8,10.8 C7.46865233,10.8 7.2,11.0686523 7.2,11.4 C7.2,11.7313477 7.46865233,12 7.8,12 L28.2,12 C28.5313477,12 28.8,11.7313477 28.8,11.4 C28.8,11.0686523 28.5313477,10.8 28.2,10.8 Z" id="Shape"/><path d="M28.2,14.4 L7.8,14.4 C7.46865233,14.4 7.2,14.6686523 7.2,15 C7.2,15.3313477 7.46865233,15.6 7.8,15.6 L28.2,15.6 C28.5313477,15.6 28.8,15.3313477 28.8,15 C28.8,14.6686523 28.5313477,14.4 28.2,14.4 Z" id="Shape"/><path d="M24.6,18 L11.4,18 C11.0686523,18 10.8,18.2686523 10.8,18.6 C10.8,18.9313477 11.0686523,19.2 11.4,19.2 L24.6,19.2 C24.9313477,19.2 25.2,18.9313477 25.2,18.6 C25.2,18.2686523 24.9313477,18 24.6,18 Z" id="Shape"/><path d="M6.6,6 C6.93134768,6 7.2,5.73134768 7.2,5.4 L7.2,4.2 C7.2,3.86865233 7.46865233,3.6 7.8,3.6 L9,3.6 C9.33134768,3.6 9.6,3.33134767 9.6,3 C9.6,2.66865233 9.33134768,2.4 9,2.4 L7.8,2.4 C6.80595705,2.4 6,3.20595705 6,4.2 L6,5.4 C6,5.73134768 6.26865233,6 6.6,6 Z" id="Shape"/></g></g></g></g></svg>