<?xml version="1.0" encoding="UTF-8"?>
<svg width="27px" height="27px" viewBox="0 0 27 27" version="1.1" xmlns="http://www.w3.org/2000/svg" xmlns:xlink="http://www.w3.org/1999/xlink">
    <!-- Generator: Sketch 52.6 (67491) - http://www.bohemiancoding.com/sketch -->
    <title>Atoms/Icon/edit</title>
    <desc>Created with Sketch.</desc>
    <g id="Atoms/Icon/edit" stroke="none" stroke-width="1" fill="none" fill-rule="evenodd">
        <path d="M24.2831316,15.5872533 C24.6301538,15.5872533 24.9114038,15.8702302 24.9114038,16.2190789 L24.9114038,21.8268092 C24.9094405,23.5700658 23.5041721,24.9827302 21.7700426,24.9847039 L4.14136126,24.9847039 C2.40723171,24.9827302 1.00196335,23.5700658 1,21.8268092 L1,5.36850331 C1.00196335,3.62524669 2.40723171,2.21258225 4.14136126,2.21060857 L9.71973164,2.21060857 C10.0667539,2.21060857 10.3480039,2.4933388 10.3480039,2.84218752 C10.3480039,3.19103617 10.0667539,3.47376646 9.71973164,3.47376646 L4.14136126,3.47376646 C3.10078534,3.475 2.25777158,4.32245067 2.2565445,5.36850331 L2.2565445,21.8268092 C2.25777158,22.8726151 3.10078534,23.7203125 4.14136126,23.721546 L21.7700426,23.721546 C22.8106185,23.7203125 23.6536322,22.8726151 23.6548593,21.8268092 L23.6548593,16.2188323 C23.6548593,15.8699835 23.9361093,15.5872533 24.2831316,15.5872533 Z M10.8241165,12.2638158 L19.9976276,3.04177632 L22.9561518,6.01587173 L13.7826407,15.2379112 L10.8241165,12.2638158 Z M9.32730695,16.7425987 L10.2329025,13.4559211 L12.5967768,15.8322368 L9.32730695,16.7425987 Z M23.7741328,1.47861842 L24.5113711,2.21973684 C25.1239365,2.83675985 25.1239365,3.83569082 24.5113711,4.45271383 L23.8450589,5.12253293 L20.8865347,2.14843752 L21.5528468,1.47861842 C22.1666394,0.863075642 23.1603403,0.863075642 23.7741328,1.47861842 Z" id="Combined-Shape" fill="#627790"></path>
    </g>
</svg>