<?xml version="1.0" encoding="UTF-8"?>
<svg width="27px" height="27px" viewBox="0 0 27 27" version="1.1" xmlns="http://www.w3.org/2000/svg" xmlns:xlink="http://www.w3.org/1999/xlink">
    <!-- Generator: Sketch 52.6 (67491) - http://www.bohemiancoding.com/sketch -->
    <title>Atoms/Icon/edit-profile</title>
    <desc>Created with Sketch.</desc>
    <g id="Atoms/Icon/edit-profile" stroke="none" stroke-width="1" fill="none" fill-rule="evenodd">
        <path d="M21.8324004,7.84423828 C21.5412012,7.84423828 21.3050566,7.60814648 21.3050566,7.31689453 L21.3050566,1.58203125 C21.3050566,1.29125391 21.0684902,1.0546875 20.7777129,1.0546875 L1.58240039,1.0546875 C1.29162305,1.0546875 1.05505664,1.29125391 1.05505664,1.58203125 L1.05505664,25.4179688 C1.05505664,25.7087461 1.29162305,25.9453125 1.58240039,25.9453125 L20.7777129,25.9453125 C21.0684902,25.9453125 21.3050566,25.7087461 21.3050566,25.4179688 L21.3050566,21.5329219 C21.3050566,21.2416699 21.5412012,21.0055781 21.8324004,21.0055781 C22.1235996,21.0055781 22.3597441,21.2416699 22.3597441,21.5329219 L22.3597441,25.4179688 C22.3597441,26.2903008 21.6500449,27 20.7777129,27 L1.58240039,27 C0.710068359,27 0.000369140625,26.2903008 0.000369140625,25.4179688 L0.000369140625,1.58203125 C0.000369140625,0.709699219 0.710068359,0 1.58240039,0 L20.7777129,0 C21.6500449,0 22.3597441,0.709699219 22.3597441,1.58203125 L22.3597441,7.31689453 C22.3597441,7.60814648 22.1235996,7.84423828 21.8324004,7.84423828 Z M11.1800566,2.84765625 C13.8552187,2.84765625 16.0316191,5.02405664 16.0316191,7.69921875 C16.0316191,9.0870293 15.4457402,10.3404199 14.5084395,11.2255137 C14.4908789,11.2442344 14.4722109,11.2620586 14.4518027,11.278248 C13.5884883,12.0681035 12.4395645,12.5507285 11.1800039,12.5507285 C9.92044336,12.5507285 8.77151953,12.0681562 7.90820508,11.278248 C7.88779687,11.2620586 7.86912891,11.2442871 7.85156836,11.2255137 C6.91437305,10.3404199 6.32849414,9.0870293 6.32849414,7.69921875 C6.32849414,5.02405664 8.50489453,2.84765625 11.1800566,2.84765625 Z M11.1800566,11.4960937 C12.0411562,11.4960937 12.8358105,11.2075312 13.4735273,10.7225859 C13.0100449,9.9007207 12.1451484,9.38671875 11.1800566,9.38671875 C10.2149648,9.38671875 9.35006836,9.9007207 8.88658594,10.7225859 C9.52425,11.2075312 10.318957,11.4960937 11.1800566,11.4960937 Z M10.3363066,7.48828125 C10.3363066,7.95350391 10.714834,8.33203125 11.1800566,8.33203125 C11.6452793,8.33203125 12.0238066,7.95350391 12.0238066,7.48828125 L12.0238066,7.14550781 C12.0238066,6.68028516 11.6452793,6.30175781 11.1800566,6.30175781 C10.714834,6.30175781 10.3363066,6.68028516 10.3363066,7.14550781 L10.3363066,7.48828125 Z M14.2354863,9.95008008 C14.7010781,9.31974609 14.9769316,8.54122852 14.9769316,7.69921875 C14.9769316,5.60561133 13.2736641,3.90234375 11.1800566,3.90234375 C9.08644922,3.90234375 7.38318164,5.60561133 7.38318164,7.69921875 C7.38318164,8.54122852 7.65903516,9.31974609 8.12462695,9.95008008 C8.51354297,9.37327148 9.05254102,8.92466016 9.67833984,8.64769922 C9.42996094,8.32670508 9.28161914,7.92460547 9.28161914,7.48828125 L9.28161914,7.14550781 C9.28161914,6.09867773 10.1332266,5.24707031 11.1800566,5.24707031 C12.2268867,5.24707031 13.0784941,6.09867773 13.0784941,7.14550781 L13.0784941,7.48828125 C13.0784941,7.92460547 12.9301523,8.32670508 12.6817734,8.64769922 C13.3075723,8.92466016 13.8465703,9.37327148 14.2354863,9.95008008 Z M14.0277129,23.0976562 C14.3189121,23.0976562 14.5550566,23.333748 14.5550566,23.625 C14.5550566,23.916252 14.3189121,24.1523438 14.0277129,24.1523438 L11.1800566,24.1523438 C10.8888574,24.1523438 10.6527129,23.916252 10.6527129,23.625 C10.6527129,23.333748 10.8888574,23.0976562 11.1800566,23.0976562 L14.0277129,23.0976562 Z M14.0277129,20.1445312 C14.3189121,20.1445312 14.5550566,20.380623 14.5550566,20.671875 C14.5550566,20.963127 14.3189121,21.1992188 14.0277129,21.1992188 L6.53943164,21.1992188 C6.24823242,21.1992188 6.01208789,20.963127 6.01208789,20.671875 C6.01208789,20.380623 6.24823242,20.1445312 6.53943164,20.1445312 L14.0277129,20.1445312 Z M14.0277129,17.1914062 C14.3189121,17.1914062 14.5550566,17.427498 14.5550566,17.71875 C14.5550566,18.010002 14.3189121,18.2460938 14.0277129,18.2460938 L6.53943164,18.2460938 C6.24823242,18.2460938 6.01208789,18.010002 6.01208789,17.71875 C6.01208789,17.427498 6.24823242,17.1914062 6.53943164,17.1914062 L14.0277129,17.1914062 Z M4.65992578,14.392793 C4.75806445,14.4908789 4.81449023,14.6269336 4.81449023,14.765625 C4.81449023,14.9043164 4.75801172,15.0403711 4.65992578,15.138457 C4.56136523,15.236543 4.42583789,15.2929688 4.28661914,15.2929688 C4.147875,15.2929688 4.01240039,15.236543 3.91378711,15.138457 C3.81564844,15.0403711 3.75927539,14.9043164 3.75927539,14.765625 C3.75927539,14.6269336 3.81570117,14.4908789 3.91378711,14.392793 C4.01182031,14.294707 4.147875,14.2382812 4.28661914,14.2382812 C4.42583789,14.2382812 4.56189258,14.294707 4.65992578,14.392793 Z M4.65992578,17.345918 C4.75806445,17.4440039 4.81449023,17.5800586 4.81449023,17.71875 C4.81449023,17.8574414 4.75801172,17.9934961 4.65992578,18.091582 C4.56136523,18.189668 4.42583789,18.2460938 4.28661914,18.2460938 C4.147875,18.2460938 4.01240039,18.189668 3.91378711,18.091582 C3.81564844,17.9934961 3.75927539,17.8574414 3.75927539,17.71875 C3.75927539,17.5800586 3.81570117,17.4440039 3.91378711,17.345918 C4.01240039,17.247832 4.147875,17.1914062 4.28661914,17.1914062 C4.42583789,17.1914062 4.56136523,17.247832 4.65992578,17.345918 Z M4.65992578,20.299043 C4.75806445,20.3971289 4.81449023,20.5331836 4.81449023,20.671875 C4.81449023,20.8105664 4.75801172,20.9466211 4.65992578,21.044707 C4.56189258,21.142793 4.42583789,21.1992188 4.28661914,21.1992188 C4.147875,21.1992188 4.01182031,21.142793 3.91378711,21.044707 C3.81564844,20.9466211 3.75927539,20.8105664 3.75927539,20.671875 C3.75927539,20.5331836 3.81570117,20.3971289 3.91378711,20.299043 C4.01240039,20.200957 4.147875,20.1445312 4.28661914,20.1445312 C4.42583789,20.1445312 4.56136523,20.200957 4.65992578,20.299043 Z M14.0277129,14.2382812 C14.3189121,14.2382812 14.5550566,14.474373 14.5550566,14.765625 C14.5550566,15.056877 14.3189121,15.2929688 14.0277129,15.2929688 L6.53943164,15.2929688 C6.24823242,15.2929688 6.01208789,15.056877 6.01208789,14.765625 C6.01208789,14.474373 6.24823242,14.2382812 6.53943164,14.2382812 L14.0277129,14.2382812 Z M25.8926836,6.87234375 C26.9503242,7.48300781 27.3139805,8.84028516 26.7033164,9.89792578 L20.0671699,21.3920684 C20.0308359,21.4550859 19.981793,21.509877 19.9232051,21.5530137 L16.5332285,24.0496699 C16.4406797,24.1178555 16.3307813,24.1523965 16.2204609,24.1523965 C16.1297051,24.1523965 16.0387383,24.1289824 15.9568418,24.0817324 C15.7754355,23.9769492 15.6732363,23.7747129 15.6964395,23.5665176 L16.1635605,19.3823613 C16.1716289,19.3100625 16.1946211,19.2401895 16.2309551,19.1771719 L22.8671543,7.6830293 C23.1628887,7.17071484 23.6405566,6.80421094 24.2119863,6.65107031 C24.7835215,6.49798242 25.3803691,6.57655664 25.8926836,6.87234375 Z M16.8783223,22.4856211 L18.6485098,21.1819219 L17.1222715,20.3007305 L16.8783223,22.4856211 Z M19.4174824,20.4079922 L24.7428633,11.1842227 L22.7334199,10.0240664 L17.4080391,19.2478359 L19.4174824,20.4079922 Z M25.789957,9.3705293 C25.9448906,9.10216406 25.9860234,8.78950195 25.9058145,8.49018164 C25.8256055,8.19086133 25.6336523,7.94068945 25.3652871,7.78575586 C25.0969746,7.63082227 24.7843652,7.58958398 24.4849395,7.6698457 C24.1856191,7.75005469 23.9354473,7.94200781 23.7805137,8.21037305 L23.2607109,9.11070703 L25.2701543,10.2708633 L25.789957,9.3705293 Z" id="Combined-Shape" fill="#A1BCCF"></path>
    </g>
</svg>