<?xml version="1.0" encoding="UTF-8"?>
<svg width="27px" height="27px" viewBox="0 0 27 27" version="1.1" xmlns="http://www.w3.org/2000/svg" xmlns:xlink="http://www.w3.org/1999/xlink">
    <!-- Generator: Sketch 52.6 (67491) - http://www.bohemiancoding.com/sketch -->
    <title>Atoms/Icon/facebook</title>
    <desc>Created with Sketch.</desc>
    <g id="Atoms/Icon/facebook" stroke="none" stroke-width="1" fill="none" fill-rule="evenodd">
        <path d="M18.8524321,27 L13.7892372,27 L13.7892372,16.6876975 L11,16.6876975 L11,11.9517173 L13.7891557,11.9517173 L13.7891557,9.29230668 C13.7891557,6.85082444 15.3517737,4 19.7575515,4 C21.3107207,4 22.450917,4.14228643 22.4985678,4.1484174 L22.9660336,4.20781622 L22.8534638,8.63987523 L22.3383473,8.6352571 C22.3372884,8.6352571 21.1798238,8.62450798 19.9172018,8.62450798 C18.9775458,8.62450798 18.8529208,8.85119487 18.8529208,9.75284652 L18.8529208,11.9527524 L23,11.9527524 L22.7702176,16.6887326 L18.8534095,16.6887326 L18.8534095,27 L18.8524321,27 Z M14.8355982,25.976525 L17.8048492,25.976525 L17.8048492,15.6647799 L21.7697968,15.6647799 L21.9006937,12.9751922 L17.8048492,12.9751922 L17.8048492,9.75181142 C17.8048492,8.68741021 18.0555654,7.59999792 19.9160614,7.59999792 C20.6636483,7.59999792 21.3740107,7.60358096 21.8309689,7.607164 L21.8943403,5.11559885 C21.4320875,5.07515033 20.6630782,5.02347496 19.7564111,5.02347496 C16.1281139,5.02347496 14.835028,7.22847667 14.835028,9.29230668 L14.835028,12.9751922 L12.0459538,12.9751922 L12.0459538,15.6647799 L14.8351095,15.6647799 L14.8351095,25.976525 L14.8355982,25.976525 Z" id="Shape" fill="#FFFFFF"></path>
    </g>
</svg>