<?xml version="1.0" encoding="UTF-8"?>
<svg width="27px" height="27px" viewBox="0 0 27 27" version="1.1" xmlns="http://www.w3.org/2000/svg" xmlns:xlink="http://www.w3.org/1999/xlink">
    <!-- Generator: Sketch 52.6 (67491) - http://www.bohemiancoding.com/sketch -->
    <title>Atoms/Icon/feedback</title>
    <desc>Created with Sketch.</desc>
    <defs>
        <path d="M25.7080078,5 C26.4199219,5 27,5.58007812 26.9947266,6.29199219 L26.9947266,21.453125 C26.9947266,22.1650391 26.4146484,22.7451172 25.7027344,22.7451172 L1.29199219,22.7451172 C0.580078125,22.7451172 -1.54543045e-13,22.1650391 -1.54543045e-13,21.453125 L-1.54543045e-13,6.29199219 C-1.54543045e-13,5.58007812 0.580078125,5 1.29199219,5 L4.1765625,5 C4.39804687,5 4.57734375,5.17402344 4.57734375,5.39550781 C4.57734375,5.61699219 4.39804687,5.79628906 4.1765625,5.79628906 L1.29199219,5.79628906 C1.01777344,5.79628906 0.796289062,6.01777344 0.796289062,6.29199219 L0.796289062,21.453125 C0.796289062,21.7273437 1.01777344,21.9488281 1.29199219,21.9488281 L25.7027344,21.9488281 C25.9769531,21.9488281 26.1984375,21.7273437 26.1984375,21.453125 L26.1984375,6.29726562 C26.1984375,6.02304687 25.9769531,5.8015625 25.7027344,5.8015625 L5.77441406,5.8015625 C5.55292969,5.8015625 5.37363281,5.62226562 5.37363281,5.40078125 C5.37363281,5.17929688 5.55292969,5 5.77441406,5 L25.7080078,5 Z M24.7746094,11.4705078 L19.9810547,11.4705078 C19.6699219,11.4705078 19.4115234,11.2173828 19.4115234,10.9009766 L19.4115234,6.95644531 C19.4115234,6.6453125 19.6646484,6.38691406 19.9810547,6.38691406 L24.7746094,6.38691406 C25.0857422,6.38691406 25.3441406,6.64003906 25.3441406,6.95644531 L25.3441406,10.9009766 C25.3441406,11.2121094 25.0910156,11.4705078 24.7746094,11.4705078 Z M20.2078125,7.18320313 L20.2078125,10.6689453 L24.5478516,10.6689453 L24.5478516,7.18320313 L20.2078125,7.18320313 Z M1.55039063,16.5277344 C1.55039063,16.30625 1.7296875,16.1269531 1.95117188,16.1269531 L10.4730469,16.1269531 C10.6945313,16.1269531 10.8738281,16.30625 10.8738281,16.5277344 C10.8738281,16.7492188 10.6945313,16.9285156 10.4730469,16.9285156 L1.95117188,16.9285156 C1.7296875,16.9285156 1.55039063,16.7492188 1.55039063,16.5277344 Z M1.55039062,13.8910156 C1.55039062,13.6695312 1.7296875,13.4902344 1.95117187,13.4902344 L10.3728516,13.4902344 C10.5943359,13.4902344 10.7736328,13.6695313 10.7736328,13.8910156 C10.7736328,14.1125 10.5943359,14.2917969 10.3728516,14.2917969 L1.95117187,14.2917969 C1.7296875,14.2917969 1.55039062,14.1125 1.55039062,13.8910156 Z M7.15078125,19.9923828 C7.36699219,19.9923828 7.54628906,20.1716797 7.54628906,20.3931641 C7.54628906,20.6146484 7.36699219,20.7939453 7.14550781,20.7939453 L1.91953125,20.7939453 C1.69804687,20.7939453 1.51875,20.6146484 1.51875,20.3931641 C1.51875,20.1716797 1.69804687,19.9923828 1.91953125,19.9923828 L7.15078125,19.9923828 Z M1.55039062,18.8111328 C1.55039062,18.5896484 1.7296875,18.4103516 1.95117187,18.4103516 L13.66875,18.4103516 C13.8902344,18.4103516 14.0695312,18.5896484 14.0695312,18.8111328 C14.0695312,19.0326172 13.8902344,19.2119141 13.66875,19.2119141 L1.95117187,19.2119141 C1.7296875,19.2119141 1.55039062,19.0326172 1.55039062,18.8111328 Z" id="path-1"></path>
    </defs>
    <g id="Atoms/Icon/feedback" stroke="none" stroke-width="1" fill="none" fill-rule="evenodd">
        <mask id="mask-2" fill="white">
            <use xlink:href="#path-1"></use>
        </mask>
        <use id="Combined-Shape" fill="#0084B1" xlink:href="#path-1"></use>
    </g>
</svg>