<?xml version="1.0" encoding="UTF-8"?>
<svg width="27px" height="27px" viewBox="0 0 27 27" version="1.1" xmlns="http://www.w3.org/2000/svg" xmlns:xlink="http://www.w3.org/1999/xlink">
    <!-- Generator: Sketch 52.6 (67491) - http://www.bohemiancoding.com/sketch -->
    <title>Atoms/Icon/filter</title>
    <desc>Created with Sketch.</desc>
    <defs>
        <path d="M0.497449268,0 C0.204501041,0.0541766498 -0.00532277283,0.301944904 0.000102835028,0.587286329 L0.000102835028,2.34914532 C0.000732393582,2.50035366 0.0623136773,2.64550321 0.172025059,2.75437288 L9.8242299,12.5561817 L9.8242299,22.9041668 C9.82983413,23.1085035 9.94611534,23.2953542 10.1312339,23.3974874 L16.2713133,26.9212053 C16.4588309,27.0248492 16.6895656,27.0263385 16.8785285,26.9251245 C17.0674914,26.8239106 17.1867305,26.6349652 17.1923252,26.4278848 L17.1923252,12.5561817 L26.7462888,2.8483387 L26.8261098,2.77786434 C26.8562381,2.74943624 26.8830061,2.71792484 26.9059308,2.68389852 L26.9427713,2.64866134 C26.9787945,2.57304224 26.9976296,2.49097195 26.998032,2.40787395 L26.998032,2.34914532 C27.000656,2.31787366 27.000656,2.28645117 26.998032,2.2551795 L26.998032,0.587286329 C26.998032,0.262937046 26.7231313,0 26.3840241,0 L0.497449268,0 Z M1.22811872,1.17457266 L25.7884364,1.17457266 L25.7884364,2.12597651 L16.3081538,11.7457266 L10.7084013,11.7457266 L1.22811872,2.13184938 L1.22811872,1.17457266 Z M11.0522458,12.9202992 L15.9643093,12.9202992 L15.9643093,25.4001337 L11.0522458,22.5929051 L11.0522458,12.9202992 Z" id="path-1"></path>
    </defs>
    <g id="Atoms/Icon/filter" stroke="none" stroke-width="1" fill="none" fill-rule="evenodd">
        <mask id="mask-2" fill="white">
            <use xlink:href="#path-1"></use>
        </mask>
        <use id="Shape" fill="#A1BCCF" xlink:href="#path-1"></use>
    </g>
</svg>