<?xml version="1.0" encoding="UTF-8"?>
<svg width="27px" height="27px" viewBox="0 0 27 27" version="1.1" xmlns="http://www.w3.org/2000/svg" xmlns:xlink="http://www.w3.org/1999/xlink">
    <!-- Generator: Sketch 52.6 (67491) - http://www.bohemiancoding.com/sketch -->
    <title>Atoms/Icon/google</title>
    <desc>Created with Sketch.</desc>
    <g id="Atoms/Icon/google" stroke="none" stroke-width="1" fill="none" fill-rule="evenodd">
        <g id="google" transform="translate(4.000000, 4.000000)">
            <path d="M4.21080078,11.4819375 L3.5494375,13.9508984 L1.13216992,14.0020352 C0.409761719,12.662127 0,11.1291016 0,9.5 C0,7.92466992 0.383117188,6.43910742 1.06221875,5.13103906 L1.06273828,5.13103906 L3.21478516,5.52558594 L4.15751172,7.66471875 C3.96020117,8.23995117 3.8526582,8.85745117 3.8526582,9.5 C3.85273242,10.1973594 3.97905273,10.8655137 4.21080078,11.4819375 Z" id="Path" fill="#FBBB00"></path>
            <path d="M18.8340098,7.72528125 C18.9431113,8.29995703 19,8.89344727 19,9.5 C19,10.1801406 18.9284902,10.843582 18.7922617,11.4835332 C18.3298047,13.6612227 17.1214121,15.5627813 15.4474453,16.9084414 L15.4469258,16.9079219 L12.7363086,16.7696152 L12.3526719,14.3747617 C13.4634297,13.7233438 14.3314922,12.7039121 14.7887539,11.4835332 L9.70885156,11.4835332 L9.70885156,7.72528125 L14.8628613,7.72528125 L18.8340098,7.72528125 Z" id="Path" fill="#518EF8"></path>
            <path d="M15.4468887,16.9079219 L15.4474082,16.9084414 C13.8193828,18.2170293 11.7512773,19 9.5,19 C5.88216992,19 2.73674219,16.977873 1.13216992,14.0020723 L4.21080078,11.4819746 C5.01306836,13.6231113 7.07853906,15.1473047 9.5,15.1473047 C10.5408066,15.1473047 11.5158926,14.8659414 12.3525977,14.3747617 L15.4468887,16.9079219 Z" id="Path" fill="#28B446"></path>
            <path d="M15.5638203,2.18707812 L12.4862285,4.70665625 C11.6202812,4.16537891 10.5966563,3.85269531 9.5,3.85269531 C7.02372852,3.85269531 4.91962695,5.44680273 4.15754883,7.66471875 L1.06273828,5.13103906 L1.06221875,5.13103906 C2.64330078,2.08268945 5.82839844,0 9.5,0 C11.8050488,0 13.9185391,0.821082031 15.5638203,2.18707812 Z" id="Path" fill="#F14336"></path>
        </g>
    </g>
</svg>