<?xml version="1.0" encoding="UTF-8"?>
<svg width="27px" height="27px" viewBox="0 0 27 27" version="1.1" xmlns="http://www.w3.org/2000/svg" xmlns:xlink="http://www.w3.org/1999/xlink">
    <!-- Generator: Sketch 52.6 (67491) - http://www.bohemiancoding.com/sketch -->
    <title>Atoms/Icon/heart default</title>
    <desc>Created with Sketch.</desc>
    <defs>
        <path d="M26.049436,8.85837212 C25.683182,4.88397973 22.8298756,2.00047575 19.2590203,2.00047575 C16.8800585,2.00047575 14.7018368,3.26263316 13.4761648,5.28551039 C12.2615914,3.23646706 10.1726411,2 7.83180063,2 C4.26142784,2 1.40763885,4.88350398 1.04186745,8.85789637 C1.01291457,9.0334471 0.894207761,9.95734823 1.25515368,11.4640397 C1.77534044,13.6372531 2.97688501,15.6139828 4.72901687,17.1791912 L13.4703742,25 L22.361804,17.179667 C24.1139359,15.6139828 25.3154805,13.6377288 25.8356672,11.4640397 C26.1966131,9.95782397 26.0779063,9.03392285 26.049436,8.85837212 Z" id="path-1"></path>
    </defs>
    <g id="Atoms/Icon/heart-default" stroke="none" stroke-width="1" fill="none" fill-rule="evenodd">
        <mask id="mask-2" fill="white">
            <use xlink:href="#path-1"></use>
        </mask>
        <path stroke="#FFFFFF" d="M13.4732088,24.3316279 L22.0286445,16.8068336 C23.7061414,15.3078424 24.8533541,13.4204724 25.3494336,11.3475199 C25.613636,10.2450117 25.6355898,9.42988585 25.5558844,8.93841495 L25.5515456,8.90425443 C25.2079846,5.17611369 22.5591756,2.50047575 19.2590203,2.50047575 C17.0718167,2.50047575 15.0477703,3.65656652 13.9037932,5.54461267 L13.4714583,6.25814803 L13.046049,5.54046215 C11.9136556,3.63006025 9.98106932,2.5 7.83180063,2.5 C4.53189553,2.5 1.8828436,5.17588333 1.53520296,8.93926023 C1.4551515,9.42463827 1.47711429,10.2443688 1.74141754,11.3476462 C2.23755013,13.4203671 3.38497505,15.3080861 5.06240469,16.806562 L13.4732088,24.3316279 Z"></path>
    </g>
</svg>