<?xml version="1.0" encoding="UTF-8"?>
<svg width="27px" height="27px" viewBox="0 0 27 27" version="1.1" xmlns="http://www.w3.org/2000/svg" xmlns:xlink="http://www.w3.org/1999/xlink">
    <!-- Generator: Sketch 53.2 (72643) - https://sketchapp.com -->
    <title>Atoms/Icon/heart-bdr-green-white-fill</title>
    <desc>Created with Sketch.</desc>
    <defs>
        <path d="M24.8865738,9.35576955 C24.5519436,5.67263284 21.9450024,3.00044088 18.6824681,3.00044088 C16.5089148,3.00044088 14.5187689,4.17010352 13.398926,6.0447381 C12.2892234,4.14585496 10.3806409,3 8.24191737,3 C4.97982394,3 2.37244179,5.67219196 2.03825246,9.35532866 C2.01179948,9.5180145 1.90334226,10.3742093 2.23312275,11.7704858 C2.70839465,13.7844394 3.80619335,15.6163084 5.40703958,17.0668135 L13.3936354,24.3144894 L21.5173458,17.0672544 C23.1181921,15.6163084 24.2159908,13.7848803 24.6912627,11.7704858 C25.0210432,10.3746502 24.9125859,9.51845538 24.8865738,9.35576955 Z" id="path-1"></path>
        <path d="M24.8865738,9.35576955 C24.5519436,5.67263284 21.9450024,3.00044088 18.6824681,3.00044088 C16.5089148,3.00044088 14.5187689,4.17010352 13.398926,6.0447381 C12.2892234,4.14585496 10.3806409,3 8.24191737,3 C4.97982394,3 2.37244179,5.67219196 2.03825246,9.35532866 C2.01179948,9.5180145 1.90334226,10.3742093 2.23312275,11.7704858 C2.70839465,13.7844394 3.80619335,15.6163084 5.40703958,17.0668135 L13.3936354,24.3144894 L21.5173458,17.0672544 C23.1181921,15.6163084 24.2159908,13.7848803 24.6912627,11.7704858 C25.0210432,10.3746502 24.9125859,9.51845538 24.8865738,9.35576955 Z" id="path-3"></path>
    </defs>
    <g id="Atoms/Icon/heart-bdr-green-white-fill" stroke="none" stroke-width="1" fill="none" fill-rule="evenodd">
        <mask id="mask-2" fill="white">
            <use xlink:href="#path-1"></use>
        </mask>
        <use id="Shape" fill="#FFFFFF" xlink:href="#path-1"></use>
        <mask id="mask-4" fill="white">
            <use xlink:href="#path-3"></use>
        </mask>
        <path stroke="#42BEB7" d="M13.3964924,23.6418932 L21.1815634,16.6967815 C22.7085663,15.3127642 23.7529662,13.5699779 24.2046591,11.6555207 C24.445106,10.6378002 24.4650594,9.88635755 24.3928452,9.43471261 L24.3886248,9.40101055 C24.0762879,5.96324684 21.6725383,3.50044088 18.6824681,3.50044088 C16.7010157,3.50044088 14.8662438,4.56340303 13.8281705,6.30115413 L13.394202,7.02762415 L12.9672366,6.29701629 C11.9396401,4.53863006 10.1884476,3.5 8.24191737,3.5 C5.25207633,3.5 2.84810645,5.96303164 2.53177089,9.43557556 C2.45925665,9.88153814 2.47921802,10.6372189 2.71975579,11.6556455 C3.17149468,13.5698786 4.21608767,15.3129872 5.74304927,16.6965467 L13.3964924,23.6418932 Z"></path>
    </g>
</svg>