<?xml version="1.0" encoding="UTF-8"?>
<svg width="27px" height="27px" viewBox="0 0 27 27" version="1.1" xmlns="http://www.w3.org/2000/svg" xmlns:xlink="http://www.w3.org/1999/xlink">
    <!-- Generator: Sketch 52.6 (67491) - http://www.bohemiancoding.com/sketch -->
    <title>Atoms/Icon/host-heart</title>
    <desc>Created with Sketch.</desc>
    <defs>
        <path d="M14.9053819,10.6374042 C16.6606752,8.13487683 16.3762816,4.57841699 14.2504998,2.44783282 C12.124718,0.317248637 8.86361744,0.320204495 6.74106134,2.45463936 C4.61850523,4.58907423 4.33949151,8.14604474 6.09856771,10.6453867 C2.8366846,12.4543072 0.780001779,16.1163134 0.777777778,20.1192664 C0.777777778,21.2408056 5.13090278,22.1481481 10.5,22.1481481 C15.8690972,22.1481481 20.2222222,21.2408056 20.2222222,20.1192664 C20.2216025,16.1149824 18.1667361,12.4504074 14.9053819,10.6374042 Z M10.5,1.87463092 C13.0567392,1.87481462 15.1292968,4.14387708 15.1292968,6.94284394 C15.1292968,9.74181079 13.0567392,12.0108732 10.5,12.0110569 C7.94326075,12.0112406 5.87043107,9.74247596 5.87009549,6.94350913 C5.8729416,4.14546643 7.94410516,1.87793028 10.5,1.87463092 Z M10.5,21.1347051 C5.39309896,21.1347051 2.3953125,20.3564128 1.70655382,19.8728072 C1.79797173,16.240073 3.74943516,12.9729764 6.75269097,11.4246769 C8.87071674,13.561319 12.1322139,13.5603061 14.2491319,11.4223486 C17.2518486,12.9722291 19.2021824,16.2402336 19.2925347,19.8731398 C18.6043837,20.3564128 15.6065972,21.1347051 10.5,21.1347051 Z" id="path-1"></path>
    </defs>
    <g id="Atoms/Icon/host-heart" stroke="none" stroke-width="1" fill="none" fill-rule="evenodd">
        <g id="Atoms/Icon/traveller" transform="translate(1.000000, 2.000000)">
            <mask id="mask-2" fill="white">
                <use xlink:href="#path-1"></use>
            </mask>
            <use id="traveller" fill="#00BDBB" fill-rule="evenodd" xlink:href="#path-1"></use>
        </g>
        <path d="M26.4709526,16.9772304 C26.2455062,18.0316469 25.7229012,18.9922982 24.9611032,19.7535404 L21.0487833,23.6039803 L17.2035932,19.7545513 C16.4404205,18.9917927 15.9180447,18.0313941 15.6923692,16.9769777 C15.5301578,16.2195265 15.5968294,15.7916437 15.5970585,15.7888636 L15.6004952,15.7633372 C15.7494181,13.9135591 16.9135372,12.5707703 18.3688579,12.5707703 C19.4427068,12.5707703 20.3880237,13.2986513 20.8366254,14.4700847 L21.0476377,15.0218084 L21.25865,14.4700847 C21.7001493,13.3165956 22.6954126,12.571023 23.794693,12.571023 C25.2497845,12.571023 26.4141327,13.9138118 26.5660341,15.7875999 C26.5664923,15.7916437 26.633164,16.2197792 26.4709526,16.9772304 Z" id="Path-Copy" fill="#00BDBB"></path>
    </g>
</svg>