<?xml version="1.0" encoding="UTF-8"?>
<svg width="27px" height="27px" viewBox="0 0 27 27" version="1.1" xmlns="http://www.w3.org/2000/svg" xmlns:xlink="http://www.w3.org/1999/xlink">
    <!-- Generator: Sketch 52.6 (67491) - http://www.bohemiancoding.com/sketch -->
    <title>Atoms/Icon/host</title>
    <desc>Created with Sketch.</desc>
    <defs>
        <path d="M9.72359963,19.5925926 C10.0194444,19.5925926 10.2592593,19.7998611 10.2592593,20.0555556 C10.2592593,20.31125 10.0194444,20.5185185 9.72359963,20.5185185 L4.3134374,20.5185185 C4.01759259,20.5185185 3.77777778,20.31125 3.77777778,20.0555556 C3.77777778,19.7998611 4.01759259,19.5925926 4.3134374,19.5925926 L9.72359963,19.5925926 Z M19.9087848,19.5925926 C20.2045761,19.5925926 20.4444444,19.7998611 20.4444444,20.0555556 C20.4444444,20.31125 20.2045761,20.5185185 19.9087848,20.5185185 L14.4986226,20.5185185 C14.2027778,20.5185185 13.962963,20.31125 13.962963,20.0555556 C13.962963,19.7998611 14.2027778,19.5925926 14.4986226,19.5925926 L19.9087848,19.5925926 Z M18.9398148,5.7037037 C19.259375,5.7037037 19.5185185,5.91097222 19.5185185,6.16666667 C19.5185185,6.42236111 19.259375,6.62962963 18.9398148,6.62962963 L4.35648148,6.62962963 C4.03686343,6.62962963 3.77777778,6.42236111 3.77777778,6.16666667 C3.77777778,5.91097222 4.03686343,5.7037037 4.35648148,5.7037037 L18.9398148,5.7037037 Z M19.9087848,8.48148148 C20.2045761,8.48148148 20.4444444,8.68875 20.4444444,8.94444444 C20.4444444,9.20013889 20.2045761,9.40740741 19.9087848,9.40740741 L14.4986226,9.40740741 C14.2027778,9.40740741 13.962963,9.20013889 13.962963,8.94444444 C13.962963,8.68875 14.2027778,8.48148148 14.4986226,8.48148148 L19.9087848,8.48148148 Z M19.9087848,11.2592593 C20.2045761,11.2592593 20.4444444,11.4665278 20.4444444,11.7222222 C20.4444444,11.9779167 20.2045761,12.1851852 19.9087848,12.1851852 L14.4986226,12.1851852 C14.2027778,12.1851852 13.962963,11.9779167 13.962963,11.7222222 C13.962963,11.4665278 14.2027778,11.2592593 14.4986226,11.2592593 L19.9087848,11.2592593 Z M19.9087848,14.037037 C20.2045761,14.037037 20.4444444,14.2443056 20.4444444,14.5 C20.4444444,14.7556944 20.2045761,14.962963 19.9087848,14.962963 L14.4986226,14.962963 C14.2027778,14.962963 13.962963,14.7556944 13.962963,14.5 C13.962963,14.2443056 14.2027778,14.037037 14.4986226,14.037037 L19.9087848,14.037037 Z M19.9087848,16.8148148 C20.2045761,16.8148148 20.4444444,17.0220833 20.4444444,17.2777778 C20.4444444,17.5334722 20.2045761,17.7407407 19.9087848,17.7407407 L14.4986226,17.7407407 C14.2027778,17.7407407 13.962963,17.5334722 13.962963,17.2777778 C13.962963,17.0220833 14.2027778,16.8148148 14.4986226,16.8148148 L19.9087848,16.8148148 Z M9.72359963,16.8148148 C10.0194444,16.8148148 10.2592593,17.0220833 10.2592593,17.2777778 C10.2592593,17.5334722 10.0194444,17.7407407 9.72359963,17.7407407 L4.3134374,17.7407407 C4.01759259,17.7407407 3.77777778,17.5334722 3.77777778,17.2777778 C3.77777778,17.0220833 4.01759259,16.8148148 4.3134374,16.8148148 L9.72359963,16.8148148 Z M9.72359963,8.48148148 C10.0194444,8.48148148 10.2592593,8.7212963 10.2592593,9.01714111 L10.2592593,14.4273033 C10.2592593,14.7231481 10.0194444,14.962963 9.72359963,14.962963 L4.3134374,14.962963 C4.01759259,14.962963 3.77777778,14.7231481 3.77777778,14.4273033 L3.77777778,9.01714111 C3.77777778,8.7212963 4.01759259,8.48148148 4.3134374,8.48148148 L9.72359963,8.48148148 Z M9.18794001,13.8916437 L9.18794001,9.55280073 L4.84909703,9.55280073 L4.84909703,13.8916437 L9.18794001,13.8916437 Z M24.8687783,4.84900285 C25.4925339,4.84900285 26,5.36022792 26,5.98860399 L26,21.3732194 C26,22.9441595 24.7313348,24.2222222 23.1719457,24.2222222 L3.8280543,24.2222222 C2.26866516,24.2222222 1,22.9441595 1,21.3732194 L1,3.13960114 C1,2.51122507 1.50746606,2 2.13122172,2 L22.040724,2 C22.6644796,2 23.1719457,2.51122507 23.1719457,3.13960114 L23.1719457,4.84900285 L24.8687783,4.84900285 Z M24.8687783,21.3732194 L24.8687783,5.98860399 L23.1719457,5.98860399 L23.1719457,20.5185185 C23.1719457,20.6756125 23.2988122,20.8034188 23.4547511,20.8034188 C23.7670814,20.8034188 24.020362,21.0585185 24.020362,21.3732194 C24.020362,21.6879202 23.7670814,21.9430199 23.4547511,21.9430199 C22.6750566,21.9430199 22.040724,21.3039886 22.040724,20.5185185 L22.040724,3.13960114 L2.13122172,3.13960114 L2.13122172,21.3732194 C2.13122172,22.3157835 2.89242081,23.0826211 3.8280543,23.0826211 L23.1719457,23.0826211 C24.1075792,23.0826211 24.8687783,22.3157835 24.8687783,21.3732194 Z" id="path-1"></path>
    </defs>
    <g id="Atoms/Icon/host" stroke="none" stroke-width="1" fill="none" fill-rule="evenodd">
        <mask id="mask-2" fill="white">
            <use xlink:href="#path-1"></use>
        </mask>
        <use id="Combined-Shape" fill="#A1BCCF" transform="translate(13.500000, 13.111111) scale(-1, 1) translate(-13.500000, -13.111111) " xlink:href="#path-1"></use>
    </g>
</svg>