<?xml version="1.0" encoding="UTF-8"?>
<svg width="27px" height="27px" viewBox="0 0 27 27" version="1.1" xmlns="http://www.w3.org/2000/svg" xmlns:xlink="http://www.w3.org/1999/xlink">
    <!-- Generator: Sketch 52.6 (67491) - http://www.bohemiancoding.com/sketch -->
    <title>Atoms/Icon/inbox</title>
    <desc>Created with Sketch.</desc>
    <defs>
        <path d="M24.75,5 C25.4403809,5 26,5.51684112 26,6.15434763 L26,21.5456344 C26,22.183186 25.440332,22.699982 24.75,22.699982 L2.25,22.699982 C1.55961914,22.699982 1,22.1831409 1,21.5456344 L1,6.15434763 C1,5.51679602 1.55966797,5 2.25,5 L24.75,5 Z M25.1666504,21.5456795 L25.1666504,6.15434763 C25.1666504,5.94183043 24.980127,5.76958012 24.75,5.76958012 L2.25,5.76958012 C2.01987305,5.76958012 1.83334961,5.94183043 1.83334961,6.15434763 L1.83334961,21.5456795 C1.83334961,21.7581967 2.01987305,21.930447 2.25,21.930447 L24.75,21.930447 C24.980127,21.930447 25.1666504,21.7581967 25.1666504,21.5456795 Z M23.9529297,6.54055808 C24.0630371,6.54944115 24.1647949,6.59832055 24.235791,6.67655466 C24.3068848,6.75469858 24.3414063,6.85574909 24.3317871,6.95743089 C24.322168,7.05911268 24.2692383,7.15308379 24.1845703,7.21869222 L14.5721191,14.675327 C13.9525391,15.1570417 13.0474609,15.1570417 12.4279297,14.675327 L2.81542969,7.21864713 C2.70141602,7.13026739 2.64711914,6.99242205 2.67299805,6.85701166 C2.69887695,6.72160127 2.80102539,6.60923275 2.94091797,6.56224719 C3.08081055,6.51526163 3.23725586,6.54078354 3.35126953,6.62916328 L12.9637207,14.086249 C13.2737305,14.3269034 13.7262207,14.3269034 14.0362305,14.086249 L23.6487793,6.62920837 C23.7333984,6.56355485 23.8428223,6.53167501 23.9529297,6.54055808 Z M9.01386719,14.6224344 C9.16137695,14.6528263 9.27944336,14.7545982 9.32250977,14.8883402 C9.36557617,15.0220822 9.32680664,15.1669168 9.22124023,15.2667498 L3.38789062,21.038488 C3.28730469,21.1426498 3.13359375,21.1883728 2.98608398,21.157981 C2.83862305,21.1275892 2.72050781,21.0258623 2.67744141,20.8920752 C2.634375,20.7583332 2.67314453,20.6134987 2.77871094,20.5136656 L8.61206055,14.7419275 C8.71264648,14.6377656 8.86635742,14.5920426 9.01386719,14.6224344 Z M18.3879395,14.7419275 L24.2212891,20.5136205 C24.3719727,20.669728 24.3600586,20.9083533 24.1944824,21.0510235 C24.0289062,21.1936936 23.7703125,21.1881022 23.6121094,21.038488 L17.7787598,15.2667498 C17.6731934,15.1669168 17.6344238,15.0221273 17.6774902,14.8883402 C17.7205566,14.7545982 17.838623,14.6528263 17.9861328,14.6224344 C18.1336426,14.5920426 18.2874023,14.6377656 18.3879395,14.7419275 Z" id="path-1"></path>
    </defs>
    <g id="Atoms/Icon/inbox" stroke="none" stroke-width="1" fill="none" fill-rule="evenodd">
        <mask id="mask-2" fill="white">
            <use xlink:href="#path-1"></use>
        </mask>
        <use id="Combined-Shape" fill="#A1BCCF" xlink:href="#path-1"></use>
    </g>
</svg>