<?xml version="1.0" encoding="UTF-8"?>
<svg width="27px" height="27px" viewBox="0 0 27 27" version="1.1" xmlns="http://www.w3.org/2000/svg" xmlns:xlink="http://www.w3.org/1999/xlink">
    <!-- Generator: Sketch 52.6 (67491) - http://www.bohemiancoding.com/sketch -->
    <title>Atoms/Icon/invite friends</title>
    <desc>Created with Sketch.</desc>
    <defs>
        <path d="M4.7195687,20.2909488 C4.62665755,20.2909488 4.56471678,20.2909488 4.47180562,20.2598343 C4.100161,20.1353766 3.91433869,19.730889 4.03822023,19.3575158 C5.49382833,15.2192961 9.45803764,12.4189971 13.8248619,12.4189971 C18.1607159,12.4189971 22.0629844,15.1570672 23.5805333,19.233058 C23.7044148,19.6064312 23.5185925,20.0109189 23.1779183,20.1353766 C22.8062736,20.2598343 22.4036586,20.0731477 22.2797771,19.730889 C20.9790209,16.214958 17.5722786,13.8191466 13.8248619,13.8191466 C10.046475,13.8191466 6.63973258,16.2460724 5.36994679,19.8242323 C5.27703564,20.1353766 4.99830217,20.2909488 4.7195687,20.2909488 Z M13.8248619,11.267763 C11.0065569,11.267763 8.71474839,8.96529497 8.71474839,6.13388152 C8.71474839,3.30246808 11.0065569,1 13.8248619,1 C16.643167,1 18.9349755,3.33358251 18.9349755,6.16499596 C18.9349755,8.9964094 16.643167,11.267763 13.8248619,11.267763 Z M13.8248619,2.43126394 C11.7808165,2.43126394 10.1084157,4.11144335 10.1084157,6.16499596 C10.1084157,8.21854857 11.7808165,9.89872797 13.8248619,9.89872797 C15.8689074,9.89872797 17.5413082,8.21854857 17.5413082,6.16499596 C17.5413082,4.11144335 15.8689074,2.43126394 13.8248619,2.43126394 Z M17.4793674,22.033357 C17.4174266,22.4067302 17.0767524,22.6556457 16.7051078,22.6556457 L14.5681512,22.6556457 C14.5681512,22.6556457 14.5371808,22.6556457 14.5371808,22.6867601 L14.5371808,24.8025416 C14.5371808,25.1759148 14.2894177,25.5181736 13.9177731,25.5804024 C13.4532173,25.6426313 13.0815727,25.3003725 13.0815727,24.8647705 L13.0815727,22.6867601 C13.0815727,22.6867601 13.0815727,22.6556457 13.0506023,22.6556457 L10.8826754,22.6556457 C10.44909,22.6556457 10.0774453,22.2511581 10.1703565,21.815556 C10.2322973,21.4421828 10.5729715,21.1932673 10.9446161,21.1932673 L13.0506023,21.1932673 C13.0506023,21.1932673 13.0815727,21.1932673 13.0815727,21.1621529 L13.0815727,19.015257 C13.0815727,18.6418838 13.3293358,18.299625 13.7009804,18.2373961 C14.1655362,18.1751673 14.5371808,18.517426 14.5371808,18.9530281 L14.5371808,21.1310385 C14.5371808,21.1310385 14.5371808,21.1621529 14.5681512,21.1621529 L16.7360782,21.1621529 C17.2006339,21.1932673 17.5413082,21.597755 17.4793674,22.033357 Z" id="path-1"></path>
    </defs>
    <g id="Atoms/Icon/invite-friends" stroke="none" stroke-width="1" fill="none" fill-rule="evenodd">
        <mask id="mask-2" fill="white">
            <use xlink:href="#path-1"></use>
        </mask>
        <use id="Combined-Shape" fill="#A1BCCF" xlink:href="#path-1"></use>
    </g>
</svg>