<?xml version="1.0" encoding="UTF-8"?>
<svg width="20px" height="26px" viewBox="0 0 20 26" version="1.1" xmlns="http://www.w3.org/2000/svg" xmlns:xlink="http://www.w3.org/1999/xlink">
    <!-- Generator: Sketch 64 (93537) - https://sketch.com -->
    <title>Atoms/Icon/legal</title>
    <desc>Created with Sketch.</desc>
    <g id="Mobile" stroke="none" stroke-width="1" fill="none" fill-rule="evenodd">
        <g id="03.1-guest-menu" transform="translate(-43.000000, -617.000000)" fill="#FFFFFF">
            <g id="Panel" transform="translate(20.000000, 9.000000)">
                <g id="menu-list" transform="translate(0.000000, 136.000000)">
                    <g id="terms-&amp;-cons" transform="translate(0.000000, 458.388443)">
                        <g id="Atoms/Icon/privacy-policy" transform="translate(19.261637, 13.475120)">
                            <path d="M13.1536399,1.05769791 C13.2886681,0.981735569 13.451721,0.98069148 13.5877684,1.05508756 L13.5877684,1.05508756 L22.758223,6.06181406 C22.9070088,6.14299718 23,6.30196986 23,6.4747776 L23,6.4747776 L23,12.8851104 C22.9994904,18.3267277 19.8138434,23.2373919 14.9171594,25.3444981 L14.9171594,25.3444981 L13.5225472,25.9615941 C13.4066267,26.0130187 13.2749105,26.0127577 13.1592448,25.961072 L13.1592448,25.961072 L11.921571,25.4084526 C7.11405659,23.2546205 4.00535019,18.3909433 4,13.0148468 L4,13.0148468 L4,6.4747776 C4,6.30379715 4.09069817,6.14665169 4.23693632,6.06442441 L4.23693632,6.06442441 Z M13.3760543,1.99926532 L4.91284174,6.75173988 L4.91284174,13.0148468 C4.91793715,18.0192239 7.81187229,22.5461609 12.2869115,24.5509398 L12.2869115,24.5509398 L13.3421698,25.0226371 L14.5566595,24.485419 C19.119085,22.5231894 22.0858844,17.9516148 22.0869035,12.8851104 L22.0869035,12.8851104 L22.0869035,6.75513343 L13.3760543,1.99926532 Z M17.4004049,10.8641471 C17.5960685,10.7009978 17.8837041,10.7315393 18.0426807,10.9317562 C18.2019121,11.1322341 18.1723587,11.426947 17.9766952,11.5898353 L17.9766952,11.5898353 L12.3600306,16.2718294 C12.1679338,16.4321073 11.8859032,16.4057423 11.7248884,16.2125735 L11.7248884,16.2125735 L9.31323328,13.3189571 C9.149416,13.1226558 9.1720906,12.8271598 9.36393258,12.6595727 C9.55577455,12.4917248 9.8439197,12.5149572 10.007737,12.7115195 L10.007737,12.7115195 L12.1297183,15.2574321 Z" id="Combined-Shape"></path>
                        </g>
                    </g>
                </g>
            </g>
        </g>
    </g>
</svg>