<?xml version="1.0" encoding="UTF-8"?>
<svg width="27px" height="27px" viewBox="0 0 27 27" version="1.1" xmlns="http://www.w3.org/2000/svg" xmlns:xlink="http://www.w3.org/1999/xlink">
    <!-- Generator: Sketch 52.6 (67491) - http://www.bohemiancoding.com/sketch -->
    <title>Atoms/Icon/linkedin</title>
    <desc>Created with Sketch.</desc>
    <g id="Atoms/Icon/linkedin" stroke="none" stroke-width="1" fill="none" fill-rule="evenodd">
        <rect id="Rectangle" fill="#0084B1" x="0" y="0" width="26.9840724" height="26.9840724"></rect>
        <path d="M6.350625,4.09825658 C7.58652632,4.09926316 8.60583553,5.12005263 8.60317105,6.36211184 C8.60021053,7.66267105 7.52092105,8.64290132 6.33540789,8.61465789 C5.13296053,8.63899342 4.07623026,7.63466447 4.07646711,6.35352632 C4.07646711,5.11099342 5.09974342,4.09730921 6.350625,4.09825658 Z M7.66367763,22.8831513 L5.01572368,22.8831513 C4.67206579,22.8831513 4.39348026,22.6045658 4.39348026,22.2609079 L4.39348026,10.9646053 C4.39348026,10.6209474 4.67206579,10.3423618 5.01572368,10.3423618 L7.66367763,10.3423618 C8.00733553,10.3423618 8.28592105,10.6209474 8.28592105,10.9646053 L8.28592105,22.2609671 C8.28586184,22.6045658 8.00733553,22.8831513 7.66367763,22.8831513 Z M22.9076053,14.3101184 L22.9074868,14.3101184 L22.9074868,22.6274803 C22.9074868,22.7701776 22.7917895,22.885875 22.6490921,22.8858158 L19.2650921,22.8849868 C19.1225132,22.8849276 19.006875,22.7692895 19.006875,22.6266513 L19.006875,15.6511776 C19.006875,15.0481776 18.7625132,14.5020197 18.3672829,14.1070263 C17.9667829,13.7062895 17.4110921,13.4606842 16.7981447,13.4676118 C15.5974145,13.4811711 14.6396842,14.4782171 14.6396842,15.6790066 L14.6396842,22.6257632 C14.6396842,22.7684605 14.5239868,22.8841579 14.3812895,22.8840987 L11.0056382,22.8832697 C10.863,22.8832105 10.7474211,22.7675724 10.7474211,22.6249342 L10.7474211,10.6006382 C10.7474211,10.4579408 10.8631184,10.3423026 11.0057566,10.3423026 L14.3094079,10.3423026 C14.4521053,10.3423026 14.5677434,10.458 14.5677434,10.6006382 L14.5677434,11.9872303 C14.5680395,11.9866382 14.581125,11.9883553 14.6032105,11.9916711 C14.6670395,11.8762105 14.7365526,11.7643618 14.8116316,11.6566579 C15.5001316,10.6685526 16.6447895,10.0220921 17.9404342,10.0220921 L18.6195789,10.0220921 C20.9878224,10.0220921 22.9076053,11.9419342 22.9076053,14.3101184 Z" id="Combined-Shape" fill="#FFFFFF"></path>
    </g>
</svg>