<?xml version="1.0" encoding="UTF-8"?>
<svg width="27px" height="27px" viewBox="0 0 27 27" version="1.1" xmlns="http://www.w3.org/2000/svg" xmlns:xlink="http://www.w3.org/1999/xlink">
    <!-- Generator: Sketch 52.5 (67469) - http://www.bohemiancoding.com/sketch -->
    <title>Atom/Icon/login</title>
    <desc>Created with Sketch.</desc>
    <defs>
        <path d="M16.7762148,12.8560372 L12.768984,8.23033073 C12.5287159,7.95304498 12.5566091,7.5293055 12.8311223,7.28661073 C12.9526372,7.17976925 13.1072926,7.12118775 13.266919,7.12118775 C13.4574765,7.12118775 13.6391966,7.20375976 13.7651302,7.34909766 L18.3884969,12.6867088 C18.7961243,13.1567555 18.7961243,13.8923717 18.3879446,14.3624185 L13.7654064,19.6991927 C13.5334233,19.9661569 13.096522,19.9957266 12.8311223,19.7625165 C12.5566091,19.5195428 12.5287159,19.0963612 12.768984,18.8187965 L16.7759386,14.1928111 L2.661704,14.1928111 C2.29688305,14.1928111 2,13.8929296 2,13.5244241 C2,13.1561976 2.29688305,12.8560372 2.661704,12.8560372 L16.7762148,12.8560372 Z M22.6781985,1 C24.2255737,1 25.4844696,2.24454876 25.484751,3.77401099 L25.484751,23.2672116 C25.484751,24.7966738 24.2258552,26.0412226 22.67848,26.0412226 L12.1536267,26.0412226 C10.6062515,26.0412226 9.34735565,24.7966738 9.34735565,23.2672116 L9.34735565,19.9742908 C9.34735565,19.6064631 9.64990718,19.3076379 10.0216938,19.3076379 C10.3934804,19.3076379 10.6960319,19.6064631 10.6960319,19.9742908 L10.6960319,23.2672116 C10.6960319,24.0615748 11.3501061,24.7079166 12.1533452,24.7079166 L22.6779171,24.7079166 C23.4814377,24.7079166 24.1352304,24.0612966 24.1352304,23.2672116 L24.1352304,3.77401099 C24.1352304,2.97964777 23.4811562,2.33330599 22.6779171,2.33330599 L12.1530638,2.33330599 C11.3495432,2.33330599 10.6957504,2.979926 10.6957504,3.77401099 L10.6957504,7.06693177 C10.6957504,7.4347595 10.3931989,7.73358476 10.0214123,7.73358476 C9.64962574,7.73358476 9.3470742,7.4347595 9.3470742,7.06693177 L9.3470742,3.77401099 C9.3470742,2.24454876 10.60597,1 12.1533452,1 L22.6781985,1 Z" id="path-1"></path>
        <rect id="path-3" x="0" y="0" width="27" height="27"></rect>
    </defs>
    <g id="Atom/Icon/login" stroke="none" stroke-width="1" fill="none" fill-rule="evenodd">
        <mask id="mask-2" fill="white">
            <use xlink:href="#path-1"></use>
        </mask>
        <use id="Combined-Shape" fill="#E3E3E3" xlink:href="#path-1"></use>
        <g id="Atoms/Colors/Primary/Rock-Blue" mask="url(#mask-2)">
            <mask id="mask-4" fill="white">
                <use xlink:href="#path-3"></use>
            </mask>
            <use id="Background" fill="#A1BCCF" fill-rule="evenodd" xlink:href="#path-3"></use>
        </g>
    </g>
</svg>