<?xml version="1.0" encoding="UTF-8"?>
<svg width="27px" height="27px" viewBox="0 0 27 27" version="1.1" xmlns="http://www.w3.org/2000/svg" xmlns:xlink="http://www.w3.org/1999/xlink">
    <!-- Generator: Sketch 52.6 (67491) - http://www.bohemiancoding.com/sketch -->
    <title>Atoms/Icon/logout</title>
    <desc>Created with Sketch.</desc>
    <defs>
        <path d="M2.91793361,14.1851854 L6.92516441,18.8108919 C7.16543255,19.0881776 7.13753935,19.5119171 6.86302609,19.7546119 C6.74151117,19.8614534 6.58685581,19.9200349 6.42722939,19.9200349 C6.23667189,19.9200349 6.05495185,19.8374629 5.9290182,19.692125 L1.3056515,14.3545139 C0.898024158,13.8844671 0.898024158,13.1488509 1.30620384,12.6788041 L5.92874203,7.34202993 C6.16072506,7.07506569 6.59762645,7.04549598 6.86302609,7.27870612 C7.13753935,7.52167985 7.16543255,7.94486141 6.92516441,8.22242611 L2.91820978,12.8484115 L17.0324444,12.8484115 C17.3972654,12.8484115 17.6941484,13.148293 17.6941484,13.5167985 C17.6941484,13.885025 17.3972654,14.1851854 17.0324444,14.1851854 L2.91793361,14.1851854 Z M22.6781985,1 C24.2255737,1 25.4844696,2.24454876 25.484751,3.77401099 L25.484751,23.2672116 C25.484751,24.7966738 24.2258552,26.0412226 22.67848,26.0412226 L12.1536267,26.0412226 C10.6062515,26.0412226 9.34735565,24.7966738 9.34735565,23.2672116 L9.34735565,19.9742908 C9.34735565,19.6064631 9.64990718,19.3076379 10.0216938,19.3076379 C10.3934804,19.3076379 10.6960319,19.6064631 10.6960319,19.9742908 L10.6960319,23.2672116 C10.6960319,24.0615748 11.3501061,24.7079166 12.1533452,24.7079166 L22.6779171,24.7079166 C23.4814377,24.7079166 24.1352304,24.0612966 24.1352304,23.2672116 L24.1352304,3.77401099 C24.1352304,2.97964777 23.4811562,2.33330599 22.6779171,2.33330599 L12.1530638,2.33330599 C11.3495432,2.33330599 10.6957504,2.979926 10.6957504,3.77401099 L10.6957504,7.06693177 C10.6957504,7.4347595 10.3931989,7.73358476 10.0214123,7.73358476 C9.64962574,7.73358476 9.3470742,7.4347595 9.3470742,7.06693177 L9.3470742,3.77401099 C9.3470742,2.24454876 10.60597,1 12.1533452,1 L22.6781985,1 Z" id="path-1"></path>
    </defs>
    <g id="Atoms/Icon/logout" stroke="none" stroke-width="1" fill="none" fill-rule="evenodd">
        <mask id="mask-2" fill="white">
            <use xlink:href="#path-1"></use>
        </mask>
        <use id="Combined-Shape" fill="#A1BCCF" xlink:href="#path-1"></use>
    </g>
</svg>