<?xml version="1.0" encoding="UTF-8"?>
<svg width="27px" height="27px" viewBox="0 0 27 27" version="1.1" xmlns="http://www.w3.org/2000/svg" xmlns:xlink="http://www.w3.org/1999/xlink">
    <!-- Generator: Sketch 52.6 (67491) - http://www.bohemiancoding.com/sketch -->
    <title>Atoms/Icon/menu</title>
    <desc>Created with Sketch.</desc>
    <defs>
        <path d="M1,13.8291824 C1,13.0197837 1.65445472,12.3636364 2.45837273,12.3636364 L12.0416273,12.3636364 C12.8470643,12.3636364 13.5,13.0209434 13.5,13.8291824 L13.5,14.3071813 C13.5,15.11658 12.8455453,15.7727273 12.0416273,15.7727273 L2.45837273,15.7727273 C1.65293571,15.7727273 1,15.1154203 1,14.3071813 L1,13.8291824 Z M1,24.0564551 C1,23.2470564 1.64310394,22.5909091 2.45216472,22.5909091 L24.5478353,22.5909091 C25.3498437,22.5909091 26,23.2482161 26,24.0564551 L26,24.534454 C26,25.3438527 25.3568961,26 24.5478353,26 L2.45216472,26 C1.65015629,26 1,25.342693 1,24.534454 L1,24.0564551 Z M1,2.465546 C1,1.65614729 1.64310394,1 2.45216472,1 L24.5478353,1 C25.3498437,1 26,1.65730702 26,2.465546 L26,2.94354491 C26,3.75294361 25.3568961,4.40909091 24.5478353,4.40909091 L2.45216472,4.40909091 C1.65015629,4.40909091 1,3.75178389 1,2.94354491 L1,2.465546 Z" id="path-1"></path>
    </defs>
    <g id="Atoms/Icon/menu" stroke="none" stroke-width="1" fill="none" fill-rule="evenodd">
        <mask id="mask-2" fill="white">
            <use xlink:href="#path-1"></use>
        </mask>
        <use id="menu" fill="#627790" xlink:href="#path-1"></use>
    </g>
</svg>