<?xml version="1.0" encoding="UTF-8"?>
<svg width="27px" height="27px" viewBox="0 0 27 27" version="1.1" xmlns="http://www.w3.org/2000/svg" xmlns:xlink="http://www.w3.org/1999/xlink">
    <!-- Generator: Sketch 52.6 (67491) - http://www.bohemiancoding.com/sketch -->
    <title>Atoms/Icon/mike</title>
    <desc>Created with Sketch.</desc>
    <defs>
        <path d="M20.4622848,13.159483 C20.7020003,13.159483 20.896552,13.3536005 20.896552,13.5937502 L20.896552,16.1993538 C20.896552,19.8836771 18.0112804,22.8996632 14.3825433,23.1254821 L14.3825433,25.318966 L16.5538795,25.318966 C16.793595,25.318966 16.9881468,25.5130835 16.9881468,25.7532333 C16.9881468,25.993383 16.793595,26.1875005 16.5538795,26.1875005 L11.3426725,26.1875005 C11.102957,26.1875005 10.9084053,25.993383 10.9084053,25.7532333 C10.9084053,25.5130835 11.102957,25.318966 11.3426725,25.318966 L13.5140088,25.318966 L13.5140088,23.1254821 C9.88527161,22.8996632 7,19.8841114 7,16.1993538 L7,13.5937502 C7,13.3536005 7.19455173,13.159483 7.43426725,13.159483 C7.67398277,13.159483 7.8685345,13.3536005 7.8685345,13.5937502 L7.8685345,16.1993538 C7.8685345,19.5518969 10.5957328,22.2790952 13.948276,22.2790952 C17.3008192,22.2790952 20.0280175,19.5518969 20.0280175,16.1993538 L20.0280175,13.5937502 C20.0280175,13.3536005 20.2225692,13.159483 20.4622848,13.159483 Z M13.948276,20.9762935 C11.3144451,20.9762935 9.17133625,18.8331846 9.17133625,16.1993538 L9.17133625,5.77693975 C9.17133625,3.14310888 11.3144451,1 13.948276,1 C16.5821069,1 18.7252158,3.14310888 18.7252158,5.77693975 L18.7252158,16.1993538 C18.7252158,18.8331846 16.5821069,20.9762935 13.948276,20.9762935 Z" id="path-1"></path>
    </defs>
    <g id="Atoms/Icon/mike" stroke="none" stroke-width="1" fill="none" fill-rule="evenodd">
        <mask id="mask-2" fill="white">
            <use xlink:href="#path-1"></use>
        </mask>
        <use id="Combined-Shape" fill="#A1BCCF" xlink:href="#path-1"></use>
    </g>
</svg>