<?xml version="1.0" encoding="UTF-8"?>
<svg width="264px" height="220px" viewBox="0 0 264 220" version="1.1" xmlns="http://www.w3.org/2000/svg" xmlns:xlink="http://www.w3.org/1999/xlink">
    <!-- Generator: Sketch 52.6 (67491) - http://www.bohemiancoding.com/sketch -->
    <title>Atoms/Scenery/no-notifications</title>
    <desc>Created with Sketch.</desc>
    <defs>
        <linearGradient x1="50.4587156%" y1="26%" x2="50.4587156%" y2="0%" id="linearGradient-1">
            <stop stop-color="#808080" stop-opacity="0.25" offset="0%"></stop>
            <stop stop-color="#808080" stop-opacity="0.12" offset="54%"></stop>
            <stop stop-color="#808080" stop-opacity="0.1" offset="100%"></stop>
        </linearGradient>
        <linearGradient x1="50.0034295%" y1="99.9870012%" x2="50.0034295%" y2="-0.000177370511%" id="linearGradient-2">
            <stop stop-color="#808080" stop-opacity="0.25" offset="0%"></stop>
            <stop stop-color="#808080" stop-opacity="0.12" offset="54%"></stop>
            <stop stop-color="#808080" stop-opacity="0.1" offset="100%"></stop>
        </linearGradient>
    </defs>
    <g id="Atoms/Scenery/no-notifications" stroke="none" stroke-width="1" fill="none" fill-rule="evenodd">
        <g id="undraw_order_confirmed_1m3v-(1)">
            <path d="M153.425519,29.4030916 C136.525341,28.8145065 120.429436,23.3498216 105.059466,17.3697979 C89.6894955,11.3897741 74.4657567,4.76361474 57.9703264,1.59571938 C47.3607122,-0.442092747 35.2261128,-0.729845422 26.6794065,4.96765755 C18.451276,10.4611177 15.792997,19.917717 14.3646291,28.7020214 C13.2887834,35.3098692 12.6568546,42.2656361 15.6023739,48.4497027 C17.6496142,52.7450654 21.2792878,56.3550535 23.7913353,60.4699168 C32.531276,74.7843044 26.352997,92.4366231 16.8845104,106.413555 C12.4453412,112.9717 7.28807122,119.231629 3.85946588,126.205707 C0.430860534,133.179786 -1.15418398,141.181926 1.84617211,148.302497 C4.81780415,155.365517 11.9021958,160.660166 19.5767359,164.387872 C35.1634421,171.960999 53.5233234,174.126992 71.4392878,175.353864 C111.086291,178.071819 150.942196,176.894649 190.69365,175.717479 C205.405579,175.280618 220.180178,174.838526 234.651869,172.560048 C242.689377,171.293936 250.985401,169.287515 256.821602,164.437574 C264.227181,158.282283 266.062908,147.860404 261.098872,140.140785 C252.774125,127.19453 229.763561,123.979548 223.937804,110.086326 C220.73638,102.437337 224.023976,93.9198573 228.679881,86.8254459 C238.665401,71.6111772 255.401068,58.262069 256.281068,40.8713436 C256.886884,28.9269917 248.841543,16.9643282 236.401424,11.3112961 C223.363323,5.38882283 205.280237,6.13174792 195.665519,15.9388823 C185.755727,26.0363853 168.348961,29.9210464 153.425519,29.4030916 Z" id="Shape" fill="#00BDBB" opacity="0.117443266"></path>
            <ellipse id="Oval" fill="#627790" opacity="0.0864257812" cx="126.513709" cy="204.563377" rx="79.3749555" ry="10.7567182"></ellipse>
            <path d="M168.712995,76.0765755 L169.828488,76.0765755 C170.159334,76.0765755 170.427537,76.3447788 170.427537,76.6756243 L170.427537,94.5790725 C170.427537,94.909918 170.159334,95.1781213 169.828488,95.1781213 L168.712995,95.1781213 C168.38215,95.1781213 168.113947,94.909918 168.113947,94.5790725 L168.113947,76.6756243 C168.113947,76.3447788 168.38215,76.0765755 168.712995,76.0765755 Z" id="Rectangle-path" fill="#3A3768" fill-rule="nonzero"></path>
            <path d="M91.8291971,61.1108205 L91.9289038,61.1108205 C92.2597493,61.1108205 92.5279525,61.3790237 92.5279525,61.7098692 L92.5279525,66.8004756 C92.5279525,67.1313211 92.2597493,67.3995244 91.9289038,67.3995244 L91.8291971,67.3995244 C91.4983516,67.3995244 91.2301484,67.1313211 91.2301484,66.8004756 L91.2301484,61.7098692 C91.2301484,61.3790237 91.4983516,61.1108205 91.8291971,61.1108205 Z" id="Rectangle-path" fill="#3A3768" fill-rule="nonzero"></path>
            <path d="M91.7821942,72.6261593 L92.0464112,72.6261593 C92.3772567,72.6261593 92.6454599,72.8943626 92.6454599,73.2252081 L92.6454599,82.972176 C92.6454599,83.3030215 92.3772567,83.5712247 92.0464112,83.5712247 L91.7821942,83.5712247 C91.4513487,83.5712247 91.1831454,83.3030215 91.1831454,82.972176 L91.1831454,73.2252081 C91.1831454,72.8943626 91.4513487,72.6261593 91.7821942,72.6261593 Z" id="Rectangle-path" fill="#3A3768" fill-rule="nonzero"></path>
            <path d="M91.8056956,87.4009512 L91.9994082,87.4009512 C92.3302537,87.4009512 92.598457,87.6691545 92.598457,88 L92.598457,97.8411415 C92.598457,98.171987 92.3302537,98.4401902 91.9994082,98.4401902 L91.8056956,98.4401902 C91.4748501,98.4401902 91.2066469,98.171987 91.2066469,97.8411415 L91.2066469,88 C91.2066469,87.6691545 91.4748501,87.4009512 91.8056956,87.4009512 Z" id="Rectangle-path" fill="#3A3768" fill-rule="nonzero"></path>
            <path d="M102.163441,40.3298454 L159.162612,40.3298454 C164.795654,40.3298454 169.362136,44.896328 169.362136,50.5293698 L169.362136,187.711534 C169.362136,193.344576 164.795654,197.911058 159.162612,197.911058 L102.163441,197.911058 C96.5303995,197.911058 91.9639169,193.344576 91.9639169,187.711534 L91.9639169,50.5293698 C91.9639169,44.896328 96.5303995,40.3298454 102.163441,40.3298454 Z" id="Rectangle-path" fill="#3A3768" fill-rule="nonzero"></path>
            <path d="M158.699228,44 L149.82089,44 L149.82089,45.0699168 C149.82089,46.4149326 149.287358,47.7048219 148.337736,48.6556463 C147.388115,49.6064708 146.100247,50.1402897 144.757626,50.1395957 L116.521899,50.1395957 C115.179278,50.1402897 113.89141,49.6064708 112.941789,48.6556463 C111.992168,47.7048219 111.458635,46.4149326 111.458635,45.0699168 L111.458635,44 L103.146944,44 C99.7520804,44 97,46.756989 97,50.1579073 L97,187.22497 C97,188.858149 97.6476226,190.424437 98.8003981,191.579268 C99.9531736,192.7341 101.516673,193.382878 103.146944,193.382878 L158.699228,193.382878 C162.094092,193.382878 164.846172,190.625889 164.846172,187.22497 L164.846172,50.168371 C164.848945,48.5333802 164.202547,46.9644029 163.049471,45.8073072 C161.896395,44.6502115 160.331311,43.9999976 158.699228,44 Z" id="Shape" fill="#00BDBB"></path>
            <path d="M124.209755,45.0359096 L132.993094,45.0359096 C133.552208,45.0359096 134.00546,45.4891614 134.00546,46.0482759 L134.00546,46.2209275 C134.00546,46.7800419 133.552208,47.2332937 132.993094,47.2332937 L124.209755,47.2332937 C123.650641,47.2332937 123.197389,46.7800419 123.197389,46.2209275 L123.197389,46.0482759 C123.197389,45.4891614 123.650641,45.0359096 124.209755,45.0359096 Z" id="Rectangle-path" fill="#E6E8EC" fill-rule="nonzero"></path>
            <ellipse id="Oval" fill="#E6E8EC" fill-rule="nonzero" cx="136.885697" cy="46.1346017" rx="1.24557864" ry="1.24780024"></ellipse>
            <path d="M196.15905,33.4185493 C196.15905,33.4185493 174.172107,32.0896552 176.762493,47.5236623 C176.762493,47.5236623 176.240237,50.2520809 178.715727,51.4894174 C178.715727,51.4894174 178.754896,50.3462545 180.971869,50.7360285 C181.761157,50.8670959 182.562987,50.9057226 183.361187,50.8511296 C184.437958,50.7802188 185.462556,50.3606512 186.280593,49.655648 C186.280593,49.655648 192.461484,47.0972652 194.863858,36.9788347 C194.863858,36.9788347 196.642136,34.7709869 196.571632,34.2033294 L192.861009,35.791201 C192.861009,35.791201 194.130089,38.4725327 193.122136,40.701308 C193.122136,40.701308 193.002018,35.8879905 192.289139,35.9926278 C192.145519,36.0135553 190.362018,36.9212842 190.362018,36.9212842 C190.362018,36.9212842 192.542433,41.5907253 190.897329,44.9862069 C190.897329,44.9862069 191.521424,39.2311534 189.680475,37.2587396 L187.069199,38.7864447 C187.069199,38.7864447 189.617804,43.6102259 187.889139,47.5472057 C187.889139,47.5472057 188.333056,41.5096314 186.51822,39.1579073 L184.152404,41.0073722 C184.152404,41.0073722 186.546944,45.7605232 185.08724,49.0252081 C185.08724,49.0252081 184.896617,41.9988109 183.640593,41.4677765 C183.640593,41.4677765 181.569852,43.2989298 181.253887,44.0470868 C181.253887,44.0470868 182.893769,47.5001189 181.875371,49.3208086 C181.875371,49.3208086 181.251276,44.6382878 180.739466,44.6121284 C180.739466,44.6121284 178.676558,47.7146254 178.462433,49.8439952 C178.462433,49.8439952 178.551217,46.6813317 180.240712,44.3191439 C180.240712,44.3191439 178.245697,44.6618312 177.081068,45.9567182 C177.081068,45.9567182 177.402255,43.764566 180.749911,43.5709869 C180.749911,43.5709869 182.455074,41.2166468 182.909436,41.0753864 C182.909436,41.0753864 179.582671,40.7954816 177.564154,41.6927467 C177.564154,41.6927467 179.339822,39.6235434 183.520475,40.5652794 L185.857567,38.6530321 C185.857567,38.6530321 181.475846,38.0539834 179.616617,38.7158145 C179.616617,38.7158145 181.755252,36.8846611 186.486884,38.2187872 L189.030267,36.6963139 C189.030267,36.6963139 185.293531,35.8906064 183.068724,36.1731272 C183.068724,36.1731272 185.418872,34.9043995 189.777092,36.2803805 L191.604985,35.4615933 C191.604985,35.4615933 188.868368,34.9227111 188.066706,34.8363853 C187.265045,34.7500595 187.223264,34.530321 187.223264,34.530321 C188.957022,34.2406986 190.737005,34.4390285 192.364866,35.1032105 C192.364866,35.1032105 196.224332,33.6618312 196.15905,33.4185493 Z" id="Shape" fill="#0084B1"></path>
            <path d="M173.60546,26.5543401 C173.60546,26.5543401 163.682611,25.9552913 164.842018,32.9293698 C164.842018,32.9293698 164.609614,34.1614744 165.724629,34.7212842 C165.724629,34.7212842 165.742908,34.1980975 166.745638,34.3785969 C167.101799,34.438645 167.463808,34.4562069 167.824095,34.4309156 C168.311175,34.3986574 168.774324,34.2075549 169.142789,33.8868014 C169.142789,33.8868014 171.936855,32.7305589 173.023145,28.1579073 C173.023145,28.1579073 173.824807,27.1612366 173.793472,26.9048751 L172.117033,27.6216409 C172.117033,27.6216409 172.688902,28.8328181 172.239763,29.8399524 C172.239763,29.8399524 172.184926,27.6661118 171.863739,27.7158145 C171.798457,27.7158145 170.991573,28.1369798 170.991573,28.1369798 C170.991573,28.1369798 171.978635,30.248038 171.234421,31.780975 C171.234421,31.780975 171.516439,29.1807372 170.683442,28.2887039 L169.503145,28.9897741 C169.503145,28.9897741 170.654718,31.1688466 169.873947,32.9476813 C169.873947,32.9476813 170.075015,30.2192628 169.255074,29.1571938 L168.187062,29.9942925 C168.187062,29.9942925 169.268131,32.1419738 168.610089,33.6173603 C168.610089,33.6173603 168.521306,30.4416171 167.954659,30.2009512 C167.954659,30.2009512 167.019822,31.0275862 166.876202,31.3676576 C166.876202,31.3676576 167.617804,32.9372176 167.15822,33.7507729 C167.15822,33.7507729 166.876202,31.6344828 166.635964,31.624019 C166.635964,31.624019 165.703739,33.0261593 165.607122,33.9783591 C165.653775,33.0905365 165.931009,32.2303005 166.411395,31.4827586 C165.87344,31.5848392 165.376978,31.8421508 164.983027,32.2230678 C164.983027,32.2230678 165.129258,31.231629 166.641187,31.1453032 C166.641187,31.1453032 167.42457,30.0806183 167.617804,30.01522 C167.617804,30.01522 166.113709,29.8896552 165.202374,30.2951249 C165.202374,30.2951249 166.004036,29.3612366 167.891988,29.7850178 L168.936499,28.9217598 C168.936499,28.9217598 166.95454,28.6601665 166.11632,28.9505351 C166.11632,28.9505351 167.082493,28.1239001 169.221128,28.7255648 L170.370089,28.0375743 C170.370089,28.0375743 168.680593,27.6739596 167.675252,27.8047562 C167.675252,27.8047562 168.738042,27.2318668 170.706944,27.851843 L171.529496,27.4829964 C171.529496,27.4829964 170.291751,27.2397146 169.928783,27.2004756 C169.565816,27.1612366 169.547537,27.0618312 169.547537,27.0618312 C170.331435,26.9311945 171.13616,27.0217742 171.871573,27.3234245 C171.871573,27.3234245 173.636795,26.6642093 173.60546,26.5543401 Z" id="Shape" fill="#0084B1"></path>
            <ellipse id="Oval" fill="#F1F7FB" cx="225.919763" cy="202.562188" rx="7.03216617" ry="1.1902497"></ellipse>
            <ellipse id="Oval" fill="#F1F7FB" cx="24.0472404" cy="212.330083" rx="7.03216617" ry="1.1902497"></ellipse>
            <ellipse id="Oval" fill="#F1F7FB" cx="51.2489021" cy="218.715577" rx="7.03216617" ry="1.1902497"></ellipse>
            <path d="M73.9591691,116.592152 C74.0356822,116.666021 74.1516088,116.680911 74.2443059,116.628775 C74.1480001,116.630229 74.0519816,116.617897 73.9591691,116.592152 Z" id="Shape" fill="url(#linearGradient-1)" fill-rule="nonzero"></path>
            <path d="M105.250089,64.5350773 C104.69911,64.3728894 103.915727,64.1086801 102.967834,63.7764566 C103.951504,62.4894556 104.670435,61.0196866 105.082967,59.4523187 L105.002018,59.4837099 C105.028131,59.3869203 105.056855,59.2927467 105.082967,59.1959572 C103.270742,59.9441141 101.262671,58.6727705 99.9857567,57.0482759 C98.7088427,55.4237812 97.8392878,53.4016647 96.4422552,51.9027348 C95.8589065,51.3090332 95.2312544,50.7607164 94.5647478,50.2625446 C94.1521662,49.9381688 93.705638,49.6007134 93.2016617,49.5850178 C92.3869436,49.5614744 91.747181,50.3697979 90.9611869,50.6130797 C90.442917,50.7317261 89.902626,50.7118801 89.3944214,50.5555291 C87.3654599,50.0820452 85.4096142,49.2109394 83.3493175,48.9859691 C82.241931,48.8463766 81.117276,48.9746509 80.0695549,49.3600476 C79.0250445,49.7629013 78.5550148,50.560761 77.7194065,51.191201 C76.8132938,51.8765755 75.0089021,51.8608799 73.9408902,51.975981 C72.6461337,52.1249646 71.3423242,52.1800426 70.0396439,52.1407848 C69.2905695,52.0729452 68.5359171,52.1010754 67.7939466,52.2244946 C66.2428487,52.5697979 64.99727,53.820214 63.8352522,55.0235434 C63.5166514,55.2983201 63.2882204,55.6630028 63.179822,56.0699168 C63.1654855,56.1845698 63.1654855,56.3005669 63.179822,56.41522 C63.16782,56.7280131 63.2211857,57.0398679 63.3364985,57.3307967 C63.6875796,58.4123445 64.1886202,59.4391081 64.8249258,60.380975 C65.300178,61.0715815 65.8511573,61.7203329 66.1305638,62.5365042 C66.2588466,62.9383839 66.326614,63.3571753 66.331632,63.7790725 C66.3169583,64.2273607 66.2707108,64.6740518 66.1932344,65.1158145 C65.9880231,66.3338983 65.6509195,67.5259525 65.1878932,68.670868 C64.9424332,69.2777646 64.665638,69.8820452 64.6003561,70.5464923 C64.5925788,70.6789184 64.5925788,70.811688 64.6003561,70.9441141 C64.5220178,72.99239 66.5614243,74.4703924 66.9505045,76.5082045 C66.9813813,76.6767084 67.0005766,76.8471515 67.0079525,77.0183115 C66.9635608,78.2896552 66.2506825,79.5322235 65.2009496,80.024019 C65.2923442,80.0606421 65.3863501,80.0920333 65.4803561,80.1260404 C65.3901421,80.1834154 65.2968677,80.2358121 65.2009496,80.2829964 C65.3915727,80.3562426 65.5874184,80.419025 65.7858754,80.4765755 C64.5851814,81.5302814 63.5769474,82.7855187 62.8064095,84.1859691 C59.291632,90.8644471 35.3357864,103.965042 35.3357864,103.965042 C35.3357864,103.965042 35.4715727,104.040904 35.6909199,104.1717 C35.6021365,104.226635 35.5081306,104.289417 35.4036795,104.360048 C33.3303264,105.762188 28.462908,109.853508 32.862908,115.012128 C32.862908,115.012128 36.2967359,109.505589 38.7017211,107.164328 C38.8113947,107.059691 38.9158457,106.962901 39.0176855,106.871344 C39.1263559,107.038297 39.160437,107.243149 39.1116914,107.436385 L54.8655193,98.4454221 C54.8655193,98.4454221 60.464095,94.4639715 62.025638,93.5640904 C62.5635608,93.2554102 63.9344807,92.3973841 65.574362,92.0180737 L65.3915727,92.0991677 C65.9801346,91.9343123 66.5875042,91.8463856 67.1985757,91.8375743 C69.9874184,91.8820452 73.0060534,93.9564804 74.0035608,102.173127 C75.3379228,113.175743 74.7190504,115.158621 74.2908012,115.430678 C74.2377061,115.426669 74.185186,115.417024 74.1341246,115.401902 C74.146844,115.413889 74.1608573,115.424417 74.175905,115.433294 C74.1174383,115.429544 74.0596034,115.41901 74.0035608,115.401902 C74.0647388,115.46021 74.1519826,115.48206 74.2333531,115.459453 C74.2920823,115.476645 74.355271,115.469086 74.4083086,115.438526 C74.468368,115.438526 74.5388724,115.438526 74.619822,115.438526 C74.619822,115.537931 74.6041543,115.642568 74.5963205,115.74459 C74.5754303,115.74459 74.4709792,115.804756 74.5963205,115.812604 C74.5649852,116.43258 74.5675964,117.120571 74.5963205,117.813793 C73.2097329,117.892271 71.8257567,117.975981 70.6115134,118.051843 L70.7211869,117.46849 L70.7708012,117.206897 C71.8335905,117.120571 72.8441543,116.804043 72.9616617,115.925089 C73.2227893,113.999762 70.6115134,112.9717 68.4049852,112.84352 C66.198457,112.715339 52.9122849,113.61522 52.9122849,113.61522 C52.9122849,113.61522 50.9198813,116.231153 57.2365579,117.044709 C57.4245697,117.144114 57.6204154,117.253983 57.8188724,117.369084 C60.2917507,118.802616 63.6498516,121.439477 65.2557864,122.739596 L65.4803561,122.920095 L64.7596439,123.503448 C68.6765579,124.403329 72.4420178,139.560048 74.5232047,146.494887 C76.6043917,153.429727 81.1636795,153.173365 84.9395846,152.147919 C88.4778635,151.18264 88.9296142,140.747681 88.9713947,139.437099 C88.9713947,139.348157 88.9713947,139.303686 88.9713947,139.303686 L95.2619585,147.180262 L95.739822,147.77931 C95.9252226,147.8761 96.1054006,147.967658 96.2829674,148.053983 C101.048546,150.358621 106.312878,145.942925 104.814006,140.920333 C103.302077,135.845422 100.951929,128.345541 99.3851632,125.17503 C98.0795252,122.519857 96.3795846,118.11201 95.3507418,115.344352 C95.4840667,115.289395 95.6139919,115.2265 95.739822,115.156005 C95.739822,115.156005 95.7163205,115.033056 95.6745401,114.80547 L95.739822,114.771463 C95.739822,114.771463 94.2252819,106.779786 94.1417211,101.105826 C94.1417211,101.006421 94.1417211,100.907015 94.1417211,100.80761 C94.1417211,100.708205 94.1417211,100.684661 94.1417211,100.621879 C95.2802374,100.360285 96.0009496,100.255648 96.0009496,100.255648 L96.0218398,100.00975 L95.8886647,100.038526 L96.5205935,92.6772889 C96.5205935,92.6772889 98.8446291,87.6573127 97.0663501,85.564566 C96.5248799,84.9502134 96.1634069,84.1979138 96.0218398,83.3907253 C95.7241543,81.4653983 96.0218398,78.2608799 100.165935,75.5952438 C106.545282,71.4856124 109.020772,68.1450654 109.020772,68.1450654 C109.020772,68.1450654 109.156558,65.6913199 105.250089,64.5350773 Z M92.580178,69.6413793 L92.580178,66.2406659 C93.7630861,66.1831153 94.9721068,66.3217598 96.1602374,66.2406659 C96.7445834,66.1994242 97.3235347,66.1013001 97.8889021,65.9476813 L98.1761424,66.1491082 C96.4377984,67.505946 94.5622216,68.6764364 92.580178,69.6413793 Z M74.4944807,122.956718 C74.9618991,123.286326 75.4319288,123.629013 75.8941246,123.9717 C76.181365,125.648514 76.4346588,126.833532 76.4529377,126.914625 C75.9250474,125.536898 75.2693582,124.211795 74.4944807,122.956718 Z" id="Shape" fill="url(#linearGradient-2)" fill-rule="nonzero"></path>
            <path d="M84.7202374,120.809037 L84.4382196,122.341974 L84.2214837,123.513912 L83.827181,125.658977 L80.004273,128.340309 C80.004273,128.340309 79.6595846,128.044709 79.0903264,127.579073 C77.5235608,126.286801 74.2307418,123.655172 71.8127003,122.242568 C71.1907654,121.845454 70.5178688,121.534806 69.8124629,121.319144 L84.7202374,120.809037 Z" id="Shape" fill="#FFBDC6" fill-rule="nonzero"></path>
            <path d="M84.7202374,120.809037 L84.4382196,122.341974 C83.5951374,122.387834 82.7495775,122.34399 81.915727,122.211177 L72.9956083,122.339358 C72.5751929,122.313199 72.1808902,122.281807 71.8127003,122.242568 C71.1907654,121.845454 70.5178688,121.534806 69.8124629,121.319144 L84.7202374,120.809037 Z" id="Shape" fill="#000000" fill-rule="nonzero" opacity="0.1"></path>
            <path d="M81.915727,121.949584 C81.915727,121.949584 86.3731751,122.716052 86.6343027,120.809037 C86.8954303,118.902021 84.3389911,117.871344 82.1742433,117.743163 C80.0094955,117.614982 67.0105638,118.509631 67.0105638,118.509631 C67.0105638,118.509631 64.7178635,121.572889 72.9982196,122.085612 L81.915727,121.949584 Z" id="Shape" fill="#474463" fill-rule="nonzero"></path>
            <path d="M84.7202374,120.809037 L84.4382196,122.341974 L84.2214837,123.513912 L83.827181,125.658977 L80.004273,128.340309 C80.004273,128.340309 79.6595846,128.044709 79.0903264,127.579073 C77.5235608,126.286801 74.2307418,123.655172 71.8127003,122.242568 C71.1907654,121.845454 70.5178688,121.534806 69.8124629,121.319144 L84.7202374,120.809037 Z" id="Shape" fill="#000000" fill-rule="nonzero" opacity="0.1"></path>
            <path d="M84.7202374,120.809037 L84.4382196,122.341974 C83.5951374,122.387834 82.7495775,122.34399 81.915727,122.211177 L72.9956083,122.339358 C72.5751929,122.313199 72.1808902,122.281807 71.8127003,122.242568 C71.1907654,121.845454 70.5178688,121.534806 69.8124629,121.319144 L84.7202374,120.809037 Z" id="Shape" fill="#000000" fill-rule="nonzero" opacity="0.1"></path>
            <path d="M81.915727,121.944352 C81.915727,121.944352 86.3757864,122.708205 86.6316914,120.793341 C86.8875964,118.878478 84.3363798,117.858264 82.171632,117.730083 C80.0068843,117.601902 67.0079525,118.496552 67.0079525,118.496552 C67.0079525,118.496552 64.7152522,121.55981 72.9956083,122.069917 L81.915727,121.944352 Z" id="Shape" fill="#000000" fill-rule="nonzero" opacity="0.1"></path>
            <rect id="Rectangle-path" fill="#474463" fill-rule="nonzero" x="68.3449258" y="59.0206897" width="23.3186944" height="27.7001189"></rect>
            <rect id="Rectangle-path" fill="#000000" fill-rule="nonzero" opacity="0.1" x="68.3449258" y="59.1462545" width="23.3186944" height="27.7001189"></rect>
            <path d="M41.0153116,106.439715 C40.631454,106.536504 40.1405341,106.907967 39.5947774,107.446849 C37.2446291,109.777646 33.8786944,115.247562 33.8786944,115.247562 C29.5753116,110.112485 34.3382789,106.055172 36.3672404,104.66088 C36.8607715,104.323424 37.1924036,104.137693 37.1924036,104.137693 L41.0153116,106.439715 Z" id="Shape" fill="#FFBDC6" fill-rule="nonzero"></path>
            <path d="M84.4643323,67.7631391 C84.4643323,67.7631391 85.6106825,75.8045184 89.561543,77.7193817 C93.5124036,79.6342449 84.4643323,83.2128419 84.4643323,83.2128419 L72.1051632,78.6140309 C72.1051632,78.6140309 79.1138279,76.3146254 77.7115727,69.5498216 L84.4643323,67.7631391 Z" id="Shape" fill="#FFBDC6" fill-rule="nonzero"></path>
            <path d="M71.2121068,116.142212 L70.9327003,117.669917 L70.7055193,118.847087 L70.3112166,120.992152 L66.4883086,123.670868 C66.4883086,123.670868 66.1436202,123.377883 65.574362,122.912247 C64.0075964,121.619976 60.7147774,118.988347 58.2941246,117.575743 C57.6724861,117.178085 56.9995132,116.867402 56.2938872,116.652319 L71.2121068,116.142212 Z" id="Shape" fill="#FFBDC6" fill-rule="nonzero"></path>
            <path d="M71.2121068,116.142212 L70.9327003,117.669917 C70.0896181,117.715777 69.2440583,117.671933 68.4102077,117.53912 L59.490089,117.667301 C59.0696736,117.641141 58.6727596,117.60975 58.3045697,117.570511 C57.6829312,117.172853 57.0099583,116.86217 56.3043323,116.647087 L71.2121068,116.142212 Z" id="Shape" fill="#000000" fill-rule="nonzero" opacity="0.1"></path>
            <path d="M68.4102077,117.290606 C68.4102077,117.290606 72.8702671,118.054459 73.1235608,116.142212 C73.3768546,114.229964 70.8308605,113.204518 68.6635015,113.076338 C66.4961424,112.948157 53.5024332,113.842806 53.5024332,113.842806 C53.5024332,113.842806 51.2071217,116.906064 59.490089,117.418787 L68.4102077,117.290606 Z" id="Shape" fill="#474463" fill-rule="nonzero"></path>
            <path d="M70.7055193,118.847087 L70.3112166,120.992152 L66.4883086,123.670868 C66.4883086,123.670868 66.1436202,123.377883 65.574362,122.912247 L70.6297923,118.758145 L70.7055193,118.847087 Z" id="Shape" fill="#000000" fill-rule="nonzero" opacity="0.1"></path>
            <path d="M95.9539466,148.069679 C95.7789911,147.983353 95.6040356,147.894411 95.4316914,147.808086 L94.9616617,147.214269 L88.7964392,139.382164 C88.7964392,139.382164 88.7964392,139.429251 88.7964392,139.518193 C88.7546588,140.826159 88.3107418,151.190488 84.8481899,152.147919 C81.1532344,153.168133 76.6957864,153.424495 74.6642136,146.53151 C72.6326409,139.638526 68.9194065,124.575981 65.1069436,123.681332 L70.778635,119.022354 C70.778635,119.022354 74.5336499,123.422354 76.0638576,127.634007 C76.0064095,127.372414 73.4134125,115.234483 75.5416024,113.086801 L94.1469436,113.086801 C94.1469436,113.086801 97.0193472,121.282521 98.9882493,125.342449 C100.521068,128.494649 102.821602,135.947444 104.302196,140.990963 C105.769733,145.9717 100.617685,150.369084 95.9539466,148.069679 Z" id="Shape" fill="#3B4A6B" fill-rule="nonzero"></path>
            <path d="M95.4238576,115.375743 C92.551454,117.078716 79.9416024,116.385493 75.8392878,116.108205 L74.7216617,116.027111 C74.601543,116.027111 74.7399407,115.959096 74.7399407,115.959096 L74.8548368,114.800238 L77.9126409,107.01522 L94.2853412,97.5036861 C93.9537092,98.5055886 93.8440356,100.038526 93.8701484,101.793817 C93.9458754,107.433769 95.4238576,115.375743 95.4238576,115.375743 Z" id="Shape" fill="#000000" fill-rule="nonzero" opacity="0.1"></path>
            <path d="M95.4238576,114.991201 C92.551454,116.694174 79.9416024,116.000951 75.8392878,115.723662 L74.7216617,115.645184 L74.5362611,115.629489 L74.7399407,115.57717 L75.7478932,115.315577 L77.9126409,106.63591 L94.2853412,97.1269917 C93.9537092,98.1288942 93.8440356,99.6618312 93.8701484,101.417122 C93.9458754,107.051843 95.4238576,114.991201 95.4238576,114.991201 Z" id="Shape" fill="#F2F1F2" fill-rule="nonzero"></path>
            <path d="M93.8597033,101.411891 C90.5303264,102.180975 83.2030861,104.438526 80.3881306,109.887515 C78.5106231,113.515815 76.9308012,115.072295 75.8288427,115.723662 L74.7112166,115.645184 C74.7185248,115.622858 74.7246266,115.600154 74.7294955,115.57717 L75.7374481,115.315577 L77.9021958,106.63591 L94.2748961,97.1269917 C93.9458754,98.1236623 93.8335905,99.6565993 93.8597033,101.411891 Z" id="Shape" fill="#000000" fill-rule="nonzero" opacity="0.1"></path>
            <path d="M37.1924036,104.142925 L41.0153116,106.439715 C40.631454,106.536504 40.1405341,106.907967 39.5947774,107.446849 C39.2762018,106.515577 37.2759644,105.215458 36.3672404,104.66088 C36.8607715,104.328656 37.1924036,104.142925 37.1924036,104.142925 Z" id="Shape" fill="#000000" fill-rule="nonzero" opacity="0.1"></path>
            <path d="M74.0301393,115.794293 C73.9440527,115.839113 73.8390145,115.824407 73.768546,115.757669 C73.8534917,115.782567 73.9416223,115.794905 74.0301393,115.794293 Z" id="Shape" fill="#000000" fill-rule="nonzero" opacity="0.1"></path>
            <path d="M82.6808309,77.2092747 C82.6808309,77.2092747 79.2391691,77.591201 76.8185163,75.0380499 C76.8185163,75.0380499 66.6345401,77.9757432 63.1850445,84.6123662 C59.735549,91.2489893 36.2889021,104.271106 36.2889021,104.271106 C36.2889021,104.271106 40.3677151,106.567895 39.9838576,107.71629 L55.4034421,98.7802616 C55.4034421,98.7802616 60.8871217,94.8249703 62.4094955,93.930321 C63.9318694,93.0356718 72.3506231,87.5474435 74.1341246,102.481807 C75.9176261,117.416171 74.1341246,115.629489 74.1341246,115.629489 C74.1341246,115.629489 76.68273,116.524138 80.3776855,109.374792 C84.0726409,102.225446 95.5387537,100.566944 95.5387537,100.566944 L96.175905,93.0382878 C96.175905,93.0382878 98.4503264,88.0470868 96.6981602,85.9752675 C96.1673323,85.3618732 95.8142369,84.6146174 95.6771513,83.8145065 C95.3872997,81.9022592 95.6771513,78.7160523 99.7350742,76.0687277 C105.978635,71.9826397 108.399288,68.6656361 108.399288,68.6656361 C108.399288,68.6656361 108.52724,66.2380499 104.704332,65.0896552 C100.881424,63.9412604 85.3364985,57.6865636 85.3364985,57.6865636 L84.8142433,59.8577883 L97.0794065,68.5296076 C97.0794065,68.5296076 90.9637982,73.4998811 86.1120475,73.3795482 C86.1120475,73.3795482 87.0129377,77.0810939 82.6808309,77.2092747 Z" id="Shape" fill="#FF5A5F"></path>
            <path d="M85.0414243,71.263258 C84.7400518,70.2400436 84.5045528,69.1985047 84.3363798,68.1450654 L77.5836202,69.9317479 C77.8813316,71.2231565 77.8281312,72.5708952 77.4295549,73.8347206 C80.2521828,74.5894295 83.2514363,73.5762135 85.0414243,71.263258 Z" id="Shape" fill="#000000" fill-rule="nonzero" opacity="0.1"></path>
            <ellipse id="Oval" fill="#FFBDC6" fill-rule="nonzero" cx="79.4324036" cy="66.4237812" rx="7.26195846" ry="7.27491082"></ellipse>
            <path d="M83.2944807,49.8780024 C85.3103858,50.1055886 87.224451,50.9740785 89.2090208,51.4475624 C89.7047884,51.6029158 90.2328314,51.623678 90.7392285,51.5077289 C91.5095549,51.267063 92.1362611,50.4613555 92.9353116,50.4848989 C93.4262315,50.4848989 93.8623145,50.835434 94.2670623,51.1571938 C94.9167806,51.6541072 95.5278398,52.1997944 96.0949555,52.7895363 C97.4632641,54.2780024 98.3119288,56.2818074 99.5601187,57.9010702 C100.808309,59.5203329 102.777211,60.7785969 104.550267,60.0356718 C103.343858,64.744352 99.392997,68.3307967 95.1183383,68.6237812 C93.4131751,68.7388823 91.6662315,68.3831153 90.015905,68.8853746 C89.6045651,69.0529725 89.1707592,69.1587525 88.728546,69.1992866 C87.7780415,69.1992866 87.0129377,68.3255648 86.420178,67.4753864 C85.0309792,65.4768133 83.931632,63.2061831 82.3674777,61.3828775 C81.8452226,60.7812128 81.2420178,60.2083234 80.5108605,60.0984542 C79.7797033,59.988585 79.1086053,60.3365042 78.4583976,60.6739596 C77.3851632,61.2311534 76.2884273,61.8092747 75.4554303,62.7667063 C74.6224332,63.7241379 74.0975668,65.1472057 74.4422552,66.4290131 C74.6276558,67.1248514 75.0506825,67.7526754 75.0585163,68.4799049 C75.074184,69.6387634 74.0505638,70.4889417 73.8494955,71.619025 C73.804148,72.0936822 73.7875795,72.5706577 73.7998813,73.0473246 C73.7110979,74.5959572 72.7005341,75.8646849 71.6455786,76.8378121 C71.232997,77.2171225 70.778635,77.6225922 70.6585163,78.2085612 C70.5775668,78.6061831 70.6585163,79.0299643 70.6062908,79.4328181 C70.4522255,80.4373365 69.4521068,80.9474435 68.5668843,81.0808561 C67.5325815,81.2317099 66.4768544,81.1062766 65.5064688,80.7172414 C66.7442136,80.1286564 67.5067062,78.4623068 67.2194659,76.9659929 C66.8251632,74.8941736 64.7465875,73.4083234 64.9241543,71.2972652 C65.0222342,70.6504399 65.2158481,70.0218359 65.498635,69.4321046 C65.9518842,68.2937818 66.2810733,67.1097448 66.4804748,65.9005945 C66.6371513,64.9640904 66.7128783,63.9726516 66.4204154,63.0832342 C66.1592878,62.269679 65.6135312,61.6261593 65.1513353,60.9407848 C64.5242057,60.0075206 64.0294343,58.9915623 63.6811869,57.9219976 C63.553937,57.6062157 63.5055338,57.2640955 63.540178,56.925327 C63.6418389,56.5193028 63.8650877,56.1541648 64.1799407,55.8789536 C65.3158457,54.6834721 66.530089,53.4382878 68.0524629,53.0982164 C68.7786466,52.9752343 69.5175931,52.9462215 70.2511573,53.0118906 C71.5268451,53.0533446 72.8038411,52.9991307 74.071454,52.8497027 C75.1159644,52.7267539 76.8811869,52.7450654 77.7664095,52.0649227 C78.5915727,51.4292509 79.0563798,50.6366231 80.0721662,50.2337693 C81.1014031,49.8544104 82.2074785,49.7322917 83.2944807,49.8780024 Z" id="Shape" fill="#000000" fill-rule="nonzero" opacity="0.1"></path>
            <path d="M87.3315134,125.012842 C87.3315134,125.012842 91.5356677,133.310583 90.261365,135.861118" id="Shape" fill="#000000" fill-rule="nonzero" opacity="0.1"></path>
            <path d="M94.9538279,147.203805 L88.7964392,139.382164 C88.7964392,139.382164 88.7964392,139.429251 88.7964392,139.518193 C88.7964392,139.518193 88.4413056,136.985969 89.6137685,137.836147 C92.1832641,139.698692 96.2934125,142.751486 96.3821958,143.277289 C96.4709792,143.803092 95.5491988,145.903686 94.9538279,147.203805 Z" id="Shape" fill="#000000" fill-rule="nonzero" opacity="0.1"></path>
            <g id="Group" opacity="0.1" transform="translate(36.296736, 57.550535)" fill="#000000" fill-rule="nonzero">
                <path d="M49.9510979,15.8290131 C49.9510979,15.8290131 50.4733531,17.9845422 48.7916914,19.0623068 C51.3768546,18.620214 51.4917507,16.6033294 51.4029674,15.7269917 C50.9229849,15.8040319 50.437116,15.8381734 49.9510979,15.8290131 Z" id="Shape"></path>
                <path d="M1.53281899,46.2078478 C1.53281899,46.2078478 24.9768546,33.1883472 28.4289614,26.5517241 C30.8966172,21.7881094 36.8451039,18.9315101 40.0047478,17.6967895 C37.7016024,18.4815696 29.9408902,21.4401902 27.0267062,27.0618312 C23.5876558,33.6984542 0.130563798,46.7205707 0.130563798,46.7205707 L1.53281899,46.2078478 Z" id="Shape"></path>
                <path d="M54.5156083,14.8140309 C58.505638,13.5714625 62.3181009,10.4689655 62.3181009,10.4689655 L50.0764392,1.78406659 L50.3558457,0.596432818 L49.1833828,0.125564804 L48.674184,2.29678954 L60.9080119,10.9764566 C58.9473505,12.5206825 56.7994842,13.8101188 54.5156083,14.8140309 Z" id="Shape"></path>
                <path d="M54.5861128,44.2302021 C56.1487024,43.6959963 57.7520945,43.290059 59.3804154,43.016409 L59.4013056,42.7705113 C57.7610147,43.1317483 56.1511316,43.6197727 54.5861128,44.2302021 Z" id="Shape"></path>
                <path d="M39.7592878,57.6028537 L39.647003,57.6028537 C39.5609322,57.6468643 39.4565725,57.6322279 39.3858754,57.5662307 C39.470701,57.5909826 39.5586534,57.6033179 39.647003,57.6028537 C40.0648071,57.3595719 40.6915134,55.4525565 39.3858754,44.4185493 C37.9810089,32.646849 32.4529377,33.5650416 29.4290801,34.9200951 C32.5208309,34.0673008 36.7745994,34.8049941 37.9836202,44.9286564 C39.3023145,55.9626635 38.672997,57.869679 38.2447478,58.1129608 C38.7880995,58.092601 39.3140191,57.9154678 39.7592878,57.6028537 Z" id="Shape"></path>
                <path d="M38.2452135,58.1155767 C38.1567064,58.1160408 38.0685971,58.1037055 37.9836202,58.0789536 C38.0544434,58.1449508 38.1589892,58.1595872 38.2452135,58.1155767 Z" id="Shape"></path>
            </g>
            <path d="M83.2944807,49.6216409 C85.3103858,49.851843 87.224451,50.717717 89.2090208,51.191201 C89.705021,51.3456886 90.2330616,51.365548 90.7392285,51.2487515 C91.5095549,51.0107015 92.1362611,50.2023781 92.9353116,50.2259215 C93.4262315,50.2416171 93.8623145,50.5764566 94.2670623,50.8982164 C94.9161609,51.3958814 95.5271654,51.9415197 96.0949555,52.5305589 C97.4632641,54.019025 98.3119288,56.02283 99.5601187,57.6420927 C100.808309,59.2613555 102.777211,60.5196195 104.550267,59.7766944 C103.343858,64.4853746 99.392997,68.0718193 95.1183383,68.3648038 C93.4131751,68.4825208 91.6662315,68.1267539 90.015905,68.6263971 C89.6049627,68.7952247 89.1709702,68.9010502 88.728546,68.9403092 C87.7780415,68.9403092 87.0129377,68.0665874 86.420178,67.216409 C85.0309792,65.2178359 83.931632,62.9498216 82.3674777,61.1265161 C81.8452226,60.5222354 81.2420178,59.949346 80.5108605,59.8394768 C79.7797033,59.7296076 79.1086053,60.0801427 78.4583976,60.4175981 C77.3851632,60.9747919 76.2884273,61.5502973 75.4554303,62.5103448 C74.6224332,63.4703924 74.0975668,64.8882283 74.4422552,66.1726516 C74.6276558,66.8684899 75.0506825,67.4963139 75.0585163,68.2235434 C75.074184,69.3850178 74.0505638,70.2325803 73.8494955,71.3626635 C73.8040967,71.8373173 73.7875281,72.314296 73.7998813,72.7909631 C73.7110979,74.3395957 72.7005341,75.6057075 71.6455786,76.5814507 C71.232997,76.9581451 70.778635,77.3662307 70.6585163,77.9495838 C70.5775668,78.3498216 70.6585163,78.7709869 70.6062908,79.1764566 C70.4522255,80.180975 69.4521068,80.691082 68.5668843,80.8218787 C67.5326164,80.9752541 66.4762317,80.8497427 65.5064688,80.458264 C66.7442136,79.8722949 67.5067062,78.2033294 67.2194659,76.7096314 C66.8251632,74.6378121 64.7465875,73.149346 64.9241543,71.0409037 C65.0218538,70.3939912 65.2154847,69.7653317 65.498635,69.1757432 C65.9515635,68.0364107 66.2807399,66.8515421 66.4804748,65.6416171 C66.6371513,64.7077289 66.7128783,63.7162901 66.4204154,62.8242568 C66.1592878,62.0133175 65.6135312,61.3671819 65.1513353,60.6818074 C64.5247133,59.7491873 64.029969,58.734165 63.6811869,57.6656361 C63.5546301,57.3487527 63.5062586,57.0059586 63.540178,56.6663496 C63.6448721,56.2653123 63.867828,55.9052117 64.1799407,55.6330559 C65.3158457,54.4375743 66.530089,53.1950059 68.0524629,52.8523187 C68.7788891,52.731488 69.5176718,52.7033607 70.2511573,52.7686088 C71.5268381,52.8087318 72.8037356,52.754522 74.071454,52.6064209 C75.1159644,52.4834721 76.8811869,52.4991677 77.7664095,51.8216409 C78.5915727,51.188585 79.0563798,50.3933413 80.0721662,49.9904875 C81.1007536,49.6085606 82.2064038,49.4820008 83.2944807,49.6216409 Z" id="Shape" fill="#3B4A6B" fill-rule="nonzero"></path>
            <path d="M128.132579,130.514209 L146.53026,112.00936 C146.830985,111.70771 147,111.298089 147,110.870907 C147,110.443725 146.830985,110.034104 146.53026,109.732454 L144.266541,107.472193 C143.967205,107.169917 143.560503,107 143.136336,107 C142.712169,107 142.305468,107.169917 142.006132,107.472193 L127.000719,122.565013 L119.994443,115.50128 C119.368327,114.87498 118.356839,114.87498 117.730724,115.50128 L115.467005,117.791501 C114.844332,118.421264 114.844332,119.438643 115.467005,120.068406 L125.86886,130.527524 C126.168762,130.830001 126.576011,131 127.000719,131 C127.425427,131 127.832676,130.830001 128.132579,130.527524 L128.132579,130.514209 Z" id="Shape" fill="#FFFFFF" fill-rule="nonzero"></path>
        </g>
    </g>
</svg>