<?xml version="1.0" encoding="UTF-8"?>
<svg width="27px" height="27px" viewBox="0 0 27 27" version="1.1" xmlns="http://www.w3.org/2000/svg" xmlns:xlink="http://www.w3.org/1999/xlink">
    <!-- Generator: Sketch 52.6 (67491) - http://www.bohemiancoding.com/sketch -->
    <title>Atoms/Icon/notifications</title>
    <desc>Created with Sketch.</desc>
    <defs>
        <path d="M20.6506829,2.98544449 L21.0451309,1.94553609 C21.1885665,1.58694698 20.973413,1.15664006 20.6148239,1.04906333 C20.2562348,0.905627688 19.8259279,1.08492224 19.6824923,1.47937025 L19.2880443,2.48341974 C14.6622448,1.22835788 9.74957412,3.66676378 8.06420533,8.18498648 L5.73337616,14.5678725 L1.43030692,16.5401126 C1.17929455,16.6476893 1,16.9345606 1,17.2214319 C1,17.5083032 1.17929455,17.7593155 1.46616583,17.8668923 L9.24754937,20.6638873 C8.92481918,22.4568328 9.96472758,24.3214961 11.793532,24.9669565 C13.5864775,25.6124169 15.5945765,24.8593798 16.5269082,23.2815877 L24.3082917,26.0785827 L24.3082917,26.0785827 C24.6668808,26.2220184 25.0971877,26.0068649 25.2406234,25.6482758 C25.3123412,25.4331223 25.2764823,25.2179689 25.1689056,25.0386743 L23.1966655,20.8431818 L25.5274947,14.4602958 C27.2128634,9.94207309 25.0254699,4.95768455 20.6506829,2.98544449 L20.6506829,2.98544449 Z M12.2955567,23.6043179 C11.2197894,23.2098699 10.5743291,22.2058204 10.6460469,21.1300531 L15.1642696,22.7437041 C14.5188092,23.6401768 13.3354651,23.9987659 12.2955567,23.6043179 L12.2955567,23.6043179 Z M24.200715,13.99413 L21.7623091,20.6280284 C21.6905913,20.8073229 21.6905913,20.9866175 21.798168,21.165912 L23.1966655,24.1422016 L16.4193314,21.7396546 L10.3591756,19.5522611 L3.58184154,17.1138551 L6.59399001,15.7153576 C6.77328456,15.6436398 6.88086129,15.5002042 6.95257911,15.3209096 L9.39098501,8.68701123 C10.8612003,4.67081327 15.4152819,2.59099647 19.4673388,4.0612118 C23.5911135,5.49556821 25.6709303,9.977932 24.200715,13.99413 L24.200715,13.99413 Z" id="path-1"></path>
    </defs>
    <g id="Atoms/Icon/notifications" stroke="none" stroke-width="1" fill="none" fill-rule="evenodd">
        <mask id="mask-2" fill="white">
            <use xlink:href="#path-1"></use>
        </mask>
        <use id="Shape" fill="#A1BCCF" xlink:href="#path-1"></use>
    </g>
</svg>