<?xml version="1.0" encoding="UTF-8"?>
<svg width="27px" height="27px" viewBox="0 0 27 27" version="1.1" xmlns="http://www.w3.org/2000/svg" xmlns:xlink="http://www.w3.org/1999/xlink">
    <!-- Generator: Sketch 52.6 (67491) - http://www.bohemiancoding.com/sketch -->
    <title>Atoms/Icon/payment</title>
    <desc>Created with Sketch.</desc>
    <defs>
        <path d="M24.2429167,4 L2.75708333,4 C1.78833333,4 1,4.78833333 1,5.75708333 L1,20.57625 C1,21.545 1.78833333,22.3333333 2.75708333,22.3333333 L24.2429167,22.3333333 C25.2116667,22.3333333 26,21.545 26,20.57625 L26,5.75708333 C26,4.78833333 25.2116667,4 24.2429167,4 Z M25.1666667,20.57625 C25.1666667,21.0854167 24.7525,21.5 24.2429167,21.5 L2.75708333,21.5 C2.2475,21.5 1.83333333,21.0854167 1.83333333,20.57625 L1.83333333,5.75708333 C1.83333333,5.24791667 2.2475,4.83333333 2.75708333,4.83333333 L24.2429167,4.83333333 C24.7525,4.83333333 25.1666667,5.24791667 25.1666667,5.75708333 L25.1666667,20.57625 Z M7.66666667,16.0833333 L3.91666667,16.0833333 C3.68625,16.0833333 3.5,16.27 3.5,16.5 C3.5,16.73 3.68625,16.9166667 3.91666667,16.9166667 L7.66666667,16.9166667 C7.89708333,16.9166667 8.08333333,16.73 8.08333333,16.5 C8.08333333,16.27 7.89708333,16.0833333 7.66666667,16.0833333 Z M13.0833333,16.0833333 L9.33333333,16.0833333 C9.10291667,16.0833333 8.91666667,16.27 8.91666667,16.5 C8.91666667,16.73 9.10291667,16.9166667 9.33333333,16.9166667 L13.0833333,16.9166667 C13.31375,16.9166667 13.5,16.73 13.5,16.5 C13.5,16.27 13.31375,16.0833333 13.0833333,16.0833333 Z M4.33333333,18.1666667 L3.91666667,18.1666667 C3.68625,18.1666667 3.5,18.3533333 3.5,18.5833333 C3.5,18.8133333 3.68625,19 3.91666667,19 L4.33333333,19 C4.56375,19 4.75,18.8133333 4.75,18.5833333 C4.75,18.3533333 4.56375,18.1666667 4.33333333,18.1666667 Z M6.83333333,18.1666667 L6,18.1666667 C5.76958333,18.1666667 5.58333333,18.3533333 5.58333333,18.5833333 C5.58333333,18.8133333 5.76958333,19 6,19 L6.83333333,19 C7.06375,19 7.25,18.8133333 7.25,18.5833333 C7.25,18.3533333 7.06375,18.1666667 6.83333333,18.1666667 Z M8.91666667,18.1666667 L8.5,18.1666667 C8.26958333,18.1666667 8.08333333,18.3533333 8.08333333,18.5833333 C8.08333333,18.8133333 8.26958333,19 8.5,19 L8.91666667,19 C9.14708333,19 9.33333333,18.8133333 9.33333333,18.5833333 C9.33333333,18.3533333 9.14708333,18.1666667 8.91666667,18.1666667 Z M11.4166667,18.1666667 L10.5833333,18.1666667 C10.3529167,18.1666667 10.1666667,18.3533333 10.1666667,18.5833333 C10.1666667,18.8133333 10.3529167,19 10.5833333,19 L11.4166667,19 C11.6470833,19 11.8333333,18.8133333 11.8333333,18.5833333 C11.8333333,18.3533333 11.6470833,18.1666667 11.4166667,18.1666667 Z M12.7875,18.2875 C12.7120833,18.3666667 12.6666667,18.475 12.6666667,18.5833333 C12.6666667,18.6916667 12.7120833,18.8 12.7875,18.8791667 C12.86625,18.9541667 12.975,19 13.0833333,19 C13.1916667,19 13.3,18.9541667 13.3791667,18.8791667 C13.4541667,18.8 13.5,18.6916667 13.5,18.5833333 C13.5,18.475 13.4541667,18.3666667 13.3791667,18.2875 C13.2208333,18.1333333 12.9370833,18.1333333 12.7875,18.2875 Z M21,14.4166667 C20.4683333,14.4166667 19.97125,14.5620833 19.5416667,14.81125 C19.1120833,14.5620833 18.615,14.4166667 18.0833333,14.4166667 C16.4754167,14.4166667 15.1666667,15.725 15.1666667,17.3333333 C15.1666667,18.9416667 16.4754167,20.25 18.0833333,20.25 C18.615,20.25 19.1120833,20.1045833 19.5416667,19.8554167 C19.97125,20.1045833 20.4683333,20.25 21,20.25 C22.6079167,20.25 23.9166667,18.9416667 23.9166667,17.3333333 C23.9166667,15.725 22.6079167,14.4166667 21,14.4166667 Z M20.1666667,17.3333333 C20.1666667,17.9141667 19.9266667,18.4391667 19.5416667,18.8175 C19.1566667,18.4391667 18.9166667,17.9141667 18.9166667,17.3333333 C18.9166667,16.7525 19.1566667,16.2275 19.5416667,15.8491667 C19.9266667,16.2275 20.1666667,16.7525 20.1666667,17.3333333 Z M16,17.3333333 C16,16.1845833 16.9345833,15.25 18.0833333,15.25 C18.34625,15.25 18.5958333,15.3041667 18.8279167,15.39375 C18.3666667,15.9095833 18.0833333,16.5883333 18.0833333,17.3333333 C18.0833333,18.0783333 18.3666667,18.7570833 18.8279167,19.2729167 C18.5958333,19.3625 18.34625,19.4166667 18.0833333,19.4166667 C16.9345833,19.4166667 16,18.4820833 16,17.3333333 Z M21,19.4166667 C20.7370833,19.4166667 20.4875,19.3625 20.2554167,19.2729167 C20.7166667,18.7570833 21,18.0783333 21,17.3333333 C21,16.5883333 20.7166667,15.9095833 20.2554167,15.39375 C20.4875,15.3041667 20.7370833,15.25 21,15.25 C22.14875,15.25 23.0833333,16.1845833 23.0833333,17.3333333 C23.0833333,18.4820833 22.14875,19.4166667 21,19.4166667 Z M4.43958333,13.1666667 L6.93958333,13.1666667 L7.56041667,13.1666667 L10.0604167,13.1666667 C10.5783333,13.1666667 11,12.745 11,12.2270833 L11,8.89375 L11,8.27291667 C11,7.755 10.5783333,7.33333333 10.0604167,7.33333333 L6.93958333,7.33333333 L4.43958333,7.33333333 C3.92166667,7.33333333 3.5,7.755 3.5,8.27291667 L3.5,12.2270833 C3.5,12.745 3.92166667,13.1666667 4.43958333,13.1666667 Z M6,10.6666667 L4.33333333,10.6666667 L4.33333333,9.83333333 L6,9.83333333 L6,10.6666667 Z M4.33333333,12.2270833 L4.33333333,11.5 L6,11.5 L6,12.2270833 C6,12.2633333 6.00666667,12.2979167 6.01083333,12.3333333 L4.43958333,12.3333333 C4.38083333,12.3333333 4.33333333,12.2858333 4.33333333,12.2270833 Z M10.1666667,10.6666667 L8.5,10.6666667 L8.5,9.93958333 C8.5,9.88083333 8.5475,9.83333333 8.60625,9.83333333 L10.0604167,9.83333333 C10.0966667,9.83333333 10.13125,9.82666667 10.1666667,9.8225 L10.1666667,10.6666667 Z M10.0604167,12.3333333 L8.48916667,12.3333333 C8.49333333,12.2979167 8.5,12.2633333 8.5,12.2270833 L8.5,11.5 L10.1666667,11.5 L10.1666667,12.2270833 C10.1666667,12.2858333 10.1191667,12.3333333 10.0604167,12.3333333 Z M10.0604167,8.16666667 C10.1191667,8.16666667 10.1666667,8.21416667 10.1666667,8.27291667 L10.1666667,8.89375 C10.1666667,8.9525 10.1191667,9 10.0604167,9 L8.60625,9 C8.08833333,9 7.66666667,9.42166667 7.66666667,9.93958333 L7.66666667,12.2270833 C7.66666667,12.2858333 7.61916667,12.3333333 7.56041667,12.3333333 L6.93958333,12.3333333 C6.88083333,12.3333333 6.83333333,12.2858333 6.83333333,12.2270833 L6.83333333,8.27291667 C6.83333333,8.21416667 6.88083333,8.16666667 6.93958333,8.16666667 L10.0604167,8.16666667 Z M4.43958333,8.16666667 L6.01083333,8.16666667 C6.00666667,8.20208333 6,8.23666667 6,8.27291667 L6,9 L4.33333333,9 L4.33333333,8.27291667 C4.33333333,8.21416667 4.38083333,8.16666667 4.43958333,8.16666667 Z" id="path-1"></path>
    </defs>
    <g id="Atoms/Icon/payment" stroke="none" stroke-width="1" fill="none" fill-rule="evenodd">
        <mask id="mask-2" fill="white">
            <use xlink:href="#path-1"></use>
        </mask>
        <use id="Combined-Shape" fill="#A1BCCF" xlink:href="#path-1"></use>
    </g>
</svg>