<?xml version="1.0" encoding="UTF-8"?>
<svg width="51px" height="32px" viewBox="0 0 51 32" version="1.1" xmlns="http://www.w3.org/2000/svg" xmlns:xlink="http://www.w3.org/1999/xlink">
    <!-- Generator: Sketch 52.6 (67491) - http://www.bohemiancoding.com/sketch -->
    <title>Atoms/Icon/Payment/paypal</title>
    <desc>Created with Sketch.</desc>
    <g id="Atoms/Icon/Payment/paypal" stroke="none" stroke-width="1" fill="none" fill-rule="evenodd">
        <g id="paypal" transform="translate(1.000000, 10.000000)">
            <path d="M37.8777778,3.42 L35.2333333,3.42 C35.0777778,3.42 34.9222222,3.58 34.8444444,3.74 L33.7555556,10.78 C33.7555556,10.94 33.8333333,11.02 33.9888889,11.02 L35.3888889,11.02 C35.5444444,11.02 35.6222222,10.94 35.6222222,10.78 L35.9333333,8.78 C35.9333333,8.62 36.0888889,8.46 36.3222222,8.46 L37.1777778,8.46 C38.9666667,8.46 39.9777778,7.58 40.2111111,5.82 C40.3666667,5.1 40.2111111,4.46 39.9,4.06 C39.4333333,3.66 38.7333333,3.42 37.8777778,3.42 M38.1888889,6.06 C38.0333333,7.02 37.3333333,7.02 36.6333333,7.02 L36.1666667,7.02 L36.4777778,5.18 C36.4777778,5.1 36.5555556,5.02 36.7111111,5.02 L36.8666667,5.02 C37.3333333,5.02 37.8,5.02 38.0333333,5.34 C38.1888889,5.42 38.1888889,5.66 38.1888889,6.06" id="Shape" fill="#139AD6" fill-rule="nonzero"></path>
            <g id="Group" transform="translate(14.680556, 3.400000)" fill="#263B80" fill-rule="nonzero">
                <path d="M4.14166667,0.02 L1.49722222,0.02 C1.34166667,0.02 1.18611111,0.18 1.10833333,0.34 L0.0194444448,7.38 C0.0194444448,7.54 0.0972222226,7.62 0.252777778,7.62 L1.49722222,7.62 C1.65277778,7.62 1.80833333,7.46 1.88611111,7.3 L2.19722222,5.38 C2.19722222,5.22 2.35277778,5.06 2.58611111,5.06 L3.44166667,5.06 C5.23055556,5.06 6.24166667,4.18 6.475,2.42 C6.63055556,1.7 6.475,1.06 6.16388889,0.66 C5.69722222,0.26 5.075,0.02 4.14166667,0.02 M4.45277778,2.66 C4.29722222,3.62 3.59722222,3.62 2.89722222,3.62 L2.50833333,3.62 L2.81944444,1.78 C2.81944444,1.7 2.89722222,1.62 3.05277778,1.62 L3.20833333,1.62 C3.675,1.62 4.14166667,1.62 4.375,1.94 C4.45277778,2.02 4.53055556,2.26 4.45277778,2.66" id="Shape"></path>
                <path d="M12.1527778,2.58 L10.9083333,2.58 C10.8305556,2.58 10.675,2.66 10.675,2.74 L10.5972222,3.14 L10.5194444,2.98 C10.2083333,2.58 9.66388889,2.42 9.04166667,2.42 C7.64166667,2.42 6.39722222,3.54 6.16388889,5.06 C6.00833333,5.86 6.24166667,6.58 6.63055556,7.06 C7.01944444,7.54 7.56388889,7.7 8.26388889,7.7 C9.43055556,7.7 10.0527778,6.98 10.0527778,6.98 L9.975,7.38 C9.975,7.54 10.0527778,7.62 10.2083333,7.62 L11.375,7.62 C11.5305556,7.62 11.6861111,7.46 11.7638889,7.3 L12.4638889,2.82 C12.3861111,2.74 12.2305556,2.58 12.1527778,2.58 M10.3638889,5.14 C10.2083333,5.86 9.66388889,6.42 8.88611111,6.42 C8.49722222,6.42 8.18611111,6.26 8.03055556,6.1 C7.875,5.86 7.79722222,5.54 7.79722222,5.14 C7.875,4.42 8.49722222,3.86 9.19722222,3.86 C9.58611111,3.86 9.81944444,4.02 10.0527778,4.18 C10.2861111,4.42 10.3638889,4.82 10.3638889,5.14" id="Shape"></path>
            </g>
            <path d="M45.8111111,5.98 L44.5666667,5.98 C44.4888889,5.98 44.3333333,6.06 44.3333333,6.14 L44.2555556,6.54 L44.1777778,6.38 C43.8666667,5.98 43.3222222,5.82 42.7,5.82 C41.3,5.82 40.0555556,6.94 39.8222222,8.46 C39.6666667,9.26 39.9,9.98 40.2888889,10.46 C40.6777778,10.94 41.2222222,11.1 41.9222222,11.1 C43.0888889,11.1 43.7111111,10.38 43.7111111,10.38 L43.6333333,10.78 C43.6333333,10.94 43.7111111,11.02 43.8666667,11.02 L45.0333333,11.02 C45.1888889,11.02 45.3444444,10.86 45.4222222,10.7 L46.1222222,6.22 C46.0444444,6.14 45.9666667,5.98 45.8111111,5.98 M44.0222222,8.54 C43.8666667,9.26 43.3222222,9.82 42.5444444,9.82 C42.1555556,9.82 41.8444444,9.66 41.6888889,9.5 C41.5333333,9.26 41.4555556,8.94 41.4555556,8.54 C41.5333333,7.82 42.1555556,7.26 42.8555556,7.26 C43.2444444,7.26 43.4777778,7.42 43.7111111,7.58 C44.0222222,7.82 44.1,8.22 44.0222222,8.54" id="Shape" fill="#139AD6" fill-rule="nonzero"></path>
            <path d="M33.6,5.98 L32.2777778,5.98 C32.1222222,5.98 32.0444444,6.06 31.9666667,6.14 L30.2555556,8.86 L29.4777778,6.3 C29.4,6.14 29.3222222,6.06 29.0888889,6.06 L27.8444444,6.06 C27.6888889,6.06 27.6111111,6.22 27.6111111,6.38 L29.0111111,10.62 L27.6888889,12.54 C27.6111111,12.7 27.6888889,12.94 27.8444444,12.94 L29.0888889,12.94 C29.2444444,12.94 29.3222222,12.86 29.4,12.78 L33.6777778,6.46 C33.9111111,6.22 33.7555556,5.98 33.6,5.98" id="Path" fill="#263B80"></path>
            <path d="M47.2888889,3.66 L46.2,10.86 C46.2,11.02 46.2777778,11.1 46.4333333,11.1 L47.5222222,11.1 C47.6777778,11.1 47.8333333,10.94 47.9111111,10.78 L49,3.74 C49,3.58 48.9222222,3.5 48.7666667,3.5 L47.5222222,3.5 C47.4444444,3.42 47.3666667,3.5 47.2888889,3.66" id="Path" fill="#139AD6"></path>
            <path d="M8.94444444,1.02 C8.4,0.38 7.38888889,0.06 5.98888889,0.06 L2.1,0.06 C1.86666667,0.06 1.63333333,0.3 1.55555556,0.54 L0,11.02 C0,11.26 0.155555556,11.42 0.311111111,11.42 L2.72222222,11.42 L3.34444444,7.5 L3.34444444,7.66 C3.42222222,7.42 3.65555556,7.18 3.88888889,7.18 L5.05555556,7.18 C7.31111111,7.18 9.02222222,6.22 9.56666667,3.58 C9.56666667,3.5 9.56666667,3.42 9.56666667,3.34 C9.48888889,3.34 9.48888889,3.34 9.56666667,3.34 C9.64444444,2.3 9.48888889,1.66 8.94444444,1.02" id="Path" fill="#263B80"></path>
            <path d="M9.48888889,3.34 C9.48888889,3.42 9.48888889,3.5 9.48888889,3.58 C8.94444444,6.3 7.23333333,7.18 4.97777778,7.18 L3.81111111,7.18 C3.57777778,7.18 3.34444444,7.42 3.26666667,7.66 L2.48888889,12.54 C2.48888889,12.7 2.56666667,12.86 2.8,12.86 L4.82222222,12.86 C5.05555556,12.86 5.28888889,12.7 5.28888889,12.46 L5.28888889,12.38 L5.67777778,9.9 L5.67777778,9.74 C5.67777778,9.5 5.91111111,9.34 6.14444444,9.34 L6.45555556,9.34 C8.4,9.34 9.95555556,8.54 10.3444444,6.14 C10.5,5.18 10.4222222,4.3 9.95555556,3.74 C9.87777778,3.58 9.72222222,3.42 9.48888889,3.34" id="Path" fill="#139AD6"></path>
            <path d="M8.94444444,3.1 C8.86666667,3.1 8.78888889,3.02 8.71111111,3.02 C8.63333333,3.02 8.55555556,3.02 8.47777778,2.94 C8.16666667,2.86 7.85555556,2.86 7.46666667,2.86 L4.43333333,2.86 C4.35555556,2.86 4.27777778,2.86 4.2,2.94 C4.04444444,3.02 3.96666667,3.18 3.96666667,3.34 L3.34444444,7.5 L3.34444444,7.66 C3.42222222,7.42 3.65555556,7.18 3.88888889,7.18 L5.05555556,7.18 C7.31111111,7.18 9.02222222,6.22 9.56666667,3.58 C9.56666667,3.5 9.56666667,3.42 9.64444444,3.34 C9.48888889,3.26 9.41111111,3.18 9.25555556,3.18 C9.02222222,3.1 9.02222222,3.1 8.94444444,3.1" id="Path" fill="#232C65"></path>
        </g>
    </g>
</svg>