<?xml version="1.0" encoding="UTF-8"?>
<svg width="27px" height="27px" viewBox="0 0 27 27" version="1.1" xmlns="http://www.w3.org/2000/svg" xmlns:xlink="http://www.w3.org/1999/xlink">
    <!-- Generator: Sketch 52.6 (67491) - http://www.bohemiancoding.com/sketch -->
    <title>Atoms/Icon/pics</title>
    <desc>Created with Sketch.</desc>
    <g id="Atoms/Icon/pics" stroke="none" stroke-width="1" fill="none" fill-rule="evenodd">
        <path d="M25,18.1 L25,4.3 C25,3.035 23.965,2 22.7,2 L8.9,2 C7.635,2 6.6,3.035 6.6,4.3 L6.6,18.1 C6.6,19.365 7.635,20.4 8.9,20.4 L22.7,20.4 C23.965,20.4 25,19.365 25,18.1 Z M12.35,13.5 L14.6845,16.6165 L18.1,12.35 L22.7,18.1 L8.9,18.1 L12.35,13.5 Z M2,6.6 L2,22.7 C2,23.965 3.035,25 4.3,25 L20.4,25 L20.4,22.7 L4.3,22.7 L4.3,6.6 L2,6.6 Z" id="Shape" fill="#FFFFFF"></path>
    </g>
</svg>