<?xml version="1.0" encoding="UTF-8"?>
<svg width="27px" height="27px" viewBox="0 0 27 27" version="1.1" xmlns="http://www.w3.org/2000/svg" xmlns:xlink="http://www.w3.org/1999/xlink">
    <title>Atoms/Icon/location-pin</title>
    <g id="Atoms/Icon/location-pin" stroke="none" stroke-width="1" fill="none" fill-rule="evenodd">
        <path d="M13.3333333,1.5 C15.4960066,1.5 17.4507659,2.42017921 18.8656096,3.90576509 C20.2890621,5.40039017 21.1666667,7.46656463 21.1666667,9.75 C21.1666667,15.3560569 14.9472926,23.2643477 13.3330955,25.221913 C11.7185017,23.2632384 5.5,15.3556637 5.5,9.75 C5.5,7.46656463 6.3776046,5.40039017 7.80105706,3.90576509 C9.21590075,2.42017921 11.17066,1.5 13.3333333,1.5 Z M13.7962963,6.05555556 C12.7638519,6.05555556 11.8286269,6.47445146 11.1515392,7.1515392 C10.4744515,7.82862694 10.0555556,8.76385185 10.0555556,9.7962963 C10.0555556,10.8287407 10.4744515,11.7639656 11.1515392,12.4410534 C11.8286269,13.1181411 12.7638519,13.537037 13.7962963,13.537037 C14.8287407,13.537037 15.7639656,13.1181411 16.4410534,12.4410534 C17.1181411,11.7639656 17.537037,10.8287407 17.537037,9.7962963 C17.537037,8.76385185 17.1181411,7.82862694 16.4410534,7.1515392 C15.7639656,6.47445146 14.8287407,6.05555556 13.7962963,6.05555556 Z" id="Shape" stroke="#999999" fill="#FFFFFF"></path>
    </g>
</svg>