<svg viewBox="0 0 20 20" version="1.1" xmlns="http://www.w3.org/2000/svg" xmlns:xlink="http://www.w3.org/1999/xlink"><!-- Generator: Sketch 53.2 (72643) - https://sketchapp.com --><desc>Created with Sketch.</desc><g id="Page-1" stroke="none" stroke-width="1" fill="none" fill-rule="evenodd" stroke-linecap="round" stroke-linejoin="round"><g id="01_Home" transform="translate(-392.000000, -1369.000000)" stroke="#1A2B50" stroke-width="0.5"><g id="top-hotel" transform="translate(134.000000, 829.000000)"><g id="h1-g" transform="translate(0.000000, 109.000000)"><g id="metadata" transform="translate(21.000000, 409.000000)"><g id="Group" transform="translate(237.000000, 22.000000)"><g id="Regular"><path d="M2.27,0.689166667 C1.88885402,0.562219668 1.46992114,0.626196552 1.14403733,0.861116845 C0.818153522,1.09603714 0.625037169,1.473269 0.625,1.875 L0.625,16.25 C0.624937287,16.7441121 0.915944243,17.1918905 1.3675,17.3925 L5.78916667,19.2675 C6.08501467,19.398354 6.41994687,19.409996 6.72416667,19.3 L12.6766667,16.93 C12.9655217,16.824933 13.2829618,16.8299764 13.5683333,16.9441667 L17.6608333,18.5525 C18.0458409,18.7064755 18.4821459,18.6595057 18.8255595,18.427113 C19.1689731,18.1947203 19.3747928,17.8071556 19.375,17.3925 L19.375,3.43 C19.3750935,2.8779044 19.0129808,2.39113546 18.4841667,2.2325 L13.4675,0.7275 C13.2436177,0.6605123 13.0054403,0.657625301 12.78,0.719166667 L6.61333333,2.45583333 C6.37526227,2.52079531 6.12328933,2.51383633 5.88916667,2.43583333 L2.27,0.689166667 Z" id="Shape"/><polygon id="Shape" points="3.125 3.75 3.125 15.625 6.25 16.875 13.125 14.375 16.875 15.625 16.875 4.375 13.125 3.125 6.25 5"/><polyline id="Shape" points="3.125 8.2325 6.25 9.4825 9.375 8.2325"/><path d="M11.875,3.46583333 L11.875,6.71916667" id="Shape"/><polyline id="Shape" points="3.125 11.9825 6.25 13.125 8.125 12.6075 8.125 16.1933333"/><polyline id="Shape" points="11.875 14.8291667 11.875 11.875 13.125 11.25 16.875 12.5"/></g></g></g></g></g></g></g></svg>