<?xml version="1.0" encoding="UTF-8"?>
<svg width="21px" height="26px" viewBox="0 0 21 26" version="1.1" xmlns="http://www.w3.org/2000/svg" xmlns:xlink="http://www.w3.org/1999/xlink">
    <!-- Generator: Sketch 64 (93537) - https://sketch.com -->
    <title>Atoms/Icon/privacy policy</title>
    <desc>Created with Sketch.</desc>
    <g id="Mobile" stroke="none" stroke-width="1" fill="none" fill-rule="evenodd">
        <g id="03.1-guest-menu" transform="translate(-42.000000, -617.000000)" fill="#A1BCCF">
            <g id="Panel" transform="translate(20.000000, 9.000000)">
                <g id="menu-list" transform="translate(0.000000, 136.000000)">
                    <g id="terms-&amp;-cons" transform="translate(0.000000, 458.388443)">
                        <g id="Atoms/Icon/privacy-policy" transform="translate(19.000000, 13.000000)">
                            <path d="M13.1171809,1.05769791 C13.2664226,0.981735569 13.446639,0.98069148 13.5970071,1.05508756 L13.5970071,1.05508756 L23.7327728,6.06181406 C23.8972203,6.14299718 24,6.30196986 24,6.4747776 L24,6.4747776 L24,12.8851104 C23.9994368,18.3267277 20.4784585,23.2373919 15.0663341,25.3444981 L15.0663341,25.3444981 L13.5249206,25.9615941 C13.3967979,26.0130187 13.2512169,26.0127577 13.1233758,25.961072 L13.1233758,25.961072 L11.7554206,25.4084526 C6.44185202,23.2546205 3.00591337,18.3909433 3,13.0148468 L3,13.0148468 L3,6.4747776 C3,6.30379715 3.10024535,6.14665169 3.26187699,6.06442441 L3.26187699,6.06442441 Z M13.3630074,1.99926532 L4.00893035,6.75173988 L4.00893035,13.0148468 C4.01456211,18.0192239 7.213122,22.5461609 12.159218,24.5509398 L12.159218,24.5509398 L13.3255561,25.0226371 L14.6678868,24.485419 C19.7105676,22.5231894 22.9896617,17.9516148 22.990788,12.8851104 L22.990788,12.8851104 L22.990788,6.75513343 L13.3630074,1.99926532 Z M17.8109739,10.8641471 C18.0272336,10.7009978 18.3451466,10.7315393 18.5208576,10.9317562 C18.6968503,11.1322341 18.664186,11.426947 18.4479263,11.5898353 L18.4479263,11.5898353 L12.2400338,16.2718294 C12.0277163,16.4321073 11.7159982,16.4057423 11.5380345,16.2125735 L11.5380345,16.2125735 L8.872521,13.3189571 C8.69145979,13.1226558 8.71652119,12.8271598 8.92855706,12.6595727 C9.14059292,12.4917248 9.45906914,12.5149572 9.64013035,12.7115195 L9.64013035,12.7115195 L11.9854781,15.2574321 Z" id="Combined-Shape"></path>
                        </g>
                    </g>
                </g>
            </g>
        </g>
    </g>
</svg>