<?xml version="1.0" encoding="UTF-8"?>
<svg width="1250px" height="526px" viewBox="0 0 1250 526" version="1.1" xmlns="http://www.w3.org/2000/svg" xmlns:xlink="http://www.w3.org/1999/xlink">
    <!-- Generator: Sketch 52.6 (67491) - http://www.bohemiancoding.com/sketch -->
    <title>Atoms/Scenery/property-list</title>
    <desc>Created with Sketch.</desc>
    <defs>
        <polygon id="path-1" points="0.0011 0.5203 65.0541 0.5203 65.0541 374 0.0011 374"></polygon>
        <polygon id="path-3" points="0.8441 0.6327 95.999 0.6327 95.999 296.7327 0.8441 296.7327"></polygon>
    </defs>
    <g id="Atoms/Scenery/property-list" stroke="none" stroke-width="1" fill="none" fill-rule="evenodd">
        <g id="Group-312">
            <g id="Group-3" transform="translate(0.000000, 151.222000)">
                <mask id="mask-2" fill="white">
                    <use xlink:href="#path-1"></use>
                </mask>
                <g id="Clip-2"></g>
                <path d="M0.0021,374.0003 L65.0541,374.0003 L65.0541,39.9043 C65.0541,18.2433 47.3131,0.5203 25.6291,0.5203 C15.8681,0.5203 6.9051,4.1113 0.0011,10.0383 L0.0021,374.0003 Z" id="Fill-1" fill="#E6E6E6" mask="url(#mask-2)"></path>
            </g>
            <path d="M1165.713,274.4176 C1165.713,259.6486 1153.568,247.5666 1138.724,247.5666 C1123.88,247.5666 1111.735,259.6486 1111.735,274.4176 L1111.735,523.7076 L1165.713,523.7076 L1165.713,274.4176 Z" id="Fill-4" fill="#E6E6E6"></path>
            <path d="M664.5616,311.6286 C664.5616,249.3576 613.0626,198.4096 550.1196,198.4096 C487.1766,198.4096 435.6776,249.3576 435.6776,311.6286 L435.6776,522.4606 L664.5616,522.4606 L664.5616,311.6286 Z" id="Fill-6" fill="#E6E6E6"></path>
            <polygon id="Fill-8" fill="#E6E6E6" points="211.0451 522.4606 59.3631 522.4606 59.3631 284.6246 133.7071 228.3236 211.0451 284.6246"></polygon>
            <g id="Group-12" transform="translate(1154.000000, 228.222000)">
                <mask id="mask-4" fill="white">
                    <use xlink:href="#path-3"></use>
                </mask>
                <g id="Clip-11"></g>
                <polygon id="Fill-10" fill="#E6E6E6" mask="url(#mask-4)" points="95.8341 296.7327 0.8441 296.7327 0.8441 57.3097 75.1881 0.6327 95.9991 15.8847"></polygon>
            </g>
            <polygon id="Fill-13" fill="#E6E6E6" points="241.7775 522.4606 163.9355 522.4606 163.9355 101.2056 202.0885 72.3126 241.7775 101.2056"></polygon>
            <polygon id="Fill-15" fill="#E6E6E6" points="853.198 521.904 939.923 521.904 939.923 102.791 853.198 102.791"></polygon>
            <polygon id="Fill-17" fill="#E6E6E6" points="868.446 105.402 924.675 105.402 924.675 41.728 868.446 41.728"></polygon>
            <polygon id="Fill-18" fill="#E6E6E6" points="323.217 522.461 379.446 522.461 379.446 129.36 323.217 129.36"></polygon>
            <polygon id="Fill-19" fill="#E6E6E6" points="1112.3087 523.7077 1002.5957 523.7077 1002.5957 159.0727 1112.3087 213.7097"></polygon>
            <polygon id="Fill-20" fill="#272425" points="1074.765 406.399 1077.26 406.399 1077.26 386.952 1074.765 386.952"></polygon>
            <path d="M1090.8849,374.7116 C1092.4329,373.4896 1093.4279,371.5986 1093.4279,369.4746 C1093.4279,365.9656 1090.7179,363.0916 1087.2779,362.8266 C1087.6599,361.7806 1087.8689,360.6506 1087.8689,359.4726 C1087.8689,354.0836 1083.5009,349.7146 1078.1129,349.7146 C1073.4049,349.7146 1069.4759,353.0496 1068.5579,357.4846 C1067.1069,356.7666 1065.4719,356.3616 1063.7429,356.3616 C1057.7399,356.3616 1052.8739,361.2286 1052.8739,367.2316 C1052.8739,372.1256 1056.1099,376.2646 1060.5589,377.6256 C1060.4879,377.9546 1060.4489,378.2956 1060.4489,378.6456 C1060.4489,381.3186 1062.6159,383.4856 1065.2899,383.4856 C1065.6639,383.4856 1066.0289,383.4416 1066.3779,383.3606 C1068.1909,387.1746 1072.0769,389.8116 1076.5789,389.8116 C1079.9049,389.8116 1082.8939,388.3726 1084.9599,386.0856 C1085.5309,386.2486 1086.1339,386.3376 1086.7579,386.3376 C1090.3729,386.3376 1093.3039,383.4066 1093.3039,379.7916 C1093.3039,377.7406 1092.3609,375.9116 1090.8849,374.7116" id="Fill-21" fill="#9DC44D"></path>
            <path d="M1081.587,388.4567 C1077.64,388.4567 1074.232,386.1447 1072.644,382.8027 C1072.336,382.8727 1072.018,382.9107 1071.69,382.9107 C1069.346,382.9107 1067.446,381.0117 1067.446,378.6677 C1067.446,378.3607 1067.48,378.0617 1067.541,377.7737 C1063.642,376.5807 1060.805,372.9527 1060.805,368.6617 C1060.805,363.3987 1065.071,359.1337 1070.333,359.1337 C1071.849,359.1337 1073.281,359.4877 1074.554,360.1177 C1075.358,356.2287 1078.803,353.3057 1082.93,353.3057 C1084.066,353.3057 1085.15,353.5287 1086.143,353.9317 C1084.382,351.3847 1081.442,349.7147 1078.112,349.7147 C1073.404,349.7147 1069.476,353.0497 1068.558,357.4847 C1067.107,356.7677 1065.472,356.3617 1063.743,356.3617 C1057.74,356.3617 1052.874,361.2277 1052.874,367.2307 C1052.874,372.1257 1056.109,376.2647 1060.559,377.6257 C1060.487,377.9547 1060.449,378.2957 1060.449,378.6447 C1060.449,381.3187 1062.616,383.4857 1065.29,383.4857 C1065.664,383.4857 1066.028,383.4417 1066.378,383.3607 C1068.191,387.1747 1072.077,389.8107 1076.579,389.8107 C1078.527,389.8107 1080.359,389.3167 1081.959,388.4487 C1081.835,388.4527 1081.711,388.4567 1081.587,388.4567" id="Fill-22" fill="#272425"></path>
            <path d="M1067.0743,381.9205 L1067.5043,382.8255 C1069.1613,386.3115 1072.7233,388.5635 1076.5793,388.5635 C1079.4153,388.5635 1082.1323,387.3555 1084.0343,385.2495 L1084.5553,384.6725 L1085.3033,384.8855 C1085.7773,385.0215 1086.2653,385.0895 1086.7583,385.0895 C1089.6783,385.0895 1092.0563,382.7125 1092.0563,379.7915 C1092.0563,378.1905 1091.3423,376.6915 1090.0973,375.6795 L1088.8903,374.6965 L1090.1113,373.7325 C1091.4273,372.6945 1092.1793,371.1435 1092.1793,369.4745 C1092.1793,366.6595 1089.9843,364.2855 1087.1813,364.0695 L1085.5403,363.9435 L1086.1063,362.3985 C1086.4483,361.4625 1086.6213,360.4785 1086.6213,359.4725 C1086.6213,354.7795 1082.8033,350.9625 1078.1113,350.9625 C1074.0953,350.9625 1070.5913,353.8115 1069.7793,357.7365 L1069.4523,359.3185 L1068.0043,358.6035 C1066.6733,357.9435 1065.2393,357.6095 1063.7433,357.6095 C1058.4373,357.6095 1054.1223,361.9255 1054.1223,367.2315 C1054.1223,371.4895 1056.8553,375.1885 1060.9243,376.4335 L1062.0173,376.7685 L1061.7783,377.8875 C1061.7243,378.1375 1061.6973,378.3925 1061.6973,378.6455 C1061.6973,380.6265 1063.3083,382.2375 1065.2903,382.2375 C1065.5583,382.2375 1065.8313,382.2065 1066.0983,382.1455 L1067.0743,381.9205 Z M1076.5793,391.0585 C1072.0763,391.0585 1067.8943,388.5985 1065.6813,384.7205 C1065.5513,384.7295 1065.4203,384.7335 1065.2903,384.7335 C1061.9333,384.7335 1059.2023,382.0025 1059.2023,378.6455 C1059.2023,378.5865 1059.2033,378.5285 1059.2053,378.4705 C1054.6323,376.6355 1051.6273,372.2415 1051.6273,367.2315 C1051.6273,360.5505 1057.0623,355.1145 1063.7433,355.1145 C1065.1233,355.1145 1066.4623,355.3415 1067.7403,355.7885 C1069.2763,351.4705 1073.4253,348.4675 1078.1113,348.4675 C1084.1793,348.4675 1089.1163,353.4035 1089.1163,359.4725 C1089.1163,360.2755 1089.0313,361.0685 1088.8603,361.8435 C1092.2193,362.7745 1094.6753,365.8775 1094.6753,369.4745 C1094.6753,371.4375 1093.9613,373.2895 1092.6813,374.7265 C1093.8823,376.1265 1094.5523,377.9105 1094.5523,379.7915 C1094.5523,384.0885 1091.0553,387.5845 1086.7583,387.5845 C1086.2923,387.5845 1085.8273,387.5425 1085.3703,387.4595 C1083.0333,389.7555 1079.8703,391.0585 1076.5793,391.0585 Z" id="Fill-23" fill="#272425"></path>
            <path d="M1083.423,380.7204 C1081.063,379.4024 1079.849,376.8254 1080.148,374.2984 C1078.813,374.4464 1077.421,374.1944 1076.159,373.4894 C1072.941,371.6894 1071.789,367.6194 1073.589,364.4004 C1073.797,364.0294 1074.035,363.6854 1074.299,363.3694 C1073.218,363.9514 1072.284,364.8374 1071.641,365.9894 C1069.841,369.2084 1070.991,373.2784 1074.211,375.0774 C1075.473,375.7834 1076.864,376.0344 1078.198,375.8874 C1077.9,378.4144 1079.114,380.9904 1081.474,382.3094 C1084.25,383.8614 1087.676,383.1534 1089.632,380.7854 C1087.751,381.7834 1085.419,381.8364 1083.423,380.7204" id="Fill-24" fill="#272425"></path>
            <polygon id="Fill-25" fill="#272425" points="901.715 407.577 904.21 407.577 904.21 378.936 901.715 378.936"></polygon>
            <path d="M878.4054,352.8043 C878.8364,352.8043 879.2604,352.8333 879.6784,352.8833 C880.0264,349.6483 881.6034,346.7833 883.9324,344.7603 C881.2994,342.6963 879.6054,339.4883 879.6054,335.8823 C879.6054,329.6543 884.6544,324.6043 890.8834,324.6043 C897.0924,324.6043 902.1274,329.6213 902.1604,335.8223 C903.3504,335.1713 904.7164,334.8013 906.1684,334.8013 C907.3464,334.8013 908.4684,335.0463 909.4864,335.4863 C909.9874,330.2273 914.4154,326.1133 919.8054,326.1133 C925.5324,326.1133 930.1754,330.7553 930.1754,336.4823 C930.1754,337.5893 929.9994,338.6563 929.6764,339.6583 C929.8424,339.6473 930.0074,339.6403 930.1754,339.6403 C934.5944,339.6403 938.1774,343.2243 938.1774,347.6443 C938.1774,352.0653 934.5944,355.6483 930.1754,355.6483 C928.9404,355.6483 927.7724,355.3683 926.7284,354.8693 C926.5834,355.6953 926.3574,356.4913 926.0574,357.2503 C928.4824,358.3253 930.1754,360.7493 930.1754,363.5733 C930.1754,367.3903 927.0804,370.4853 923.2614,370.4853 C922.2084,370.4853 921.2114,370.2473 920.3174,369.8263 C920.3254,370.0453 920.3304,370.2643 920.3304,370.4853 C920.3304,380.5193 912.1954,388.6543 902.1614,388.6543 C892.7984,388.6543 885.0914,381.5713 884.1004,372.4713 C882.4534,373.5163 880.5004,374.1223 878.4054,374.1223 C872.5184,374.1223 867.7464,369.3503 867.7464,363.4633 C867.7464,357.5763 872.5184,352.8043 878.4054,352.8043" id="Fill-26" fill="#9DC44D"></path>
            <g id="Group-30" transform="translate(867.000000, 325.222000)" fill="#272425">
                <path d="M14.9503,17.1683 C14.8933,17.2173 14.8403,17.2693 14.7843,17.3193 C14.6173,17.0923 14.4613,16.8563 14.3113,16.6173 C14.5173,16.8093 14.7283,16.9943 14.9503,17.1683" id="Fill-27"></path>
                <path d="M10.0997,42.9339 C11.9387,42.9339 13.6517,42.4009 15.0977,41.4849 C15.3277,43.5899 15.9687,45.5719 16.9367,47.3499 C15.3247,48.3309 13.4317,48.9009 11.4057,48.9009 C5.5187,48.9009 0.7457,44.1279 0.7457,38.2419 C0.7457,37.4139 0.8437,36.6099 1.0217,35.8369 C2.0317,39.9129 5.7117,42.9339 10.0997,42.9339" id="Fill-28"></path>
                <path d="M30.9454,55.6849 C39.7514,55.6849 46.8894,48.5459 46.8894,39.7419 C46.8894,39.5479 46.8844,39.3559 46.8784,39.1639 C47.6624,39.5339 48.5374,39.7419 49.4624,39.7419 C52.8124,39.7419 55.5274,37.0259 55.5274,33.6749 C55.5274,31.1989 54.0434,29.0709 51.9154,28.1279 C52.1774,27.4609 52.3774,26.7629 52.5044,26.0389 C53.4204,26.4769 54.4454,26.7219 55.5274,26.7219 C59.4074,26.7219 62.5514,23.5779 62.5514,19.6989 C62.5514,15.8199 59.4074,12.6749 55.5274,12.6749 C55.3814,12.6749 55.2354,12.6809 55.0914,12.6899 C55.3744,11.8109 55.5274,10.8749 55.5274,9.9029 C55.5274,6.0069 53.0784,2.6849 49.6354,1.3869 C50.6354,1.0669 51.7004,0.8909 52.8054,0.8909 C58.5324,0.8909 63.1744,5.5339 63.1744,11.2599 C63.1744,12.3679 62.9994,13.4339 62.6764,14.4359 C62.8414,14.4249 63.0074,14.4179 63.1744,14.4179 C67.5944,14.4179 71.1774,18.0019 71.1774,22.4219 C71.1774,26.8429 67.5944,30.4259 63.1744,30.4259 C61.9404,30.4259 60.7724,30.1469 59.7284,29.6479 C59.5834,30.4729 59.3574,31.2689 59.0574,32.0289 C61.4824,33.1029 63.1744,35.5279 63.1744,38.3509 C63.1744,42.1679 60.0804,45.2629 56.2614,45.2629 C55.2084,45.2629 54.2114,45.0259 53.3174,44.6049 C53.3254,44.8239 53.3304,45.0419 53.3304,45.2629 C53.3304,55.2969 45.1954,63.4319 35.1614,63.4319 C25.9734,63.4319 18.3814,56.6119 17.1644,47.7579 C19.9274,52.4979 25.0634,55.6849 30.9454,55.6849" id="Fill-29"></path>
            </g>
            <path d="M885.1241,370.3463 L885.3411,372.3363 C886.2751,380.9273 893.5071,387.4063 902.1611,387.4063 C911.4921,387.4063 919.0831,379.8153 919.0831,370.4853 C919.0831,370.2793 919.0781,370.0753 919.0701,369.8703 L918.9971,367.8253 L920.8501,368.6983 C921.6071,369.0563 922.4191,369.2373 923.2621,369.2373 C926.3861,369.2373 928.9271,366.6963 928.9271,363.5723 C928.9271,361.3323 927.6031,359.2983 925.5531,358.3913 L924.4581,357.9063 L924.8971,356.7923 C925.1691,356.1033 925.3721,355.3833 925.5001,354.6543 L925.7841,353.0353 L927.2671,353.7433 C928.1781,354.1793 929.1551,354.4003 930.1751,354.4003 C933.9001,354.4003 936.9311,351.3693 936.9311,347.6443 C936.9311,343.9183 933.9001,340.8883 930.1751,340.8883 C930.0331,340.8883 929.8941,340.8943 929.7551,340.9033 L927.9311,341.0163 L928.4891,339.2763 C928.7801,338.3713 928.9271,337.4313 928.9271,336.4813 C928.9271,331.4513 924.8351,327.3613 919.8061,327.3613 C915.0781,327.3613 911.1761,330.9053 910.7281,335.6043 L910.5651,337.3123 L908.9911,336.6313 C907.0111,335.7753 904.6511,335.8823 902.7581,336.9163 L900.9241,337.9183 L900.9121,335.8283 C900.8841,330.3273 896.3851,325.8523 890.8831,325.8523 C885.3531,325.8523 880.8531,330.3513 880.8531,335.8823 C880.8531,338.9833 882.2561,341.8613 884.7021,343.7793 L885.8921,344.7113 L884.7511,345.7023 C882.5851,347.5833 881.2241,350.1813 880.9191,353.0163 L880.7841,354.2713 L879.5311,354.1213 C879.1371,354.0753 878.7691,354.0523 878.4051,354.0523 C873.2161,354.0523 868.9931,358.2743 868.9931,363.4633 C868.9931,368.6533 873.2161,372.8753 878.4051,372.8753 C880.1891,372.8753 881.9281,372.3713 883.4341,371.4173 L885.1241,370.3463 Z M902.1611,389.9013 C892.8391,389.9013 884.9551,383.3493 883.1381,374.3893 C881.6501,375.0343 880.0431,375.3703 878.4051,375.3703 C871.8401,375.3703 866.4981,370.0293 866.4981,363.4633 C866.4981,356.8983 871.8401,351.5573 878.4051,351.5573 C878.4771,351.5573 878.5481,351.5583 878.6191,351.5593 C879.1181,349.0243 880.3181,346.6903 882.0921,344.8023 C879.7031,342.4563 878.3571,339.2763 878.3571,335.8823 C878.3571,328.9763 883.9771,323.3573 890.8831,323.3573 C897.1371,323.3573 902.3531,327.9893 903.2661,334.0013 C904.9511,333.4703 906.7951,333.4153 908.4921,333.8373 C909.6891,328.6273 914.3111,324.8663 919.8061,324.8663 C926.2111,324.8663 931.4221,330.0763 931.4221,336.4813 C931.4221,337.1453 931.3651,337.8053 931.2541,338.4553 C935.8491,338.9923 939.4261,342.9083 939.4261,347.6443 C939.4261,352.7453 935.2751,356.8953 930.1751,356.8953 C929.2981,356.8953 928.4431,356.7763 927.6181,356.5373 C927.6071,356.5753 927.5961,356.6143 927.5851,356.6523 C929.9471,358.1283 931.4221,360.7363 931.4221,363.5723 C931.4221,368.0723 927.7621,371.7323 923.2621,371.7323 C922.6801,371.7323 922.1071,371.6713 921.5491,371.5523 C920.9931,381.7643 912.5101,389.9013 902.1611,389.9013 Z" id="Fill-31" fill="#272425"></path>
            <path d="M899.5695,367.2448 C901.7445,364.4838 901.9175,360.7868 900.2985,357.9018 C901.9735,357.4138 903.5185,356.4168 904.6805,354.9408 C907.6475,351.1748 906.9995,345.7168 903.2325,342.7498 C902.7985,342.4068 902.3405,342.1128 901.8675,341.8658 C903.4555,342.0248 905.0175,342.6238 906.3645,343.6838 C910.1315,346.6508 910.7795,352.1088 907.8125,355.8758 C906.6505,357.3508 905.1055,358.3488 903.4295,358.8368 C905.0485,361.7228 904.8765,365.4188 902.7015,368.1798 C900.1435,371.4268 895.6775,372.2858 892.1495,370.4198 C894.9045,370.6798 897.7305,369.5798 899.5695,367.2448" id="Fill-32" fill="#272425"></path>
            <polygon id="Fill-33" fill="#FFFFFF" points="1.178 523.708 1248.654 523.708 1248.654 406.872 1.178 406.872"></polygon>
            <polygon id="Fill-35" fill="#42BEB7" points="867.5988 406.7155 715.9168 406.7155 715.9168 191.9965 790.2618 133.7875 867.5988 191.9965"></polygon>
            <path d="M717.1652,405.4684 L866.3522,405.4684 L866.3522,192.6194 L790.2762,135.3604 L717.1652,192.6044 L717.1652,405.4684 Z M868.8472,407.9634 L714.6702,407.9634 L714.6702,191.3904 L790.2462,132.2154 L868.8472,191.3744 L868.8472,407.9634 Z" id="Fill-36" fill="#272425"></path>
            <polygon id="Fill-37" fill="#288D87" points="788.5685 143.2326 788.5685 406.7156 738.2145 406.7156 738.2145 181.4016"></polygon>
            <polygon id="Fill-38" fill="#E5E5E6" points="876.0753 209.2858 788.5683 143.2328 704.5603 209.1988 695.3163 197.4268 788.3883 124.3428 885.0943 197.3388"></polygon>
            <path d="M788.5538,141.6583 L875.8308,207.5383 L883.3468,197.5823 L788.4038,125.9163 L697.0678,197.6363 L704.7718,207.4473 L788.5538,141.6583 Z M876.3198,211.0333 L788.5838,144.8063 L704.3498,210.9503 L693.5648,197.2153 L788.3728,122.7683 L886.8408,197.0943 L876.3198,211.0333 Z" id="Fill-39" fill="#272425"></path>
            <polygon id="Fill-40" fill="#FFFFFF" points="730.319 257.256 783.965 257.256 783.965 248.199 730.319 248.199"></polygon>
            <path d="M731.566,256.007 L782.717,256.007 L782.717,249.445 L731.566,249.445 L731.566,256.007 Z M729.07,258.503 L785.212,258.503 L785.212,246.951 L729.07,246.951 L729.07,258.503 Z" id="Fill-41" fill="#272425"></path>
            <polygon id="Fill-42" fill="#272425" points="795.475 260.565 849.121 260.565 849.121 251.507 795.475 251.507"></polygon>
            <polygon id="Fill-43" fill="#272425" points="795.475 280.769 849.121 280.769 849.121 271.712 795.475 271.712"></polygon>
            <polygon id="Fill-44" fill="#272425" points="795.475 300.974 849.121 300.974 849.121 291.916 795.475 291.916"></polygon>
            <polygon id="Fill-45" fill="#272425" points="795.475 321.178 849.121 321.178 849.121 312.121 795.475 312.121"></polygon>
            <polygon id="Fill-46" fill="#272425" points="795.475 341.383 849.121 341.383 849.121 332.325 795.475 332.325"></polygon>
            <polygon id="Fill-47" fill="#FFFFFF" points="799.552 257.256 853.198 257.256 853.198 248.199 799.552 248.199"></polygon>
            <path d="M800.8,256.007 L851.951,256.007 L851.951,249.445 L800.8,249.445 L800.8,256.007 Z M798.304,258.503 L854.446,258.503 L854.446,246.951 L798.304,246.951 L798.304,258.503 Z" id="Fill-48" fill="#272425"></path>
            <polygon id="Fill-49" fill="#FFFFFF" points="730.319 277.461 783.965 277.461 783.965 268.403 730.319 268.403"></polygon>
            <path d="M731.566,276.213 L782.717,276.213 L782.717,269.651 L731.566,269.651 L731.566,276.213 Z M729.07,278.708 L785.212,278.708 L785.212,267.155 L729.07,267.155 L729.07,278.708 Z" id="Fill-50" fill="#272425"></path>
            <polygon id="Fill-51" fill="#FFFFFF" points="799.552 277.461 853.198 277.461 853.198 268.403 799.552 268.403"></polygon>
            <path d="M800.8,276.213 L851.951,276.213 L851.951,269.651 L800.8,269.651 L800.8,276.213 Z M798.304,278.708 L854.446,278.708 L854.446,267.155 L798.304,267.155 L798.304,278.708 Z" id="Fill-52" fill="#272425"></path>
            <polygon id="Fill-53" fill="#FFFFFF" points="730.319 297.665 783.965 297.665 783.965 288.607 730.319 288.607"></polygon>
            <path d="M731.566,296.417 L782.717,296.417 L782.717,289.855 L731.566,289.855 L731.566,296.417 Z M729.07,298.912 L785.212,298.912 L785.212,287.36 L729.07,287.36 L729.07,298.912 Z" id="Fill-54" fill="#272425"></path>
            <polygon id="Fill-55" fill="#FFFFFF" points="799.552 297.665 853.198 297.665 853.198 288.607 799.552 288.607"></polygon>
            <path d="M800.8,296.417 L851.951,296.417 L851.951,289.855 L800.8,289.855 L800.8,296.417 Z M798.304,298.912 L854.446,298.912 L854.446,287.36 L798.304,287.36 L798.304,298.912 Z" id="Fill-56" fill="#272425"></path>
            <polygon id="Fill-57" fill="#FFFFFF" points="730.319 317.869 783.965 317.869 783.965 308.812 730.319 308.812"></polygon>
            <path d="M731.566,316.622 L782.717,316.622 L782.717,310.06 L731.566,310.06 L731.566,316.622 Z M729.07,319.117 L785.212,319.117 L785.212,307.564 L729.07,307.564 L729.07,319.117 Z" id="Fill-58" fill="#272425"></path>
            <polygon id="Fill-59" fill="#FFFFFF" points="799.552 317.869 853.198 317.869 853.198 308.812 799.552 308.812"></polygon>
            <path d="M800.8,316.622 L851.951,316.622 L851.951,310.06 L800.8,310.06 L800.8,316.622 Z M798.304,319.117 L854.446,319.117 L854.446,307.564 L798.304,307.564 L798.304,319.117 Z" id="Fill-60" fill="#272425"></path>
            <polygon id="Fill-61" fill="#FFFFFF" points="730.319 338.074 783.965 338.074 783.965 329.016 730.319 329.016"></polygon>
            <path d="M731.566,336.826 L782.717,336.826 L782.717,330.264 L731.566,330.264 L731.566,336.826 Z M729.07,339.321 L785.212,339.321 L785.212,327.769 L729.07,327.769 L729.07,339.321 Z" id="Fill-62" fill="#272425"></path>
            <polygon id="Fill-63" fill="#FFFFFF" points="799.552 338.074 853.198 338.074 853.198 329.016 799.552 329.016"></polygon>
            <path d="M800.8,336.826 L851.951,336.826 L851.951,330.264 L800.8,330.264 L800.8,336.826 Z M798.304,339.321 L854.446,339.321 L854.446,327.769 L798.304,327.769 L798.304,339.321 Z" id="Fill-64" fill="#272425"></path>
            <polygon id="Fill-65" fill="#272425" points="704.4552 197.7936 702.9212 195.8256 787.8022 129.6556 789.3362 131.6236"></polygon>
            <polygon id="Fill-66" fill="#272425" points="713.1681 197.2164 711.6341 195.2484 725.0921 184.7564 726.6261 186.7244"></polygon>
            <polygon id="Fill-67" fill="#CECECE" points="217.3864 169.4879 511.1284 169.4879 550.1194 267.0139 175.4744 267.0139"></polygon>
            <path d="M177.3683,265.7663 L548.2773,265.7663 L510.2843,170.7363 L218.2073,170.7363 L177.3683,265.7663 Z M551.9613,268.2613 L173.5803,268.2613 L216.5643,168.2403 L511.9723,168.2403 L512.2863,169.0253 L551.9613,268.2613 Z" id="Fill-68" fill="#272425"></path>
            <polygon id="Fill-69" fill="#42BEB7" points="264.756 406.872 544.17 406.872 544.17 278.931 264.756 278.931"></polygon>
            <path d="M266.003,405.625 L542.922,405.625 L542.922,280.178 L266.003,280.178 L266.003,405.625 Z M263.509,408.12 L545.417,408.12 L545.417,277.683 L263.509,277.683 L263.509,408.12 Z" id="Fill-70" fill="#42BEB7"></path>
            <polygon id="Fill-71" fill="#42BEB7" points="592.154 406.872 747.449 406.872 747.449 127.2 592.154 127.2"></polygon>
            <polygon id="Fill-73" fill="#272425" points="510.7399 246.5856 501.7669 255.5596 335.5289 255.5596 375.9109 215.1776"></polygon>
            <polygon id="Fill-74" fill="#272425" points="544.1696 280.859 355.5656 299.475 355.5656 406.872 335.6076 406.872 335.6076 273.75"></polygon>
            <polygon id="Fill-75" fill="#E5E5E6" points="170.538 280.859 563.963 280.859 563.963 266.639 170.538 266.639"></polygon>
            <path d="M171.784,279.612 L562.715,279.612 L562.715,267.887 L171.784,267.887 L171.784,279.612 Z M169.29,282.107 L565.21,282.107 L565.21,265.392 L169.29,265.392 L169.29,282.107 Z" id="Fill-76" fill="#272425"></path>
            <polygon id="Fill-77" fill="#42BEB7" points="342.0939 406.8717 190.4119 406.8717 190.4119 291.8227 264.7559 233.6127 342.0939 291.8227"></polygon>
            <path d="M191.6593,405.6246 L340.8463,405.6246 L340.8463,292.4446 L264.7713,235.1856 L191.6593,292.4306 L191.6593,405.6246 Z M343.3413,408.1196 L189.1643,408.1196 L189.1643,291.2156 L264.7413,232.0396 L343.3413,291.1996 L343.3413,408.1196 Z" id="Fill-78" fill="#272425"></path>
            <polygon id="Fill-79" fill="#272425" points="342.0939 302.7135 263.0639 251.4205 190.4119 310.2975 190.4119 291.8225 263.0639 234.9385 342.0939 291.8225"></polygon>
            <polygon id="Fill-80" fill="#E5E5E6" points="350.57 309.112 263.064 243.058 179.055 309.024 169.811 297.252 262.883 224.168 359.588 297.165"></polygon>
            <path d="M263.048,241.484 L350.326,307.364 L357.841,297.409 L262.898,225.742 L171.562,297.463 L179.266,307.273 L263.048,241.484 Z M350.814,310.858 L263.078,244.632 L178.845,310.776 L168.059,297.041 L262.868,222.593 L361.335,296.921 L350.814,310.858 Z" id="Fill-81" fill="#272425"></path>
            <path d="M495.5397,207.8356 C495.5397,174.4696 469.0977,147.1696 436.7787,147.1696 C404.4607,147.1696 378.0187,174.4696 378.0187,207.8356 L378.0187,243.5926 L495.5397,243.5926 L495.5397,207.8356 Z" id="Fill-82" fill="#42BEB7"></path>
            <path d="M379.2658,242.3444 L494.2928,242.3444 L494.2928,207.8354 C494.2928,175.0734 468.4918,148.4174 436.7788,148.4174 C405.0658,148.4174 379.2658,175.0734 379.2658,207.8354 L379.2658,242.3444 Z M496.7868,244.8394 L376.7708,244.8394 L376.7708,207.8354 C376.7708,173.6964 403.6908,145.9224 436.7788,145.9224 C469.8678,145.9224 496.7868,173.6964 496.7868,207.8354 L496.7868,244.8394 Z" id="Fill-83" fill="#272425"></path>
            <path d="M394.2296,207.5202 C394.2296,179.0612 411.0546,161.8712 444.3486,155.7762 C445.7506,155.5202 447.8696,153.6592 449.2656,153.7812 C443.5086,151.3862 436.5476,152.2482 429.9856,152.2482 C402.4206,152.2482 379.8676,175.5332 379.8676,203.9922 L379.8676,234.4892 L394.2296,234.4892 L394.2296,207.5202 Z" id="Fill-84" fill="#272425"></path>
            <path d="M503.0241,243.5924 L488.0551,243.5924 L488.0551,207.8354 C488.0551,193.6534 482.6741,180.2854 472.9031,170.1964 C463.1941,160.1734 450.3651,154.6544 436.7791,154.6544 C423.1931,154.6544 410.3641,160.1734 400.6551,170.1964 C390.8841,180.2854 385.5031,193.6534 385.5031,207.8354 L385.5031,243.5924 L370.5341,243.5924 L370.5341,207.8354 C370.5341,189.7434 377.4131,172.6784 389.9031,159.7824 C395.9891,153.4994 403.0731,148.5604 410.9571,145.1024 C419.1521,141.5084 427.8401,139.6854 436.7791,139.6854 C445.7181,139.6854 454.4051,141.5084 462.6011,145.1024 C470.4851,148.5604 477.5691,153.4994 483.6551,159.7824 C496.1451,172.6784 503.0241,189.7434 503.0241,207.8354 L503.0241,243.5924 Z" id="Fill-85" fill="#E5E5E6"></path>
            <path d="M489.3029,242.3444 L501.7769,242.3444 L501.7769,207.8354 C501.7769,190.0704 495.0229,173.3124 482.7589,160.6514 C476.7859,154.4854 469.8359,149.6374 462.0999,146.2444 C454.0639,142.7194 445.5449,140.9324 436.7789,140.9324 C428.0139,140.9324 419.4939,142.7194 411.4579,146.2444 C403.7229,149.6374 396.7719,154.4844 390.7999,160.6514 C378.5349,173.3124 371.7819,190.0704 371.7819,207.8354 L371.7819,242.3444 L384.2559,242.3444 L384.2559,207.8354 C384.2559,193.3274 389.7609,179.6524 399.7599,169.3294 C409.7049,159.0614 422.8519,153.4064 436.7789,153.4064 C450.7059,153.4064 463.8529,159.0614 473.7989,169.3294 C483.7969,179.6524 489.3029,193.3264 489.3029,207.8354 L489.3029,242.3444 Z M504.2719,244.8394 L486.8079,244.8394 L486.8079,207.8354 C486.8079,193.9784 481.5519,180.9194 472.0069,171.0654 C462.5349,161.2864 450.0249,155.9024 436.7789,155.9024 C423.5329,155.9024 411.0229,161.2864 401.5519,171.0654 C392.0069,180.9194 386.7499,193.9784 386.7499,207.8354 L386.7499,244.8394 L369.2869,244.8394 L369.2869,207.8354 C369.2869,189.4184 376.2899,172.0444 389.0079,158.9154 C395.2069,152.5154 402.4229,147.4834 410.4559,143.9604 C418.8099,140.2964 427.6669,138.4384 436.7789,138.4384 C445.8919,138.4384 454.7479,140.2964 463.1019,143.9604 C471.1359,147.4844 478.3519,152.5154 484.5509,158.9154 C497.2679,172.0444 504.2719,189.4184 504.2719,207.8354 L504.2719,244.8394 Z" id="Fill-86" fill="#272425"></path>
            <polygon id="Fill-87" fill="#FFFFFF" points="362.819 246.586 510.74 246.586 510.74 233.613 362.819 233.613"></polygon>
            <path d="M364.066,245.339 L509.493,245.339 L509.493,234.86 L364.066,234.86 L364.066,245.339 Z M361.571,247.834 L511.987,247.834 L511.987,232.365 L361.571,232.365 L361.571,247.834 Z" id="Fill-88" fill="#272425"></path>
            <polygon id="Fill-89" fill="#D25A30" points="211.868 406.872 258.27 406.872 258.27 334.9 211.868 334.9"></polygon>
            <path d="M213.114,405.625 L257.022,405.625 L257.022,336.148 L213.114,336.148 L213.114,405.625 Z M210.62,408.12 L259.517,408.12 L259.517,333.653 L210.62,333.653 L210.62,408.12 Z" id="Fill-90" fill="#272425"></path>
            <path d="M286.6271,297.2594 C286.6271,312.9204 273.9311,325.6154 258.2701,325.6154 C242.6081,325.6154 229.9121,312.9204 229.9121,297.2594 C229.9121,281.5974 242.6081,268.9024 258.2701,268.9024 C273.9311,268.9024 286.6271,281.5974 286.6271,297.2594" id="Fill-91" fill="#272425"></path>
            <path d="M291.4206,293.3024 C291.4206,308.9634 278.7246,321.6594 263.0636,321.6594 C247.4016,321.6594 234.7066,308.9634 234.7066,293.3024 C234.7066,277.6414 247.4016,264.9454 263.0636,264.9454 C278.7246,264.9454 291.4206,277.6414 291.4206,293.3024" id="Fill-92" fill="#FFFFFF"></path>
            <path d="M263.0636,266.192 C248.1146,266.192 235.9536,278.353 235.9536,293.302 C235.9536,308.251 248.1146,320.412 263.0636,320.412 C278.0116,320.412 290.1736,308.251 290.1736,293.302 C290.1736,278.353 278.0116,266.192 263.0636,266.192 M263.0636,322.907 C246.7396,322.907 233.4586,309.626 233.4586,293.302 C233.4586,276.978 246.7396,263.697 263.0636,263.697 C279.3876,263.697 292.6676,276.978 292.6676,293.302 C292.6676,309.626 279.3876,322.907 263.0636,322.907" id="Fill-93" fill="#272425"></path>
            <path d="M285.2052,293.3024 C285.2052,305.5314 275.2922,315.4444 263.0632,315.4444 C250.8342,315.4444 240.9212,305.5314 240.9212,293.3024 C240.9212,281.0734 250.8342,271.1594 263.0632,271.1594 C275.2922,271.1594 285.2052,281.0734 285.2052,293.3024" id="Fill-94" fill="#97CAEA"></path>
            <path d="M263.0636,272.4079 C251.5426,272.4079 242.1686,281.7809 242.1686,293.3029 C242.1686,304.8229 251.5426,314.1959 263.0636,314.1959 C274.5846,314.1959 283.9586,304.8229 283.9586,293.3029 C283.9586,281.7809 274.5846,272.4079 263.0636,272.4079 M263.0636,316.6909 C250.1666,316.6909 239.6736,306.1989 239.6736,293.3029 C239.6736,280.4049 250.1666,269.9129 263.0636,269.9129 C275.9596,269.9129 286.4526,280.4049 286.4526,293.3029 C286.4526,306.1989 275.9596,316.6909 263.0636,316.6909" id="Fill-95" fill="#272425"></path>
            <polygon id="Fill-96" fill="#272425" points="240.921 294.549 285.205 294.549 285.205 292.054 240.921 292.054"></polygon>
            <polygon id="Fill-97" fill="#272425" points="261.816 315.444 264.311 315.444 264.311 271.16 261.816 271.16"></polygon>
            <polygon id="Fill-98" fill="#272425" points="271.617 387.49 320.015 387.49 320.015 339.092 271.617 339.092"></polygon>
            <polygon id="Fill-99" fill="#E5E5E6" points="276.233 383.298 324.631 383.298 324.631 334.9 276.233 334.9"></polygon>
            <path d="M277.48,382.051 L323.383,382.051 L323.383,336.148 L277.48,336.148 L277.48,382.051 Z M274.985,384.547 L325.878,384.547 L325.878,333.653 L274.985,333.653 L274.985,384.547 Z" id="Fill-100" fill="#272425"></path>
            <polygon id="Fill-101" fill="#97CAEA" points="283.716 375.814 317.146 375.814 317.146 342.384 283.716 342.384"></polygon>
            <path d="M284.964,374.567 L315.899,374.567 L315.899,343.632 L284.964,343.632 L284.964,374.567 Z M282.469,377.062 L318.393,377.062 L318.393,341.137 L282.469,341.137 L282.469,377.062 Z" id="Fill-102" fill="#272425"></path>
            <path d="M473.2926,202.5026 C473.2926,183.4236 456.8616,167.8146 436.7786,167.8146 C416.6966,167.8146 400.2656,183.4236 400.2656,202.5026 L400.2656,222.9476 L473.2926,222.9476 L473.2926,202.5026 Z" id="Fill-103" fill="#97CAEA"></path>
            <path d="M401.5128,221.6998 L472.0458,221.6998 L472.0458,202.5028 C472.0458,184.0618 456.2248,169.0608 436.7788,169.0608 C417.3328,169.0608 401.5128,184.0618 401.5128,202.5028 L401.5128,221.6998 Z M474.5398,224.1948 L399.0178,224.1948 L399.0178,202.5028 C399.0178,182.6868 415.9578,166.5658 436.7788,166.5658 C457.6008,166.5658 474.5398,182.6868 474.5398,202.5028 L474.5398,224.1948 Z" id="Fill-104" fill="#272425"></path>
            <polygon id="Fill-105" fill="#272425" points="435.532 222.948 438.027 222.948 438.027 167.813 435.532 167.813"></polygon>
            <polygon id="Fill-106" fill="#A5A6A9" points="370.534 406.872 516.228 406.872 516.228 393.777 370.534 393.777"></polygon>
            <polygon id="Fill-107" fill="#CFD1D2" points="370.534 366.434 516.228 366.434 516.228 352.763 370.534 352.763"></polygon>
            <polygon id="Fill-108" fill="#CFD1D2" points="370.534 393.777 516.228 393.777 516.228 380.105 370.534 380.105"></polygon>
            <polygon id="Fill-109" fill="#A5A6A9" points="370.534 380.105 516.228 380.105 516.228 366.434 370.534 366.434"></polygon>
            <polygon id="Fill-110" fill="#A5A6A9" points="370.534 352.763 516.228 352.763 516.228 339.091 370.534 339.091"></polygon>
            <polygon id="Fill-111" fill="#A5A6A9" points="370.534 325.421 516.228 325.421 516.228 312.448 370.534 312.448"></polygon>
            <polygon id="Fill-112" fill="#CFD1D2" points="370.534 339.091 516.228 339.091 516.228 325.42 370.534 325.42"></polygon>
            <path d="M250.7121,367.987 C250.7121,370.277 248.8561,372.133 246.5651,372.133 C244.2751,372.133 242.4191,370.277 242.4191,367.987 C242.4191,365.696 244.2751,363.84 246.5651,363.84 C248.8561,363.84 250.7121,365.696 250.7121,367.987" id="Fill-113" fill="#272425"></path>
            <path d="M371.781,405.625 L514.98,405.625 L514.98,313.695 L371.781,313.695 L371.781,405.625 Z M369.287,408.12 L517.476,408.12 L517.476,311.2 L369.287,311.2 L369.287,408.12 Z" id="Fill-114" fill="#272425"></path>
            <polygon id="Fill-115" fill="#D5EDFA" points="246.1788 289.8786 244.4148 288.1146 258.3858 274.1446 260.1498 275.9076"></polygon>
            <polygon id="Fill-116" fill="#D5EDFA" points="254.5363 289.2545 252.7723 287.4905 258.3853 281.8775 260.1493 283.6415"></polygon>
            <polygon id="Fill-117" fill="#D5EDFA" points="267.7882 311.4879 266.0242 309.7239 279.9952 295.7539 281.7592 297.5169"></polygon>
            <polygon id="Fill-118" fill="#D5EDFA" points="267.7882 303.7536 266.0242 301.9896 271.6372 296.3766 273.4012 298.1406"></polygon>
            <path d="M816.9152,203.8414 C816.9152,221.5354 802.5712,235.8794 784.8772,235.8794 C767.1832,235.8794 752.8382,221.5354 752.8382,203.8414 C752.8382,186.1474 767.1832,171.8034 784.8772,171.8034 C802.5712,171.8034 816.9152,186.1474 816.9152,203.8414" id="Fill-119" fill="#272425"></path>
            <path d="M822.3312,199.3707 C822.3312,217.0647 807.9872,231.4087 790.2932,231.4087 C772.5992,231.4087 758.2542,217.0647 758.2542,199.3707 C758.2542,181.6767 772.5992,167.3327 790.2932,167.3327 C807.9872,167.3327 822.3312,181.6767 822.3312,199.3707" id="Fill-120" fill="#FFFFFF"></path>
            <path d="M790.2931,168.5797 C773.3141,168.5797 759.5021,182.3927 759.5021,199.3707 C759.5021,216.3497 773.3141,230.1617 790.2931,230.1617 C807.2711,230.1617 821.0831,216.3497 821.0831,199.3707 C821.0831,182.3927 807.2711,168.5797 790.2931,168.5797 M790.2931,232.6567 C771.9391,232.6567 757.0071,217.7247 757.0071,199.3707 C757.0071,181.0177 771.9391,166.0857 790.2931,166.0857 C808.6471,166.0857 823.5781,181.0177 823.5781,199.3707 C823.5781,217.7247 808.6471,232.6567 790.2931,232.6567" id="Fill-121" fill="#272425"></path>
            <path d="M815.3087,199.3707 C815.3087,213.1867 804.1087,224.3877 790.2927,224.3877 C776.4767,224.3877 765.2767,213.1867 765.2767,199.3707 C765.2767,185.5547 776.4767,174.3547 790.2927,174.3547 C804.1087,174.3547 815.3087,185.5547 815.3087,199.3707" id="Fill-122" fill="#97CAEA"></path>
            <path d="M790.2931,175.6022 C777.1871,175.6022 766.5241,186.2652 766.5241,199.3712 C766.5241,212.4762 777.1871,223.1392 790.2931,223.1392 C803.3981,223.1392 814.0621,212.4762 814.0621,199.3712 C814.0621,186.2652 803.3981,175.6022 790.2931,175.6022 M790.2931,225.6342 C775.8111,225.6342 764.0291,213.8522 764.0291,199.3712 C764.0291,184.8882 775.8111,173.1072 790.2931,173.1072 C804.7741,173.1072 816.5571,184.8882 816.5571,199.3712 C816.5571,213.8522 804.7741,225.6342 790.2931,225.6342" id="Fill-123" fill="#272425"></path>
            <polygon id="Fill-124" fill="#272425" points="765.277 200.619 815.309 200.619 815.309 198.124 765.277 198.124"></polygon>
            <polygon id="Fill-125" fill="#272425" points="789.045 224.386 791.54 224.386 791.54 174.354 789.045 174.354"></polygon>
            <polygon id="Fill-126" fill="#D5EDFA" points="771.1017 195.3883 769.3377 193.6243 785.1227 177.8403 786.8857 179.6043"></polygon>
            <polygon id="Fill-127" fill="#D5EDFA" points="780.5441 194.6832 778.7801 192.9192 785.1221 186.5782 786.8861 188.3412"></polygon>
            <polygon id="Fill-128" fill="#D5EDFA" points="795.5157 219.8024 793.7517 218.0384 809.5367 202.2544 811.2997 204.0194"></polygon>
            <polygon id="Fill-129" fill="#D5EDFA" points="795.5157 211.0651 793.7517 209.3011 800.0937 202.9601 801.8577 204.7231"></polygon>
            <polygon id="Fill-130" fill="#D5EDFA" points="289.7126 362.1022 287.9486 360.3382 301.9196 346.3682 303.6836 348.1312"></polygon>
            <polygon id="Fill-131" fill="#D5EDFA" points="289.7126 354.3678 287.9486 352.6038 293.5616 346.9908 295.3256 348.7548"></polygon>
            <polygon id="Fill-132" fill="#D5EDFA" points="406.5089 200.4 404.7449 198.636 431.6889 171.692 433.4529 173.457"></polygon>
            <polygon id="Fill-133" fill="#D5EDFA" points="441.7394 181.3522 439.9754 179.5892 447.5684 171.9962 449.3324 173.7602"></polygon>
            <polygon id="Fill-134" fill="#D5EDFA" points="406.4259 210.1295 404.6619 208.3655 425.3679 187.6585 427.1329 189.4235"></polygon>
            <polygon id="Fill-135" fill="#D5EDFA" points="441.7394 191.7067 439.9754 189.9417 451.7394 178.1787 453.5034 179.9417"></polygon>
            <polygon id="Fill-136" fill="#D5EDFA" points="407.7565 218.778 405.9925 217.014 421.3765 201.63 423.1405 203.394"></polygon>
            <polygon id="Fill-137" fill="#272425" points="258.2697 339.0914 218.1037 339.0914 218.1037 406.8714 211.8677 406.8714 211.8677 334.9004 258.2697 334.9004"></polygon>
            <polygon id="Fill-138" fill="#D25A30" points="765.368 406.871 811.771 406.871 811.771 352.763 765.368 352.763"></polygon>
            <path d="M766.615,405.625 L810.522,405.625 L810.522,354.011 L766.615,354.011 L766.615,405.625 Z M764.121,408.12 L813.018,408.12 L813.018,351.516 L764.121,351.516 L764.121,408.12 Z" id="Fill-139" fill="#272425"></path>
            <path d="M804.213,379.817 C804.213,382.108 802.357,383.964 800.066,383.964 C797.776,383.964 795.919,382.108 795.919,379.817 C795.919,377.527 797.776,375.671 800.066,375.671 C802.357,375.671 804.213,377.527 804.213,379.817" id="Fill-140" fill="#272425"></path>
            <polygon id="Fill-141" fill="#272425" points="811.7706 355.9137 771.6046 355.9137 771.6046 406.8717 765.3676 406.8717 765.3676 352.7637 811.7706 352.7637"></polygon>
            <polygon id="Fill-142" fill="#272425" points="325.137 272.408 451.364 272.408 451.364 269.913 325.137 269.913"></polygon>
            <polygon id="Fill-143" fill="#272425" points="463.09 272.408 483.547 272.408 483.547 269.913 463.09 269.913"></polygon>
            <polygon id="Fill-144" fill="#272425" points="552.402 272.408 559.887 272.408 559.887 269.913 552.402 269.913"></polygon>
            <polygon id="Fill-145" fill="#272425" points="331.483 277.197 409.951 277.197 409.951 274.702 331.483 274.702"></polygon>
            <polygon id="Fill-146" fill="#272425" points="423.134 277.197 471.572 277.197 471.572 274.702 423.134 274.702"></polygon>
            <polygon id="Fill-147" fill="#272425" points="367.459 239.764 459.87 239.764 459.87 237.269 367.459 237.269"></polygon>
            <polygon id="Fill-148" fill="#272425" points="476.102 239.764 497.29 239.764 497.29 237.269 476.102 237.269"></polygon>
            <polygon id="Fill-149" fill="#272425" points="501.011 277.197 514.482 277.197 514.482 274.702 501.011 274.702"></polygon>
            <polygon id="Fill-150" fill="#272425" points="178.182 277.197 196.595 277.197 196.595 274.702 178.182 274.702"></polygon>
            <polygon id="Fill-151" fill="#272425" points="178.9494 297.6188 177.4154 295.6508 262.2964 229.4808 263.8304 231.4488"></polygon>
            <polygon id="Fill-152" fill="#272425" points="203.6232 284.486 202.0892 282.518 249.4442 245.602 250.9772 247.57"></polygon>
            <polygon id="Fill-153" fill="#272425" points="350.5651 298.7877 303.2111 261.8717 304.7441 259.9037 352.0991 296.8197"></polygon>
            <polygon id="Fill-154" fill="#42BEB7" points="1063.9122 406.8717 912.2302 406.8717 912.2302 291.8227 986.5742 233.6127 1063.9122 291.8227"></polygon>
            <path d="M913.4786,405.6246 L1062.6656,405.6246 L1062.6656,292.4446 L986.5896,235.1856 L913.4786,292.4306 L913.4786,405.6246 Z M1065.1606,408.1196 L910.9836,408.1196 L910.9836,291.2156 L986.5596,232.0396 L1065.1606,291.1996 L1065.1606,408.1196 Z" id="Fill-155" fill="#272425"></path>
            <polygon id="Fill-156" fill="#272425" points="1063.9122 302.7135 984.8822 251.4205 912.2302 310.2975 912.2302 291.8225 984.8822 234.9385 1063.9122 291.8225"></polygon>
            <polygon id="Fill-157" fill="#E5E5E6" points="1072.3888 309.112 984.8818 243.058 900.8738 309.024 891.6288 297.252 984.7008 224.168 1081.4068 297.165"></polygon>
            <path d="M984.8673,241.484 L1072.1443,307.364 L1079.6603,297.409 L984.7173,225.742 L893.3813,297.463 L901.0853,307.273 L984.8673,241.484 Z M1072.6323,310.858 L984.8973,244.632 L900.6633,310.776 L889.8783,297.041 L984.6863,222.593 L1083.1533,296.921 L1072.6323,310.858 Z" id="Fill-158" fill="#272425"></path>
            <polygon id="Fill-159" fill="#D25A30" points="933.686 406.872 980.088 406.872 980.088 334.9 933.686 334.9"></polygon>
            <path d="M934.934,405.625 L978.841,405.625 L978.841,336.148 L934.934,336.148 L934.934,405.625 Z M932.439,408.12 L981.336,408.12 L981.336,333.653 L932.439,333.653 L932.439,408.12 Z" id="Fill-160" fill="#272425"></path>
            <path d="M1013.2394,293.3024 C1013.2394,308.9634 1000.5434,321.6594 984.8824,321.6594 C969.2204,321.6594 956.5244,308.9634 956.5244,293.3024 C956.5244,277.6414 969.2204,264.9454 984.8824,264.9454 C1000.5434,264.9454 1013.2394,277.6414 1013.2394,293.3024" id="Fill-161" fill="#FFFFFF"></path>
            <path d="M984.882,266.192 C969.934,266.192 957.773,278.353 957.773,293.302 C957.773,308.251 969.934,320.412 984.882,320.412 C999.831,320.412 1011.992,308.251 1011.992,293.302 C1011.992,278.353 999.831,266.192 984.882,266.192 M984.882,322.907 C968.558,322.907 955.278,309.626 955.278,293.302 C955.278,276.978 968.558,263.697 984.882,263.697 C1001.206,263.697 1014.487,276.978 1014.487,293.302 C1014.487,309.626 1001.206,322.907 984.882,322.907" id="Fill-162" fill="#272425"></path>
            <path d="M1007.0236,293.3024 C1007.0236,305.5314 997.1106,315.4444 984.8816,315.4444 C972.6536,315.4444 962.7406,305.5314 962.7406,293.3024 C962.7406,281.0734 972.6536,271.1594 984.8816,271.1594 C997.1106,271.1594 1007.0236,281.0734 1007.0236,293.3024" id="Fill-163" fill="#97CAEA"></path>
            <path d="M984.882,272.4079 C973.361,272.4079 963.987,281.7809 963.987,293.3029 C963.987,304.8229 973.361,314.1959 984.882,314.1959 C996.403,314.1959 1005.777,304.8229 1005.777,293.3029 C1005.777,281.7809 996.403,272.4079 984.882,272.4079 M984.882,316.6909 C971.986,316.6909 961.492,306.1989 961.492,293.3029 C961.492,280.4049 971.986,269.9129 984.882,269.9129 C997.779,269.9129 1008.272,280.4049 1008.272,293.3029 C1008.272,306.1989 997.779,316.6909 984.882,316.6909" id="Fill-164" fill="#272425"></path>
            <polygon id="Fill-165" fill="#272425" points="962.741 294.549 1007.025 294.549 1007.025 292.054 962.741 292.054"></polygon>
            <polygon id="Fill-166" fill="#272425" points="983.635 315.444 986.13 315.444 986.13 271.16 983.635 271.16"></polygon>
            <polygon id="Fill-167" fill="#E5E5E6" points="998.051 383.298 1046.449 383.298 1046.449 334.9 998.051 334.9"></polygon>
            <path d="M999.298,382.051 L1045.201,382.051 L1045.201,336.148 L999.298,336.148 L999.298,382.051 Z M996.802,384.547 L1047.696,384.547 L1047.696,333.653 L996.802,333.653 L996.802,384.547 Z" id="Fill-168" fill="#272425"></path>
            <polygon id="Fill-169" fill="#97CAEA" points="1005.535 375.814 1038.965 375.814 1038.965 342.384 1005.535 342.384"></polygon>
            <path d="M1006.782,374.567 L1037.717,374.567 L1037.717,343.632 L1006.782,343.632 L1006.782,374.567 Z M1004.287,377.062 L1040.212,377.062 L1040.212,341.137 L1004.287,341.137 L1004.287,377.062 Z" id="Fill-170" fill="#272425"></path>
            <path d="M972.5304,367.987 C972.5304,370.277 970.6744,372.133 968.3844,372.133 C966.0934,372.133 964.2364,370.277 964.2364,367.987 C964.2364,365.696 966.0934,363.84 968.3844,363.84 C970.6744,363.84 972.5304,365.696 972.5304,367.987" id="Fill-171" fill="#272425"></path>
            <polygon id="Fill-172" fill="#D5EDFA" points="967.9972 289.8786 966.2332 288.1146 980.2042 274.1446 981.9682 275.9076"></polygon>
            <polygon id="Fill-173" fill="#D5EDFA" points="976.3546 289.2545 974.5906 287.4905 980.2046 281.8775 981.9676 283.6415"></polygon>
            <polygon id="Fill-174" fill="#D5EDFA" points="989.6066 311.4879 987.8426 309.7239 1001.8136 295.7539 1003.5776 297.5169"></polygon>
            <polygon id="Fill-175" fill="#D5EDFA" points="989.6066 303.7536 987.8426 301.9896 993.4566 296.3766 995.2196 298.1406"></polygon>
            <polygon id="Fill-176" fill="#D5EDFA" points="1011.5314 362.1022 1009.7674 360.3382 1023.7384 346.3682 1025.5024 348.1312"></polygon>
            <polygon id="Fill-177" fill="#D5EDFA" points="1011.5314 354.3678 1009.7674 352.6038 1015.3814 346.9908 1017.1444 348.7548"></polygon>
            <polygon id="Fill-178" fill="#272425" points="980.088 339.0914 939.923 339.0914 939.923 406.8714 933.686 406.8714 933.686 334.9004 980.088 334.9004"></polygon>
            <polygon id="Fill-179" fill="#272425" points="900.7677 297.6188 899.2337 295.6508 984.1157 229.4808 985.6497 231.4488"></polygon>
            <polygon id="Fill-180" fill="#272425" points="925.4425 284.486 923.9085 282.518 971.2625 245.602 972.7965 247.57"></polygon>
            <polygon id="Fill-181" fill="#272425" points="1072.3829 298.7877 1025.0289 261.8717 1026.5639 259.9037 1073.9169 296.8197"></polygon>
            <polygon id="Fill-182" fill="#272425" points="374.276 233.613 376.771 233.613 376.771 199.518 374.276 199.518"></polygon>
            <polygon id="Fill-183" fill="#272425" points="379.016 233.613 381.511 233.613 381.511 216.565 379.016 216.565"></polygon>
            <polygon id="Fill-184" fill="#272425" points="379.016 209.248 381.511 209.248 381.511 205.174 379.016 205.174"></polygon>
            <polygon id="Fill-185" fill="#627790" points="320.0148 169.4879 226.5338 179.0609 190.4118 266.6389 175.4738 266.6389 215.3598 169.4879"></polygon>
            <polygon id="Fill-186" fill="#272425" points="476.102 336.397 507.746 336.397 507.746 333.903 476.102 333.903"></polygon>
            <polygon id="Fill-187" fill="#272425" points="514.4816 312.4479 370.5346 312.4479 370.5346 406.8719 393.4856 406.8719 393.4856 336.3969 442.5076 336.3969 442.5076 333.9029 398.8636 333.9029"></polygon>
            <polygon id="Fill-188" fill="#272425" points="412.311 350.368 472.704 350.368 472.704 347.874 412.311 347.874"></polygon>
            <polygon id="Fill-189" fill="#272425" points="447.353 363.541 507.746 363.541 507.746 361.046 447.353 361.046"></polygon>
            <polygon id="Fill-190" fill="#272425" points="402.467 363.541 440.148 363.541 440.148 361.046 402.467 361.046"></polygon>
            <polygon id="Fill-191" fill="#272425" points="402.467 377.062 416.188 377.062 416.188 374.567 402.467 374.567"></polygon>
            <polygon id="Fill-192" fill="#272425" points="423.135 391.232 467.83 391.232 467.83 388.737 423.135 388.737"></polygon>
            <polygon id="Fill-193" fill="#288D87" points="592.154 406.872 650.947 406.872 650.947 127.2 592.154 127.2"></polygon>
            <polygon id="Fill-194" fill="#FFFFFF" points="608.129 150.05 661.776 150.05 661.776 140.993 608.129 140.993"></polygon>
            <path d="M609.376,148.802 L660.527,148.802 L660.527,142.24 L609.376,142.24 L609.376,148.802 Z M606.882,151.297 L663.023,151.297 L663.023,139.746 L606.882,139.746 L606.882,151.297 Z" id="Fill-195" fill="#272425"></path>
            <polygon id="Fill-196" fill="#272425" points="673.286 153.359 726.932 153.359 726.932 144.302 673.286 144.302"></polygon>
            <polygon id="Fill-197" fill="#272425" points="673.286 173.563 726.932 173.563 726.932 164.506 673.286 164.506"></polygon>
            <polygon id="Fill-198" fill="#272425" points="673.286 193.768 726.932 193.768 726.932 184.71 673.286 184.71"></polygon>
            <polygon id="Fill-199" fill="#272425" points="673.286 213.972 726.932 213.972 726.932 204.915 673.286 204.915"></polygon>
            <polygon id="Fill-200" fill="#272425" points="673.286 234.177 726.932 234.177 726.932 225.119 673.286 225.119"></polygon>
            <polygon id="Fill-201" fill="#272425" points="673.286 254.381 726.932 254.381 726.932 245.324 673.286 245.324"></polygon>
            <polygon id="Fill-202" fill="#272425" points="673.286 274.587 726.932 274.587 726.932 265.529 673.286 265.529"></polygon>
            <polygon id="Fill-203" fill="#272425" points="673.286 294.791 726.932 294.791 726.932 285.733 673.286 285.733"></polygon>
            <polygon id="Fill-204" fill="#272425" points="673.286 314.996 726.932 314.996 726.932 305.938 673.286 305.938"></polygon>
            <polygon id="Fill-205" fill="#272425" points="673.286 335.2 726.932 335.2 726.932 326.142 673.286 326.142"></polygon>
            <polygon id="Fill-206" fill="#FFFFFF" points="677.363 150.05 731.009 150.05 731.009 140.993 677.363 140.993"></polygon>
            <path d="M678.61,148.802 L729.761,148.802 L729.761,142.24 L678.61,142.24 L678.61,148.802 Z M676.115,151.297 L732.257,151.297 L732.257,139.746 L676.115,139.746 L676.115,151.297 Z" id="Fill-207" fill="#272425"></path>
            <polygon id="Fill-208" fill="#FFFFFF" points="608.129 170.255 661.776 170.255 661.776 161.197 608.129 161.197"></polygon>
            <path d="M609.376,169.006 L660.527,169.006 L660.527,162.444 L609.376,162.444 L609.376,169.006 Z M606.882,171.503 L663.023,171.503 L663.023,159.949 L606.882,159.949 L606.882,171.503 Z" id="Fill-209" fill="#272425"></path>
            <polygon id="Fill-210" fill="#FFFFFF" points="677.363 170.255 731.009 170.255 731.009 161.197 677.363 161.197"></polygon>
            <path d="M678.61,169.006 L729.761,169.006 L729.761,162.444 L678.61,162.444 L678.61,169.006 Z M676.115,171.503 L732.257,171.503 L732.257,159.949 L676.115,159.949 L676.115,171.503 Z" id="Fill-211" fill="#272425"></path>
            <polygon id="Fill-212" fill="#FFFFFF" points="608.129 190.459 661.776 190.459 661.776 181.402 608.129 181.402"></polygon>
            <path d="M609.376,189.211 L660.527,189.211 L660.527,182.649 L609.376,182.649 L609.376,189.211 Z M606.882,191.707 L663.023,191.707 L663.023,180.154 L606.882,180.154 L606.882,191.707 Z" id="Fill-213" fill="#272425"></path>
            <polygon id="Fill-214" fill="#FFFFFF" points="677.363 190.459 731.009 190.459 731.009 181.402 677.363 181.402"></polygon>
            <path d="M678.61,189.211 L729.761,189.211 L729.761,182.649 L678.61,182.649 L678.61,189.211 Z M676.115,191.707 L732.257,191.707 L732.257,180.154 L676.115,180.154 L676.115,191.707 Z" id="Fill-215" fill="#272425"></path>
            <polygon id="Fill-216" fill="#FFFFFF" points="608.129 210.664 661.776 210.664 661.776 201.606 608.129 201.606"></polygon>
            <path d="M609.376,209.416 L660.527,209.416 L660.527,202.854 L609.376,202.854 L609.376,209.416 Z M606.882,211.911 L663.023,211.911 L663.023,200.358 L606.882,200.358 L606.882,211.911 Z" id="Fill-217" fill="#272425"></path>
            <polygon id="Fill-218" fill="#FFFFFF" points="677.363 210.664 731.009 210.664 731.009 201.606 677.363 201.606"></polygon>
            <path d="M678.61,209.416 L729.761,209.416 L729.761,202.854 L678.61,202.854 L678.61,209.416 Z M676.115,211.911 L732.257,211.911 L732.257,200.358 L676.115,200.358 L676.115,211.911 Z" id="Fill-219" fill="#272425"></path>
            <polygon id="Fill-220" fill="#FFFFFF" points="608.129 230.868 661.776 230.868 661.776 221.81 608.129 221.81"></polygon>
            <path d="M609.376,229.62 L660.527,229.62 L660.527,223.058 L609.376,223.058 L609.376,229.62 Z M606.882,232.115 L663.023,232.115 L663.023,220.563 L606.882,220.563 L606.882,232.115 Z" id="Fill-221" fill="#272425"></path>
            <polygon id="Fill-222" fill="#FFFFFF" points="677.363 230.868 731.009 230.868 731.009 221.81 677.363 221.81"></polygon>
            <path d="M678.61,229.62 L729.761,229.62 L729.761,223.058 L678.61,223.058 L678.61,229.62 Z M676.115,232.115 L732.257,232.115 L732.257,220.563 L676.115,220.563 L676.115,232.115 Z" id="Fill-223" fill="#272425"></path>
            <polygon id="Fill-224" fill="#FFFFFF" points="608.129 251.073 661.776 251.073 661.776 242.015 608.129 242.015"></polygon>
            <path d="M609.376,249.825 L660.527,249.825 L660.527,243.263 L609.376,243.263 L609.376,249.825 Z M606.882,252.32 L663.023,252.32 L663.023,240.767 L606.882,240.767 L606.882,252.32 Z" id="Fill-225" fill="#272425"></path>
            <polygon id="Fill-226" fill="#FFFFFF" points="677.363 251.073 731.009 251.073 731.009 242.015 677.363 242.015"></polygon>
            <path d="M678.61,249.825 L729.761,249.825 L729.761,243.263 L678.61,243.263 L678.61,249.825 Z M676.115,252.32 L732.257,252.32 L732.257,240.767 L676.115,240.767 L676.115,252.32 Z" id="Fill-227" fill="#272425"></path>
            <polygon id="Fill-228" fill="#FFFFFF" points="608.129 271.277 661.776 271.277 661.776 262.219 608.129 262.219"></polygon>
            <path d="M609.376,270.029 L660.527,270.029 L660.527,263.467 L609.376,263.467 L609.376,270.029 Z M606.882,272.524 L663.023,272.524 L663.023,260.972 L606.882,260.972 L606.882,272.524 Z" id="Fill-229" fill="#272425"></path>
            <polygon id="Fill-230" fill="#FFFFFF" points="677.363 271.277 731.009 271.277 731.009 262.219 677.363 262.219"></polygon>
            <path d="M678.61,270.029 L729.761,270.029 L729.761,263.467 L678.61,263.467 L678.61,270.029 Z M676.115,272.524 L732.257,272.524 L732.257,260.972 L676.115,260.972 L676.115,272.524 Z" id="Fill-231" fill="#272425"></path>
            <polygon id="Fill-232" fill="#FFFFFF" points="608.129 291.481 661.776 291.481 661.776 282.424 608.129 282.424"></polygon>
            <path d="M609.376,290.234 L660.527,290.234 L660.527,283.672 L609.376,283.672 L609.376,290.234 Z M606.882,292.729 L663.023,292.729 L663.023,281.176 L606.882,281.176 L606.882,292.729 Z" id="Fill-233" fill="#272425"></path>
            <polygon id="Fill-234" fill="#FFFFFF" points="677.363 291.481 731.009 291.481 731.009 282.424 677.363 282.424"></polygon>
            <path d="M678.61,290.234 L729.761,290.234 L729.761,283.672 L678.61,283.672 L678.61,290.234 Z M676.115,292.729 L732.257,292.729 L732.257,281.176 L676.115,281.176 L676.115,292.729 Z" id="Fill-235" fill="#272425"></path>
            <polygon id="Fill-236" fill="#FFFFFF" points="608.129 311.686 661.776 311.686 661.776 302.628 608.129 302.628"></polygon>
            <path d="M609.376,310.438 L660.527,310.438 L660.527,303.876 L609.376,303.876 L609.376,310.438 Z M606.882,312.933 L663.023,312.933 L663.023,301.381 L606.882,301.381 L606.882,312.933 Z" id="Fill-237" fill="#272425"></path>
            <polygon id="Fill-238" fill="#FFFFFF" points="677.363 311.686 731.009 311.686 731.009 302.628 677.363 302.628"></polygon>
            <path d="M678.61,310.438 L729.761,310.438 L729.761,303.876 L678.61,303.876 L678.61,310.438 Z M676.115,312.933 L732.257,312.933 L732.257,301.381 L676.115,301.381 L676.115,312.933 Z" id="Fill-239" fill="#272425"></path>
            <polygon id="Fill-240" fill="#FFFFFF" points="608.129 331.89 661.776 331.89 661.776 322.833 608.129 322.833"></polygon>
            <path d="M609.376,330.643 L660.527,330.643 L660.527,324.081 L609.376,324.081 L609.376,330.643 Z M606.882,333.138 L663.023,333.138 L663.023,321.585 L606.882,321.585 L606.882,333.138 Z" id="Fill-241" fill="#272425"></path>
            <polygon id="Fill-242" fill="#FFFFFF" points="677.363 331.89 731.009 331.89 731.009 322.833 677.363 322.833"></polygon>
            <path d="M678.61,330.643 L729.761,330.643 L729.761,324.081 L678.61,324.081 L678.61,330.643 Z M676.115,333.138 L732.257,333.138 L732.257,321.585 L676.115,321.585 L676.115,333.138 Z" id="Fill-243" fill="#272425"></path>
            <polygon id="Fill-244" fill="#D25A30" points="635.185 406.871 704.418 406.871 704.418 346.389 635.185 346.389"></polygon>
            <polygon id="Fill-245" fill="#272425" points="668.554 406.872 671.049 406.872 671.049 346.39 668.554 346.39"></polygon>
            <polygon id="Fill-246" fill="#FFFFFF" points="704.4181 346.3893 635.1851 346.3893 635.1851 406.8713 642.0931 406.8713 642.0931 362.4683 678.0061 398.3813 680.7161 395.6713 642.0931 357.0493 642.0931 352.1213 672.8431 382.8713 675.5531 380.1623 647.1371 351.7463 704.1001 351.7463"></polygon>
            <path d="M636.432,405.625 L703.171,405.625 L703.171,347.638 L636.432,347.638 L636.432,405.625 Z M633.937,408.12 L705.666,408.12 L705.666,345.142 L633.937,345.142 L633.937,408.12 Z" id="Fill-247" fill="#272425"></path>
            <path d="M741.464,84.361 C741.464,43.669 709.216,10.375 669.802,10.375 C630.388,10.375 598.139,43.669 598.139,84.361 L598.139,127.967 L741.464,127.967 L741.464,84.361 Z" id="Fill-248" fill="#42BEB7"></path>
            <path d="M599.3868,126.7204 L740.2158,126.7204 L740.2158,84.3614 C740.2158,65.0064 732.8658,46.7574 719.5168,32.9764 C706.1788,19.2054 688.5238,11.6224 669.8018,11.6224 C651.0798,11.6224 633.4238,19.2054 620.0858,32.9764 C606.7378,46.7574 599.3868,65.0064 599.3868,84.3614 L599.3868,126.7204 Z M742.7108,129.2154 L596.8918,129.2154 L596.8918,84.3614 C596.8918,64.3544 604.4928,45.4894 618.2938,31.2404 C632.1058,16.9804 650.3988,9.1274 669.8018,9.1274 C689.2048,9.1274 707.4968,16.9804 721.3088,31.2404 C735.1108,45.4894 742.7108,64.3544 742.7108,84.3614 L742.7108,129.2154 Z" id="Fill-249" fill="#272425"></path>
            <path d="M617.9098,83.9762 C617.9098,49.2682 638.4288,28.3042 679.0328,20.8712 C680.7428,20.5582 683.3268,18.2882 685.0298,18.4372 C678.0088,15.5172 669.5198,16.5682 661.5168,16.5682 C627.8998,16.5682 600.3938,44.9652 600.3938,79.6732 L600.3938,116.8662 L617.9098,116.8662 L617.9098,83.9762 Z" id="Fill-250" fill="#272425"></path>
            <path d="M750.5909,127.9674 L732.3359,127.9674 L732.3359,84.3614 C732.3359,67.0634 725.7739,50.7614 713.8569,38.4584 C702.0169,26.2344 686.3699,19.5024 669.8019,19.5024 C653.2329,19.5024 637.5869,26.2344 625.7459,38.4584 C613.8299,50.7614 607.2669,67.0634 607.2669,84.3614 L607.2669,127.9674 L589.0119,127.9674 L589.0119,84.3614 C589.0119,62.2974 597.4009,41.4844 612.6339,25.7584 C620.0559,18.0954 628.6949,12.0714 638.3099,7.8534 C648.3049,3.4694 658.9009,1.2474 669.8019,1.2474 C680.7029,1.2474 691.2979,3.4694 701.2929,7.8534 C710.9079,12.0714 719.5469,18.0954 726.9689,25.7584 C742.2019,41.4844 750.5909,62.2974 750.5909,84.3614 L750.5909,127.9674 Z" id="Fill-251" fill="#E5E5E6"></path>
            <path d="M733.5831,126.7204 L749.3441,126.7204 L749.3441,84.3614 C749.3441,62.6224 741.0791,42.1184 726.0731,26.6254 C718.7651,19.0804 710.2591,13.1484 700.7921,8.9964 C690.9561,4.6814 680.5291,2.4944 669.8011,2.4944 C659.0731,2.4944 648.6461,4.6814 638.8111,8.9964 C629.3451,13.1484 620.8391,19.0794 613.5301,26.6254 C598.5231,42.1184 590.2591,62.6224 590.2591,84.3614 L590.2591,126.7204 L606.0201,126.7204 L606.0201,84.3614 C606.0201,66.7384 612.7081,50.1274 624.8511,37.5904 C636.9281,25.1214 652.8911,18.2554 669.8011,18.2554 C686.7111,18.2554 702.6751,25.1214 714.7531,37.5904 C726.8961,50.1274 733.5831,66.7384 733.5831,84.3614 L733.5831,126.7204 Z M751.8391,129.2154 L731.0881,129.2154 L731.0881,84.3614 C731.0881,67.3894 724.6501,51.3954 712.9611,39.3264 C701.3571,27.3464 686.0291,20.7494 669.8011,20.7494 C653.5721,20.7494 638.2451,27.3464 626.6431,39.3264 C614.9521,51.3954 608.5141,67.3894 608.5141,84.3614 L608.5141,129.2154 L587.7651,129.2154 L587.7651,84.3614 C587.7651,61.9714 596.2781,40.8504 611.7381,24.8894 C619.2731,17.1104 628.0451,10.9944 637.8091,6.7114 C647.9631,2.2584 658.7271,-0.0006 669.8011,-0.0006 C680.8761,-0.0006 691.6401,2.2584 701.7941,6.7114 C711.5591,10.9944 720.3301,17.1104 727.8651,24.8894 C743.3241,40.8504 751.8391,61.9714 751.8391,84.3614 L751.8391,129.2154 Z" id="Fill-252" fill="#272425"></path>
            <polygon id="Fill-253" fill="#FFFFFF" points="579.602 131.619 760.001 131.619 760.001 115.798 579.602 115.798"></polygon>
            <path d="M580.85,130.371 L758.753,130.371 L758.753,117.044 L580.85,117.044 L580.85,130.371 Z M578.355,132.866 L761.248,132.866 L761.248,114.551 L578.355,114.551 L578.355,132.866 Z" id="Fill-254" fill="#272425"></path>
            <path d="M714.3322,77.8566 C714.3322,54.5886 694.2932,35.5516 669.8022,35.5516 C645.3102,35.5516 625.2712,54.5886 625.2712,77.8566 L625.2712,102.7906 L714.3322,102.7906 L714.3322,77.8566 Z" id="Fill-255" fill="#97CAEA"></path>
            <path d="M626.5187,101.5436 L713.0837,101.5436 L713.0837,77.8566 C713.0837,55.2176 693.6677,36.7986 669.8017,36.7986 C645.9347,36.7986 626.5187,55.2176 626.5187,77.8566 L626.5187,101.5436 Z M715.5797,104.0386 L624.0237,104.0386 L624.0237,77.8566 C624.0237,53.8416 644.5597,34.3046 669.8017,34.3046 C695.0427,34.3046 715.5797,53.8416 715.5797,77.8566 L715.5797,104.0386 Z" id="Fill-256" fill="#272425"></path>
            <polygon id="Fill-257" fill="#272425" points="668.554 102.791 671.049 102.791 671.049 35.552 668.554 35.552"></polygon>
            <polygon id="Fill-258" fill="#D5EDFA" points="632.6915 75.0988 630.9275 73.3348 663.7875 40.4758 665.5505 42.2398"></polygon>
            <polygon id="Fill-259" fill="#D5EDFA" points="675.6573 51.8698 673.8933 50.1058 683.1533 40.8458 684.9173 42.6098"></polygon>
            <polygon id="Fill-260" fill="#D5EDFA" points="632.59 86.9645 630.826 85.2005 656.079 59.9475 657.843 61.7115"></polygon>
            <polygon id="Fill-261" fill="#D5EDFA" points="675.6573 64.4962 673.8933 62.7322 688.2393 48.3862 690.0033 50.1502"></polygon>
            <polygon id="Fill-262" fill="#D5EDFA" points="634.213 97.5119 632.449 95.7479 651.211 76.9859 652.975 78.7499"></polygon>
            <polygon id="Fill-263" fill="#272425" points="585.262 126.4 697.962 126.4 697.962 123.905 585.262 123.905"></polygon>
            <polygon id="Fill-264" fill="#272425" points="189.658 272.408 203.532 272.408 203.532 269.913 189.658 269.913"></polygon>
            <polygon id="Fill-265" fill="#272425" points="717.758 126.4 743.598 126.4 743.598 123.905 717.758 123.905"></polygon>
            <polygon id="Fill-266" fill="#272425" points="593.849 115.798 596.344 115.798 596.344 74.217 593.849 74.217"></polygon>
            <polygon id="Fill-267" fill="#272425" points="599.63 115.798 602.125 115.798 602.125 95.007 599.63 95.007"></polygon>
            <polygon id="Fill-268" fill="#272425" points="599.63 86.083 602.125 86.083 602.125 81.113 599.63 81.113"></polygon>
            <polygon id="Fill-269" fill="#272425" points="170.537 417.123 402.467 417.123 402.467 414.628 170.537 414.628"></polygon>
            <polygon id="Fill-270" fill="#272425" points="436.778 417.123 477.549 417.123 477.549 414.628 436.778 414.628"></polygon>
            <polygon id="Fill-271" fill="#272425" points="563.962 417.123 656.961 417.123 656.961 414.628 563.962 414.628"></polygon>
            <polygon id="Fill-272" fill="#272425" points="681.948 417.123 689.121 417.123 689.121 414.628 681.948 414.628"></polygon>
            <polygon id="Fill-273" fill="#272425" points="767.779 417.123 1002.695 417.123 1002.695 414.628 767.779 414.628"></polygon>
            <polygon id="Fill-274" fill="#272425" points="1033.498 417.123 1081.407 417.123 1081.407 414.628 1033.498 414.628"></polygon>
            <polygon id="Fill-275" fill="#272425" points="151.354 428.35 175.475 428.35 175.475 425.855 151.354 425.855"></polygon>
            <polygon id="Fill-276" fill="#272425" points="207.736 428.35 263.064 428.35 263.064 425.855 207.736 425.855"></polygon>
            <polygon id="Fill-277" fill="#272425" points="457.164 428.35 507.746 428.35 507.746 425.855 457.164 425.855"></polygon>
            <polygon id="Fill-278" fill="#272425" points="741.464 428.35 752.838 428.35 752.838 425.855 741.464 425.855"></polygon>
            <polygon id="Fill-279" fill="#272425" points="776.043 428.35 917.745 428.35 917.745 425.855 776.043 425.855"></polygon>
            <polygon id="Fill-269-Copy" fill="#272425" points="0 408.495 1252.93 408.495 1252.93 406 0 406"></polygon>
            <polygon id="Fill-280" fill="#272425" points="1073.151 428.35 1104.853 428.35 1104.853 425.855 1073.151 425.855"></polygon>
            <polygon id="Fill-281" fill="#272425" points="170.684 406.399 173.179 406.399 173.179 367.119 170.684 367.119"></polygon>
            <path d="M201.9728,342.3942 C205.0988,339.9272 207.1088,336.1082 207.1088,331.8162 C207.1088,324.7292 201.6358,318.9252 194.6858,318.3892 C195.4598,316.2762 195.8818,313.9952 195.8818,311.6142 C195.8818,300.7292 187.0578,291.9052 176.1728,291.9052 C166.6638,291.9052 158.7288,298.6402 156.8748,307.6002 C153.9428,306.1492 150.6418,305.3322 147.1498,305.3322 C135.0248,305.3322 125.1958,315.1622 125.1958,327.2872 C125.1958,337.1722 131.7318,345.5322 140.7178,348.2822 C140.5748,348.9462 140.4978,349.6342 140.4978,350.3412 C140.4978,355.7412 144.8748,360.1182 150.2748,360.1182 C151.0308,360.1182 151.7648,360.0292 152.4718,359.8672 C156.1328,367.5692 163.9828,372.8942 173.0778,372.8942 C179.7948,372.8942 185.8318,369.9902 190.0058,365.3692 C191.1598,365.6982 192.3768,365.8782 193.6368,365.8782 C200.9388,365.8782 206.8588,359.9582 206.8588,352.6562 C206.8588,348.5142 204.9528,344.8192 201.9728,342.3942" id="Fill-282" fill="#9DC44D"></path>
            <path d="M183.1915,370.1579 C175.2185,370.1579 168.3365,365.4899 165.1275,358.7369 C164.5075,358.8799 163.8635,358.9579 163.2005,358.9579 C158.4675,358.9579 154.6295,355.1209 154.6295,350.3869 C154.6295,349.7669 154.6975,349.1639 154.8225,348.5819 C146.9445,346.1709 141.2155,338.8429 141.2155,330.1759 C141.2155,319.5469 149.8325,310.9289 160.4615,310.9289 C163.5235,310.9289 166.4175,311.6449 168.9865,312.9179 C170.6115,305.0619 177.5685,299.1579 185.9045,299.1579 C188.2005,299.1579 190.3895,299.6099 192.3935,300.4229 C188.8375,295.2779 182.9005,291.9049 176.1725,291.9049 C166.6635,291.9049 158.7285,298.6399 156.8745,307.5999 C153.9425,306.1489 150.6425,305.3329 147.1495,305.3329 C135.0245,305.3329 125.1955,315.1619 125.1955,327.2869 C125.1955,337.1729 131.7315,345.5319 140.7175,348.2819 C140.5745,348.9459 140.4985,349.6349 140.4985,350.3419 C140.4985,355.7409 144.8755,360.1179 150.2745,360.1179 C151.0305,360.1179 151.7655,360.0289 152.4715,359.8669 C156.1325,367.5689 163.9835,372.8939 173.0785,372.8939 C177.0125,372.8939 180.7125,371.8959 183.9425,370.1419 C183.6935,370.1509 183.4435,370.1579 183.1915,370.1579" id="Fill-283" fill="#272425"></path>
            <path d="M153.1686,358.4264 L153.5986,359.3304 C157.1546,366.8124 164.8006,371.6464 173.0786,371.6464 C179.1646,371.6464 184.9966,369.0534 189.0796,364.5324 L189.6006,363.9564 L190.3476,364.1694 C191.4206,364.4754 192.5266,364.6304 193.6366,364.6304 C200.2396,364.6304 205.6116,359.2584 205.6116,352.6554 C205.6116,349.0364 203.9986,345.6504 201.1856,343.3624 L199.9776,342.3794 L201.2006,341.4154 C204.1626,339.0774 205.8606,335.5794 205.8606,331.8164 C205.8606,325.4724 200.9106,320.1204 194.5906,319.6324 L192.9486,319.5064 L193.5146,317.9604 C194.2576,315.9314 194.6346,313.7954 194.6346,311.6134 C194.6346,301.4344 186.3526,293.1534 176.1736,293.1534 C167.4606,293.1534 159.8586,299.3344 158.0956,307.8534 L157.7686,309.4344 L156.3216,308.7184 C153.4546,307.2994 150.3686,306.5794 147.1496,306.5794 C135.7326,306.5794 126.4436,315.8684 126.4436,327.2864 C126.4436,336.4514 132.3266,344.4094 141.0826,347.0884 L142.1766,347.4234 L141.9376,348.5424 C141.8096,349.1364 141.7456,349.7414 141.7456,350.3414 C141.7456,355.0444 145.5716,358.8694 150.2746,358.8694 C150.9146,358.8694 151.5606,358.7964 152.1926,358.6514 L153.1686,358.4264 Z M173.0786,374.1414 C164.1636,374.1414 155.9056,369.1164 151.7756,361.2614 C151.2766,361.3304 150.7746,361.3644 150.2746,361.3644 C144.1956,361.3644 139.2506,356.4194 139.2506,350.3414 C139.2506,349.9394 139.2726,349.5344 139.3176,349.1314 C130.0806,345.8364 123.9486,337.1904 123.9486,327.2864 C123.9486,314.4924 134.3566,304.0844 147.1496,304.0844 C150.2356,304.0844 153.2136,304.6754 156.0226,305.8434 C158.5656,296.9574 166.8046,290.6574 176.1736,290.6574 C187.7286,290.6574 197.1286,300.0584 197.1286,311.6134 C197.1286,313.5694 196.8626,315.4914 196.3346,317.3494 C203.1886,318.6284 208.3556,324.7044 208.3556,331.8164 C208.3556,335.8564 206.7316,339.6424 203.8526,342.4094 C206.5716,345.1154 208.1066,348.7754 208.1066,352.6554 C208.1066,360.6344 201.6156,367.1254 193.6366,367.1254 C192.5526,367.1254 191.4716,367.0024 190.4136,366.7614 C185.8896,371.4604 179.6146,374.1414 173.0786,374.1414 Z" id="Fill-284" fill="#272425"></path>
            <path d="M186.9,354.5329 C182.134,351.8689 179.681,346.6669 180.285,341.5609 C177.588,341.8589 174.777,341.3499 172.23,339.9259 C165.727,336.2909 163.402,328.0709 167.038,321.5679 C167.458,320.8169 167.939,320.1229 168.472,319.4859 C166.288,320.6619 164.401,322.4519 163.102,324.7769 C159.466,331.2799 161.791,339.4989 168.294,343.1349 C170.841,344.5589 173.652,345.0689 176.348,344.7699 C175.745,349.8759 178.198,355.0779 182.964,357.7419 C188.57,360.8769 195.491,359.4469 199.441,354.6649 C195.643,356.6799 190.932,356.7879 186.9,354.5329" id="Fill-285" fill="#272425"></path>
            <polygon id="Fill-286" fill="#272425" points="578.678 406.399 581.173 406.399 581.173 375.109 578.678 375.109"></polygon>
            <path d="M603.8561,355.4137 C606.3461,353.4487 607.9471,350.4057 607.9471,346.9877 C607.9471,341.3427 603.5871,336.7187 598.0521,336.2917 C598.6681,334.6087 599.0041,332.7907 599.0041,330.8937 C599.0041,322.2247 591.9751,315.1947 583.3041,315.1947 C575.7301,315.1947 569.4081,320.5597 567.9311,327.6977 C565.5961,326.5417 562.9671,325.8917 560.1851,325.8917 C550.5261,325.8917 542.6971,333.7207 542.6971,343.3797 C542.6971,351.2547 547.9031,357.9137 555.0611,360.1037 C554.9471,360.6327 554.8861,361.1817 554.8861,361.7447 C554.8861,366.0457 558.3731,369.5317 562.6741,369.5317 C563.2761,369.5317 563.8611,369.4617 564.4241,369.3327 C567.3401,375.4677 573.5941,379.7097 580.8391,379.7097 C586.1891,379.7097 590.9991,377.3957 594.3231,373.7157 C595.2421,373.9767 596.2121,374.1207 597.2151,374.1207 C603.0321,374.1207 607.7481,369.4047 607.7481,363.5887 C607.7481,360.2887 606.2311,357.3457 603.8561,355.4137" id="Fill-287" fill="#9DC44D"></path>
            <path d="M588.8951,377.5299 C582.5441,377.5299 577.0621,373.8109 574.5051,368.4319 C574.0121,368.5459 573.4991,368.6079 572.9711,368.6079 C569.2001,368.6079 566.1441,365.5509 566.1441,361.7809 C566.1441,361.2869 566.1971,360.8059 566.2961,360.3429 C560.0211,358.4229 555.4571,352.5849 555.4571,345.6799 C555.4571,337.2139 562.3221,330.3489 570.7891,330.3489 C573.2281,330.3489 575.5331,330.9199 577.5801,331.9329 C578.8741,325.6759 584.4161,320.9719 591.0571,320.9719 C592.8851,320.9719 594.6291,321.3329 596.2261,321.9799 C593.3931,317.8819 588.6641,315.1949 583.3041,315.1949 C575.7291,315.1949 569.4081,320.5599 567.9311,327.6979 C565.5961,326.5419 562.9671,325.8909 560.1851,325.8909 C550.5261,325.8909 542.6971,333.7199 542.6971,343.3799 C542.6971,351.2549 547.9031,357.9139 555.0611,360.1039 C554.9471,360.6329 554.8861,361.1809 554.8861,361.7449 C554.8861,366.0459 558.3731,369.5319 562.6741,369.5319 C563.2761,369.5319 563.8611,369.4619 564.4241,369.3329 C567.3401,375.4669 573.5941,379.7099 580.8391,379.7099 C583.9731,379.7099 586.9201,378.9149 589.4941,377.5169 C589.2951,377.5249 589.0961,377.5299 588.8951,377.5299" id="Fill-288" fill="#272425"></path>
            <path d="M565.1212,367.8922 L565.5512,368.7962 C568.3412,374.6672 574.3422,378.4612 580.8392,378.4612 C585.6152,378.4612 590.1932,376.4272 593.3972,372.8792 L593.9182,372.3022 L594.6652,372.5152 C595.4962,372.7522 596.3542,372.8722 597.2152,372.8722 C602.3352,372.8722 606.5002,368.7072 606.5002,363.5872 C606.5002,360.7822 605.2492,358.1562 603.0692,356.3812 L601.8612,355.3992 L603.0832,354.4352 C605.3812,352.6212 606.6992,349.9072 606.6992,346.9872 C606.6992,342.0652 602.8582,337.9132 597.9552,337.5352 L596.3142,337.4092 L596.8802,335.8632 C597.4622,334.2742 597.7562,332.6032 597.7562,330.8942 C597.7562,322.9252 591.2732,316.4422 583.3042,316.4422 C576.4842,316.4422 570.5332,321.2822 569.1532,327.9502 L568.8262,329.5312 L567.3782,328.8152 C565.1292,327.7032 562.7092,327.1382 560.1852,327.1382 C551.2302,327.1382 543.9442,334.4242 543.9442,343.3792 C543.9442,350.5682 548.5592,356.8092 555.4262,358.9112 L556.5212,359.2462 L556.2802,360.3662 C556.1832,360.8192 556.1342,361.2832 556.1342,361.7452 C556.1342,365.3512 559.0682,368.2852 562.6742,368.2852 C563.1632,368.2852 563.6582,368.2282 564.1452,368.1162 L565.1212,367.8922 Z M580.8392,380.9562 C573.7042,380.9562 567.0882,376.9672 563.7272,370.7172 C563.3762,370.7582 563.0242,370.7802 562.6742,370.7802 C557.6922,370.7802 553.6392,366.7262 553.6392,361.7452 C553.6392,361.4802 553.6512,361.2162 553.6742,360.9532 C546.3182,358.2422 541.4502,351.3102 541.4502,343.3792 C541.4502,333.0482 549.8542,324.6432 560.1852,324.6432 C562.5812,324.6432 564.8972,325.0842 567.0892,325.9572 C569.2332,318.9142 575.8232,313.9472 583.3042,313.9472 C592.6492,313.9472 600.2512,321.5492 600.2512,330.8942 C600.2512,332.3822 600.0602,333.8482 599.6822,335.2672 C605.1252,336.4152 609.1942,341.2932 609.1942,346.9872 C609.1942,350.1882 607.9402,353.1942 605.7122,355.4292 C607.8142,357.6132 608.9952,360.5152 608.9952,363.5872 C608.9952,370.0832 603.7112,375.3682 597.2152,375.3682 C596.3802,375.3682 595.5482,375.2792 594.7312,375.1022 C591.0882,378.8322 586.0682,380.9562 580.8392,380.9562 Z" id="Fill-289" fill="#272425"></path>
            <path d="M591.8497,365.0836 C588.0527,362.9606 586.0987,358.8166 586.5797,354.7506 C584.4327,354.9876 582.1927,354.5826 580.1627,353.4476 C574.9827,350.5516 573.1317,344.0046 576.0277,338.8236 C576.3617,338.2266 576.7457,337.6726 577.1697,337.1656 C575.4297,338.1026 573.9277,339.5276 572.8917,341.3806 C569.9957,346.5606 571.8477,353.1076 577.0277,356.0036 C579.0577,357.1386 581.2967,357.5446 583.4437,357.3066 C582.9637,361.3736 584.9167,365.5176 588.7137,367.6396 C593.1807,370.1366 598.6927,368.9976 601.8387,365.1876 C598.8137,366.7946 595.0607,366.8796 591.8497,365.0836" id="Fill-290" fill="#272425"></path>
            <polygon id="Fill-291" fill="#272425" points="1104.091 406.399 1106.586 406.399 1106.586 378.339 1104.091 378.339"></polygon>
            <path d="M1083.879,360.6784 C1081.646,358.9154 1080.211,356.1874 1080.211,353.1204 C1080.211,348.0594 1084.12,343.9124 1089.084,343.5304 C1088.532,342.0204 1088.231,340.3904 1088.231,338.6904 C1088.231,330.9144 1094.533,324.6114 1102.309,324.6114 C1109.102,324.6114 1114.771,329.4224 1116.095,335.8234 C1118.189,334.7864 1120.547,334.2024 1123.041,334.2024 C1131.703,334.2024 1138.724,341.2244 1138.724,349.8854 C1138.724,356.9484 1134.056,362.9194 1127.637,364.8834 C1127.738,365.3584 1127.793,365.8504 1127.793,366.3554 C1127.793,370.2114 1124.666,373.3384 1120.81,373.3384 C1120.27,373.3384 1119.744,373.2754 1119.24,373.1584 C1116.625,378.6604 1111.017,382.4644 1104.52,382.4644 C1099.722,382.4644 1095.409,380.3904 1092.428,377.0894 C1091.604,377.3244 1090.734,377.4524 1089.834,377.4524 C1084.618,377.4524 1080.389,373.2244 1080.389,368.0074 C1080.389,365.0494 1081.75,362.4094 1083.879,360.6784" id="Fill-292" fill="#9DC44D"></path>
            <path d="M1097.295,380.5104 C1102.991,380.5104 1107.907,377.1754 1110.199,372.3524 C1110.643,372.4534 1111.103,372.5094 1111.576,372.5094 C1114.957,372.5094 1117.698,369.7684 1117.698,366.3874 C1117.698,365.9454 1117.65,365.5134 1117.561,365.0974 C1123.188,363.3754 1127.28,358.1404 1127.28,351.9484 C1127.28,344.3564 1121.125,338.2004 1113.532,338.2004 C1111.346,338.2004 1109.278,338.7124 1107.442,339.6204 C1106.281,334.0104 1101.313,329.7924 1095.358,329.7924 C1093.717,329.7924 1092.153,330.1144 1090.722,330.6964 C1093.262,327.0204 1097.503,324.6114 1102.309,324.6114 C1109.102,324.6114 1114.771,329.4224 1116.095,335.8224 C1118.189,334.7864 1120.547,334.2024 1123.041,334.2024 C1131.703,334.2024 1138.724,341.2244 1138.724,349.8854 C1138.724,356.9484 1134.056,362.9194 1127.637,364.8834 C1127.738,365.3584 1127.793,365.8504 1127.793,366.3554 C1127.793,370.2114 1124.666,373.3384 1120.81,373.3384 C1120.27,373.3384 1119.744,373.2754 1119.24,373.1584 C1116.625,378.6604 1111.017,382.4644 1104.52,382.4644 C1101.71,382.4644 1099.066,381.7524 1096.759,380.4984 C1096.937,380.5054 1097.115,380.5104 1097.295,380.5104" id="Fill-293" fill="#272425"></path>
            <path d="M1092.8322,375.6764 L1093.3532,376.2534 C1096.2032,379.4074 1100.2732,381.2174 1104.5202,381.2174 C1110.2962,381.2174 1115.6322,377.8444 1118.1132,372.6234 L1118.5432,371.7194 L1119.5192,371.9434 C1119.9452,372.0414 1120.3802,372.0904 1120.8102,372.0904 C1123.9732,372.0904 1126.5452,369.5184 1126.5452,366.3554 C1126.5452,365.9504 1126.5022,365.5424 1126.4172,365.1444 L1126.1782,364.0254 L1127.2712,363.6904 C1133.3752,361.8224 1137.4772,356.2754 1137.4772,349.8854 C1137.4772,341.9264 1131.0012,335.4504 1123.0412,335.4504 C1120.7972,335.4504 1118.6452,335.9514 1116.6482,336.9414 L1115.2002,337.6564 L1114.8732,336.0754 C1113.6482,330.1554 1108.3642,325.8584 1102.3092,325.8584 C1095.2332,325.8584 1089.4782,331.6144 1089.4782,338.6904 C1089.4782,340.2064 1089.7392,341.6904 1090.2562,343.1004 L1090.8212,344.6474 L1089.1812,344.7734 C1084.8502,345.1074 1081.4582,348.7744 1081.4582,353.1204 C1081.4582,355.6994 1082.6222,358.0974 1084.6522,359.6984 L1085.8742,360.6624 L1084.6662,361.6454 C1082.7402,363.2114 1081.6372,365.5304 1081.6372,368.0074 C1081.6372,372.5284 1085.3132,376.2054 1089.8342,376.2054 C1090.5942,376.2054 1091.3522,376.0994 1092.0862,375.8904 L1092.8322,375.6764 Z M1104.5202,383.7124 C1099.8202,383.7124 1095.3072,381.8124 1092.0202,378.4744 C1091.3002,378.6244 1090.5682,378.7004 1089.8342,378.7004 C1083.9372,378.7004 1079.1412,373.9044 1079.1412,368.0074 C1079.1412,365.2614 1080.1822,362.6644 1082.0362,360.6934 C1080.0682,358.6744 1078.9632,355.9844 1078.9632,353.1204 C1078.9632,348.0004 1082.5912,343.6064 1087.4642,342.5144 C1087.1452,341.2714 1086.9822,339.9894 1086.9822,338.6904 C1086.9822,330.2384 1093.8572,323.3634 1102.3092,323.3634 C1109.0272,323.3634 1114.9502,327.7924 1116.9332,334.0914 C1118.8742,333.3374 1120.9222,332.9554 1123.0412,332.9554 C1132.3772,332.9554 1139.9722,340.5504 1139.9722,349.8854 C1139.9722,357.0184 1135.6112,363.2574 1129.0172,365.7314 C1129.0322,365.9394 1129.0402,366.1474 1129.0402,366.3554 C1129.0402,370.8934 1125.3482,374.5854 1120.8102,374.5854 C1120.5192,374.5854 1120.2282,374.5704 1119.9362,374.5384 C1116.8882,380.1414 1110.9372,383.7124 1104.5202,383.7124 Z" id="Fill-294" fill="#272425"></path>
            <path d="M1094.6466,369.3493 C1098.0506,367.4453 1099.8026,363.7303 1099.3726,360.0823 C1101.2976,360.2953 1103.3056,359.9323 1105.1256,358.9143 C1109.7716,356.3173 1111.4316,350.4463 1108.8346,345.8003 C1108.5356,345.2643 1108.1906,344.7683 1107.8106,344.3133 C1109.3706,345.1533 1110.7176,346.4323 1111.6466,348.0923 C1114.2436,352.7383 1112.5836,358.6093 1107.9376,361.2063 C1106.1186,362.2243 1104.1096,362.5873 1102.1836,362.3743 C1102.6156,366.0223 1100.8626,369.7383 1097.4586,371.6413 C1093.4536,373.8803 1088.5096,372.8593 1085.6876,369.4433 C1088.4006,370.8833 1091.7656,370.9583 1094.6466,369.3493" id="Fill-295" fill="#272425"></path>
            <polygon id="Fill-296" fill="#272425" points="139.936 407.577 142.431 407.577 142.431 382.06 139.936 382.06"></polygon>
            <path d="M163.0621,358.7799 C162.6781,358.7799 162.2991,358.8049 161.9271,358.8489 C161.6181,355.9669 160.2121,353.4159 158.1381,351.6129 C160.4841,349.7739 161.9931,346.9159 161.9931,343.7039 C161.9931,338.1539 157.4951,333.6559 151.9451,333.6559 C146.4141,333.6559 141.9281,338.1259 141.8991,343.6499 C140.8381,343.0699 139.6221,342.7409 138.3281,342.7409 C137.2771,342.7409 136.2781,342.9589 135.3721,343.3499 C134.9251,338.6649 130.9801,334.9999 126.1781,334.9999 C121.0761,334.9999 116.9401,339.1349 116.9401,344.2369 C116.9401,345.2239 117.0971,346.1749 117.3831,347.0669 C117.2371,347.0569 117.0891,347.0509 116.9401,347.0509 C113.0021,347.0509 109.8101,350.2439 109.8101,354.1819 C109.8101,358.1209 113.0021,361.3129 116.9401,361.3129 C118.0401,361.3129 119.0801,361.0639 120.0101,360.6199 C120.1391,361.3539 120.3411,362.0639 120.6081,362.7409 C118.4481,363.6969 116.9401,365.8579 116.9401,368.3729 C116.9401,371.7739 119.6971,374.5309 123.0991,374.5309 C124.0371,374.5309 124.9261,374.3199 125.7221,373.9449 C125.7151,374.1389 125.7101,374.3349 125.7101,374.5309 C125.7101,383.4699 132.9581,390.7179 141.8971,390.7179 C150.2391,390.7179 157.1061,384.4079 157.9881,376.3009 C159.4561,377.2309 161.1951,377.7719 163.0621,377.7719 C168.3071,377.7719 172.5591,373.5209 172.5591,368.2759 C172.5591,363.0309 168.3071,358.7799 163.0621,358.7799" id="Fill-297" fill="#9DC44D"></path>
            <g id="Group-301" transform="translate(109.000000, 334.222000)" fill="#272425">
                <path d="M50.9039,15.2796 C50.9539,15.3226 51.0029,15.3696 51.0519,15.4146 C51.2009,15.2116 51.3399,15.0026 51.4729,14.7886 C51.2899,14.9596 51.1009,15.1246 50.9039,15.2796" id="Fill-298"></path>
                <path d="M55.2257,38.2337 C53.5877,38.2337 52.0607,37.7587 50.7727,36.9427 C50.5687,38.8197 49.9967,40.5847 49.1337,42.1687 C50.5707,43.0437 52.2567,43.5497 54.0617,43.5497 C59.3067,43.5497 63.5587,39.2987 63.5587,34.0537 C63.5587,33.3167 63.4717,32.6007 63.3127,31.9117 C62.4127,35.5427 59.1347,38.2337 55.2257,38.2337" id="Fill-299"></path>
                <path d="M36.653,49.5941 C28.808,49.5941 22.449,43.2351 22.449,35.3901 C22.449,35.2181 22.453,35.0461 22.459,34.8751 C21.76,35.2051 20.981,35.3901 20.157,35.3901 C17.172,35.3901 14.753,32.9701 14.753,29.9861 C14.753,27.7801 16.076,25.8831 17.971,25.0431 C17.737,24.4491 17.56,23.8271 17.447,23.1821 C16.631,23.5731 15.717,23.7901 14.753,23.7901 C11.297,23.7901 8.495,20.9901 8.495,17.5331 C8.495,14.0771 11.297,11.2771 14.753,11.2771 C14.883,11.2771 15.013,11.2811 15.142,11.2891 C14.89,10.5071 14.753,9.6731 14.753,8.8071 C14.753,5.3351 16.935,2.3751 20.002,1.2201 C19.111,0.9341 18.163,0.7781 17.178,0.7781 C12.076,0.7781 7.94,4.9131 7.94,10.0151 C7.94,11.0021 8.097,11.9521 8.383,12.8451 C8.237,12.8351 8.089,12.8291 7.94,12.8291 C4.002,12.8291 0.81,16.0221 0.81,19.9601 C0.81,23.8991 4.002,27.0911 7.94,27.0911 C9.04,27.0911 10.08,26.8421 11.01,26.3981 C11.139,27.1321 11.341,27.8421 11.608,28.5191 C9.448,29.4751 7.94,31.6361 7.94,34.1511 C7.94,37.5521 10.697,40.3091 14.099,40.3091 C15.037,40.3091 15.926,40.0981 16.722,39.7231 C16.716,39.9171 16.711,40.1131 16.711,40.3091 C16.711,49.2481 23.958,56.4961 32.898,56.4961 C41.083,56.4961 47.847,50.4201 48.931,42.5321 C46.47,46.7551 41.894,49.5941 36.653,49.5941" id="Fill-300"></path>
            </g>
            <path d="M127.0407,371.944 L126.9687,373.989 C126.9627,374.169 126.9577,374.349 126.9577,374.531 C126.9577,382.769 133.6597,389.47 141.8977,389.47 C149.5387,389.47 155.9227,383.751 156.7477,376.167 L156.9637,374.176 L158.6557,375.248 C159.9747,376.084 161.4987,376.525 163.0617,376.525 C167.6107,376.525 171.3117,372.825 171.3117,368.276 C171.3117,363.727 167.6107,360.027 163.0617,360.027 C162.7427,360.027 162.4197,360.048 162.0747,360.089 L160.8217,360.238 L160.6867,358.983 C160.4197,356.491 159.2237,354.209 157.3197,352.555 L156.1787,351.564 L157.3677,350.632 C159.5147,348.949 160.7457,346.423 160.7457,343.704 C160.7457,338.851 156.7977,334.903 151.9457,334.903 C147.1187,334.903 143.1717,338.83 143.1457,343.656 L143.1357,345.747 L141.3007,344.745 C139.6507,343.842 137.5917,343.749 135.8667,344.496 L134.2927,345.176 L134.1297,343.468 C133.7377,339.352 130.3187,336.248 126.1777,336.248 C121.7717,336.248 118.1877,339.832 118.1877,344.237 C118.1877,345.07 118.3167,345.893 118.5707,346.685 L119.1317,348.427 L117.3047,348.312 C117.1847,348.304 117.0627,348.299 116.9397,348.299 C113.6957,348.299 111.0567,350.938 111.0567,354.182 C111.0567,357.426 113.6957,360.065 116.9397,360.065 C117.8267,360.065 118.6787,359.874 119.4727,359.494 L120.9547,358.786 L121.2387,360.404 C121.3517,361.046 121.5297,361.677 121.7687,362.283 L122.2077,363.396 L121.1137,363.881 C119.3357,364.669 118.1877,366.431 118.1877,368.373 C118.1877,371.081 120.3907,373.284 123.0987,373.284 C123.8297,373.284 124.5327,373.127 125.1907,372.816 L127.0407,371.944 Z M141.8977,391.965 C132.6597,391.965 125.0767,384.742 124.4987,375.647 C124.0407,375.734 123.5737,375.779 123.0987,375.779 C119.0157,375.779 115.6927,372.457 115.6927,368.373 C115.6927,365.962 116.8677,363.733 118.7777,362.359 C118.1797,362.493 117.5657,362.56 116.9397,362.56 C112.3207,362.56 108.5617,358.801 108.5617,354.182 C108.5617,349.942 111.7287,346.427 115.8217,345.879 C115.7357,345.338 115.6927,344.789 115.6927,344.237 C115.6927,338.456 120.3957,333.753 126.1777,333.753 C131.0917,333.753 135.2297,337.084 136.3587,341.717 C137.8047,341.382 139.3647,341.426 140.8037,341.852 C141.6917,336.506 146.3597,332.408 151.9457,332.408 C158.1737,332.408 163.2407,337.475 163.2407,343.704 C163.2407,346.719 162.0617,349.548 159.9667,351.654 C161.4897,353.309 162.5297,355.335 162.9827,357.533 C163.0087,357.533 163.0357,357.532 163.0617,357.532 C168.9867,357.532 173.8057,362.352 173.8057,368.276 C173.8057,374.2 168.9867,379.02 163.0617,379.02 C161.6407,379.02 160.2437,378.739 158.9457,378.2 C157.2507,386.162 150.2117,391.965 141.8977,391.965 Z" id="Fill-302" fill="#272425"></path>
            <path d="M144.2062,371.6442 C142.2692,369.1842 142.1152,365.8912 143.5582,363.3212 C142.0642,362.8852 140.6882,361.9982 139.6532,360.6832 C137.0102,357.3282 137.5872,352.4642 140.9432,349.8212 C141.3302,349.5162 141.7382,349.2542 142.1602,349.0352 C140.7452,349.1762 139.3522,349.7092 138.1532,350.6542 C134.7972,353.2972 134.2202,358.1612 136.8632,361.5162 C137.8982,362.8312 139.2742,363.7182 140.7682,364.1542 C139.3252,366.7242 139.4792,370.0172 141.4162,372.4772 C143.6952,375.3702 147.6732,376.1352 150.8172,374.4732 C148.3632,374.7052 145.8452,373.7242 144.2062,371.6442" id="Fill-303" fill="#272425"></path>
            <polygon id="Fill-304" fill="#272425" points="866.352 407.577 868.847 407.577 868.847 385.633 866.352 385.633"></polygon>
            <path d="M886.4152,365.611 C886.0842,365.611 885.7592,365.632 885.4382,365.671 C885.1732,363.192 883.9642,360.997 882.1802,359.447 C884.1972,357.866 885.4952,355.408 885.4952,352.645 C885.4952,347.873 881.6262,344.004 876.8532,344.004 C872.0972,344.004 868.2392,347.847 868.2142,352.598 C867.3022,352.1 866.2552,351.816 865.1432,351.816 C864.2392,351.816 863.3802,352.005 862.6012,352.341 C862.2172,348.311 858.8232,345.16 854.6932,345.16 C850.3062,345.16 846.7492,348.716 846.7492,353.104 C846.7492,353.953 846.8842,354.77 847.1302,355.537 C847.0042,355.529 846.8772,355.524 846.7492,355.524 C843.3622,355.524 840.6162,358.27 840.6162,361.657 C840.6162,365.044 843.3622,367.79 846.7492,367.79 C847.6942,367.79 848.5902,367.575 849.3892,367.193 C849.5002,367.825 849.6742,368.435 849.9032,369.017 C848.0462,369.84 846.7492,371.698 846.7492,373.861 C846.7492,376.786 849.1202,379.157 852.0452,379.157 C852.8522,379.157 853.6172,378.975 854.3022,378.653 C854.2962,378.82 854.2922,378.988 854.2922,379.157 C854.2922,386.845 860.5242,393.078 868.2132,393.078 C875.3872,393.078 881.2922,387.651 882.0512,380.679 C883.3132,381.479 884.8102,381.944 886.4152,381.944 C890.9252,381.944 894.5822,378.288 894.5822,373.778 C894.5822,369.267 890.9252,365.611 886.4152,365.611" id="Fill-305" fill="#9DC44D"></path>
            <g id="Group-309" transform="translate(840.000000, 344.222000)" fill="#272425">
                <path d="M43.6984,13.4085 C43.7424,13.4465 43.7834,13.4865 43.8264,13.5245 C43.9534,13.3505 44.0734,13.1705 44.1874,12.9865 C44.0304,13.1335 43.8684,13.2755 43.6984,13.4085" id="Fill-306"></path>
                <path d="M47.4152,33.1507 C46.0062,33.1507 44.6932,32.7427 43.5852,32.0407 C43.4102,33.6537 42.9182,35.1717 42.1762,36.5337 C43.4122,37.2867 44.8622,37.7217 46.4152,37.7217 C50.9252,37.7217 54.5822,34.0657 54.5822,29.5557 C54.5822,28.9217 54.5072,28.3047 54.3702,27.7137 C53.5972,30.8357 50.7762,33.1507 47.4152,33.1507" id="Fill-307"></path>
                <path d="M31.4425,42.9202 C24.6965,42.9202 19.2265,37.4512 19.2265,30.7042 C19.2265,30.5562 19.2305,30.4082 19.2355,30.2622 C18.6345,30.5452 17.9635,30.7042 17.2545,30.7042 C14.6885,30.7042 12.6075,28.6232 12.6075,26.0572 C12.6075,24.1592 13.7465,22.5282 15.3765,21.8062 C15.1735,21.2952 15.0225,20.7602 14.9245,20.2052 C14.2225,20.5412 13.4375,20.7292 12.6075,20.7292 C9.6355,20.7292 7.2265,18.3192 7.2265,15.3482 C7.2265,12.3752 9.6355,9.9662 12.6075,9.9662 C12.7195,9.9662 12.8315,9.9712 12.9425,9.9782 C12.7255,9.3052 12.6075,8.5872 12.6075,7.8422 C12.6075,4.8572 14.4845,2.3122 17.1225,1.3172 C16.3565,1.0712 15.5415,0.9382 14.6935,0.9382 C10.3055,0.9382 6.7495,4.4942 6.7495,8.8822 C6.7495,9.7312 6.8835,10.5482 7.1305,11.3152 C7.0045,11.3072 6.8775,11.3022 6.7495,11.3022 C3.3625,11.3022 0.6165,14.0482 0.6165,17.4352 C0.6165,20.8212 3.3625,23.5672 6.7495,23.5672 C7.6945,23.5672 8.5895,23.3532 9.3885,22.9712 C9.5005,23.6032 9.6735,24.2132 9.9035,24.7952 C8.0465,25.6172 6.7495,27.4762 6.7495,29.6392 C6.7495,32.5642 9.1205,34.9352 12.0455,34.9352 C12.8525,34.9352 13.6175,34.7532 14.3015,34.4312 C14.2965,34.5982 14.2925,34.7662 14.2925,34.9352 C14.2925,42.6232 20.5245,48.8562 28.2135,48.8562 C35.2525,48.8562 41.0695,43.6302 42.0025,36.8472 C39.8845,40.4792 35.9495,42.9202 31.4425,42.9202" id="Fill-308"></path>
            </g>
            <path d="M855.6202,376.652 L855.5482,378.696 C855.5432,378.849 855.5392,379.003 855.5392,379.157 C855.5392,386.145 861.2242,391.831 868.2132,391.831 C874.6942,391.831 880.1102,386.978 880.8102,380.545 L881.0272,378.553 L882.7192,379.626 C883.8242,380.327 885.1022,380.697 886.4152,380.697 C890.2302,380.697 893.3342,377.592 893.3342,373.777 C893.3342,369.962 890.2302,366.858 886.4152,366.858 C886.1472,366.858 885.8772,366.875 885.5862,366.909 L884.3332,367.058 L884.1982,365.803 C883.9742,363.705 882.9662,361.782 881.3612,360.389 L880.2212,359.398 L881.4102,358.465 C883.2142,357.051 884.2482,354.93 884.2482,352.644 C884.2482,348.567 880.9312,345.251 876.8532,345.251 C872.7992,345.251 869.4822,348.549 869.4622,352.605 L869.4502,354.695 L867.6162,353.693 C866.2422,352.942 864.5342,352.864 863.0952,353.486 L861.5212,354.167 L861.3582,352.46 C861.0302,349.009 858.1642,346.407 854.6932,346.407 C851.0002,346.407 847.9962,349.411 847.9962,353.104 C847.9962,353.801 848.1042,354.492 848.3172,355.155 L848.8772,356.895 L847.0532,356.782 C846.9522,356.776 846.8512,356.772 846.7492,356.772 C844.0562,356.772 841.8642,358.964 841.8642,361.657 C841.8642,364.35 844.0562,366.542 846.7492,366.542 C847.4852,366.542 848.1922,366.381 848.8512,366.067 L850.3322,365.36 L850.6172,366.976 C850.7132,367.518 850.8632,368.051 851.0632,368.558 L851.5042,369.673 L850.4082,370.158 C848.9432,370.806 847.9962,372.26 847.9962,373.861 C847.9962,376.093 849.8122,377.91 852.0452,377.91 C852.6472,377.91 853.2272,377.78 853.7692,377.524 L855.6202,376.652 Z M868.2132,394.326 C860.2412,394.326 853.6852,388.143 853.0892,380.322 C852.7462,380.377 852.3982,380.405 852.0452,380.405 C848.4362,380.405 845.5012,377.469 845.5012,373.861 C845.5012,371.966 846.3222,370.199 847.6912,368.977 C847.3812,369.016 847.0662,369.037 846.7492,369.037 C842.6802,369.037 839.3692,365.726 839.3692,361.657 C839.3692,357.982 842.0682,354.926 845.5892,354.368 C845.5302,353.95 845.5012,353.528 845.5012,353.104 C845.5012,348.036 849.6252,343.912 854.6932,343.912 C858.9422,343.912 862.5302,346.754 863.5772,350.729 C864.7372,350.487 865.9762,350.521 867.1342,350.832 C867.9892,346.245 872.0312,342.756 876.8532,342.756 C882.3072,342.756 886.7432,347.192 886.7432,352.644 C886.7432,355.229 885.7552,357.656 883.9922,359.487 C885.2312,360.875 886.0892,362.549 886.4872,364.363 C891.6452,364.403 895.8292,368.611 895.8292,373.777 C895.8292,378.968 891.6052,383.192 886.4152,383.192 C885.2382,383.192 884.0832,382.973 883.0002,382.551 C881.4512,389.374 875.3762,394.326 868.2132,394.326 Z" id="Fill-310" fill="#272425"></path>
            <path d="M870.1984,376.6745 C868.5324,374.5595 868.3994,371.7265 869.6404,369.5165 C868.3564,369.1425 867.1734,368.3775 866.2824,367.2475 C864.0094,364.3615 864.5064,360.1795 867.3914,357.9055 C867.7244,357.6445 868.0754,357.4185 868.4384,357.2295 C867.2214,357.3515 866.0244,357.8105 864.9924,358.6225 C862.1064,360.8965 861.6094,365.0775 863.8834,367.9635 C864.7734,369.0945 865.9574,369.8585 867.2414,370.2325 C866.0004,372.4435 866.1334,375.2755 867.7994,377.3905 C869.7594,379.8785 873.1794,380.5365 875.8844,379.1075 C873.7724,379.3065 871.6074,378.4635 870.1984,376.6745" id="Fill-311" fill="#272425"></path>
        </g>
    </g>
</svg>