<?xml version="1.0" encoding="UTF-8"?>
<svg width="27px" height="27px" viewBox="0 0 27 27" version="1.1" xmlns="http://www.w3.org/2000/svg" xmlns:xlink="http://www.w3.org/1999/xlink">
    <!-- Generator: Sketch 52.6 (67491) - http://www.bohemiancoding.com/sketch -->
    <title>Atoms/Icon/question</title>
    <desc>Created with Sketch.</desc>
    <defs>
        <path d="M13.6026286,20.6768968 C14.8117194,20.6768968 15.7576551,21.6299449 15.7647674,22.8390357 L15.7647674,23.4151319 C15.7647674,24.6455596 14.8330563,25.5772707 13.6026286,25.5772707 C12.4077624,25.5772707 11.4404897,24.6028858 11.4404897,23.4151319 L11.4404897,22.8390357 C11.4404897,21.6655063 12.4290993,20.6768968 13.6026286,20.6768968 Z M14.5770135,23.4151319 L14.5770135,22.8390357 C14.5770135,22.2842763 14.1573879,21.8646507 13.6026286,21.8646507 C13.0834308,21.8646507 12.6282436,22.3198378 12.6282436,22.8390357 L12.6282436,23.4151319 C12.6282436,23.9556666 13.0620939,24.3895168 13.6026286,24.3895168 C14.1645002,24.3895168 14.5770135,23.9770035 14.5770135,23.4151319 Z M20.942521,9.31144323 C20.942521,12.5475392 18.8301682,15.349785 15.7576551,16.2743838 L15.7576551,17.9031002 C15.7576551,19.133528 14.825944,20.0652391 13.5955163,20.0652391 C12.4006501,20.0652391 11.4333774,19.0908542 11.4333774,17.9031002 L11.4333774,14.5745444 C11.4333774,14.5532075 11.4333774,14.5318706 11.4333774,14.5105337 C11.4333774,14.4891968 11.4333774,14.4678599 11.4333774,14.446523 C11.4333774,13.2943306 12.4433239,12.2843841 13.5955163,12.2843841 C15.2740188,12.2843841 16.6466925,10.947272 16.6466925,9.29721863 C16.6466925,7.6258284 15.3095803,6.31005311 13.5955163,6.31005311 C12.542896,6.31005311 11.5613988,6.87192472 11.042201,7.77518667 C10.6368,8.46507966 9.93979467,8.8704807 9.15744179,8.8704807 C8.77337765,8.8704807 8.38931351,8.77090851 8.05503547,8.57176415 C8.05503547,8.57176415 8.04792317,8.56465185 8.04792317,8.56465185 C7.03086443,7.94588185 6.69658639,6.65144345 7.30113179,5.62016012 C8.59557018,3.38689828 11.0137518,2 13.6026286,2 C17.6495266,2 20.942521,5.27876977 20.942521,9.31144323 Z M15.0322006,15.2573251 C17.8131095,14.5958813 19.7547671,12.1563628 19.7405425,9.31144323 C19.7405425,5.93310127 16.9809705,3.18775391 13.588404,3.18775391 C11.4191528,3.18775391 9.39925995,4.34705862 8.31107823,6.21759322 C8.03369857,6.69411725 8.17594455,7.27021345 8.64535627,7.55470541 C8.80182685,7.640053 8.97963432,7.68983909 9.15032949,7.68983909 C9.50594444,7.68983909 9.82599788,7.49780702 10.0109177,7.18486587 C10.7434844,5.91887667 12.1161581,5.1294115 13.5955163,5.1294115 C14.7334841,5.1294115 15.7932166,5.55614943 16.5897941,6.33139001 C17.3934839,7.12085518 17.8344464,8.17347541 17.8344464,9.30433093 C17.8344464,11.6087158 15.9354626,13.4792504 13.5955163,13.4792504 C13.1332169,13.4792504 12.6922543,13.8846514 12.6282436,14.3469508 C12.6495805,14.4038492 12.6566928,14.4607476 12.6566928,14.517646 C12.6566928,14.5745444 12.6495805,14.6456674 12.6282436,14.7167904 L12.6282436,17.9102125 C12.6282436,18.4507473 13.0620939,18.8845975 13.6026286,18.8845975 C14.1645002,18.8845975 14.5770135,18.4720842 14.5770135,17.9102125 L14.5770135,15.8334213 C14.5770135,15.5560416 14.7619333,15.3213358 15.0322006,15.2573251 Z" id="path-1"></path>
    </defs>
    <g id="Atoms/Icon/question" stroke="none" stroke-width="1" fill="none" fill-rule="evenodd">
        <mask id="mask-2" fill="white">
            <use xlink:href="#path-1"></use>
        </mask>
        <use id="Combined-Shape" fill="#A1BCCF" xlink:href="#path-1"></use>
    </g>
</svg>