<?xml version="1.0" encoding="UTF-8"?>
<svg width="27px" height="27px" viewBox="0 0 27 27" version="1.1" xmlns="http://www.w3.org/2000/svg" xmlns:xlink="http://www.w3.org/1999/xlink">
    <!-- Generator: Sketch 52.6 (67491) - http://www.bohemiancoding.com/sketch -->
    <title>Atoms/Icon/right-arrow-circle</title>
    <desc>Created with Sketch.</desc>
    <defs>
        <path d="M13.5,26 C6.59644063,26 1,20.4035594 1,13.5 C1,6.59644063 6.59644063,1 13.5,1 C20.4035594,1 26,6.59644063 26,13.5 C26,20.4035594 20.4035594,26 13.5,26 Z M17.7364698,13.6315 L10.6194525,6.1605 C10.5175222,6.0535 10.4003501,6 10.267936,6 C10.135522,6 10.0183498,6.0535 9.91641958,6.1605 L9.15289537,6.962 C9.05096512,7.069 9,7.1915 9,7.331 C9,7.4705 9.05096512,7.593 9.15289537,7.6995 L15.1548721,14 L9.15289537,20.3005 C9.05096512,20.4075 9,20.5305 9,20.669 C9,20.8075 9.05096512,20.931 9.15289537,21.038 L9.91641958,21.8395 C10.0183498,21.9465 10.135522,22 10.267936,22 C10.4003501,22 10.5175222,21.9465 10.6194525,21.8395 L17.7359935,14.3685 C17.8379238,14.2615 17.8888889,14.1385 17.8888889,13.9995 C17.8888889,13.8605 17.8384001,13.7375 17.7364698,13.6305 L17.7364698,13.6315 Z" id="path-1"></path>
    </defs>
    <g id="Atoms/Icon/right-arrow-circle" stroke="none" stroke-width="1" fill="none" fill-rule="evenodd">
        <mask id="mask-2" fill="white">
            <use xlink:href="#path-1"></use>
        </mask>
        <use id="Combined-Shape" fill="#A1BCCF" xlink:href="#path-1"></use>
    </g>
</svg>