<?xml version="1.0" encoding="UTF-8"?>
<svg width="27px" height="27px" viewBox="0 0 27 27" version="1.1" xmlns="http://www.w3.org/2000/svg" xmlns:xlink="http://www.w3.org/1999/xlink">
    <!-- Generator: Sketch 52.6 (67491) - http://www.bohemiancoding.com/sketch -->
    <title>Atoms/Icon/search</title>
    <desc>Created with Sketch.</desc>
    <defs>
        <path d="M25.8499289,25.1094892 L18.8629591,17.8432099 C20.6450855,16.0559112 21.7491574,13.5919687 21.7491574,10.8745787 C21.7491574,5.42945387 17.3197035,1 11.8745787,1 C6.42945387,1 2,5.42945387 2,10.8745787 C2,16.3197035 6.42945387,20.7491574 11.8745787,20.7491574 C14.264697,20.7491574 16.4582641,19.8947712 18.1679769,18.4770639 L25.1718745,25.7612114 C25.2640372,25.8576061 25.3872343,25.9055683 25.5109017,25.9055683 C25.6284562,25.9055683 25.7455405,25.8618381 25.8367628,25.7743775 C26.0239095,25.594284 26.0295521,25.296636 25.8499289,25.1094892 Z M11.8745787,19.8087213 C6.94810436,19.8087213 2.94043607,15.801053 2.94043607,10.8745787 C2.94043607,5.94810436 6.94810436,1.94043607 11.8745787,1.94043607 C16.801053,1.94043607 20.8087213,5.94810436 20.8087213,10.8745787 C20.8087213,15.801053 16.8005828,19.8087213 11.8745787,19.8087213 Z" id="path-1"></path>
    </defs>
    <g id="Atoms/Icon/search" stroke="none" stroke-width="1" fill="none" fill-rule="evenodd">
        <mask id="mask-2" fill="white">
            <use xlink:href="#path-1"></use>
        </mask>
        <use id="Shape" fill="#A1BCCF" xlink:href="#path-1"></use>
    </g>
</svg>