<?xml version="1.0" encoding="UTF-8"?>
<svg width="27px" height="27px" viewBox="0 0 27 27" version="1.1" xmlns="http://www.w3.org/2000/svg" xmlns:xlink="http://www.w3.org/1999/xlink">
    <!-- Generator: Sketch 52.6 (67491) - http://www.bohemiancoding.com/sketch -->
    <title>Atoms/Icon/settings</title>
    <desc>Created with Sketch.</desc>
    <defs>
        <path d="M4.90973586,21.3684022 C4.90973586,20.9353685 5.26144152,20.5849852 5.69391795,20.5849852 C6.12757064,20.5849852 6.47849213,20.9353685 6.47849213,21.3684022 C6.47849213,21.8006526 6.12757064,22.1518193 5.69391795,22.1518193 C5.26144152,22.1518193 4.90973586,21.8007015 4.90973586,21.3684022 L4.90973586,21.3684022 L4.90973586,21.3684022 Z M18.2415666,16.6682917 L17.4581687,16.6682917 C17.024712,16.6682917 16.6735945,16.317125 16.6735945,15.8848747 C16.6735945,15.4518409 17.024712,15.1014577 17.4581687,15.1014577 L18.2415666,15.1014577 C21.6769703,15.1014577 24.4644926,12.3403533 24.5119846,8.9217172 C24.5005159,8.7170495 24.3324069,8.55218918 24.1241085,8.55218918 C24.0210866,8.55218918 23.9314938,8.59424888 23.8614565,8.65736291 L23.2484222,9.26979918 C21.7421064,10.7735192 19.3003104,10.7735192 17.7939946,9.26979918 C16.2876789,7.76495298 16.2876789,5.32593094 17.7939946,3.82108474 L18.3874734,3.22740152 C18.4563834,3.15625746 18.4992684,3.06405907 18.4992684,2.95771021 C18.4992684,2.75113293 18.3365506,2.5862726 18.1343787,2.57133872 C14.8475775,2.62754889 12.184103,5.20543161 11.9873223,8.45196076 C11.9746774,8.55830962 11.9678158,8.68375428 11.9678158,8.83142839 L11.9678158,8.83412138 L11.9678158,8.8349048 L11.9678158,8.83681438 C11.9678158,10.01997 11.5025997,11.0921741 10.7482656,11.8882237 L3.48801373,19.1409517 C2.26214107,20.3646492 2.26214107,22.3488486 3.48801373,23.5725461 C4.71271011,24.7966352 6.69904334,24.7966352 7.92393577,23.5725461 L10.4885543,21.0106255 C10.5052182,20.9918724 10.521882,20.9746862 10.5411925,20.9578427 L10.620934,20.878179 L10.620934,20.878179 C10.8374173,20.6619559 11.0955112,20.6095159 11.2115212,20.6095159 C11.645909,20.6095159 11.998742,20.9618088 11.998742,21.395626 C11.998742,21.5119144 11.9015034,21.814852 11.7305517,21.9856369 L11.7305517,21.9856369 L11.6463991,22.0699032 C11.6314507,22.0848371 11.6165512,22.099722 11.6016027,22.1146559 L9.03276924,24.6807874 C7.19503851,26.5169211 4.21588174,26.5169211 2.37815101,24.6807874 C0.540616329,22.8450454 0.540616329,19.8693337 2.37815101,18.0332001 L9.55944554,10.8596461 C10.0790642,10.3405344 10.3998927,9.62444228 10.3998927,8.83417035 C10.3998927,4.50814148 13.9101368,1.00151787 18.2399492,1 C19.2833525,1 20.1291909,1.8450132 20.1291909,2.88739853 C20.1291909,3.40151596 19.9216767,3.8658864 19.5892815,4.20672178 L18.8843508,4.91057302 C17.9814632,5.81336322 17.9814632,7.27688417 18.8843508,8.17967438 C19.7880227,9.08280733 21.2529728,9.08280733 22.1566447,8.17967438 L22.868829,7.46818482 C23.2103893,7.13616289 23.6748212,6.93071177 24.1883134,6.93071177 C25.2317167,6.93071177 26.0775551,7.77572497 26.0775551,8.81850201 C26.0775551,8.84220037 26.0794666,8.86056171 26.081378,8.87892304 C26.0565782,13.184632 22.5579989,16.6682917 18.2415666,16.6682917 L18.2415666,16.6682917 L18.2415666,16.6682917 Z M13.536523,18.2343913 C13.9699307,18.2343913 14.3207051,18.5859497 14.3207051,19.0182001 C14.3207051,19.4512339 13.9699797,19.8016171 13.536523,19.8016171 C13.1030664,19.8016171 12.7521449,19.4512339 12.7521449,19.0182001 C12.7521449,18.5859008 13.1030664,18.2343913 13.536523,18.2343913 L13.536523,18.2343913 L13.536523,18.2343913 Z" id="path-1"></path>
    </defs>
    <g id="Atoms/Icon/settings" stroke="none" stroke-width="1" fill="none" fill-rule="evenodd">
        <mask id="mask-2" fill="white">
            <use xlink:href="#path-1"></use>
        </mask>
        <use id="Shape" fill="#A1BCCF" xlink:href="#path-1"></use>
    </g>
</svg>