<?xml version="1.0" encoding="UTF-8"?>
<svg width="23px" height="19px" viewBox="0 0 23 19" version="1.1" xmlns="http://www.w3.org/2000/svg" xmlns:xlink="http://www.w3.org/1999/xlink">
    <!-- Generator: Sketch 52.6 (67491) - http://www.bohemiancoding.com/sketch -->
    <title>Atom/Icon/sleeps</title>
    <desc>Created with Sketch.</desc>
    <g id="Mobile" stroke="none" stroke-width="1" fill="none" fill-rule="evenodd">
        <g id="03.4-Hotel-Open" transform="translate(-25.000000, -335.000000)" fill="#627790">
            <g id="Informations" transform="translate(20.000000, 290.000000)">
                <g id="key-points" transform="translate(1.000000, 11.000000)">
                    <g id="sleeps-copy-2" transform="translate(2.000000, 30.000000)">
                        <g id="Atoms/Icon/Amenities/people">
                            <path d="M13.5000001,10.9000001 C11.5954997,10.8979411 10.052059,9.35450038 10.0500001,7.45000003 C10.0500001,5.54456381 11.5945639,4 13.5000001,4 C15.4054363,4 16.9500001,5.54456381 16.9500001,7.45000003 C16.9500001,9.35543624 15.4054363,10.9000001 13.5000001,10.9000001 Z M13.5000001,4.76666667 C12.0187013,4.76835123 10.8183513,5.96870121 10.8166667,7.45000003 C10.8166667,8.93204759 12.0179525,10.1333334 13.5000001,10.1333334 C14.9820477,10.1333334 16.1833335,8.93204759 16.1833335,7.45000003 C16.1833335,5.96795247 14.9820477,4.76666667 13.5000001,4.76666667 Z M5.45000003,9.75000005 C4.3919027,9.74868981 3.53464358,8.89143069 3.53333335,7.83333337 C3.53333335,6.77486166 4.39152833,5.91666668 5.45000003,5.91666668 C6.50847173,5.91666668 7.36666671,6.77486166 7.36666671,7.83333337 C7.36666671,8.89180507 6.50847173,9.75000005 5.45000003,9.75000005 Z M5.45000003,6.68333336 C4.81491703,6.68333336 4.30000002,7.19825036 4.30000002,7.83333337 C4.30000002,8.46841637 4.81491703,8.98333337 5.45000003,8.98333337 C6.08508303,8.98333337 6.60000004,8.46841637 6.60000004,7.83333337 C6.60000004,7.19825036 6.08508303,6.68333336 5.45000003,6.68333336 Z M21.5500002,9.75000005 C20.4919028,9.74868981 19.6346437,8.89143069 19.6333335,7.83333337 C19.6333335,6.77486166 20.4915285,5.91666668 21.5500002,5.91666668 C22.6084719,5.91666668 23.4666668,6.77486166 23.4666668,7.83333337 C23.4666668,8.89180507 22.6084719,9.75000005 21.5500002,9.75000005 Z M21.5500002,6.68333336 C20.9149172,6.68333336 20.4000002,7.19825036 20.4000002,7.83333337 C20.4000002,8.46841637 20.9149172,8.98333337 21.5500002,8.98333337 C22.1850832,8.98333337 22.7000002,8.46841637 22.7000002,7.83333337 C22.7000002,7.19825036 22.1850832,6.68333336 21.5500002,6.68333336 Z M23.0833335,9.75000005 C24.1414308,9.75131028 24.99869,10.6085694 25.0000002,11.6666667 L25.0000002,15.0245769 C25.0011233,15.4610678 24.7538657,15.8601238 24.3624839,16.053475 L22.0624839,17.203475 C21.7396079,17.3644451 21.3600181,17.3644451 21.0371421,17.203475 L20.7833335,17.0775066 L20.7833335,19.2184083 C20.7833335,19.6732423 20.5151125,20.0855877 20.0990236,20.2697674 L14.276587,22.8572674 C13.782072,23.0777589 13.2171794,23.0777589 12.7226645,22.8572674 L6.90060228,20.2701417 C6.4845134,20.0857749 6.21647954,19.6734295 6.2166667,19.2184083 L6.2166667,17.461963 L6.00459803,17.5680909 C5.84568686,17.6468914 5.67049154,17.6876954 5.49286297,17.6873211 C5.27892258,17.6875083 5.06909995,17.6289227 4.88604333,17.5179282 L2.5405599,16.0512289 C2.20439453,15.8402833 2.00018717,15.4713624 2,15.0745525 L2,11.6666667 C2.00131022,10.6085694 2.85856936,9.75131028 3.91666668,9.75000005 C3.99958499,9.75000005 4.08025715,9.77695317 4.14670411,9.82674156 L5.45000003,10.8041667 L6.75329595,9.82674156 C6.8197429,9.77695317 6.90041507,9.75000005 6.98333337,9.75000005 C7.61429856,9.74925135 8.20427252,10.0622071 8.55765794,10.5849854 C9.13920907,10.2903728 9.78140467,10.1357666 10.4333334,10.1333334 C10.5349692,10.1333334 10.6324871,10.1737631 10.7043621,10.2456381 L13.5000001,13.0412761 L16.2956381,10.2456381 C16.3675131,10.1737631 16.465031,10.1333334 16.5666668,10.1333334 C17.2185955,10.1357666 17.8607911,10.2903728 18.4423422,10.5849854 C18.7957277,10.0622071 19.3857016,9.74925135 20.0166668,9.75000005 C20.0995851,9.75000005 20.1802573,9.77695317 20.2467042,9.82674156 L21.5500002,10.8041667 L22.8532961,9.82674156 C22.919743,9.77695317 23.0004152,9.75000005 23.0833335,9.75000005 Z M5.6620687,16.8800375 L6.2166667,16.6047039 L6.2166667,14.3500001 C6.21704103,14.1763022 6.22808433,14.0026042 6.24960941,13.8302166 C6.25653485,13.773877 6.27001142,13.7190349 6.279183,13.6630697 C6.29752608,13.5492676 6.31680506,13.4352784 6.34431967,13.3242839 C6.3604167,13.25896 6.38231611,13.196631 6.40140793,13.1326173 C6.43135584,13.0332276 6.45961915,12.9347738 6.49798996,12.8385661 C6.52325852,12.7721192 6.55320644,12.7084799 6.58165696,12.6440919 C6.62152512,12.5521892 6.66251634,12.462907 6.70856124,12.3758708 C6.74262697,12.3118572 6.77856447,12.2497152 6.81693527,12.1875733 C6.86672366,12.1048422 6.91782228,12.0232341 6.97341314,11.9438721 C7.01552739,11.8817302 7.05970056,11.8250164 7.1048096,11.7668051 C7.16414395,11.6908122 7.2259115,11.6170655 7.29029952,11.5455648 C7.34064945,11.489974 7.39081221,11.4358806 7.4437826,11.3829102 C7.51228843,11.3144044 7.58397627,11.2492676 7.65753583,11.185254 C7.71518562,11.1358399 7.77077643,11.086613 7.83011073,11.0400066 C7.85537929,11.0203533 7.87765302,10.9977051 7.90329596,10.9786133 C7.71256515,10.7208741 7.42207036,10.5554119 7.10293788,10.5228435 L5.68003745,11.5899252 C5.54377443,11.6923096 5.35622563,11.6923096 5.2199626,11.5899252 L3.79706218,10.5228435 C3.21139324,10.5840495 2.76666667,11.0778158 2.76666667,11.6666667 L2.76666667,15.0745525 C2.76909993,15.2074464 2.83835451,15.3300457 2.9506592,15.401172 L5.28902998,16.8635662 C5.40245769,16.9320721 5.54302573,16.9382488 5.6620687,16.8800375 Z M20.0166668,19.2184083 L20.0166668,14.3500001 C20.0138592,12.5074545 18.5658774,10.991154 16.7253907,10.9033692 L13.7736492,13.8551108 C13.6240968,14.0048503 13.3813315,14.0048503 13.2315919,13.8551108 L10.2800375,10.9033692 C8.77047532,10.9737468 7.48084312,12.0149984 7.09414067,13.4760824 C7.02039395,13.7615235 6.98314621,14.0552003 6.98333337,14.3500001 L6.98333337,19.2184083 C6.98333337,19.3707684 7.07373866,19.5085288 7.2133708,19.5695477 L13.0346843,22.157422 C13.3306072,22.2895672 13.6686443,22.2895672 13.9645671,22.157422 L19.7866294,19.5695477 C19.9262615,19.5085288 20.0166668,19.3707684 20.0166668,19.2184083 Z M24.2333335,15.0245769 L24.2333335,11.6666667 C24.2333335,11.0778158 23.788607,10.5840495 23.202938,10.5228435 L21.7800376,11.5899252 C21.6437746,11.6923096 21.4562258,11.6923096 21.3199627,11.5899252 L19.8981854,10.5228435 C19.5792401,10.5554119 19.2889324,10.7208741 19.0982016,10.9786133 C19.1238446,10.9977051 19.1461183,11.0203533 19.1710125,11.0400066 C19.2309083,11.0869874 19.2887453,11.1369629 19.3458335,11.1867514 C19.41827,11.2500164 19.4892092,11.31403 19.556592,11.3817872 C19.610311,11.4355062 19.6621583,11.4910971 19.7126955,11.5474366 C19.7763348,11.6183757 19.8367922,11.6885661 19.8951906,11.7651205 C19.9412355,11.8242676 19.9859702,11.8839763 20.0290203,11.9453695 C20.0821779,12.0236085 20.1332765,12.1040935 20.1823162,12.1860759 C20.2197511,12.2500896 20.2577475,12.3129802 20.2918133,12.3777426 C20.3378582,12.4644044 20.3792238,12.5529379 20.4175946,12.6422201 C20.4464194,12.7073568 20.4767417,12.7717449 20.5023846,12.8385661 C20.5386964,12.9343995 20.5686443,13.0324789 20.5982179,13.1309327 C20.6173097,13.1941977 20.6395835,13.2570883 20.6556805,13.3225994 C20.6824464,13.4334067 20.7020998,13.5457114 20.7208172,13.6608237 C20.7299888,13.7167888 20.7434653,13.771631 20.7503908,13.8283448 C20.7719159,14.001294 20.7829592,14.1755535 20.7833335,14.3500001 L20.7833335,16.2206218 L21.3802329,16.5197267 C21.4869224,16.5728842 21.6127036,16.5728842 21.7193931,16.5197267 L24.0193931,15.3697267 C24.1507896,15.3049643 24.2337078,15.1711345 24.2333335,15.0245769 Z" id="Combined-Shape"></path>
                        </g>
                    </g>
                </g>
            </g>
        </g>
    </g>
</svg>