<?xml version="1.0" encoding="UTF-8"?>
<svg width="27px" height="27px" viewBox="0 0 27 27" version="1.1" xmlns="http://www.w3.org/2000/svg" xmlns:xlink="http://www.w3.org/1999/xlink">
    <!-- Generator: Sketch 52.6 (67491) - http://www.bohemiancoding.com/sketch -->
    <title>Atoms/Icon/SMS</title>
    <desc>Created with Sketch.</desc>
    <g id="Atoms/Icon/SMS" stroke="none" stroke-width="1" fill="none" fill-rule="evenodd">
        <path d="M22.2707258,5.21832336 C19.9191935,3.14299554 16.8043548,2 13.5,2 C10.1956452,2 7.08080645,3.14299554 4.72927419,5.21832336 C2.32443548,7.3407328 1,10.1789157 1,13.209909 C1,16.2409023 2.32443548,19.0790852 4.72927419,21.2014947 C5.16024194,21.5818842 5.61701613,21.9305539 6.09572581,22.2469225 C5.21177419,23.618268 4.17830645,24.87876 3.01612903,26 C5.55137097,25.7840224 7.95524194,25.0923295 10.1447581,24.0134381 C11.2241935,24.2811473 12.3505645,24.419818 13.5,24.419818 C16.8043548,24.419818 19.9191935,23.2768225 22.2707258,21.2014947 C24.6755645,19.0790852 26,16.2409023 26,13.209909 C26,10.1789157 24.6755645,7.3407328 22.2707258,5.21832336 Z M7.85483871,14.8706363 C6.96403226,14.8706363 6.24193548,14.1271287 6.24193548,13.209909 C6.24193548,12.2926893 6.96403226,11.5491817 7.85483871,11.5491817 C8.74564516,11.5491817 9.46774194,12.2926893 9.46774194,13.209909 C9.46774194,14.1271287 8.74564516,14.8706363 7.85483871,14.8706363 Z M13.5,14.8706363 C12.6091935,14.8706363 11.8870968,14.1271287 11.8870968,13.209909 C11.8870968,12.2926893 12.6091935,11.5491817 13.5,11.5491817 C14.3908065,11.5491817 15.1129032,12.2926893 15.1129032,13.209909 C15.1129032,14.1271287 14.3908065,14.8706363 13.5,14.8706363 Z M19.1451613,14.8706363 C18.2543548,14.8706363 17.5322581,14.1271287 17.5322581,13.209909 C17.5322581,12.2926893 18.2543548,11.5491817 19.1451613,11.5491817 C20.0359677,11.5491817 20.7580645,12.2926893 20.7580645,13.209909 C20.7580645,14.1271287 20.0359677,14.8706363 19.1451613,14.8706363 Z" id="Shape" fill="#627790"></path>
    </g>
</svg>