<?xml version="1.0" encoding="UTF-8"?>
<svg width="27px" height="27px" viewBox="0 0 27 27" version="1.1" xmlns="http://www.w3.org/2000/svg" xmlns:xlink="http://www.w3.org/1999/xlink">
    <!-- Generator: Sketch 52.6 (67491) - http://www.bohemiancoding.com/sketch -->
    <title>Atoms/Icon/traveller</title>
    <desc>Created with Sketch.</desc>
    <defs>
        <path d="M19.1640625,12.4873876 C21.4208681,9.54963802 21.0552192,5.37466343 18.3220712,2.87354287 C15.5889232,0.372422313 11.3960796,0.375892233 8.66707886,2.88153316 C5.93807816,5.38717409 5.57934623,9.56274817 7.84101563,12.4967583 C3.64716591,14.6202736 1.00285943,18.9191505 1,23.6182693 C1,24.9348588 6.596875,26 13.5,26 C20.403125,26 26,24.9348588 26,23.6182693 C25.9992032,18.917588 23.3572321,14.6156956 19.1640625,12.4873876 Z M13.5,2.20065368 C16.7872361,2.20086934 19.4519531,4.86455136 19.4519531,8.15029506 C19.4519531,11.4360388 16.7872361,14.0997207 13.4999999,14.0999364 C10.2127638,14.100152 7.54769708,11.4368196 7.54726562,8.15107593 C7.55092491,4.86641711 10.2138495,2.20452685 13.5,2.20065368 Z M13.5,24.810306 C6.93398438,24.810306 3.0796875,23.8966585 2.19414062,23.3289476 C2.31167794,19.0644335 4.82070235,15.2291462 8.68203125,13.4115772 C11.4052072,15.9198093 15.5985608,15.9186202 18.3203125,13.408844 C22.1809482,15.2282689 24.6885202,19.0646221 24.8046875,23.329338 C23.9199219,23.8966585 20.065625,24.810306 13.5,24.810306 Z" id="path-1"></path>
    </defs>
    <g id="Atoms/Icon/traveller" stroke="none" stroke-width="1" fill="none" fill-rule="evenodd">
        <mask id="mask-2" fill="white">
            <use xlink:href="#path-1"></use>
        </mask>
        <use id="traveller" fill="#A1BCCF" xlink:href="#path-1"></use>
    </g>
</svg>