<?xml version="1.0" encoding="UTF-8"?>
<svg width="27px" height="27px" viewBox="0 0 27 27" version="1.1" xmlns="http://www.w3.org/2000/svg" xmlns:xlink="http://www.w3.org/1999/xlink">
    <!-- Generator: Sketch 52.6 (67491) - http://www.bohemiancoding.com/sketch -->
    <title>Atoms/Icon/trips</title>
    <desc>Created with Sketch.</desc>
    <defs>
        <path d="M18.3209313,19.0149461 C18.5357613,19.5242721 18.2961301,20.1134589 17.7868042,20.3282889 L14.4403481,21.7397644 C14.3160985,21.7921929 14.185076,21.8187482 14.0510326,21.8187482 L14.0509839,21.8187482 C13.6468073,21.8186995 13.2840471,21.5780937 13.1270054,21.2056373 L12.4995205,19.7179066 C12.2846418,19.2085806 12.5243217,18.6193939 13.0336476,18.4045639 L16.3801037,16.9930883 C16.5044021,16.9406598 16.6353758,16.9141045 16.7694679,16.9141045 C17.1736933,16.9141045 17.5364534,17.154759 17.6934952,17.5272154 L18.3209313,19.0149461 Z M17.5015661,19.6520786 C17.6380945,19.5944853 17.7022657,19.4366152 17.6446724,19.3001355 L17.0171875,17.8124536 C16.9750888,17.7125666 16.877833,17.6480543 16.7694192,17.6480543 C16.733801,17.6480543 16.6988162,17.6552169 16.6652931,17.6693472 L13.318837,19.0808228 C13.1824061,19.1383674 13.1181374,19.2961888 13.1757307,19.4327172 L13.8032156,20.9204479 C13.845363,21.0202861 13.9426188,21.0848472 14.0510326,21.0848472 C14.0866509,21.0848472 14.1216357,21.0776845 14.15511,21.0635542 L17.5015661,19.6520786 Z M17.6584617,10.5136418 C18.1366034,10.8582274 18.3999638,11.3278909 18.3999638,11.8361936 C18.3999638,12.3444963 18.1366034,12.8142085 17.6584617,13.1587941 C17.2165716,13.4772142 16.635327,13.6525767 16.0217289,13.6525767 C15.4081307,13.6525767 14.8268375,13.4772142 14.3849961,13.1587941 C13.9068057,12.8142085 13.6434939,12.3444476 13.6434939,11.8361936 C13.6434939,11.3279396 13.9068544,10.8582274 14.3849961,10.5136418 C14.8268862,10.1952217 15.4081307,10.0198592 16.0217289,10.0198592 C16.635327,10.0198592 17.2166203,10.1952217 17.6584617,10.5136418 Z M16.0217289,12.9186757 C16.912964,12.9186757 17.6659654,12.4229441 17.6659654,11.8361936 C17.6659654,11.2494431 16.9130615,10.7537602 16.0217289,10.7537602 C15.1303963,10.7537602 14.377395,11.2494918 14.3774437,11.8361936 C14.3774437,12.4229928 15.130445,12.9186757 16.0217289,12.9186757 Z M13.2245048,15.6579654 C13.3496314,15.9395491 13.3575737,16.2529992 13.2468697,16.5404787 C13.1361657,16.8280069 12.9201663,17.0552131 12.6385826,17.1803398 L10.9506882,17.9301253 C10.8019785,17.9960994 10.6445957,18.0296224 10.4828275,18.0296224 C10.0271969,18.0296224 9.61327518,17.7605611 9.4283138,17.3442518 L8.33355294,14.879773 C8.16593778,14.5024927 8.21363989,14.0613335 8.4580949,13.7286369 L9.08782115,12.8714121 C9.30430782,12.57677 9.65176819,12.4008715 10.0172569,12.4008715 C10.405939,12.4008715 10.8054867,12.474934 11.1920735,12.5141579 C11.6028281,12.5558668 11.9621775,12.8161576 12.1297439,13.1934866 L13.2245048,15.6579654 Z M12.5618889,16.2768746 C12.6021848,16.1722613 12.5992612,16.058244 12.5537518,15.9558721 L11.4589909,13.4913933 C11.3980355,13.354134 11.2674029,13.2594607 11.1179623,13.2443071 L10.0597454,13.1369165 C9.91420286,13.1220552 9.76588293,13.1879806 9.67929801,13.3058959 C9.67905438,13.306237 9.04962049,14.1631208 9.04962049,14.1631208 C8.96069675,14.2842032 8.94339925,14.4445583 9.00430592,14.5817689 L10.0990668,17.0462964 C10.1664052,17.1978322 10.3170639,17.2957214 10.482925,17.2957214 C10.5413954,17.2957214 10.5985015,17.2834913 10.6527815,17.2593723 L12.3406759,16.5095868 C12.4430965,16.4640773 12.5216905,16.3814392 12.5618889,16.2768746 Z M10.3451785,14.7480684 C10.0928679,14.7480684 9.8883297,14.5435303 9.8883297,14.2912197 C9.8883297,14.0389091 10.0928679,13.8343709 10.3451785,13.8343709 C10.5974891,13.8343709 10.8020272,14.0389091 10.8020272,14.2912197 C10.8020272,14.5435303 10.5974891,14.7480684 10.3451785,14.7480684 Z M25.5804218,11.2134351 C25.3777731,11.2134351 25.2134713,11.0491332 25.2134713,10.8464846 L25.2134713,9.25915927 C25.2134713,8.28864802 24.4238772,7.49905394 23.4533659,7.49905394 L22.5497546,7.49905394 L22.5497546,23.0191456 L23.4534147,23.0191456 C24.4239259,23.0191456 25.21352,22.2295515 25.21352,21.2590402 L25.21352,12.3143353 C25.21352,12.1116866 25.3778218,11.9473848 25.5804705,11.9473848 C25.7831192,11.9473848 25.947421,12.1116866 25.947421,12.3143353 L25.947421,21.2589428 C25.947421,22.6341667 24.8285898,23.7529979 23.4533659,23.7529979 L22.4369067,23.7529979 C22.2705097,24.0721488 21.9370335,24.2909256 21.5528829,24.2909256 L20.366421,24.2909256 C19.9822704,24.2909256 19.6487942,24.0721488 19.4823972,23.7529979 L7.46502382,23.7529979 C7.2986268,24.0721488 6.96515059,24.2909256 6.58100004,24.2909256 L5.3945381,24.2909256 C5.01038754,24.2909256 4.67691134,24.0721488 4.51051432,23.7529979 L3.49405507,23.7529979 C2.11883118,23.7529979 1,22.6342154 1,21.2589915 L1,19.7023632 C1,19.4997145 1.16435056,19.3354614 1.36699923,19.3354614 C1.56964791,19.3354614 1.73394974,19.4997632 1.73394974,19.7024119 L1.73394974,21.2590402 C1.73394974,22.2295515 2.52354382,23.0190968 3.49405507,23.0190968 L4.39756899,23.0190968 L4.39756899,7.49905394 L3.49400635,7.49905394 C2.5234951,7.49905394 1.73390102,8.28864802 1.73390102,9.25915927 L1.73390102,18.2345612 C1.73390102,18.4372098 1.56959918,18.6015117 1.36695051,18.6015117 C1.16430183,18.6015117 1,18.4372098 1,18.2345612 L1,9.25915927 C1,7.8839841 2.11883118,6.76515293 3.49405507,6.76515293 L4.51051432,6.76515293 C4.67691134,6.44600197 5.01038754,6.22722521 5.3945381,6.22722521 L6.58095131,6.22722521 C6.96510187,6.22722521 7.29857807,6.44600197 7.46497509,6.76515293 L8.71429272,6.76515293 L8.71429272,5.69587542 C8.71429272,4.20936285 9.92365557,3 11.4101681,3 L15.5371554,3 C17.023668,3 18.2330308,4.20936285 18.2330308,5.69587542 L18.2330308,6.7651042 L19.4823485,6.7651042 C19.6487455,6.44595325 19.9822217,6.22717649 20.3663722,6.22717649 L21.5528342,6.22717649 C21.9369847,6.22717649 22.2704609,6.44595325 22.436858,6.7651042 L23.4533172,6.7651042 C24.8285411,6.7651042 25.9473723,7.88393538 25.9473723,9.25915927 L25.9473723,10.8464846 C25.9473723,11.0491332 25.7830704,11.2134351 25.5804218,11.2134351 Z M9.44824246,5.69587542 L9.44819374,5.69587542 L9.44819374,6.76515293 L10.6713946,6.76515293 L10.6713946,5.69587542 C10.6713946,5.28848288 11.0027756,4.95710186 11.4101681,4.95710186 L15.5372041,4.95710186 C15.9445967,4.95710186 16.2759777,5.28848288 16.2759777,5.69587542 L16.2759777,6.76515293 L17.4991785,6.76515293 L17.4991785,5.69587542 C17.4991785,4.6140755 16.6190041,3.73394974 15.5372041,3.73394974 L11.4102169,3.73394974 C10.3283682,3.73394974 9.44824246,4.61402677 9.44824246,5.69587542 Z M15.5420279,5.69587542 C15.5420279,5.69358533 15.5394942,5.69100288 15.5371554,5.69105161 L11.4101681,5.69105161 C11.4078293,5.69105161 11.4053443,5.6935366 11.4053443,5.69587542 L11.4053443,6.76515293 L15.5420279,6.76515293 L15.5420279,5.69587542 Z M19.3694519,23.0190968 L19.3694519,7.49910267 L7.5778717,7.49910267 L7.5778717,9.28084205 C7.5778717,9.52826931 7.3244025,9.70923521 7.09042343,9.62752282 C6.94575791,9.57699464 6.84397068,9.43422941 6.84397068,9.28084205 L6.84397068,7.22419432 C6.84397068,7.07923644 6.72600664,6.96122368 6.58100004,6.96122368 L5.3945381,6.96122368 C5.2495315,6.96122368 5.13151873,7.07918772 5.13156746,7.22424305 L5.13156746,23.2940539 C5.13156746,23.4390118 5.2495315,23.5570246 5.3945381,23.5570246 L6.58100004,23.5570246 C6.72595792,23.5570246 6.84397068,23.4390605 6.84397068,23.2940539 L6.84397068,10.7486441 C6.84397068,10.5459954 7.00827252,10.3816936 7.21092119,10.3816936 C7.41356986,10.3816936 7.5778717,10.5459954 7.5778717,10.7486441 L7.5778717,23.0190968 L19.3694519,23.0190968 Z M21.8158048,23.2939565 L21.8158048,7.22419432 C21.8158048,7.07918772 21.6978408,6.96122368 21.5528342,6.96122368 L20.3663722,6.96122368 C20.2213656,6.96122368 20.1033529,7.07918772 20.1034016,7.22419432 L20.1034016,23.2939565 C20.1034016,23.4389631 20.2213656,23.5569271 20.3663722,23.5569271 L21.5528342,23.5569271 C21.6977921,23.5569271 21.8158048,23.4389631 21.8158048,23.2939565 Z" id="path-1"></path>
    </defs>
    <g id="Atoms/Icon/trips" stroke="none" stroke-width="1" fill="none" fill-rule="evenodd">
        <mask id="mask-2" fill="white">
            <use xlink:href="#path-1"></use>
        </mask>
        <use id="Combined-Shape" fill="#A1BCCF" xlink:href="#path-1"></use>
    </g>
</svg>