<?xml version="1.0" encoding="UTF-8"?>
<svg width="21px" height="23px" viewBox="0 0 21 23" version="1.1" xmlns="http://www.w3.org/2000/svg" xmlns:xlink="http://www.w3.org/1999/xlink">
    <!-- Generator: Sketch 52.6 (67491) - http://www.bohemiancoding.com/sketch -->
    <title>Atom/Icon/type-house</title>
    <desc>Created with Sketch.</desc>
    <g id="Mobile" stroke="none" stroke-width="1" fill="none" fill-rule="evenodd">
        <g id="03.4-Hotel-Open" transform="translate(-24.000000, -303.000000)" fill="#627790">
            <g id="Informations" transform="translate(20.000000, 290.000000)">
                <g id="key-points" transform="translate(1.000000, 11.000000)">
                    <g id="property-type">
                        <g id="Atoms/Icon/Amenities/house">
                            <path d="M20.8086321,14.4166453 C21.0166272,14.4166453 21.1852565,14.5852304 21.1853447,14.7932255 L21.1853447,23.4549247 C21.1853447,24.0789102 20.6795012,24.5847096 20.0555598,24.5847096 L6.49814071,24.5847096 C5.8741552,24.5847096 5.36835578,24.078866 5.36835578,23.4549247 L5.36835578,14.7932255 C5.36835578,14.5852304 5.53694088,14.4166453 5.74493605,14.4166453 C5.95293122,14.4166453 6.12151631,14.5852304 6.12151631,14.7932255 L6.12151631,23.4549247 C6.12151631,23.6629198 6.29010141,23.8315049 6.49809658,23.8315049 L10.2640316,23.8315049 L10.2640316,18.1825803 C10.2640316,17.5585948 10.7698752,17.0527954 11.3938165,17.0527954 L15.1597516,17.0527954 C15.783693,17.0527954 16.2895365,17.5586389 16.2895365,18.1825803 L16.2895365,23.8315049 L20.0554716,23.8315049 C20.2634226,23.8315049 20.4320518,23.6629198 20.4320518,23.4549247 L20.4320518,14.7932255 C20.4320518,14.5852304 20.6006369,14.4166453 20.8086321,14.4166453 Z M15.5363318,23.8315049 L15.5362877,18.1825803 C15.5362877,17.9745851 15.3677026,17.806 15.1597075,17.806 L11.3937724,17.806 C11.1857772,17.806 11.0171921,17.9745851 11.0171921,18.1825803 L11.0171921,23.8315049 L15.5363318,23.8315049 Z M23.1823279,11.701013 C23.5086857,12.0374329 23.6011868,12.5368773 23.4169348,12.9678726 C23.24579,13.3899973 22.834919,13.6654265 22.3794303,13.6634406 L22.2506525,13.6634406 C21.9818431,13.6607927 21.7229635,13.5616276 21.521191,13.3839954 C21.4961239,13.3673575 21.4725573,13.3486013 21.4507559,13.3279033 L13.276762,4.90950511 L5.10881418,13.3234018 C5.08555649,13.3454679 5.06035699,13.3653716 5.03348047,13.3828921 C4.83157555,13.5612304 4.57221047,13.6608368 4.30287151,13.6634406 L4.17409368,13.6634406 C3.71900219,13.6649852 3.3087049,13.3896001 3.13769254,12.9678726 C2.9534405,12.5368773 3.04594164,12.0374329 3.37229944,11.701013 L12.4742175,2.3301973 C12.9186731,1.88993423 13.6348067,1.88993423 14.0792624,2.3301973 L23.1823279,11.701013 Z M22.7232645,12.6748788 C22.7901248,12.5225785 22.7581289,12.3449904 22.6422818,12.2256127 L13.538113,2.85519423 C13.4686489,2.78524466 13.3741618,2.74587871 13.2756146,2.74587871 C13.1770232,2.74587871 13.0825361,2.78524466 13.0131161,2.85519423 L3.91044777,12.2256569 L3.91124215,12.2256569 C3.79539507,12.3449904 3.7633992,12.5226226 3.83025952,12.6749229 C3.88626332,12.8160578 4.0222347,12.9091768 4.17409368,12.9102801 L4.30212126,12.9102801 C4.40172769,12.9103242 4.49700916,12.8694578 4.56572303,12.7973016 C4.56837096,12.7942565 4.5721222,12.7931531 4.57552038,12.7905052 C4.57891857,12.7878573 4.58041906,12.784106 4.58381724,12.7814581 L13.0078644,4.10546013 L13.0123658,4.10245913 L13.0153668,4.09795765 C13.0335052,4.08348228 13.0530558,4.07086046 13.0737538,4.06031286 C13.0932602,4.04477832 13.1143554,4.03127386 13.1366422,4.02002014 C13.1598116,4.0125618 13.183643,4.00753072 13.2078275,4.00497105 C13.2530189,3.98842147 13.3026676,3.98842147 13.3479031,4.00497105 C13.3720876,4.00748659 13.3959631,4.0125618 13.4190884,4.02002014 C13.4413752,4.03122973 13.4624704,4.04473419 13.4819768,4.06031286 C13.5026749,4.07086046 13.5222254,4.08348228 13.5403638,4.09795765 L13.5422615,4.10360657 L13.5467629,4.10660756 L21.9690006,12.7814581 C21.9723988,12.7840619 21.9750026,12.7882103 21.9776506,12.7908583 C21.9802544,12.7935062 21.9844028,12.7942565 21.9870507,12.7972574 C22.0557205,12.8694136 22.1510019,12.9102801 22.2506525,12.9102359 L22.3794303,12.9102359 C22.5312893,12.9091326 22.6673048,12.8160136 22.7232645,12.6748788 Z M14.7831272,15.1698499 L11.7703527,15.1698499 C11.1463672,15.1698499 10.6405677,14.6640064 10.6405677,14.040065 L10.6405677,11.4039149 C10.6405677,10.7799294 11.1464113,10.27413 11.7703527,10.27413 L14.7831272,10.27413 C15.4070686,10.27413 15.9129121,10.7799294 15.9129121,11.4039149 L15.9129121,14.040065 C15.9129121,14.6640064 15.4070686,15.1698499 14.7831272,15.1698499 Z M11.3937724,14.040065 C11.3937724,14.248016 11.5623575,14.4166453 11.7703527,14.4166453 L14.7831272,14.4166453 C14.9910782,14.4166453 15.1597075,14.2480602 15.1597075,14.040065 L15.1597075,11.4039149 C15.1597075,11.1959638 14.9911224,11.0273346 14.7831272,11.0273346 L11.7703527,11.0273346 C11.5623575,11.0273346 11.3937724,11.1959197 11.3937724,11.4039149 L11.3937724,14.040065 Z M12.1469771,20.4421502 C12.3549281,20.4421502 12.5235573,20.6107352 12.5235573,20.8187304 C12.5235573,21.0267256 12.3549722,21.1953107 12.1469771,21.1953107 L11.7703968,21.1953107 C11.5624016,21.1953107 11.3938165,21.0267256 11.3938165,20.8187304 C11.3938165,20.6107352 11.5624016,20.4421502 11.7703968,20.4421502 L12.1469771,20.4421502 Z" id="Combined-Shape"></path>
                        </g>
                    </g>
                </g>
            </g>
        </g>
    </g>
</svg>