<?xml version="1.0" encoding="UTF-8"?>
<svg width="27px" height="27px" viewBox="0 0 27 27" version="1.1" xmlns="http://www.w3.org/2000/svg" xmlns:xlink="http://www.w3.org/1999/xlink">
    <!-- Generator: Sketch 52.6 (67491) - http://www.bohemiancoding.com/sketch -->
    <title>Atoms/Icon/whatsApp</title>
    <desc>Created with Sketch.</desc>
    <g id="Atoms/Icon/whatsApp" stroke="none" stroke-width="1" fill="none" fill-rule="evenodd">
        <path d="M14,2 C7.40893555,2 2,7.40893555 2,14 C2,16.175293 2.58648683,18.2929077 3.69866942,20.1455689 L2,26 L7.85443114,24.3013306 C9.7070923,25.4135132 11.824707,26 14,26 C20.5910645,26 26,20.5910645 26,14 C26,7.40893555 20.5910645,2 14,2 Z M21.5025635,19.0703735 L20.9442749,19.6286621 C20.1543579,20.4185791 18.3377685,20.355957 17.1704712,20.1305542 C13.2891846,19.3809204 8.76409911,14.994812 7.89141847,11.1964722 C7.45928956,9.31488036 7.697876,7.67901613 8.32189944,7.05480959 L8.880188,6.49652098 C9.18835447,6.18853761 9.68896484,6.1889038 9.99676512,6.49652098 L12.2302857,8.73022461 C12.3793335,8.87927244 12.4609985,9.07684325 12.4609985,9.28833008 C12.4609985,9.49981691 12.3793335,9.69757081 12.2302857,9.84606931 L11.6721802,10.4049072 C11.0569458,11.0216065 11.0569458,12.0233765 11.6721802,12.6386108 L15.3604737,16.2783814 C15.9775391,16.8954468 16.9761963,16.8961792 17.5941772,16.2783814 L18.1524658,15.7202759 C18.4406738,15.4304199 18.9790039,15.4295044 19.2695923,15.7202759 L21.5025635,17.9532471 C21.8057862,18.255188 21.8173218,18.7554321 21.5025635,19.0703735 Z" id="Shape" fill="#627790"></path>
    </g>
</svg>