<?xml version="1.0" encoding="UTF-8"?>
<svg width="27px" height="27px" viewBox="0 0 27 27" version="1.1" xmlns="http://www.w3.org/2000/svg" xmlns:xlink="http://www.w3.org/1999/xlink">
    <!-- Generator: Sketch 52.6 (67491) - http://www.bohemiancoding.com/sketch -->
    <title>Atoms/Icon/Amenities/bath</title>
    <desc>Created with Sketch.</desc>
    <g id="Atoms/Icon/Amenities/bath" stroke="none" stroke-width="1" fill="none" fill-rule="evenodd">
        <path d="M23.85,14.5030098 C24.5016816,14.5030098 25,15.0013281 25,15.6529648 C25,16.3046465 24.5016816,16.8029648 23.85,16.8029648 L23.3989844,16.8029648 L22.355,20.9429648 C22.0562695,22.0632266 21.0299395,22.892125 19.8431484,22.9342617 L20.3233184,23.8946465 C20.4,24.0862832 20.3233184,24.3162832 20.17,24.3929648 C20.1316816,24.4696465 20.0933633,24.4696465 20.0166816,24.4696465 C19.8633633,24.4696465 19.7483633,24.3929648 19.6716816,24.2396465 L19.02,22.9363281 L8.3825,22.9363281 L7.71168164,24.2779648 C7.635,24.3929648 7.52,24.4696465 7.36668164,24.4696465 C7.32836328,24.4696465 7.25168164,24.4696465 7.21336328,24.4313281 C7.02172656,24.3546914 6.94504492,24.1246914 7.06004492,23.9330098 L7.55836328,22.9363281 L7.25168164,22.9363281 C6.025,22.9363281 4.95168164,22.0929648 4.645,20.9046465 L3.61067383,16.8029648 L3.15,16.8029648 C2.49831836,16.8029648 2,16.3046465 2,15.6529648 C2,15.0012832 2.49831836,14.5029648 3.15,14.5029648 L3.18710547,14.5029648 C3.36050391,13.6188574 4.12498437,12.9696465 5.06668164,12.9696465 C5.41168164,12.9696465 5.75668164,13.0846465 6.06336328,13.2379648 C6.37004492,12.6246465 7.02172656,12.2029648 7.75004492,12.2029648 C8.36336328,12.2029648 8.90004492,12.5096465 9.28336328,12.9696465 C10.2250605,12.9696465 10.989541,13.6188574 11.1629395,14.5029648 L22.7,14.5029648 L22.7,6.45296484 C22.7,4.95796484 21.5116816,3.76964648 20.0166816,3.76964648 C18.5792715,3.76964648 17.8476738,4.89197461 17.733123,6.11007617 C18.6087852,6.28967383 19.25,7.0504707 19.25,7.98632813 C19.25,8.21632813 19.0966816,8.36964648 18.8666816,8.36964648 L15.8,8.36964648 C15.57,8.36964648 15.4166816,8.21632813 15.4166816,7.98632813 C15.4166816,7.04000391 16.0724063,6.27282813 16.9631621,6.10446094 C17.0996797,4.2610918 18.3199824,3.00300977 20.0166816,3.00300977 C21.9333633,3.00300977 23.4666816,4.53632813 23.4666816,6.45300977 L23.4666816,14.5030098 L23.85,14.5030098 Z M18.445,7.60300977 C18.2916816,7.14300977 17.8700449,6.83632813 17.3716816,6.83632813 C16.8733184,6.83632813 16.4133184,7.14300977 16.26,7.60300977 L18.445,7.60300977 Z M5.06668164,13.7363281 C4.56831836,13.7363281 4.14668164,14.0430098 3.99331836,14.5030098 L10.395,14.5030098 C10.2416816,14.0430098 9.82,13.7363281 9.32168164,13.7363281 C9.28336328,13.7363281 9.245,13.7363281 9.20668164,13.7363281 C9.05331836,13.7746465 8.86168164,13.6979648 8.785,13.5446465 C8.59331836,13.1613281 8.21,12.9696465 7.78831836,12.9696465 C7.21331836,12.9696465 6.75331836,13.3913281 6.63831836,13.9663281 C6.6,14.1196914 6.52331836,14.2346914 6.37,14.2730098 C6.21668164,14.3113281 6.06336328,14.2730098 5.98668164,14.1580098 C5.71836328,13.8896465 5.41168164,13.7363281 5.06668164,13.7363281 Z M21.665,20.7130098 L22.585,16.8030098 L4.415,16.8030098 L5.41168164,20.7130098 C5.64168164,21.556373 6.40831836,22.1696914 7.29,22.1696914 L19.7866816,22.1696914 C20.6683184,22.1696914 21.435,21.5563281 21.665,20.7130098 Z M23.85,16.0363281 C24.08,16.0363281 24.2333184,15.8830098 24.2333184,15.6530098 C24.2333184,15.4230098 24.08,15.2696914 23.85,15.2696914 L10.8166367,15.2696914 L3.53331836,15.2696914 L3.15,15.2696914 C2.92,15.2696914 2.76668164,15.4230098 2.76668164,15.6530098 C2.76668164,15.8830098 2.92,16.0363281 3.15,16.0363281 L3.91668164,16.0363281 L23.0833184,16.0363281 L23.85,16.0363281 Z M15.8,10.0946465 C15.57,10.0946465 15.4166816,9.94132812 15.4166816,9.71132812 L15.4166816,9.51964648 C15.4166816,9.28964648 15.57,9.13632812 15.8,9.13632812 C16.03,9.13632812 16.1833184,9.28964648 16.1833184,9.51964648 L16.1833184,9.71132812 C16.1833184,9.94132812 16.03,10.0946465 15.8,10.0946465 Z M15.8,11.8580098 C15.57,11.8580098 15.4166816,11.7046465 15.4166816,11.4746914 L15.4166816,11.0530098 C15.4166816,10.8230098 15.57,10.6696914 15.8,10.6696914 C16.03,10.6696914 16.1833184,10.8230098 16.1833184,11.0530098 L16.1833184,11.4746914 C16.1833184,11.6663281 16.03,11.8580098 15.8,11.8580098 Z M15.8,13.3530098 C15.57,13.3530098 15.4166816,13.1996465 15.4166816,12.9696914 L15.4166816,12.7780098 C15.4166816,12.5480098 15.57,12.3946914 15.8,12.3946914 C16.03,12.3946914 16.1833184,12.5480098 16.1833184,12.7780098 L16.1833184,12.9696914 C16.1833184,13.1996914 16.03,13.3530098 15.8,13.3530098 Z M17.3333184,10.0946465 C17.1033184,10.0946465 16.95,9.94132812 16.95,9.71132812 L16.95,9.51964648 C16.95,9.28964648 17.1033184,9.13632812 17.3333184,9.13632812 C17.5633184,9.13632812 17.7166367,9.28964648 17.7166367,9.51964648 L17.7166367,9.71132812 C17.7166367,9.94132812 17.5633184,10.0946465 17.3333184,10.0946465 Z M16.95,11.4746465 L16.95,11.0529648 C16.95,10.8229648 17.1033184,10.6696465 17.3333184,10.6696465 C17.5633184,10.6696465 17.7166367,10.8229648 17.7166367,11.0529648 L17.7166367,11.4746465 C17.7166367,11.6662832 17.5633184,11.8579648 17.3333184,11.8579648 C17.1033184,11.8579648 16.95,11.7046465 16.95,11.4746465 Z M16.95,12.9696465 L16.95,12.7779648 C16.95,12.5479648 17.1033184,12.3946465 17.3333184,12.3946465 C17.5633184,12.3946465 17.7166367,12.5479648 17.7166367,12.7779648 L17.7166367,12.9696465 C17.7166367,13.1996465 17.5633184,13.3529648 17.3333184,13.3529648 C17.1033184,13.3529648 16.95,13.1996465 16.95,12.9696465 Z M18.8666816,10.0946465 C18.6366816,10.0946465 18.4833184,9.94132812 18.4833633,9.71132812 L18.4833633,9.51964648 C18.4833633,9.28964648 18.6366816,9.13632812 18.8666816,9.13632812 C19.0966816,9.13632812 19.25,9.28964648 19.25,9.51964648 L19.25,9.71132812 C19.25,9.94132812 19.0966816,10.0946465 18.8666816,10.0946465 Z M18.4833184,11.4746465 L18.4833633,11.4746465 L18.4833633,11.0529648 C18.4833633,10.8229648 18.6366816,10.6696465 18.8666816,10.6696465 C19.0966816,10.6696465 19.25,10.8229648 19.25,11.0529648 L19.25,11.4746465 C19.25,11.6663281 19.0966367,11.8579648 18.8666367,11.8579648 C18.6366367,11.8579648 18.4833184,11.7046465 18.4833184,11.4746465 Z M18.4833184,12.9696465 L18.4833184,12.7779648 C18.4833184,12.5479648 18.6366367,12.3946465 18.8666367,12.3946465 C19.0966367,12.3946465 19.2499551,12.5479648 19.2499551,12.7779648 L19.2499551,12.9696465 C19.2499551,13.1996465 19.0966367,13.3529648 18.8666367,13.3529648 C18.6366367,13.3529648 18.4833184,13.1996465 18.4833184,12.9696465 Z" id="Combined-Shape" fill="#A1BCCF"></path>
    </g>
</svg>