<?xml version="1.0" encoding="UTF-8"?>
<svg width="27px" height="27px" viewBox="0 0 27 27" version="1.1" xmlns="http://www.w3.org/2000/svg" xmlns:xlink="http://www.w3.org/1999/xlink">
    <!-- Generator: Sketch 52.6 (67491) - http://www.bohemiancoding.com/sketch -->
    <title>Atoms/Icon/Amenities/bed</title>
    <desc>Created with Sketch.</desc>
    <g id="Atoms/Icon/Amenities/bed" stroke="none" stroke-width="1" fill="none" fill-rule="evenodd">
        <path d="M22.7614973,12.0636364 L22.7614973,12.0390374 L22.7614973,8.32459893 C22.7614973,6.65187166 21.5807487,6.0368984 20.4737968,6.0368984 L6.45240642,6.0368984 C5.34545455,6.0368984 4.16470588,6.62727273 4.16470588,8.32459893 L4.16470588,12.0390374 L4.16470588,12.0636364 C3.05775401,12.186631 2,12.9245989 2,14.6219251 L2,17.5245989 C2,18.0165775 2.39358289,18.4101604 2.8855615,18.4101604 L3.18074866,18.4101604 L3.18074866,20.697861 C3.18074866,21.1898396 3.57433155,21.5834225 4.06631016,21.5834225 L4.9026738,21.5834225 C5.39465241,21.5834225 5.78823529,21.1898396 5.78823529,20.697861 L5.78823529,18.3855615 L21.2117647,18.3855615 L21.2117647,20.697861 C21.2117647,21.1898396 21.6053476,21.5834225 22.0973262,21.5834225 L22.9336898,21.5834225 C23.4256684,21.5834225 23.8192513,21.1898396 23.8192513,20.697861 L23.8192513,18.3855615 L24.1144385,18.3855615 C24.6064171,18.3855615 25,17.9919786 25,17.5 L25,14.6219251 C24.9262032,12.9245989 23.8684492,12.186631 22.7614973,12.0636364 Z M5.00106952,8.32459893 L5.05026738,8.32459893 C5.05026738,7.1684492 5.81283422,6.92245989 6.45240642,6.92245989 L20.4737968,6.92245989 C21.113369,6.92245989 21.8759358,7.1684492 21.8759358,8.32459893 L21.8759358,12.0390374 L21.2117647,12.0390374 L21.2117647,9.92352941 C21.2117647,9.4315508 20.8181818,9.03796791 20.3262032,9.03796791 L14.9144385,9.03796791 C14.4224599,9.03796791 14.028877,9.4315508 14.028877,9.92352941 L14.028877,12.0390374 L12.9957219,12.0390374 L12.9957219,9.92352941 C12.9957219,9.4315508 12.602139,9.03796791 12.1101604,9.03796791 L6.69839572,9.03796791 C6.20641711,9.03796791 5.81283422,9.4315508 5.81283422,9.92352941 L5.81283422,12.0390374 L5.00106952,12.0390374 L5.00106952,8.32459893 Z M20.3262032,9.92352941 L20.3262032,12.0390374 L14.9144385,12.0390374 L14.9144385,9.92352941 L20.3262032,9.92352941 Z M12.1593583,9.92352941 L12.1593583,12.0390374 L6.74759358,12.0390374 L6.74759358,9.92352941 L12.1593583,9.92352941 Z M4.87807487,20.697861 L4.04171123,20.697861 L4.04171123,18.3855615 L4.87807487,18.3855615 L4.87807487,20.697861 Z M22.884492,20.697861 L22.0481283,20.697861 L22.0481283,18.3855615 L22.884492,18.3855615 L22.884492,20.697861 Z M24.0406417,17.5245989 L22.884492,17.5245989 L22.0481283,17.5245989 L4.87807487,17.5245989 L4.04171123,17.5245989 L2.86096257,17.5245989 L2.86096257,16.2208556 L24.0406417,16.2208556 L24.0406417,17.5245989 Z M24.0406417,15.3352941 L2.86096257,15.3352941 L2.86096257,14.6219251 C2.86096257,13.1459893 3.94331551,12.9245989 4.55828877,12.9245989 L5.02566845,12.9245989 L6.72299465,12.9245989 L12.1347594,12.9245989 L14.9144385,12.9245989 L20.3262032,12.9245989 L21.8759358,12.9245989 L22.3433155,12.9245989 C22.9828877,12.9245989 24.0406417,13.1459893 24.0406417,14.6219251 L24.0406417,15.3352941 Z" id="Shape" fill="#A1BCCF"></path>
    </g>
</svg>