<?xml version="1.0" encoding="UTF-8"?>
<svg width="27px" height="27px" viewBox="0 0 27 27" version="1.1" xmlns="http://www.w3.org/2000/svg" xmlns:xlink="http://www.w3.org/1999/xlink">
    <!-- Generator: Sketch 52.6 (67491) - http://www.bohemiancoding.com/sketch -->
    <title>Atoms/Icon/Amenities/breakfast</title>
    <desc>Created with Sketch.</desc>
    <g id="Atoms/Icon/Amenities/breakfast" stroke="none" stroke-width="1" fill="none" fill-rule="evenodd">
        <path d="M18.6824724,19.3172453 C18.3660652,19.6513219 18.0228299,19.962826 17.6547698,20.2484727 L23.5629043,20.2484727 C23.7564727,20.2484727 23.9309043,20.3654043 24.0056543,20.5445977 C24.0804043,20.723791 24.0392109,20.9298477 23.9021992,21.0669043 L22.8278926,22.1421543 C22.1925176,22.7756426 21.3501426,23.1244609 20.4540859,23.1244609 L5.58651758,23.1244609 C4.69046094,23.1244609 3.84907422,22.7755977 3.21464258,22.1421543 L2.14033594,21.0669043 C2.0032793,20.9298477 1.96208594,20.723791 2.03683594,20.5445977 C2.11158594,20.3654043 2.28601758,20.2484727 2.47958594,20.2484727 L8.38452971,20.2484727 C6.1869586,18.5414122 4.87446094,15.9121939 4.87446094,13.061916 L4.87446094,12.1035977 C4.87446094,11.311041 5.5194043,10.6660977 6.31196094,10.6660977 L19.7286426,10.6660977 C20.5211543,10.6660977 21.1661426,11.311041 21.1661426,12.1035078 L21.1661426,12.8487415 C21.9374181,12.6048035 23.1867909,12.359109 24.0727676,12.9287227 C24.6870742,13.3254727 24.9994609,14.0145293 24.999416,14.9785977 C24.999416,18.0797793 19.1104277,19.234541 18.8593594,19.2824727 L18.6824724,19.3172453 Z M19.6421563,18.1139248 C21.4029479,17.6294118 24.0410977,16.5627084 24.0410977,14.9785977 C24.0410977,14.3537793 23.8810859,13.9464727 23.5542793,13.7365977 C22.9294236,13.3340911 21.7414261,13.6487024 21.1301149,13.8774997 C20.9937223,15.4155404 20.4742006,16.8662742 19.6421563,18.1139248 Z M18.0449975,18.5950204 C18.0651922,18.5675933 18.0883107,18.5422889 18.1140086,18.5196258 C19.4428916,17.0493372 20.2078242,15.1202124 20.2078242,13.0618711 L20.2078242,12.1035527 C20.2078242,11.8390527 19.9931426,11.6243711 19.7286426,11.6243711 L6.31196094,11.6243711 C6.04746094,11.6243711 5.8327793,11.8390527 5.8327793,12.1035527 L5.8327793,13.0618711 C5.8327793,16.0827705 7.48036564,18.825307 10.1393068,20.2484727 L15.898607,20.2484727 C16.7156825,19.8118265 17.4372817,19.2506128 18.0449975,18.5950204 Z M10.0458506,21.2077793 C10.0304424,21.208525 10.0149607,21.2085305 9.9994594,21.2077793 L3.63538086,21.2077793 L3.89219922,21.4645977 C4.34451758,21.916916 4.94732422,22.1660977 5.58651758,22.1660977 L20.4550742,22.1660977 C21.0942676,22.1660977 21.6970742,21.916916 22.1493926,21.4645977 L22.4062109,21.2077793 L10.0458589,21.2077793 Z M16.7510859,6.65259766 C16.2556426,7.27072266 16.2556426,8.31241602 16.7501426,8.9286543 C16.9159492,9.13466602 16.8823926,9.43654102 16.6753926,9.60234766 C16.5872109,9.6732793 16.4808359,9.7077793 16.3763926,9.7077793 C16.2355176,9.7077793 16.0965742,9.64641602 16.0016992,9.52759766 C15.2216309,8.55391602 15.2216309,7.02922266 16.0016992,6.05554102 C16.4961992,5.43741602 16.4961992,4.39567773 16.0026426,3.77948438 C15.8368359,3.57248438 15.8703926,3.27159766 16.0773926,3.10579102 C16.2853359,2.93904102 16.5852793,2.97354102 16.7510859,3.18054102 C17.5302109,4.15422266 17.5302109,5.67891602 16.7510859,6.65259766 Z M13.8722676,6.65259766 C13.3777676,7.27072266 13.3777676,8.31241602 13.8713242,8.9286543 C14.0371309,9.1356543 14.0035742,9.43654102 13.7965742,9.60234766 C13.7074492,9.6732793 13.6020176,9.7077793 13.4975742,9.7077793 C13.3566992,9.7077793 13.2177559,9.64641602 13.1228809,9.52759766 C12.3437559,8.55391602 12.3437559,7.02922266 13.1228809,6.05554102 C13.6183242,5.43741602 13.6183242,4.39567773 13.1238242,3.77948437 C12.9580176,3.57347266 12.9915742,3.27159766 13.1985742,3.10579102 C13.4055742,2.93998437 13.7074492,2.97354102 13.8722676,3.18054102 C14.6523359,4.15422266 14.6523359,5.67891602 13.8722676,6.65259766 Z M11.0010859,6.65354102 C10.5056426,7.27166602 10.5056426,8.31241602 11.0001426,8.92964258 C11.1659492,9.1356543 11.1323926,9.4375293 10.9253926,9.60333594 C10.8372109,9.6732793 10.7308359,9.7077793 10.6263926,9.7077793 C10.4855176,9.7077793 10.3465742,9.64641602 10.2516992,9.52759766 C9.47163086,8.55391602 9.47163086,7.02922266 10.2516992,6.05554102 C10.7461992,5.43741602 10.7461992,4.39567773 10.2526426,3.77948438 C10.0878242,3.57342773 10.1213359,3.27155273 10.3273926,3.10673438 C10.5353359,2.93998438 10.8362676,2.97448438 11.0010859,3.18148438 C11.7802109,4.15516602 11.7802109,5.67985938 11.0010859,6.65354102 Z" id="Combined-Shape" fill="#A1BCCF"></path>
    </g>
</svg>