<?xml version="1.0" encoding="UTF-8"?>
<svg width="27px" height="27px" viewBox="0 0 27 27" version="1.1" xmlns="http://www.w3.org/2000/svg" xmlns:xlink="http://www.w3.org/1999/xlink">
    <!-- Generator: Sketch 53.2 (72643) - https://sketchapp.com -->
    <title>Atoms/Icon/Amenities/burglar-alarm</title>
    <desc>Created with Sketch.</desc>
    <g id="Atoms/Icon/Amenities/burglar-alarm" stroke="none" stroke-width="1" fill="none" fill-rule="evenodd">
        <g id="burglar-alarm" transform="translate(3.000000, 1.000000)" fill="#263646">
            <path d="M21.642685,16.5718079 C21.7922211,16.6215896 21.8931198,16.7615891 21.8931198,16.919136 C21.8931198,16.973877 21.8854904,18.28022 21.2310791,19.9268341 C20.627594,21.4450836 19.3355561,23.5506058 16.6065216,24.9591827 C16.553688,24.9862671 16.4960861,24.9998093 16.4384842,24.9998093 C16.3808823,24.9998093 16.3232803,24.9862671 16.2704468,24.9591827 C13.5414124,23.5506058 12.2491836,21.4450836 11.6458893,19.9268341 C11.3437652,19.1669464 11.1797333,18.4799194 11.0904693,17.9544449 L1.56478882,17.9544449 C0.715446484,17.9544449 0.0244140625,17.2634125 0.0244140625,16.4140701 L0.0244140625,8.58592988 C0.0244140625,7.73639678 0.715446484,7.04536436 1.56478882,7.04536436 L1.58996582,7.04536436 L1.58996582,1.14898682 C1.58996582,0.515556348 2.10533145,1.88293825e-13 2.73895264,1.88293825e-13 C3.37257383,1.88293825e-13 3.88813018,0.515556348 3.88793945,1.14898682 L3.88793945,7.04536436 L4.30450439,7.04536436 C4.50687407,7.04536436 4.67071533,7.20939639 4.67071533,7.41157529 C4.67071533,7.61394502 4.50687407,7.77778623 4.30450439,7.77778623 L1.56478882,7.77778623 C1.11923218,7.77778623 0.756645215,8.14037324 0.756645215,8.58592988 L0.756645215,15.6564712 L9.78450776,15.6564712 C9.98668672,15.6564712 10.1507187,15.8205032 10.1507187,16.0226822 C10.1507187,16.2248611 9.98668672,16.3888931 9.78450776,16.3888931 L0.756835937,16.3888931 L0.756835937,16.4140701 C0.756835937,16.8596268 1.11923218,17.222023 1.56478882,17.222023 L10.9983444,17.222023 C10.9846115,17.0413971 10.9838486,16.9340134 10.9838486,16.919136 C10.9838486,16.7613983 11.0847473,16.6215896 11.2342834,16.5716171 C12.4471665,16.16745 12.4610901,15.2866363 12.4610901,15.2776718 C12.4610901,15.1067734 12.5795364,14.9585724 12.7462387,14.9206162 L14.1151428,14.6095276 L14.1151428,8.58592988 C14.1151428,8.14037324 13.7527466,7.77778623 13.3071899,7.77778623 L5.87024687,7.77778623 C5.66806792,7.77778623 5.50403594,7.61394502 5.50403594,7.41157529 C5.50403594,7.20939639 5.66806792,7.04536436 5.87024687,7.04536436 L13.3071899,7.04536436 C14.1565323,7.04536436 14.8475647,7.73639678 14.8475647,8.58592988 L14.8475647,14.4432068 L16.3572312,14.1000748 C16.4106369,14.0878677 16.4661407,14.0878677 16.5195465,14.1000748 L20.1307297,14.9206162 C20.2974319,14.9585724 20.4156875,15.1067734 20.4156875,15.2778625 C20.4166412,15.3100967 20.4515457,16.1746979 21.642685,16.5718079 Z M2.73895264,0.732421875 C2.50930786,0.732421875 2.3223877,0.919342041 2.3223877,1.14898682 L2.3223877,5.4798126 L3.1557083,5.4798126 L3.1557083,1.14898682 C3.1557083,0.919342041 2.96878813,0.732421875 2.73895264,0.732421875 Z M2.3223877,6.21223447 L2.3223877,7.04536436 L3.1557083,7.04536436 L3.1557083,6.21223447 L2.3223877,6.21223447 Z M20.5503464,19.6563721 C20.9926605,18.5436249 21.1145401,17.5977707 21.1479187,17.1674729 C20.1227188,16.7325974 19.8150635,15.9929275 19.7227478,15.5790329 L16.4384842,14.8326874 L13.1540298,15.5790329 C13.0619049,15.9927368 12.7540588,16.7322159 11.7294312,17.1672821 C11.7639542,17.6027298 11.888504,18.5653687 12.3376846,19.6844101 C13.1278992,21.6537476 14.507103,23.1786728 16.4384842,24.2197037 C18.3794021,23.1735229 19.7624207,21.639061 20.5503464,19.6563721 Z M7.01942441,12.5 C7.01942441,12.9177094 6.67953491,13.2575989 6.26163481,13.2575989 L3.13034058,13.2575989 C2.71263125,13.2575989 2.3727417,12.9177094 2.3727417,12.5 L2.3727417,10.1514816 C2.3727417,9.73377227 2.71263125,9.39388276 3.13034058,9.39388276 L6.26182559,9.39388276 C6.67953491,9.39388276 7.01942441,9.73377227 7.01942441,10.1514816 L7.01942441,12.5 Z M3.10516357,12.5 C3.10516357,12.5139236 3.11660767,12.525177 3.13034058,12.525177 L6.26163481,12.525177 C6.2755585,12.525177 6.28700254,12.5139236 6.28700254,12.5 L6.28700254,10.1514816 C6.28700254,10.137558 6.2755585,10.1263046 6.26163481,10.1263046 L3.13034058,10.1263046 C3.11641694,10.1263046 3.10516357,10.137558 3.10516357,10.1514816 L3.10516357,12.5 Z M8.21876523,10.1263046 C8.01658633,10.1263046 7.8525543,9.96227266 7.8525543,9.7600937 C7.8525543,9.55791475 8.01658633,9.39388276 8.21876523,9.39388276 L8.61015322,9.39388276 C8.8125229,9.39388276 8.97636416,9.55791475 8.97636416,9.7600937 C8.97636416,9.96227266 8.8125229,10.1263046 8.61015322,10.1263046 L8.21876523,10.1263046 Z M10.1758957,10.1263046 C9.97371675,10.1263046 9.80968477,9.96227266 9.80968477,9.7600937 C9.80968477,9.55791475 9.97371675,9.39388276 10.1758957,9.39388276 L10.5672836,9.39388276 C10.7694626,9.39388276 10.9334946,9.55791475 10.9334946,9.7600937 C10.9334946,9.96227266 10.7694626,10.1263046 10.5672836,10.1263046 L10.1758957,10.1263046 Z M12.1328354,10.1263046 C11.9306564,10.1263046 11.7666245,9.96227266 11.7666245,9.7600937 C11.7666245,9.55791475 11.9306564,9.39388276 12.1328354,9.39388276 L12.5242233,9.39388276 C12.726593,9.39388276 12.8904343,9.55791475 12.8904343,9.7600937 C12.8904343,9.96227266 12.726593,10.1263046 12.5242233,10.1263046 L12.1328354,10.1263046 Z M8.21876523,11.6920471 C8.01658633,11.6920471 7.8525543,11.5280151 7.8525543,11.3258362 C7.8525543,11.1234665 8.01658633,10.9596252 8.21876523,10.9596252 L8.61015322,10.9596252 C8.8125229,10.9596252 8.97636416,11.1234665 8.97636416,11.3258362 C8.97636416,11.5280151 8.8125229,11.6920471 8.61015322,11.6920471 L8.21876523,11.6920471 Z M10.1758957,11.6920471 C9.97371675,11.6920471 9.80968477,11.5280151 9.80968477,11.3258362 C9.80968477,11.1234665 9.97371675,10.9596252 10.1758957,10.9596252 L10.5672836,10.9596252 C10.7694626,10.9596252 10.9334946,11.1234665 10.9334946,11.3258362 C10.9334946,11.5280151 10.7694626,11.6920471 10.5672836,11.6920471 L10.1758957,11.6920471 Z M12.1328354,11.6920471 C11.9306564,11.6920471 11.7666245,11.5280151 11.7666245,11.3258362 C11.7666245,11.1234665 11.9306564,10.9596252 12.1328354,10.9596252 L12.5242233,10.9596252 C12.726593,10.9596252 12.8904343,11.1234665 12.8904343,11.3258362 C12.8904343,11.5280151 12.726593,11.6920471 12.5242233,11.6920471 L12.1328354,11.6920471 Z M8.21876523,13.2575989 C8.01658633,13.2575989 7.8525543,13.0935669 7.8525543,12.8913879 C7.8525543,12.689209 8.01658633,12.525177 8.21876523,12.525177 L8.61015322,12.525177 C8.8125229,12.525177 8.97636416,12.689209 8.97636416,12.8913879 C8.97636416,13.0935669 8.8125229,13.2575989 8.61015322,13.2575989 L8.21876523,13.2575989 Z M5.47885894,14.0909195 L5.87024687,14.0909195 C6.0726166,14.0909195 6.23645781,14.2547607 6.23645781,14.4571304 C6.23645781,14.6593094 6.0726166,14.8233414 5.87024687,14.8233414 L5.47885894,14.8233414 C5.27667998,14.8233414 5.112648,14.6593094 5.112648,14.4571304 C5.112648,14.2547607 5.27667998,14.0909195 5.47885894,14.0909195 Z M3.52191924,14.0909195 L3.91330718,14.0909195 C4.11548613,14.0909195 4.27951812,14.2547607 4.27951812,14.4571304 C4.27951812,14.6593094 4.11548613,14.8233414 3.91330718,14.8233414 L3.52191924,14.8233414 C3.31954956,14.8233414 3.1557083,14.6593094 3.1557083,14.4571304 C3.1557083,14.2547607 3.31954956,14.0909195 3.52191924,14.0909195 Z M10.1758957,13.2575989 C9.97371675,13.2575989 9.80968477,13.0935669 9.80968477,12.8913879 C9.80968477,12.689209 9.97371675,12.525177 10.1758957,12.525177 L10.5672836,12.525177 C10.7694626,12.525177 10.9334946,12.689209 10.9334946,12.8913879 C10.9334946,13.0935669 10.7694626,13.2575989 10.5672836,13.2575989 L10.1758957,13.2575989 Z M12.1328354,13.2575989 C11.9306564,13.2575989 11.7666245,13.0935669 11.7666245,12.8913879 C11.7666245,12.689209 11.9306564,12.525177 12.1328354,12.525177 L12.5242233,12.525177 C12.726593,12.525177 12.8904343,12.689209 12.8904343,12.8913879 C12.8904343,13.0935669 12.726593,13.2575989 12.5242233,13.2575989 L12.1328354,13.2575989 Z M20.0727463,17.5104141 C20.1860428,17.5941467 20.2413559,17.735672 20.2148437,17.8739548 C19.9729919,19.1368103 19.1862106,21.4994431 16.6362763,23.1367111 C16.576004,23.1754303 16.5073395,23.1948853 16.4384842,23.1948853 C16.3696289,23.1948853 16.3009644,23.1754303 16.2406921,23.1369019 C15.0318146,22.3608017 14.0907288,21.3417053 13.4433746,20.1078415 C13.3493423,19.9287415 13.4183884,19.7072983 13.5974884,19.613266 C13.7765884,19.5194244 13.9978409,19.5884705 14.0918731,19.7675705 C14.5750046,20.6884384 15.2395249,21.4782715 16.0722732,22.1225738 L16.0722732,16.5214539 L14.2906189,16.926384 C14.0678406,17.3158646 13.7781143,17.6599502 13.4263992,17.9531098 C13.4502411,18.060112 13.4767532,18.167305 13.5057449,18.2737351 C13.5587692,18.4688568 13.4435654,18.6700821 13.2484436,18.7231064 C13.0533218,18.7763214 12.8520966,18.6611176 12.7990723,18.4658051 C12.7454758,18.2693481 12.6995087,18.0702209 12.6619339,17.8739548 C12.6354218,17.7354813 12.6907349,17.5943375 12.8040313,17.5106049 C13.1977081,17.2199249 13.5065079,16.859436 13.7218476,16.4390564 C13.7712479,16.3425445 13.8608933,16.2729263 13.9665604,16.2488938 L16.3499832,15.7072067 C16.3784027,15.6999588 16.4079666,15.6963349 16.4381027,15.6963349 C16.4693833,15.6972885 16.498375,15.6999588 16.5271759,15.7072067 L18.910408,16.2488938 C19.0160751,16.2729263 19.1057205,16.3425445 19.1551208,16.4390564 C19.3702698,16.859436 19.6790695,17.2197342 20.0727463,17.5104141 Z M16.8046951,22.1221924 C18.5569763,20.7637787 19.2085266,19.0299988 19.4503784,17.9527283 C19.0986633,17.6597595 18.8091278,17.3156738 18.5863495,16.926384 L16.8046951,16.5214539 L16.8046951,22.1221924 Z" id="Combined-Shape"></path>
        </g>
    </g>
</svg>