<?xml version="1.0" encoding="UTF-8"?>
<svg width="27px" height="27px" viewBox="0 0 27 27" version="1.1" xmlns="http://www.w3.org/2000/svg" xmlns:xlink="http://www.w3.org/1999/xlink">
    <!-- Generator: Sketch 52.6 (67491) - http://www.bohemiancoding.com/sketch -->
    <title>Atoms/Icon/Amenities/hairdryer</title>
    <desc>Created with Sketch.</desc>
    <g id="Atoms/Icon/Amenities/hairdryer" stroke="none" stroke-width="1" fill="none" fill-rule="evenodd">
        <path d="M6.97142108,6.82398658 C7.18260065,6.82398658 7.35381957,6.9952055 7.35381957,7.20638507 C7.35381957,7.41756463 7.18260065,7.58878355 6.97142108,7.58878355 C6.76024152,7.58878355 6.58902259,7.76000248 6.58902259,7.97118204 C6.58902259,8.18236161 6.41780367,8.35358053 6.20662411,8.35358053 C5.99544454,8.35358053 5.82422562,8.18236161 5.82422562,7.97118204 C5.82422562,7.33759555 6.33783459,6.82398658 6.97142108,6.82398658 Z M20.4199935,5.29974621 C20.6036404,5.33119848 20.7378622,5.49046745 20.7377666,5.67674332 L20.7377666,10.2655252 C20.7377188,10.4523268 20.6026844,10.6117392 20.4184639,10.6425701 L9.76293004,12.4692877 L10.4130075,22.8609666 C10.4134855,22.8690925 10.4137245,22.8772185 10.4137245,22.8853923 C10.4133421,23.0966196 10.2417885,23.2674561 10.030609,23.2670737 L6.97142108,23.2670737 C6.79604358,23.2670737 6.64313198,23.1477176 6.60049455,22.9775981 L3.8070736,11.7997079 C2.66169453,10.8551836 1.99875895,9.4478616 2.00000174,7.96324727 C2.00224834,5.21987272 4.22804653,2.99775511 6.97142108,3.0000017 C6.9930744,3.0000495 7.01467991,3.00186589 7.03604643,3.00535528 L20.4199935,5.29974621 Z M7.2700743,22.5023246 L9.62373699,22.5023246 L9.00616343,12.5982037 L7.03604643,12.9370088 C7.01467991,12.9404982 6.9930744,12.9423146 6.97142108,12.9423624 C6.79781217,12.9414064 6.62434665,12.9315596 6.45174154,12.9129177 C6.40355933,12.9079465 6.35537712,12.9014457 6.30719491,12.8953274 C6.17206484,12.8772112 6.03836877,12.8540283 5.9060589,12.8257308 C5.86781905,12.8173181 5.8295792,12.8108173 5.79133935,12.8016397 C5.6277206,12.7622049 5.46625284,12.7143573 5.30760526,12.6582403 C5.2720422,12.6456212 5.23762634,12.6303252 5.20206328,12.6169413 C5.07534598,12.5687591 4.95044508,12.5152233 4.82731276,12.4563339 C4.80322166,12.4444795 4.77760096,12.4364492 4.75350985,12.4245948 L7.2700743,22.5023246 Z M18.4433757,10.205154 L18.4433757,5.73721008 L6.93968201,3.76479868 C4.63009074,3.7849224 2.76766671,5.66149518 2.76503772,7.97118204 C2.76202633,10.2831633 4.62774855,12.1630343 6.93968201,12.1775654 L7.06281432,12.1553863 L18.4433757,10.205154 Z M19.9729697,9.94321104 L19.9729697,5.99915304 L19.2081727,5.86799036 L19.2081727,10.0743737 L19.9729697,9.94321104 Z M6.97142108,5.29439263 C8.44977364,5.29439263 9.6482105,6.49282949 9.6482105,7.97118204 C9.6482105,9.44953459 8.44977364,10.6479715 6.97142108,10.6479715 C5.49378553,10.6462985 4.29630466,9.4488176 4.29463167,7.97118204 C4.29463167,6.49282949 5.49306853,5.29439263 6.97142108,5.29439263 Z M6.97142108,9.88317448 C8.02741451,9.88317448 8.88341352,9.02712766 8.88341352,7.97118204 C8.88341352,6.91523642 8.02736671,6.0591896 6.97142108,6.0591896 C5.91600126,6.0604324 5.06067144,6.91576222 5.05942864,7.97118204 C5.05942864,9.02712766 5.91547546,9.88317448 6.97142108,9.88317448 Z M8.78437231,21.3321852 C8.79746946,21.5429346 8.63719669,21.7243826 8.42644733,21.7375276 C8.41841696,21.7375276 8.41038659,21.7375276 8.40235622,21.7375276 C8.19992402,21.7381012 8.03214669,21.5808876 8.01957534,21.3788378 L7.55763796,13.9698671 C7.54444522,13.7586876 7.70495698,13.5767615 7.91613655,13.5635687 C8.12731611,13.550376 8.30924219,13.7108877 8.32243494,13.9220673 L8.78437231,21.3321852 Z M24.5617515,7.58878355 C24.7729311,7.58878355 24.94415,7.76000248 24.94415,7.97118204 C24.94415,8.18236161 24.7729311,8.35358053 24.5617515,8.35358053 L22.2673606,8.35358053 C22.056181,8.35358053 21.8849621,8.18236161 21.8849621,7.97118204 C21.8849621,7.76000248 22.056181,7.58878355 22.2673606,7.58878355 L24.5617515,7.58878355 Z M24.5617515,9.1183775 C24.7729311,9.1183775 24.94415,9.28959643 24.94415,9.50077599 C24.94415,9.71195556 24.7729311,9.88317448 24.5617515,9.88317448 L22.2673606,9.88317448 C22.056181,9.88317448 21.8849621,9.71195556 21.8849621,9.50077599 C21.8849621,9.28959643 22.056181,9.1183775 22.2673606,9.1183775 L24.5617515,9.1183775 Z M24.5617515,6.0591896 C24.7729311,6.0591896 24.94415,6.23040853 24.94415,6.44158809 C24.94415,6.65276766 24.7729311,6.82398658 24.5617515,6.82398658 L22.2673606,6.82398658 C22.056181,6.82398658 21.8849621,6.65276766 21.8849621,6.44158809 C21.8849621,6.23040853 22.056181,6.0591896 22.2673606,6.0591896 L24.5617515,6.0591896 Z" id="Combined-Shape" fill="#A1BCCF"></path>
    </g>
</svg>