<?xml version="1.0" encoding="UTF-8"?>
<svg width="27px" height="27px" viewBox="0 0 27 27" version="1.1" xmlns="http://www.w3.org/2000/svg" xmlns:xlink="http://www.w3.org/1999/xlink">
    <!-- Generator: Sketch 52.6 (67491) - http://www.bohemiancoding.com/sketch -->
    <title>Atoms/Icon/Amenities/min-stay</title>
    <desc>Created with Sketch.</desc>
    <g id="Atoms/Icon/Amenities/min-stay" stroke="none" stroke-width="1" fill="none" fill-rule="evenodd">
        <path d="M24.6265165,16.3825815 C24.9830165,16.6672514 25.0994091,17.1556869 24.9097939,17.5704056 C23.9913662,19.5784131 22.5273176,21.280952 20.6761323,22.4939772 C18.7751736,23.7395259 16.5643438,24.3978559 14.2826722,24.3978559 C7.84199923,24.3978559 2.60204289,19.1579444 2.60204289,12.7172265 C2.60204289,10.4354202 3.26037288,8.22459041 4.50592154,6.32381136 C5.71894678,4.47258114 7.42153054,3.00857743 9.42949316,2.09028458 C9.84385248,1.90057953 10.3325126,2.0167924 10.6171825,2.37347204 C10.9017176,2.72992707 10.9071531,3.23197388 10.6302996,3.59440352 C9.40873926,5.19362206 8.76303231,7.10491282 8.76303231,9.12168014 C8.76303231,13.0614179 11.2784324,16.540437 15.0223557,17.7787981 C15.228592,17.8469895 15.3404924,18.0695774 15.272301,18.2758586 C15.2040197,18.48205 14.9816565,18.5939054 14.7752405,18.5258039 C12.8144009,17.877177 11.12745,16.6497319 9.89672552,14.9762126 C8.64030577,13.267744 7.97622577,11.2432951 7.97622577,9.12163521 C7.97622577,6.93079566 8.6777706,4.8543721 10.0050321,3.11679421 C10.0623075,3.04186453 10.0610946,2.93800517 10.0022919,2.86428838 C9.94344427,2.79052667 9.84263959,2.76640363 9.75692867,2.80566534 C7.88377657,3.66232539 6.29565373,5.02795021 5.16402693,6.75506131 C4.00270677,8.52736381 3.38884943,10.589053 3.38884943,12.7172265 C3.38884943,18.724089 8.27580972,23.6110493 14.2826722,23.6110493 C16.410711,23.6110493 18.4724451,22.9971471 20.2448824,21.8358718 C21.9719036,20.704245 23.3375734,19.1160773 24.1941885,17.2431498 C24.2334053,17.157349 24.2093721,17.0563197 24.1356553,16.9974721 C24.0618936,16.9386693 23.9580342,16.9375014 23.8830147,16.9948217 C22.1457063,18.3220383 20.0692828,19.0235831 17.8782635,19.0235831 C17.2824199,19.0235831 16.684959,18.9699464 16.102502,18.8641105 C15.8887189,18.825298 15.7469005,18.6204992 15.7857579,18.4067609 C15.8245704,18.1929328 16.0292345,18.0510247 16.2431075,18.0900168 C16.7792949,18.1874075 17.3294531,18.2368215 17.8783085,18.2368215 C19.8952105,18.2368215 21.8064564,17.5911595 23.4055401,16.3695542 C23.7681046,16.0927456 24.2701963,16.0982261 24.6265165,16.3825815 Z M13.2957837,9.06993014 C13.0785415,9.06993014 12.9024029,8.89379149 12.9024029,8.67654934 C12.9024029,8.45930718 13.0785415,8.28316853 13.2957837,8.28316853 C14.2252621,8.28316853 14.9815217,7.52690886 14.9815217,6.59743047 C14.9815217,6.38018831 15.1576604,6.20404966 15.3749025,6.20404966 C15.5921447,6.20404966 15.7682833,6.38018831 15.7682833,6.59743047 C15.7682833,7.52690886 16.5244981,8.28316853 17.4539765,8.28316853 C17.6712186,8.28316853 17.8473573,8.45930718 17.8473573,8.67654934 C17.8473573,8.89379149 17.6712186,9.06993014 17.4539765,9.06993014 C16.5244981,9.06993014 15.7682833,9.82614489 15.7682833,10.7556233 C15.7682833,10.9728654 15.5921447,11.1490041 15.3749025,11.1490041 C15.1576604,11.1490041 14.9815217,10.9728654 14.9815217,10.7556233 C14.9815217,9.82614489 14.2252621,9.06993014 13.2957837,9.06993014 Z M15.3749025,7.93426037 C15.1832209,8.23137361 14.9297268,8.48486772 14.6326136,8.67654934 C14.9297268,8.86827587 15.1832209,9.12168014 15.3749025,9.41879338 C15.5666291,9.12168014 15.8200333,8.86823095 16.1171466,8.67654934 C15.8200333,8.4848228 15.5665841,8.23137361 15.3749025,7.93426037 Z M18.8638493,14.1286267 C18.1890779,14.1286267 17.6401327,13.5796366 17.6400429,12.9048652 C17.6400429,12.2300489 18.189033,11.6810138 18.8638493,11.6810138 C19.5386657,11.6810138 20.0877007,12.2300489 20.0877007,12.9048652 C20.0877007,13.5796366 19.5386657,14.1286267 18.8638493,14.1286267 Z M18.8638493,12.4678652 C18.6228884,12.4678652 18.4268943,12.6639043 18.4268494,12.9049101 C18.4268494,13.145871 18.6228435,13.3418651 18.8638493,13.3418651 C19.1048552,13.3418651 19.3008942,13.1458261 19.3008942,12.9049101 C19.3008942,12.6639043 19.1048102,12.4678652 18.8638493,12.4678652 Z M3.81713453,21.3193602 C4.49195084,21.3193602 5.04094101,21.8683503 5.04094101,22.5431666 C5.04094101,23.217983 4.49195084,23.767018 3.81713453,23.767018 C3.14231821,23.767018 2.59332805,23.217983 2.59332805,22.5431666 C2.59332805,21.8683503 3.14231821,21.3193602 3.81713453,21.3193602 Z M3.81713453,22.9801666 C4.05814035,22.9801666 4.25413447,22.7841276 4.25413447,22.5431666 C4.25413447,22.3021608 4.05809543,22.1061667 3.81713453,22.1061667 C3.57617362,22.1061667 3.38013458,22.3021159 3.38013458,22.5431217 C3.38013458,22.7841276 3.57617362,22.9801666 3.81713453,22.9801666 Z M15.3748576,13.891574 C15.1024723,13.891574 14.8816604,13.6707621 14.8816604,13.3983768 C14.8816604,13.1259915 15.1024723,12.9051796 15.3748576,12.9051796 C15.6472429,12.9051796 15.8680548,13.1259915 15.8680548,13.3983768 C15.8680548,13.6707621 15.6472429,13.891574 15.3748576,13.891574 Z M2.4931972,19.813624 C2.22081191,19.813624 2,19.5928121 2,19.3204268 C2,19.0480415 2.22081191,18.8272296 2.4931972,18.8272296 C2.76558249,18.8272296 2.9863944,19.0480415 2.9863944,19.3204268 C2.9863944,19.5928121 2.76558249,19.813624 2.4931972,19.813624 Z M18.5377166,6.26810825 C18.2653313,6.26810825 18.0445194,6.04729634 18.0445194,5.77491105 C18.0445194,5.50252575 18.2653313,5.28171384 18.5377166,5.28171384 C18.8101019,5.28171384 19.0309138,5.50252575 19.0309138,5.77491105 C19.0309138,6.04729634 18.8101019,6.26810825 18.5377166,6.26810825 Z" id="Combined-Shape" fill="#A1BCCF"></path>
    </g>
</svg>