<?xml version="1.0" encoding="UTF-8"?>
<svg width="27px" height="27px" viewBox="0 0 27 27" version="1.1" xmlns="http://www.w3.org/2000/svg" xmlns:xlink="http://www.w3.org/1999/xlink">
    <!-- Generator: Sketch 52.6 (67491) - http://www.bohemiancoding.com/sketch -->
    <title>Atoms/Icon/Amenities/no-pets</title>
    <desc>Created with Sketch.</desc>
    <g id="Atoms/Icon/Amenities/no-pets" stroke="none" stroke-width="1" fill="none" fill-rule="evenodd">
        <path d="M10.102334,15.0100488 C9.83653125,15.2758066 9.49678711,15.4166816 9.11966797,15.4166816 C8.13044336,15.4166816 7.13933203,14.4087246 6.86279297,13.1214434 L6.86279297,13.1209941 C6.81553516,12.9005625 6.79168164,12.6830059 6.79168164,12.4733555 C6.7911875,11.9778223 6.91988867,11.5402832 7.16367969,11.2085352 C7.43976953,10.8323145 7.84217969,10.625 8.29701367,10.625 C9.28623828,10.625 10.2773047,11.632957 10.5538887,12.9202383 C10.6011465,13.1401758 10.625,13.3582266 10.625,13.5683262 C10.6254941,14.1593184 10.4401914,14.6717422 10.102334,15.0100488 Z M7.79959375,12.9206875 C8.04482227,14.0601309 9.00920508,14.746582 9.4242832,14.3324473 C9.57872461,14.1780508 9.66713086,13.899625 9.66668164,13.5687754 C9.66668164,13.4256094 9.64983594,13.2753906 9.61708789,13.1214434 C9.36062891,11.9286777 8.32886328,11.2361172 7.93624609,11.7751797 C7.81599023,11.9389648 7.75,12.1869336 7.75,12.4728613 C7.75,12.6155781 7.7668457,12.7662461 7.79959375,12.9206875 Z M18.7029863,10.625 C19.1578203,10.625 19.5602305,10.8323145 19.8363203,11.2085352 C20.0801113,11.5403281 20.2087676,11.9778223 20.2083184,12.4738496 C20.2083184,12.6830059 20.1844648,12.9006074 20.137207,13.1209941 L20.137207,13.1214434 C19.860623,14.4087246 18.8695566,15.4166816 17.880332,15.4166816 C17.503168,15.4166816 17.1634687,15.2758516 16.897666,15.0100488 C16.5598535,14.6717422 16.3745508,14.1593633 16.375,13.567877 C16.375,13.3582266 16.3988535,13.1401758 16.4461113,12.9202383 C16.7226953,11.632957 17.7137617,10.625 18.7029863,10.625 Z M19.2004063,12.9206875 C19.2331543,12.766291 19.25,12.615623 19.2499551,12.4733555 C19.2499551,12.1869785 19.1839648,11.9389648 19.063709,11.7751797 C18.9691934,11.6460293 18.8508242,11.5833184 18.7029414,11.5833184 C18.2350352,11.5833184 17.5775586,12.2150547 17.3829121,13.1214434 C17.3501641,13.2753906 17.3333184,13.4256094 17.3333184,13.5683262 C17.3328691,13.899625 17.4212754,14.1780059 17.5757168,14.3324473 C17.9894023,14.7479746 18.9552227,14.0601309 19.2004063,12.9206875 Z M17.7567969,9.27689453 C17.5111641,10.5702402 16.5336191,11.5833184 15.5317715,11.5833633 C15.1391992,11.5833633 14.7858887,11.4336387 14.5093496,11.1500469 C14.1518613,10.7832148 13.9642227,10.2329219 13.980125,9.60118555 C13.9843477,9.43973633 14.0021367,9.27172852 14.0348848,9.09859961 C14.2805176,7.80475977 15.2580625,6.79168164 16.2599102,6.79168164 C16.6524824,6.79168164 17.005793,6.94140625 17.282332,7.22499805 C17.6398203,7.59183008 17.827459,8.14212305 17.8115566,8.77385938 C17.807334,8.93530859 17.7895449,9.10331641 17.7567969,9.27644531 L17.7567969,9.27689453 Z M16.8532383,8.75045508 C16.862582,8.38312891 16.7690098,8.07146094 16.5958809,7.89406445 C16.5018145,7.79721289 16.3918906,7.74995508 16.2599102,7.74995508 C15.7901172,7.74995508 15.1476445,8.37701953 14.9763574,9.27684961 C14.9538965,9.39620703 14.9407793,9.51268945 14.9384434,9.62454492 C14.9290547,9.99191602 15.0226719,10.3035391 15.1958008,10.4808906 C15.6248945,10.9231016 16.5958809,10.250666 16.8153242,9.09815039 C16.8377852,8.97834375 16.8509023,8.86231055 16.8532383,8.75045508 Z M13.5,2 C19.8409922,2 25,7.15900781 25,13.5 C25,19.8409922 19.8409922,25 13.5,25 C7.15900781,25 2,19.8409922 2,13.5 C2,7.15900781 7.15900781,2 13.5,2 Z M13.5,24.0416816 C16.2342148,24.0416816 18.7204609,22.9865117 20.5956348,21.2732812 L18.1967168,18.8743633 C18.1122188,19.1622676 17.9750273,19.4176934 17.7740918,19.6215937 C17.3955352,20.0053164 16.8349551,20.2084082 16.153625,20.2084082 C15.387168,20.2084082 14.9037637,19.9533867 14.5158633,19.7484082 C14.1836211,19.5728984 13.9210977,19.4344043 13.4995059,19.4344043 C13.0783633,19.4344043 12.816334,19.5729434 12.4840918,19.7484082 C12.0961914,19.9533867 11.6132813,20.2084082 10.8463301,20.2084082 C10.165,20.2084082 9.60441992,20.0053164 9.22586328,19.6215937 C8.87911133,19.2696758 8.70036719,18.7774219 8.70831836,18.1981094 C8.7242207,17.1036328 9.46403906,16.4325898 10.1167988,15.8406543 C10.3723145,15.6089922 10.6132754,15.389998 10.8093594,15.153709 C10.8683418,15.0834961 10.9535137,14.847207 11.0222891,14.6576816 C11.2174297,14.1184844 11.5128809,13.3402129 12.215998,12.8935547 L10.7190664,11.396623 C10.2886699,11.18275 9.90566602,10.7933672 9.62764453,10.3052012 L5.72676367,6.40432031 C4.01344336,8.27953906 2.95831836,10.7657852 2.95831836,13.5 C2.95831836,19.3127109 7.68728906,24.0416816 13.5,24.0416816 Z M10.4041191,7.89410937 C10.2309902,8.07146094 10.137418,8.38312891 10.1468066,8.74960156 C10.1491426,8.86235547 10.1622598,8.97838867 10.1847207,9.09819531 C10.2290586,9.3316543 10.3098281,9.53878906 10.4051074,9.72755078 L11.2439785,10.5664219 C11.4582109,10.6416211 11.6615273,10.627291 11.8041992,10.4808906 C11.9773281,10.3035391 12.0709004,9.99187109 12.0615566,9.62548828 C12.0592207,9.51268945 12.0461035,9.39620703 12.0236426,9.27640039 C11.8037051,8.12388477 10.8318203,7.45050586 10.4041191,7.89410937 Z M12.9226641,13.6002656 C12.3967188,13.8063672 12.1639336,14.3195098 11.9235117,14.9839043 C11.8103086,15.2969648 11.7125137,15.5669453 11.5468418,15.7663086 C11.3072734,16.0545273 11.0292969,16.3067637 10.760709,16.5505547 C10.1786113,17.0778926 9.67651953,17.5336699 9.66668164,18.2117207 C9.66196484,18.5331816 9.7434082,18.7811953 9.90858594,18.948709 C10.1542637,19.1976211 10.5538887,19.2500449 10.8463301,19.2500449 C11.3755547,19.2500449 11.6820566,19.0881465 12.0367598,18.900957 C12.4134297,18.7016387 12.8411309,18.4760859 13.5,18.4760859 C14.1588691,18.4760859 14.5860762,18.7015937 14.9632402,18.900957 C15.3179434,19.0881465 15.6244453,19.2500449 16.1536699,19.2500449 C16.4461113,19.2500449 16.8457363,19.197666 17.0914141,18.948709 C17.2565918,18.7811953 17.3379902,18.5331816 17.3333184,18.2112266 C17.3320605,18.1214277 17.3015137,18.0441621 17.2839043,17.9615059 L12.9226641,13.6002656 Z M21.2732363,20.5956797 C22.9865117,18.7204609 24.0416816,16.2342148 24.0416816,13.5 C24.0416816,7.68728906 19.3127109,2.95831836 13.5,2.95831836 C10.7657852,2.95831836 8.27953906,4.01348828 6.40432031,5.72676367 L9.20232422,8.5248125 C9.23583594,8.00030469 9.40860547,7.5419668 9.71757813,7.22495312 C9.99411719,6.94136133 10.3473828,6.79163672 10.74,6.79163672 C11.7418477,6.79163672 12.7193477,7.80471484 12.9650254,9.09810547 C12.9977734,9.27172852 13.0155625,9.43969141 13.0197852,9.60208398 C13.0356875,10.232832 12.8480488,10.783125 12.4905605,11.150002 C12.3754258,11.2681016 12.2442539,11.3571367 12.1051758,11.4276641 L13.2446191,12.5671074 C13.3305547,12.5595605 13.4064727,12.5416816 13.4994609,12.5416816 C15.2116582,12.5416816 15.6912891,13.8663828 15.977666,14.6576816 C16.0464863,14.847207 16.1316133,15.0834961 16.1905957,15.1541582 C16.3866797,15.389998 16.6276406,15.6089922 16.8831562,15.8406094 C17.3815645,16.2925684 17.9281738,16.7922793 18.1671133,17.4895566 L21.2732363,20.5956797 Z" id="Combined-Shape" fill="#A1BCCF"></path>
    </g>
</svg>