<?xml version="1.0" encoding="UTF-8"?>
<svg width="27px" height="27px" viewBox="0 0 27 27" version="1.1" xmlns="http://www.w3.org/2000/svg" xmlns:xlink="http://www.w3.org/1999/xlink">
    <!-- Generator: Sketch 52.6 (67491) - http://www.bohemiancoding.com/sketch -->
    <title>Atoms/Icon/Amenities/pets</title>
    <desc>Created with Sketch.</desc>
    <g id="Atoms/Icon/Amenities/pets" stroke="none" stroke-width="1" fill="none" fill-rule="evenodd">
        <path d="M15.6315263,14.704 C15.9220526,14.704 16.1578421,14.9397895 16.1578421,15.2303158 C16.1578421,15.5208421 15.9220526,15.7566316 15.6315263,15.7566316 C15.341,15.7566316 15.1052105,15.5208421 15.1052105,15.2303158 C15.1052105,14.9397895 15.341,14.704 15.6315263,14.704 Z M20.3273684,17.5377895 C21.4195263,18.3989474 22.0451053,19.6865789 22.0451053,21.076 C22.0451053,22.6557895 21.2873158,24.029 19.9802632,24.8926316 C18.7510526,25.7047895 17.2620526,25.913 15.9054737,25.5332632 C15.1965789,25.3349474 14.3738947,25.2301053 13.5263684,25.2301053 C12.6928947,25.2301053 11.8822105,25.3315789 11.1817895,25.5234737 C9.78415789,25.9066842 8.29189474,25.6658421 7.08789474,24.8625789 C5.79568421,24.0006316 5.05078947,22.6402632 5.05078947,21.076 C5.05078947,19.7964211 5.59805263,18.5725263 6.55226316,17.7181579 C6.55410526,17.7165263 6.55594737,17.7148421 6.55784211,17.7132105 C6.57336842,17.6996316 8.19115789,16.2622632 9.37536842,13.5461579 C10.0774211,11.8616842 11.7093158,10.7735789 13.5342632,10.7735789 C15.3595789,10.7735789 16.9917368,11.8615263 17.6936316,13.5456316 C18.6375263,15.7100526 19.834,17.0446842 20.3273684,17.5377895 Z M19.3998421,24.0143684 C20.4065263,23.3492632 20.9924211,22.3005263 20.9923158,21.0759474 C20.9923158,20.0028421 20.505,19.0086842 19.6552105,18.3484211 C19.6385789,18.3354737 19.6226842,18.3214737 19.6076316,18.3066316 C19.0848947,17.7884211 17.7576316,16.3278947 16.7267895,13.9621053 C16.7256316,13.9593684 16.7244211,13.9566316 16.7233158,13.9538947 C16.1862105,12.6613684 14.9343684,11.8261579 13.5340526,11.8262105 C12.1342632,11.8262105 10.8826842,12.6615789 10.3454211,13.9544211 C10.3443158,13.9571579 10.3431053,13.9598947 10.3419474,13.9626316 C9.07247368,16.8765789 7.36447368,18.4057368 7.25215789,18.5042105 C6.522,19.1590526 6.10326316,20.0962632 6.10326316,21.0759474 C6.10326316,22.2904211 6.67978947,23.3251053 7.67189474,23.9869474 C8.62210526,24.6208421 9.79989474,24.8108947 10.9033684,24.5083158 C11.6932105,24.2918947 12.6001053,24.1774737 13.5262105,24.1774737 C14.4682632,24.1774737 15.389,24.2957368 16.1890526,24.5195789 C17.281,24.8252105 18.4512632,24.6411053 19.3998421,24.0143684 Z M17.0652632,16.7992632 C17.813,17.9474211 18.5147895,18.7047368 18.8665789,19.054 C19.0728421,19.2588421 19.0740526,19.5921053 18.8692632,19.7983684 C18.6643684,20.0046842 18.3311053,20.0057895 18.1248947,19.8010526 C17.7434211,19.4223158 16.9840526,18.6033684 16.1831579,17.3737368 C16.0245263,17.1302105 16.0933684,16.8041579 16.337,16.6454211 C16.5806316,16.4867368 16.9066316,16.5557368 17.0652632,16.7992632 Z M11.8205263,8.20763158 C10.1535263,11.1195789 6.71178947,9.40994737 6.27542105,5.71284211 C6.13763158,4.54921053 6.34847368,3.37515789 6.85389474,2.49189474 C7.33815789,1.64626316 8.03847368,1.12921053 8.82615789,1.036 C10.5705263,0.826526316 12.1318421,2.723 12.399,4.98684211 C12.5371053,6.14963158 12.3262632,7.32368421 11.8205263,8.20763158 Z M7.76747368,3.01478947 C7.37178947,3.70631579 7.20889474,4.64468421 7.32073684,5.58926316 C7.60736842,8.01731579 9.694,9.80394737 10.907,7.68478947 C11.303,6.99268421 11.4658421,6.05442105 11.3537368,5.11057895 C11.1594211,3.46426316 10.1201579,2.07378947 9.08431579,2.07378947 C8.505,2.07378947 8.05557895,2.51147368 7.76747368,3.01478947 Z M6.77905263,13.8684211 C6.61736842,14.8645789 6.09926316,15.6348947 5.32021053,16.0373684 C4.49210526,16.4652105 3.55389474,16.3875789 2.70705263,15.9722105 C1.85373684,15.5536842 1.11468421,14.8024211 0.625894737,13.8567368 C0.137368421,12.9108947 -0.0477894737,11.8735263 0.104578947,10.9354211 C0.266368421,9.93926316 0.784368421,9.16910526 1.56331579,8.76663158 C2.34226316,8.36384211 3.27036842,8.38678947 4.17663158,8.83131579 C5.02994737,9.24984211 5.769,10.0012632 6.25773684,10.9472105 C6.74626316,11.8929474 6.93142105,12.9303684 6.77905263,13.8684211 Z M4.83710526,15.1021579 C5.31242105,14.8565789 5.63315789,14.3585789 5.74010526,13.6997368 C5.85652632,12.9828947 5.70821053,12.1769474 5.32257895,11.4303684 C4.93673684,10.6836316 4.36515789,10.0962105 3.71310526,9.77636842 C3.18110526,9.51542105 2.57236842,9.42994737 2.04678947,9.70168421 C2.04673684,9.70173684 2.04668421,9.70173684 2.04663158,9.70178947 C1.57131579,9.94736842 1.25057895,10.4453158 1.14357895,11.1041579 C1.02715789,11.8210526 1.17547368,12.6268947 1.56110526,13.3734737 C1.94694737,14.1199474 2.51852632,14.7073158 3.17063158,15.0271579 C3.77005263,15.3211579 4.36184211,15.3478421 4.83710526,15.1021579 Z M17.4735789,9.68889474 C15.5812632,9.68889474 14.3840526,7.37063158 14.6646316,4.99715789 C14.9277368,2.77326316 16.3840526,1.03121053 17.9798421,1.03121053 C19.8758947,1.03121053 21.0695789,3.35378947 20.7893158,5.72294737 C20.5255789,7.94689474 19.0691053,9.68889474 17.4735789,9.68889474 Z M15.71,5.12078947 C15.6061053,5.99973684 15.7460526,6.89447368 16.0940526,7.57563158 C16.4068947,8.18826316 16.8608421,8.57194737 17.3394211,8.62826316 C17.3413684,8.62852632 17.3433158,8.62878947 17.3452632,8.629 C18.4113684,8.76736842 19.5417895,7.30457895 19.7440526,5.59910526 C19.8479474,4.72042105 19.7079474,3.82578947 19.3598421,3.14468421 C19.1039474,2.64389474 18.6695263,2.15342105 18.1083158,2.09105263 C18.0706842,2.08615789 18.0286842,2.08378947 17.9799474,2.08378947 C16.9443158,2.08378947 15.9048421,3.47457895 15.71,5.12078947 Z M26.9480526,10.9375263 C27.2633158,12.8787895 26.1107895,15.1085263 24.3455789,15.9743684 C22.4817895,16.8886842 20.6103684,15.9446316 20.2735789,13.8705789 C19.9582632,11.9291053 21.1113158,9.69910526 22.876,8.83342105 C24.7622632,7.90784211 26.6152105,8.88773684 26.9480526,10.9375263 Z M23.882,15.0292632 C25.2358421,14.3652632 26.1492632,12.5853684 25.9090526,11.1062105 C25.6876316,9.74284211 24.578,9.17084211 23.3395789,9.77836842 C21.9882105,10.4414737 21.0718947,12.2199474 21.3125263,13.7018421 C21.4194737,14.3605789 21.7402105,14.8586842 22.2155263,15.1043158 L22.2155263,15.1042632 C22.6908421,15.3497895 23.2826316,15.3232105 23.882,15.0292632 Z" id="Combined-Shape" fill="#A1BCCF"></path>
    </g>
</svg>