<?xml version="1.0" encoding="UTF-8"?>
<svg width="27px" height="27px" viewBox="0 0 27 27" version="1.1" xmlns="http://www.w3.org/2000/svg" xmlns:xlink="http://www.w3.org/1999/xlink">
    <!-- Generator: Sketch 52.6 (67491) - http://www.bohemiancoding.com/sketch -->
    <title>Atoms/Icon/Amenities/Pool Access</title>
    <desc>Created with Sketch.</desc>
    <g id="Atoms/Icon/Amenities/Pool-Access" stroke="none" stroke-width="1" fill="none" fill-rule="evenodd">
        <path d="M17.3632812,7.90054321 C17.1153335,7.90054321 16.9140625,7.69944761 16.9140625,7.45132446 C16.9140625,7.20320127 17.1153335,7.00193025 17.3632812,7.00193025 C17.6114044,7.00193025 17.8125,7.20302581 17.8125,7.451149 L17.8125,7.45132446 C17.8125,7.69944761 17.6114044,7.90054321 17.3632812,7.90054321 Z M17.1835937,13.9864044 C16.0984497,14.8081589 14.5853195,14.8081589 13.5,13.9864044 C12.4148559,14.8081589 10.9017257,14.8081589 9.81640623,13.9864044 C8.73126218,14.8081589 7.21813199,14.8081589 6.13281248,13.9864044 C4.93694302,14.8918609 3.22166438,14.7995605 2.13160706,13.7096786 C1.95613098,13.5342026 1.95613098,13.2497559 2.13160706,13.0742798 C2.30708313,12.8989792 2.59135433,12.8989792 2.7668304,13.0742798 C3.17393489,13.4813843 3.71527861,13.7056427 4.2910156,13.7056427 C4.86201477,13.7056427 5.39879605,13.4848938 5.8046722,13.0842819 L6.71047971,12.0317764 C8.329422,10.1508484 10.2622909,8.60858914 12.4555664,7.44763943 C13.0041046,7.15740203 13.6221313,7.00386045 14.2427902,7.00386045 L15.5209579,7.00298308 C15.5211334,7.00298308 15.5213089,7.00298308 15.5213089,7.00298308 C15.7692566,7.00298308 15.9703522,7.20390318 15.9705276,7.45185086 C15.9707031,7.69997405 15.769783,7.90124512 15.5216598,7.90142058 L14.2431412,7.90229795 C13.7681274,7.90229795 13.2953949,8.01969148 12.8758316,8.24184417 C10.7820511,9.34997559 8.93692014,10.8223953 7.39150235,12.6178665 L6.77084348,13.3388977 C7.12372588,13.5773697 7.53925322,13.7056427 7.97443389,13.7056427 C8.55034634,13.7056427 9.09151455,13.4815597 9.49861905,13.0744553 C9.67409512,12.8989792 9.95854183,12.8989792 10.1340179,13.0744553 C10.9252396,13.8656769 12.183754,13.9116516 13.0295486,13.2127304 C12.5043488,12.7505264 12.1718216,12.0740662 12.1718216,11.3209229 C12.1718216,9.99485017 13.2016907,8.90531919 14.5035477,8.8084564 C14.5300446,8.80354307 14.5570678,8.80073545 14.5849686,8.80073545 L21.8689804,8.79547119 C21.8028259,8.60823821 21.6952591,8.43662263 21.5504913,8.29203035 C21.296402,8.03811646 20.9586105,7.8984375 20.599411,7.8984375 L20.5980072,7.8984375 L19.1154098,7.89949033 L19.1150589,7.89949033 C18.8671112,7.89949033 18.6660156,7.69857024 18.6658401,7.45062256 C18.6656647,7.20249937 18.8667602,7.0012283 19.1147079,7.00105283 L20.5971298,7 C20.5980072,7 20.5988846,7 20.5995865,7 C21.1984863,7 21.761589,7.23303223 22.1855392,7.65645598 C22.6098404,8.08040618 22.8435745,8.6443863 22.8435745,9.2441635 C22.8435745,9.49211118 22.6428299,9.69320679 22.3947067,9.69338225 L16.6178589,9.69759368 C16.9884643,10.1364593 17.2123718,10.7028961 17.2123718,11.3209229 C17.2123718,12.4150162 16.5113449,13.3481979 15.5348205,13.695816 C16.0207138,13.6524734 16.4946746,13.4454117 16.8658065,13.0742798 C17.0412826,12.8989792 17.3257293,12.8989792 17.5012054,13.0742798 C17.9083099,13.4813843 18.4496536,13.7056427 19.0253906,13.7056427 C19.6011276,13.7056427 20.1422958,13.4813843 20.5495758,13.0742798 C20.7250519,12.8989792 21.0093231,12.8989792 21.1847991,13.0742798 C21.5919036,13.4813843 22.1332474,13.7056427 22.7089844,13.7056427 C23.2847213,13.7056427 23.8260651,13.4813843 24.2331696,13.0742798 C24.4086456,12.8989792 24.6929168,12.8989792 24.8683929,13.0742798 C25.043869,13.2497559 25.043869,13.5342026 24.8683929,13.7096786 C24.2730026,14.3050689 23.4910812,14.6026764 22.7089844,14.6026764 C22.0593719,14.6026764 21.4097595,14.3973694 20.8671875,13.9864044 C19.7820434,14.8081589 18.2689132,14.8081589 17.1835937,13.9864044 Z M14.6921844,9.69917295 C13.7979583,9.69917295 13.0704345,10.4266968 13.0704345,11.3209229 C13.0704345,12.2153244 13.7979583,12.9428482 14.6921844,12.9428482 C15.586586,12.9428482 16.3141098,12.2153244 16.3141098,11.3209229 C16.3141098,10.4266968 15.5864105,9.69917295 14.6921844,9.69917295 Z M24.2331696,15.8901443 C24.4086456,15.7148438 24.6929168,15.7148438 24.8683929,15.8901443 C25.043869,16.0656204 25.043869,16.3500671 24.8683929,16.5255432 C23.7786865,17.6154251 22.0634079,17.707901 20.8675384,16.8026199 C20.3398819,17.2032318 19.6992187,17.4199448 19.0253906,17.4199448 C18.3515625,17.4199448 17.7108993,17.2032318 17.1834183,16.8026199 C15.9875488,17.707901 14.2722702,17.6154251 13.1823883,16.5255432 C13.0069122,16.3500671 13.0069122,16.0656204 13.1823883,15.8901443 C13.3578644,15.7148438 13.6423111,15.7148438 13.8177872,15.8901443 C14.6581421,16.7306747 16.0256271,16.7306747 16.8659821,15.8901443 C17.0414581,15.7148438 17.3259048,15.7148438 17.5013809,15.8901443 C18.3417358,16.7306747 19.7092209,16.7306747 20.5495758,15.8901443 C20.7250519,15.7148438 21.0094986,15.7148438 21.1849747,15.8901443 C22.0253296,16.7306747 23.3928146,16.7306747 24.2331696,15.8901443 Z M9.49879456,18.3159256 C9.67427063,18.140625 9.95854183,18.140625 10.1340179,18.3159256 C10.309494,18.4914016 10.309494,18.7758484 10.1340179,18.9513245 C9.53862759,19.5467148 8.7567062,19.8443222 7.97460935,19.8443222 C7.3249969,19.8443222 6.6753845,19.6390152 6.13281248,19.2282257 C4.93694302,20.1336822 3.22166438,20.0412063 2.13160706,18.9513245 C1.95613098,18.7758484 1.95613098,18.4914016 2.13160706,18.3159256 C2.30708313,18.140625 2.59152983,18.140625 2.76700591,18.3159256 C3.60736082,19.156456 4.97484585,19.156456 5.81520081,18.3159256 C5.99067688,18.140625 6.27512358,18.140625 6.45059966,18.3159256 C7.29095457,19.156456 8.6584396,19.156456 9.49879456,18.3159256 Z" id="Combined-Shape" fill="#A1BCCF"></path>
    </g>
</svg>