<?xml version="1.0" encoding="UTF-8"?>
<svg width="27px" height="27px" viewBox="0 0 27 27" version="1.1" xmlns="http://www.w3.org/2000/svg" xmlns:xlink="http://www.w3.org/1999/xlink">
    <!-- Generator: Sketch 52.6 (67491) - http://www.bohemiancoding.com/sketch -->
    <title>Atoms/Icon/Amenities/restaurant</title>
    <desc>Created with Sketch.</desc>
    <g id="Atoms/Icon/Amenities/restaurant" stroke="none" stroke-width="1" fill="none" fill-rule="evenodd">
        <path d="M8.75798384,4.31169359 C9.36130351,5.11605147 9.69351066,6.17807286 9.69351066,7.30196793 C9.69351066,8.425863 9.3612215,9.48784339 8.75798384,10.2922013 C8.40511113,10.7627119 7.98343521,11.1151336 7.52034616,11.3356893 L8.22842876,21.9823911 C8.26303538,22.5013264 8.07905445,23.0167354 7.72380356,23.3964242 C7.36863468,23.7759489 6.86683869,23.9936344 6.34696034,23.9936344 C5.82695898,23.9936344 5.32491698,23.7758259 4.96962509,23.3960962 C4.6143742,23.0164484 4.43039327,22.5011214 4.46491788,21.9823091 L5.17300048,11.3354842 C4.70999344,11.1149696 4.28835852,10.7625479 3.93552681,10.2921193 C3.33220715,9.48776138 3,8.425863 3,7.30188593 C3,6.17794985 3.33220715,5.11601047 3.93548581,4.31165259 C4.56984483,3.46592257 5.42615364,3.00012731 6.34671432,3.00012731 C7.26731601,3.00012731 8.12366583,3.46588157 8.75798384,4.31169359 Z M7.02055933,22.7384474 C7.19703669,22.5498741 7.28470132,22.3040605 7.26760303,22.046315 L6.57243641,11.5932298 C6.49760575,11.5994622 6.42248806,11.6038086 6.34671432,11.6038086 C6.27089959,11.6038086 6.1957409,11.5995032 6.12086923,11.5932298 L5.42570261,22.046315 C5.40860432,22.3039375 5.49635096,22.5496281 5.67274631,22.7382424 C5.84922367,22.9268156 6.08864079,23.0306765 6.34691934,23.0306765 C6.60499287,23.0306765 6.84424598,22.9268976 7.02055933,22.7384474 Z M6.34671432,10.6407687 C7.66119182,10.6407687 8.73055277,9.14296628 8.73055277,7.30192693 C8.73055277,5.46088757 7.66115082,3.9630852 6.34671432,3.9630852 C5.03231883,3.9630852 3.96295789,5.46092858 3.96295789,7.30192693 C3.96295789,8.88083344 4.74976645,10.2063818 5.80284916,10.5520789 C5.81679021,10.5558512 5.83040324,10.5604026 5.84385226,10.565364 C6.00606054,10.6143217 6.17421427,10.6407687 6.34671432,10.6407687 Z M23.926385,15.5436738 C23.926385,15.5444938 23.926467,15.5452729 23.926508,15.546093 L23.926508,22.5461838 C23.926508,23.3405369 23.2802171,23.9867869 22.485864,23.9867869 C21.6915108,23.9867869 21.0452609,23.3405369 21.0452609,22.5461838 L21.0452609,16.0258293 C20.4963934,16.0091 20.0542569,15.5584759 20.0542569,15.005221 L20.0542569,8.69972273 C20.0542569,8.69943571 20.0542979,8.69914869 20.0542979,8.69882067 C20.0546669,6.38981289 21.2275197,4.28639467 23.1917734,3.07200575 C23.4180695,2.93218517 23.714727,3.00217747 23.8545476,3.22835059 C23.9151911,3.32647101 23.9362257,3.43783544 23.9223257,3.54391047 L23.926385,3.54214734 L23.926385,15.5436738 Z M21.0764643,15.0645525 L22.9633861,15.0645525 L22.9633861,4.42998754 C21.7312838,5.49401808 21.0172968,7.03442268 21.0172968,8.70000976 C21.0172968,8.70021477 21.0172558,8.70037878 21.0172558,8.7005838 L21.0172558,15.005303 C21.0172558,15.0380235 21.0436618,15.0645115 21.0764643,15.0645525 Z M22.9635091,22.5462658 L22.9635091,16.0275514 L22.0081778,16.0275514 L22.0081778,22.5462658 C22.0081778,22.8096698 22.22246,23.023911 22.4858229,23.023911 C22.7492679,23.023911 22.9635091,22.8096288 22.9635091,22.5462658 Z M16.6122104,3.00012731 C16.8780745,3.00012731 17.0936688,3.21568063 17.0937508,3.48158575 L17.0937508,10.4514983 C17.0937508,11.2363387 16.4552095,11.8748801 15.6703281,11.8748801 L15.5845086,11.8748801 L16.2600757,22.0295037 C16.2939443,22.53581 16.1144327,23.0390411 15.7675054,23.4099142 C15.4204551,23.7809103 14.930181,23.9936754 14.4223576,23.9936754 C13.9144522,23.9936754 13.424178,23.7809103 13.0771688,23.4098732 C12.7302005,23.0389591 12.5506889,22.535769 12.5845985,22.0292987 L13.2601246,11.8748801 L13.1744691,11.8748801 C12.3896287,11.8748801 11.7510874,11.2362977 11.7510874,10.4514983 L11.7510874,3.48162676 C11.7510874,3.21568063 11.9666817,3.00012731 12.2325868,3.00012731 C12.498492,3.00012731 12.7140863,3.21572163 12.7140863,3.48162676 L12.7140863,8.95144079 L13.9408992,8.95144079 L13.9408992,3.48162676 C13.9408992,3.21568063 14.1564935,3.00012731 14.4223986,3.00012731 C14.6883037,3.00012731 14.903898,3.21572163 14.903898,3.48162676 L14.903898,8.95144079 L16.1307109,8.95144079 L16.1307109,3.48162676 C16.1307109,3.21568063 16.3463052,3.00012731 16.6122104,3.00012731 Z M15.0641792,22.7520194 C15.2321689,22.5724668 15.3156102,22.3386261 15.299209,22.0935096 L14.6194185,11.8747981 L14.2251737,11.8747981 L13.5454242,22.0933865 C13.529023,22.3386261 13.6125053,22.5724668 13.780454,22.7520194 C13.9484847,22.931695 14.176462,23.0306355 14.4223166,23.0306355 C14.6681712,23.0306355 14.8961485,22.931695 15.0641792,22.7520194 Z M16.1306699,10.4514573 L16.1306699,9.91431667 L12.7141273,9.91431667 L12.7141273,10.4514573 C12.7141273,10.7053485 12.9206189,10.9118402 13.1745101,10.9118402 L13.7567542,10.9118402 C13.7573693,10.9117992 13.7580253,10.9118812 13.7586404,10.9118402 L15.6702871,10.9118402 C15.9241783,10.9118402 16.1307109,10.7053485 16.1306699,10.4514573 Z" id="Combined-Shape" fill="#A1BCCF"></path>
    </g>
</svg>