<?xml version="1.0" encoding="UTF-8"?>
<svg width="27px" height="27px" viewBox="0 0 27 27" version="1.1" xmlns="http://www.w3.org/2000/svg" xmlns:xlink="http://www.w3.org/1999/xlink">
    <!-- Generator: Sketch 52.6 (67491) - http://www.bohemiancoding.com/sketch -->
    <title>Atoms/Icon/Amenities/rooms</title>
    <desc>Created with Sketch.</desc>
    <g id="Atoms/Icon/Amenities/rooms" stroke="none" stroke-width="1" fill="none" fill-rule="evenodd">
        <path d="M11.5252191,14.1500956 L11.5252191,15.784773 L9.2403621,15.784773 L9.2403621,11.8593323 L11.5252191,11.8593323 L11.5252191,12.8375138 L10.8809868,12.8375138 L10.8809868,12.5035646 L9.8845944,12.5035646 L9.8845944,15.1405407 L10.8809868,15.1405407 L10.8809868,14.1500956 L11.5252191,14.1500956 Z M10.2187486,13.1718321 L12.5156232,13.1718321 L12.5156232,13.8160644 L10.2187486,13.8160644 L10.2187486,13.1718321 Z M7.25963591,5.29683356 L7.25963591,10.534815 L3.99040411,10.534815 L3.99040411,5.29683356 L7.25963591,5.29683356 Z M6.61540361,9.8905827 L6.6153626,9.8905827 L6.6153626,5.94106586 L4.63459539,5.94106586 L4.63459539,9.8905827 L6.61540361,9.8905827 Z M4.96870861,8.90620788 L6.28120836,8.90620788 L6.28120836,9.55044019 L4.96870861,9.55044019 L4.96870861,8.90620788 Z M5.30290386,6.60330402 L5.94713616,6.60330402 L5.94713616,8.24392871 L5.30290386,8.24392871 L5.30290386,6.60330402 Z M4.31249975,10.8749575 L4.96874963,10.8749575 L4.96874963,11.5191898 L4.31249975,11.5191898 L4.31249975,10.8749575 Z M5.29687456,10.8749575 L5.95312444,10.8749575 L5.95312444,11.5191898 L5.29687456,11.5191898 L5.29687456,10.8749575 Z M6.28124938,10.8749575 L6.93749925,10.8749575 L6.93749925,11.5191898 L6.28124938,11.5191898 L6.28124938,10.8749575 Z M23.999955,22.350348 L19.0720516,22.350348 L19.0720516,23.3437052 L23.999955,23.3437052 L23.999955,23.9879375 L3,23.9879375 L3,23.3437052 L7.92786235,23.3437052 L7.92786235,22.350389 L3,22.350389 L3,21.7061567 L7.92786235,21.7061567 L7.92786235,3 L19.0720516,3 L19.0720516,21.7061157 L23.999955,21.7061157 L23.999955,22.350348 Z M18.4278604,23.3436232 L18.4278604,3.64419129 L8.57209465,3.64419129 L8.57209465,23.3436232 L18.4278604,23.3436232 Z" id="Combined-Shape" fill="#A1BCCF"></path>
    </g>
</svg>