<?xml version="1.0" encoding="UTF-8"?>
<svg width="27px" height="27px" viewBox="0 0 27 27" version="1.1" xmlns="http://www.w3.org/2000/svg" xmlns:xlink="http://www.w3.org/1999/xlink">
    <!-- Generator: Sketch 53.2 (72643) - https://sketchapp.com -->
    <title>Atoms/Icon/Amenities/smoke-alarm</title>
    <desc>Created with Sketch.</desc>
    <g id="Atoms/Icon/Amenities/smoke-alarm" stroke="none" stroke-width="1" fill="none" fill-rule="evenodd">
        <g id="fire-alarm" transform="translate(1.000000, 1.000000)" fill="#263646">
            <path d="M12.5,25 C5.59651475,25 0,19.4034853 0,12.5 C0,5.59651475 5.59651475,0 12.5,0 C19.4034853,0 25,5.59651475 25,12.5 C25,19.4034853 19.4034853,25 12.5,25 Z M12.5,0.925925926 C6.10725134,0.925925926 0.925925926,6.10725134 0.925925926,12.5 C0.925925926,18.8927487 6.1085624,24.0740741 12.5,24.0740741 C18.8927487,24.0740741 24.0740741,18.8914376 24.0740741,12.5 C24.0740741,6.10725134 18.8914376,0.925925926 12.5,0.925925926 Z M14.0046669,12.4996085 C14.0046669,13.3378107 13.3310162,14.0173215 12.5000426,14.0173215 C11.669069,14.0173215 10.9954183,13.3378107 10.9954183,12.4996085 C10.9954183,11.6614063 11.669069,10.9818956 12.5000426,10.9818956 C13.3310162,10.9818956 14.0046669,11.6614063 14.0046669,12.4996085 Z M12.5,13.258465 C12.9155081,13.258465 13.2523548,12.9187311 13.2523122,12.4996085 C13.2523122,12.0805289 12.9154655,11.7407521 12.5,11.7407521 C12.0845345,11.7407521 11.7476878,12.0804859 11.7476878,12.4996085 C11.7476878,12.9187311 12.0844919,13.258465 12.5,13.258465 Z M11.7973306,17.761959 C11.999396,17.7937231 12.1392481,17.9824594 12.1122322,18.1869272 C12.0852163,18.3913951 11.9012609,18.536676 11.6980024,18.5139813 C10.1267758,18.3051292 8.70213395,17.4753086 7.73740174,16.2070232 C7.6153188,16.0410677 7.6473203,15.8070708 7.80941576,15.6807022 C7.97151123,15.5543336 8.20404407,15.5820143 8.33251879,15.7429839 C9.17636119,16.8527926 10.4226725,17.5789824 11.7973306,17.761959 Z M8.03461937,9.40344833 C7.8911879,9.40331938 7.7602843,9.32092188 7.69713355,9.19098571 C7.63398279,9.06104954 7.64962134,8.90622649 7.73740174,8.79180701 C8.70204873,7.52339271 10.1267332,6.69357209 11.6980024,6.48484895 C11.9039881,6.4571682 12.0931847,6.60317984 12.1206267,6.81095736 C12.1480688,7.01873489 12.0033163,7.20957729 11.7973306,7.23725804 C10.4226725,7.42023465 9.17636119,8.14646738 8.33251879,9.25623318 C8.26122917,9.34920439 8.15116277,9.40357728 8.03461937,9.40344833 Z M7.62989205,10.4829115 C7.10176083,11.7746223 7.10176083,13.2245948 7.62989205,14.5163056 C7.6840091,14.6419005 7.66679391,14.7871385 7.58493655,14.8963571 C7.5030792,15.0055757 7.36923539,15.0617968 7.23466718,15.0435292 C7.10009896,15.0252617 6.98577138,14.9352563 6.9354894,14.808071 C6.33014551,13.3295151 6.33014551,11.6693151 6.9354894,10.1907592 C6.97392529,10.097874 7.0473455,10.024202 7.13960015,9.98590452 C7.23185479,9.94760709 7.33544419,9.94786499 7.42752839,9.98663522 C7.51961259,10.0253625 7.5926493,10.0994214 7.63061645,10.1924785 C7.66858361,10.2855787 7.66832794,10.3900262 7.62989205,10.4829115 Z M11.8161651,16.2316952 C12.0080462,16.2667259 12.1415491,16.4438569 12.1237374,16.6397283 C12.1059256,16.8355996 11.9426797,16.9852648 11.7476878,16.9844911 C11.7245922,16.9839753 11.7015392,16.9814393 11.6788697,16.9768832 C10.6614693,16.7844504 9.73960458,16.2475557 9.06569822,15.4550009 C8.93066128,15.2957507 8.94919744,15.0562091 9.10707433,14.9199975 C9.26495122,14.7837858 9.50242704,14.8024832 9.63746398,14.9617335 C10.1990455,15.6230626 10.9677206,16.0710695 11.8161651,16.2316952 Z M11.6788697,8.02229087 C11.8830657,7.98399344 12.0794211,8.1198612 12.1174735,8.32583346 C12.1554832,8.53180572 12.0207446,8.72986919 11.8165486,8.76825258 C10.9680189,8.92892126 10.1992586,9.3769711 9.63746398,10.0382143 C9.5501097,10.1412434 9.41490231,10.1894268 9.28276297,10.1646259 C9.15062363,10.1398249 9.04162253,10.0458222 8.99688009,9.91799213 C8.95213765,9.7901621 8.97834394,9.64797591 9.06569822,9.5449468 C9.73973241,8.75239203 10.6614693,8.21532539 11.6788697,8.02229087 Z M8.72561308,10.7458785 C8.92120145,10.8164129 9.02308638,11.0334746 8.95320295,11.2308074 C8.66680873,12.0520315 8.66680873,12.9472285 8.95320295,13.7684526 C9.02304377,13.9657424 8.92115884,14.1828472 8.72561308,14.2533815 C8.68500399,14.2678236 8.6422643,14.2752596 8.59922634,14.2753885 C8.44015632,14.2753885 8.29830148,14.1745086 8.24486622,14.023425 C7.89979549,13.0373629 7.89979549,11.9618971 8.24486622,10.975835 C8.27840175,10.8810156 8.34785906,10.8035181 8.43802572,10.7604066 C8.52819239,10.7172952 8.63165395,10.7120513 8.72561308,10.7458785 Z M10.5903501,14.0623672 C10.7195066,14.0247574 10.8586769,14.0595303 10.955491,14.1535761 C11.2075827,14.4006396 11.5156663,14.5818539 11.8530243,14.6813585 C12.0327185,14.734227 12.1465347,14.9123466 12.1200728,15.0992776 C12.0936108,15.2862086 11.9348817,15.4250421 11.7476878,15.4250421 C11.7120217,15.4250851 11.6765261,15.4198412 11.6423514,15.4094825 C11.1881091,15.2761936 10.7731549,15.0326976 10.4337516,14.7003138 C10.3369374,14.606311 10.2971806,14.4673055 10.3294804,14.335736 C10.3617801,14.2041665 10.4612362,14.0999339 10.5903501,14.0623672 Z M12.1088232,9.846985 C12.1672015,10.0481862 12.0528313,10.2589725 11.8533652,10.3179015 C11.5158368,10.4171912 11.2075401,10.5984055 10.955491,10.845684 C10.8853519,10.9137253 10.7917763,10.9516359 10.6944508,10.9515499 C10.5411334,10.951378 10.4032415,10.8573752 10.3459285,10.7138995 C10.2886156,10.5704239 10.3233869,10.4062306 10.4337942,10.2989033 C10.7732401,9.96664835 11.1879812,9.72306638 11.6420105,9.58934775 C11.8414339,9.53046169 12.050445,9.64582679 12.1088232,9.846985 Z M10.2574663,11.6838862 C10.3103903,11.7692065 10.3275202,11.8722356 10.3051064,11.9702358 C10.2646678,12.1437562 10.2438732,12.321317 10.2430209,12.4995655 C10.2434471,12.6776851 10.2641564,12.85516 10.3047229,13.0285085 C10.3272219,13.1266376 10.3101346,13.2297527 10.2572107,13.3151589 C10.2042868,13.4005652 10.1198727,13.4612565 10.0225899,13.4838224 C9.9947217,13.4903127 9.96621438,13.4936224 9.93757922,13.4937084 C9.76265759,13.4934934 9.61095941,13.371595 9.57158607,13.1996649 C9.46326675,12.739365 9.46326675,12.259852 9.57158607,11.7995521 C9.59408512,11.701466 9.65429566,11.6164036 9.73892279,11.5631053 C9.82354992,11.5098069 9.92573312,11.4926139 10.0229734,11.5153517 C10.1202136,11.5379605 10.2045424,11.5985659 10.2574663,11.6838862 Z M17.1905842,15.6807022 C17.3526371,15.8071138 17.3846812,16.0410677 17.2625556,16.2070232 C16.2978234,17.4753086 14.8731816,18.3051292 13.301955,18.5139813 C13.1672163,18.5351716 13.0316254,18.4811426 12.9476374,18.3727407 C12.8636495,18.2643817 12.8444316,18.118628 12.8973555,17.9918295 C12.9502794,17.8650311 13.0671211,17.7770889 13.2026694,17.761959 C14.5773275,17.5789824 15.8236388,16.8527497 16.6674812,15.7429839 C16.7959559,15.5819713 17.0284888,15.5543336 17.1905842,15.6807022 Z M13.3019976,6.48484895 C14.8732668,6.69357209 16.2979513,7.52339271 17.2625556,8.79180701 C17.3897094,8.95754762 17.3595402,9.19588572 17.1952289,9.32414557 C17.0309176,9.45240543 16.794635,9.4219738 16.6674812,9.25623318 C15.8236388,8.14646738 14.5773275,7.42023465 13.2026694,7.23725804 C13.0694221,7.21937731 12.9557763,7.13113419 12.9045143,7.00579715 C12.8532522,6.88041712 12.8721719,6.73702742 12.9541571,6.62957111 C13.0361423,6.5221148 13.1687503,6.46696822 13.3019976,6.48484895 Z M17.3694262,14.8066955 C17.331459,14.7136384 17.3317573,14.6091478 17.3701079,14.5162196 C17.8982392,13.2245518 17.8982392,11.7745363 17.3701079,10.4828685 C17.2901255,10.2894901 17.3807183,10.0672704 17.5724716,9.98659224 C17.7642249,9.90591404 17.9845282,9.99729489 18.0645106,10.1907163 C18.6698545,11.6692721 18.6698545,13.3294721 18.0645106,14.808028 C18.0262025,14.9009992 17.9528249,14.9748002 17.8605277,15.0131406 C17.768273,15.051524 17.664641,15.0513091 17.5725142,15.0125818 C17.48043,14.9738116 17.4073933,14.8997527 17.3694262,14.8066955 Z M12.8825692,16.6733406 C12.8452838,16.4677552 12.9798094,16.2704654 13.1834514,16.232082 C14.0320237,16.0715423 14.8008267,15.6234924 15.362536,14.9621203 C15.4498903,14.8590912 15.5850977,14.8109078 15.717237,14.8357087 C15.8493764,14.8605097 15.9583775,14.9545124 16.0031199,15.0823425 C16.0478623,15.2101725 16.0216561,15.3523587 15.9343018,15.4553878 C15.2606085,16.2481575 14.3389142,16.7853101 13.3215138,16.9780437 C13.2986738,16.982256 13.2755356,16.9844051 13.2523122,16.9844911 C13.0707857,16.9843622 12.9152524,16.8534804 12.8825692,16.6733406 Z M13.3211729,8.02229087 C14.3383603,8.21493854 15.2600971,8.75144642 15.934387,9.54339943 L15.934387,9.54378627 C16.0217413,9.64681539 16.0479902,9.78900158 16.0032051,9.9168316 C15.9584201,10.0446616 15.8494616,10.1386644 15.7173223,10.1634653 C15.5851829,10.1882662 15.4499755,10.1400828 15.3626212,10.0370537 C14.800571,9.37632636 14.0318533,8.92887828 13.1835366,8.76859644 C12.9792128,8.73025603 12.8443889,8.53210659 12.8823987,8.32600539 C12.9204085,8.11994716 13.1168491,7.98395046 13.3211729,8.02229087 Z M16.2743869,14.2533385 C16.0788412,14.1828042 15.9769562,13.9656995 16.0467971,13.7684097 C16.3331913,12.9471856 16.3331913,12.0519885 16.0467971,11.2307644 C15.9974951,11.1021177 16.0212726,10.9566219 16.1089251,10.8507559 C16.1965777,10.7448899 16.3342566,10.6953311 16.4685265,10.7212925 C16.602839,10.747297 16.7125645,10.8447383 16.7551338,10.9757921 C17.1002045,11.9618542 17.1002045,13.0373199 16.7551338,14.023382 C16.7016985,14.1745086 16.5598011,14.2753456 16.4007737,14.2753456 C16.3577357,14.2752166 16.314996,14.2677806 16.2743869,14.2533385 Z M13.2523548,15.4250421 C13.0651609,15.4250421 12.9064318,15.2861656 12.8799698,15.0992776 C12.8535079,14.9123466 12.9673241,14.734227 13.1470183,14.6813585 C13.4843763,14.5818539 13.7925025,14.4006396 14.0445516,14.1535761 C14.1942044,14.0082522 14.432362,14.0128083 14.5764327,14.1638059 C14.7205033,14.3148035 14.7159865,14.5549899 14.5662911,14.7003138 C14.2268877,15.0327406 13.8119335,15.2761936 13.3576912,15.4094825 C13.3235165,15.4198412 13.2880209,15.4250851 13.2523548,15.4250421 Z M13.1466348,10.3182454 C12.9472113,10.2593593 12.8328411,10.0485301 12.8912194,9.84737184 C12.9495976,9.64621363 13.1586087,9.53084853 13.3580321,9.58973459 C13.8120188,9.72336726 14.2267599,9.96682028 14.5662484,10.2989033 C14.6630626,10.392906 14.7028194,10.5319115 14.6705196,10.663481 C14.6382199,10.7950505 14.5387638,10.8992832 14.4096499,10.9368499 C14.280536,10.9744166 14.1413231,10.9396438 14.044509,10.845641 C13.7924599,10.5983625 13.4842058,10.4171482 13.1466348,10.3178586 L13.1466348,10.3182454 Z M14.7425763,13.3153309 C14.6896523,13.2300106 14.6725224,13.1269815 14.6949362,13.0289813 C14.7356731,12.8555468 14.7565103,12.677943 14.7570217,12.4996945 C14.7561694,12.321446 14.7353322,12.1438852 14.6949362,11.9703647 C14.648191,11.7661547 14.7744073,11.5623746 14.9768562,11.5152227 C15.1793051,11.4680709 15.3813278,11.5953852 15.428073,11.7995951 C15.5363924,12.259895 15.5363924,12.739408 15.428073,13.1997079 C15.3886997,13.371638 15.2370441,13.4934934 15.0620799,13.4937513 C15.0334873,13.4936224 15.0049374,13.4903127 14.9770693,13.4838654 C14.879829,13.4612565 14.7955002,13.4006512 14.7425763,13.3153309 Z M21.2196096,13.994312 C20.5596392,13.994312 20.0246146,13.4592875 20.0246146,12.7993171 C20.0246146,12.1393467 20.5596392,11.6043221 21.2196096,11.6043221 C21.87958,11.6043221 22.4146045,12.1393467 22.4146045,12.7993171 C22.4146045,13.4592875 21.87958,13.994312 21.2196096,13.994312 Z M21.2196096,12.4009704 C20.9995894,12.4009704 20.8212629,12.5792968 20.8212629,12.7993171 C20.8212629,13.0193373 20.9996345,13.1976638 21.2196096,13.1976638 C21.4396298,13.1976638 21.6179563,13.0192922 21.6179563,12.7993171 C21.6179563,12.5792968 21.4395847,12.4009704 21.2196096,12.4009704 Z" id="Combined-Shape"></path>
        </g>
    </g>
</svg>