<?xml version="1.0" encoding="UTF-8"?>
<svg width="27px" height="27px" viewBox="0 0 27 27" version="1.1" xmlns="http://www.w3.org/2000/svg" xmlns:xlink="http://www.w3.org/1999/xlink">
    <!-- Generator: Sketch 52.6 (67491) - http://www.bohemiancoding.com/sketch -->
    <title>Atoms/Icon/Amenities/TV</title>
    <desc>Created with Sketch.</desc>
    <g id="Atoms/Icon/Amenities/TV" stroke="none" stroke-width="1" fill="none" fill-rule="evenodd">
        <path d="M13.8484848,19.8032424 L13.8484848,22.4384848 L17.9431818,22.4384848 C18.1355455,22.4384848 18.2916667,22.5946061 18.2916667,22.7869697 C18.2916667,22.9793333 18.1355455,23.1354545 17.9431818,23.1354545 L9.05681818,23.1354545 C8.86445455,23.1354545 8.70833333,22.9793333 8.70833333,22.7869697 C8.70833333,22.5946061 8.86445455,22.4384848 9.05681818,22.4384848 L13.1515152,22.4384848 L13.1515152,19.8032424 L3.74242424,19.8032424 C2.782,19.8032424 2,19.0219394 2,18.0608182 L2,4.81909091 C2,3.8579697 2.782,3.07666667 3.74242424,3.07666667 L23.2575758,3.07666667 C24.218,3.07666667 25,3.8579697 25,4.81909091 L25,18.0608182 C25,19.0219394 24.218,19.8032424 23.2575758,19.8032424 L13.8484848,19.8032424 Z M3.74242424,3.77363636 C3.1660303,3.77363636 2.6969697,4.24269697 2.6969697,4.81909091 L2.6969697,18.0608182 C2.6969697,18.6372121 3.1660303,19.1062727 3.74242424,19.1062727 L23.2575758,19.1062727 C23.8339697,19.1062727 24.3030303,18.6372121 24.3030303,18.0608182 L24.3030303,4.81909091 C24.3030303,4.24269697 23.8339697,3.77363636 23.2575758,3.77363636 L3.74242424,3.77363636 Z" id="Combined-Shape" fill="#A1BCCF"></path>
    </g>
</svg>