<?xml version="1.0" encoding="UTF-8"?>
<svg width="27px" height="27px" viewBox="0 0 27 27" version="1.1" xmlns="http://www.w3.org/2000/svg" xmlns:xlink="http://www.w3.org/1999/xlink">
    <!-- Generator: Sketch 52.6 (67491) - http://www.bohemiancoding.com/sketch -->
    <title>Atoms/Icon/Amenities/wifi</title>
    <desc>Created with Sketch.</desc>
    <g id="Atoms/Icon/Amenities/wifi" stroke="none" stroke-width="1" fill="none" fill-rule="evenodd">
        <path d="M24.839,10.0696182 C25.0025091,10.2327091 25.0025091,10.4974182 24.839,10.6605091 C24.7574545,10.7420545 24.6504,10.7830364 24.5433455,10.7830364 C24.4362909,10.7830364 24.3292364,10.7420545 24.2476909,10.6605091 C21.3764545,7.78927273 17.5526,6.20812727 13.4807636,6.20812727 C9.40892727,6.20812727 5.58507273,7.78927273 2.71383636,10.6609273 C2.55032727,10.8244364 2.28603636,10.8244364 2.12252727,10.6609273 C1.95901818,10.4974182 1.95901818,10.2331273 2.12252727,10.0696182 C5.15183636,7.03989091 9.18561818,5.37218182 13.4807636,5.37218182 C17.7759091,5.37218182 21.8101091,7.04030909 24.839,10.0696182 Z M4.5806,12.5272727 C9.48838182,7.61949091 17.4735636,7.62032727 22.3805091,12.5272727 C22.5440182,12.6907818 22.5440182,12.9550727 22.3805091,13.1185818 C22.217,13.2820909 21.9527091,13.2820909 21.7892,13.1185818 C17.2076,8.53698182 9.75309091,8.53698182 5.17190909,13.1185818 C5.09036364,13.2001273 4.98330909,13.2411091 4.87625455,13.2411091 C4.7692,13.2411091 4.66214545,13.2001273 4.5806,13.1185818 C4.41709091,12.9550727 4.41709091,12.6907818 4.5806,12.5272727 Z M13.4807636,12.3215273 C15.9166727,12.3215273 18.2045455,13.2678727 19.9224364,14.9857636 C20.0859455,15.1492727 20.0859455,15.4135636 19.9224364,15.5770727 C19.8408909,15.6586182 19.7338364,15.6996 19.6267818,15.6996 C19.5197273,15.6996 19.4126727,15.6586182 19.3311273,15.5770727 C17.7708909,14.0172545 15.6933636,13.1578909 13.4807636,13.1578909 C11.2681636,13.1578909 9.19063636,14.0172545 7.6304,15.5770727 C7.46689091,15.7405818 7.2026,15.7405818 7.03909091,15.5770727 C6.87558182,15.4135636 6.87558182,15.1492727 7.03909091,14.9857636 C8.7574,13.2678727 11.0448545,12.3215273 13.4807636,12.3215273 Z M13.4807636,16.2557818 C14.9916545,16.2557818 16.2206909,17.4848182 16.2206909,18.9957091 C16.2206909,20.5066 14.9916545,21.7356364 13.4807636,21.7356364 C11.9702909,21.7356364 10.7412545,20.5066 10.7412545,18.9957091 C10.7412545,17.4848182 11.9702909,16.2557818 13.4807636,16.2557818 Z M13.4807636,20.8988545 C14.5304,20.8988545 15.3843273,20.0449273 15.3843273,18.9952909 C15.3843273,17.9456545 14.5299818,17.0917273 13.4807636,17.0917273 C12.4315455,17.0917273 11.5776182,17.9456545 11.5776182,18.9952909 C11.5776182,20.0449273 12.4311273,20.8988545 13.4807636,20.8988545 Z" id="Combined-Shape" fill="#A1BCCF"></path>
    </g>
</svg>